%FSTAX23Y23*%
%MOIN*%
%SFA1B1*%

%IPPOS*%
%ADD42C,0.008000*%
%ADD63C,0.002000*%
%ADD66C,0.004000*%
%LNtemperature_monitor_&_display_mechanical_15-1*%
%LPD*%
G54D42*
X02328Y00028D02*
Y00442D01*
X02132D02*
X02328D01*
X02132Y00028D02*
Y00442D01*
Y00028D02*
X02328D01*
G54D63*
X00987Y00261D02*
Y00328D01*
X00876Y00261D02*
Y00328D01*
X00987*
X00876Y00261D02*
X00987D01*
X00745Y00027D02*
X01075D01*
X00745Y00263D02*
X01075D01*
Y00027D02*
Y00263D01*
X00745Y00027D02*
Y00263D01*
X02225Y0179D02*
X02335D01*
X02225Y0185D02*
X02335D01*
X02225Y0179D02*
Y0185D01*
X02335Y0179D02*
Y0185D01*
X02225Y0186D02*
Y0192D01*
X02335Y0186D02*
Y0192D01*
X02225Y0186D02*
X02335D01*
X02225Y0192D02*
X02335D01*
X02005Y0179D02*
Y0185D01*
X02115Y0179D02*
Y0185D01*
X02005Y0179D02*
X02115D01*
X02005Y0185D02*
X02115D01*
X02005Y0186D02*
Y0192D01*
X02115Y0186D02*
Y0192D01*
X02005Y0186D02*
X02115D01*
X02005Y0192D02*
X02115D01*
X016Y01662D02*
Y01728D01*
X0171Y01662D02*
Y01728D01*
X016Y01662D02*
X0171D01*
X016Y01728D02*
X0171D01*
X01195Y01662D02*
Y01728D01*
X01305Y01662D02*
Y01728D01*
X01195Y01662D02*
X01305D01*
X01195Y01728D02*
X01305D01*
X00494Y01662D02*
Y01728D01*
X00383Y01662D02*
Y01728D01*
X00494*
X00383Y01662D02*
X00494D01*
X009D02*
Y01728D01*
X0079Y01662D02*
Y01728D01*
X009*
X0079Y01662D02*
X009D01*
X02895Y01175D02*
Y01235D01*
X02785Y01175D02*
Y01235D01*
X02895*
X02785Y01175D02*
X02895D01*
X02573Y01216D02*
X02747D01*
X02573Y01314D02*
X02747D01*
X02573Y01216D02*
Y01314D01*
X02747Y01216D02*
Y01314D01*
X02573Y01281D02*
X02747D01*
X02573Y01379D02*
X02747D01*
X02573Y01281D02*
Y01379D01*
X02747Y01281D02*
Y01379D01*
X02573Y01346D02*
X02747D01*
X02573Y01444D02*
X02747D01*
X02573Y01346D02*
Y01444D01*
X02747Y01346D02*
Y01444D01*
X02573Y01411D02*
X02747D01*
X02573Y01509D02*
X02747D01*
X02573Y01411D02*
Y01509D01*
X02747Y01411D02*
Y01509D01*
X00743Y00093D02*
Y00204D01*
X00676Y00093D02*
Y00204D01*
X00743*
X00676Y00093D02*
X00743D01*
X00026Y00664D02*
X00244D01*
X00026D02*
Y00996D01*
X00244*
Y00664D02*
Y00996D01*
X02286Y00818D02*
X02384D01*
X02286Y00992D02*
X02384D01*
X02286Y00818D02*
Y00992D01*
X02384Y00818D02*
Y00992D01*
X02098Y00675D02*
Y00785D01*
X02032Y00675D02*
Y00785D01*
X02098*
X02032Y00675D02*
X02098D01*
X01722Y00485D02*
X018Y00563D01*
X0168Y00527D02*
X01758Y00605D01*
X018Y00563*
X0168Y00527D02*
X01722Y00485D01*
X01657Y00515D02*
X01735Y00593D01*
X01615Y00557D02*
X01693Y00635D01*
X01735Y00593*
X01615Y00557D02*
X01657Y00515D01*
X02347Y00183D02*
X02413D01*
X02347Y00294D02*
X02413D01*
X02347Y00183D02*
Y00294D01*
X02413Y00183D02*
Y00294D01*
X00887Y01125D02*
X00965Y01203D01*
X00935Y01077D02*
X01013Y01155D01*
X00887Y01125D02*
X00935Y01077D01*
X00965Y01203D02*
X01013Y01155D01*
X01025Y01067D02*
X01103Y01145D01*
X00977Y01115D02*
X01055Y01193D01*
X01103Y01145*
X00977Y01115D02*
X01025Y01067D01*
X0008Y01062D02*
X0019D01*
X0008Y01128D02*
X0019D01*
Y01062D02*
Y01128D01*
X0008Y01062D02*
Y01128D01*
X02378Y00859D02*
X02452D01*
X02378Y00721D02*
X02452D01*
Y00859*
X02378Y00721D02*
Y00859D01*
X02519Y01552D02*
Y01725D01*
X02421Y01552D02*
Y01725D01*
Y01552D02*
X02519D01*
X02421Y01725D02*
X02519D01*
X02841D02*
X02939D01*
X02841Y01552D02*
X02939D01*
X02841D02*
Y01725D01*
X02939Y01552D02*
Y01725D01*
X02701D02*
X02799D01*
X02701Y01552D02*
X02799D01*
X02701D02*
Y01725D01*
X02799Y01552D02*
Y01725D01*
X02561D02*
X02659D01*
X02561Y01552D02*
X02659D01*
X02561D02*
Y01725D01*
X02659Y01552D02*
Y01725D01*
X02591Y01234D02*
Y01486D01*
Y01234D02*
X02949D01*
X02591Y01486D02*
X02949D01*
Y01234D02*
Y01486D01*
X015Y00513D02*
X01987Y01D01*
X01013D02*
X015Y01487D01*
X01987Y01*
X01013D02*
X015Y00513D01*
G54D66*
X00912Y00295D02*
X00951D01*
X00931Y00275D02*
Y00315D01*
X00389Y0033D02*
Y0039D01*
X00501Y0033D02*
Y0039D01*
X00389D02*
X00501D01*
X00389Y0033D02*
X00501D01*
X00425Y0036D02*
X00465D01*
X00445Y0034D02*
Y0038D01*
X0091Y00125D02*
Y00165D01*
X0089Y00145D02*
X0093D01*
X0228Y018D02*
Y0184D01*
X0226Y0182D02*
X023D01*
X0226Y0189D02*
X023D01*
X0228Y0187D02*
Y0191D01*
X0204Y0182D02*
X0208D01*
X0206Y018D02*
Y0184D01*
X0204Y0189D02*
X0208D01*
X0206Y0187D02*
Y0191D01*
X0172Y0162D02*
X0178D01*
X0172Y01732D02*
X0178D01*
Y0162D02*
Y01732D01*
X0172Y0162D02*
Y01732D01*
X0175Y01656D02*
Y01696D01*
X0173Y01676D02*
X0177D01*
X01635Y01695D02*
X01675D01*
X01655Y01675D02*
Y01715D01*
X0123Y01695D02*
X0127D01*
X0125Y01675D02*
Y01715D01*
X01315Y01618D02*
X01375D01*
X01315Y01731D02*
X01375D01*
Y01618D02*
Y01731D01*
X01315Y01618D02*
Y01731D01*
X01345Y01655D02*
Y01694D01*
X01325Y01675D02*
X01365D01*
X00419Y01695D02*
X00458D01*
X00439Y01675D02*
Y01715D01*
X00825Y01695D02*
X00865D01*
X00845Y01675D02*
Y01715D01*
X00905Y01619D02*
X00965D01*
X00905Y01731D02*
X00965D01*
Y01619D02*
Y01731D01*
X00905Y01619D02*
Y01731D01*
X00935Y01655D02*
Y01695D01*
X00915Y01675D02*
X00955D01*
X005Y01619D02*
X0056D01*
X005Y01731D02*
X0056D01*
Y01619D02*
Y01731D01*
X005Y01619D02*
Y01731D01*
X0053Y01655D02*
Y01695D01*
X0051Y01675D02*
X0055D01*
X0282Y01205D02*
X0286D01*
X0284Y01185D02*
Y01225D01*
X0266Y01245D02*
Y01285D01*
X0264Y01265D02*
X0268D01*
X0266Y0131D02*
Y0135D01*
X0264Y0133D02*
X0268D01*
X0266Y01375D02*
Y01415D01*
X0264Y01395D02*
X0268D01*
X0266Y0144D02*
Y0148D01*
X0264Y0146D02*
X0268D01*
X0069Y00148D02*
X0073D01*
X0071Y00129D02*
Y00168D01*
X02335Y00885D02*
Y00925D01*
X02315Y00905D02*
X02355D01*
X02045Y0073D02*
X02085D01*
X02065Y0071D02*
Y0075D01*
X01726Y00559D02*
X01754Y00531D01*
X01726D02*
X01754Y00559D01*
X01661Y00589D02*
X01689Y00561D01*
X01661D02*
X01689Y00589D01*
X0238Y00219D02*
Y00258D01*
X0236Y00239D02*
X024D01*
X01339Y01328D02*
X01392Y01381D01*
X01228Y01439D02*
X01281Y01492D01*
X01228Y01439D02*
X01339Y01328D01*
X01281Y01492D02*
X01392Y01381D01*
X01296Y01424D02*
X01324Y01396D01*
X01296D02*
X01324Y01424D01*
X00936Y01154D02*
X00964Y01126D01*
X00936D02*
X00964Y01154D01*
X01026Y01144D02*
X01054Y01116D01*
X01026D02*
X01054Y01144D01*
X00135Y01075D02*
Y01115D01*
X00115Y01095D02*
X00155D01*
X02415Y0077D02*
Y0081D01*
X02395Y0079D02*
X02435D01*
X0245Y01639D02*
X0249D01*
X0247Y01619D02*
Y01658D01*
X0289Y01619D02*
Y01658D01*
X0287Y01639D02*
X0291D01*
X0275Y01619D02*
Y01658D01*
X0273Y01639D02*
X0277D01*
X0261Y01619D02*
Y01658D01*
X0259Y01639D02*
X0263D01*
X0277Y0134D02*
Y0138D01*
X0275Y0136D02*
X0279D01*
X02857Y01708D02*
X02923D01*
X02857Y01572D02*
X02923D01*
Y01708*
X02857Y01572D02*
Y01708D01*
X0289Y0162D02*
Y0166D01*
X0287Y0164D02*
X0291D01*
X02717Y01708D02*
X02783D01*
X02717Y01572D02*
X02783D01*
Y01708*
X02717Y01572D02*
Y01708D01*
X0275Y0162D02*
Y0166D01*
X0273Y0164D02*
X0277D01*
X02577Y01707D02*
X02643D01*
X02577Y01571D02*
X02643D01*
Y01707*
X02577Y01571D02*
Y01707D01*
X0261Y01619D02*
Y01658D01*
X0259Y01639D02*
X0263D01*
X02437Y01707D02*
X02503D01*
X02437Y01571D02*
X02503D01*
Y01707*
X02437Y01571D02*
Y01707D01*
X0247Y01619D02*
Y01658D01*
X0245Y01639D02*
X0249D01*
X01486Y01014D02*
X01514Y00986D01*
X01486D02*
X01514Y01014D01*
M02*