%FSTAX23Y23*%
%MOIN*%
%SFA1B1*%

%IPPOS*%
%AMD71*
4,1,4,-0.035400,0.006400,0.006400,-0.035400,0.035400,-0.006400,-0.006400,0.035400,-0.035400,0.006400,0.0*
%
%AMD72*
4,1,4,0.002100,-0.035400,0.035400,-0.002100,-0.002100,0.035400,-0.035400,0.002100,0.002100,-0.035400,0.0*
%
%AMD73*
4,1,4,0.039600,-0.003500,-0.003500,0.039600,-0.039600,0.003500,0.003500,-0.039600,0.039600,-0.003500,0.0*
%
%AMD80*
4,1,4,-0.006000,0.027200,-0.027200,0.006000,0.006000,-0.027200,0.027200,-0.006000,-0.006000,0.027200,0.0*
1,1,0.030000,-0.016600,0.016600*
1,1,0.030000,0.016600,-0.016600*
%
%AMD81*
4,1,4,-0.027200,-0.006000,-0.006000,-0.027200,0.027200,0.006000,0.006000,0.027200,-0.027200,-0.006000,0.0*
1,1,0.030000,-0.016600,-0.016600*
1,1,0.030000,0.016600,0.016600*
%
%ADD44R,0.100000X0.250000*%
%ADD49R,0.067000X0.057000*%
%ADD50C,0.067000*%
%ADD51R,0.069000X0.069000*%
%ADD52C,0.069000*%
%ADD53C,0.068000*%
%ADD54C,0.008000*%
%ADD55C,0.067000*%
%ADD56R,0.067000X0.067000*%
%ADD57R,0.046000X0.046000*%
%ADD58C,0.046000*%
%ADD59C,0.250000*%
%ADD60C,0.248000*%
%ADD61C,0.033000*%
%ADD68R,0.039000X0.055000*%
%ADD69O,0.106000X0.036000*%
%ADD70R,0.061000X0.051000*%
G04~CAMADD=71~9~0.0~0.0~590.0~410.0~0.0~0.0~0~0.0~0.0~0.0~0.0~0~0.0~0.0~0.0~0.0~0~0.0~0.0~0.0~135.0~708.0~707.0*
%ADD71D71*%
G04~CAMADD=72~9~0.0~0.0~470.0~530.0~0.0~0.0~0~0.0~0.0~0.0~0.0~0~0.0~0.0~0.0~0.0~0~0.0~0.0~0.0~225.0~708.0~707.0*
%ADD72D72*%
G04~CAMADD=73~9~0.0~0.0~610.0~510.0~0.0~0.0~0~0.0~0.0~0.0~0.0~0~0.0~0.0~0.0~0.0~0~0.0~0.0~0.0~315.0~792.0~791.0*
%ADD73D73*%
%ADD74R,0.051000X0.061000*%
%ADD75R,0.063000X0.049000*%
%ADD76R,0.067000X0.032000*%
%ADD77R,0.091000X0.059000*%
%ADD78R,0.058000X0.038000*%
%ADD79R,0.055000X0.051000*%
G04~CAMADD=80~3~0.0~0.0~300.0~770.0~0.0~0.0~0~0.0~0.0~0.0~0.0~0~0.0~0.0~0.0~0.0~0~0.0~0.0~0.0~45.0~632.0~632.0*
%ADD80D80*%
G04~CAMADD=81~3~0.0~0.0~300.0~770.0~0.0~0.0~0~0.0~0.0~0.0~0.0~0~0.0~0.0~0.0~0.0~0~0.0~0.0~0.0~135.0~632.0~632.0*
%ADD81D81*%
%LNtemperature_monitor_&_display_soldermask_top-1*%
%LPD*%
G36*
X0144Y00615D02*
X0143Y00605D01*
X01105Y0093*
X01115Y0094*
X0144Y00615*
G37*
G36*
X01865Y00965D02*
X01535Y00635D01*
X0152Y0065*
X0185Y0098*
X01865Y00965*
G37*
G36*
X01445Y01395D02*
X0111Y0106D01*
X011Y0107*
X01435Y01405*
X01445Y01395*
G37*
G36*
X01875Y0102D02*
X0187Y01015D01*
X01515Y0137*
X0152Y01375*
X01875Y0102*
G37*
G54D44*
X00125Y01325D03*
G54D49*
X02335Y00864D03*
Y00946D03*
G54D50*
X0193Y01945D03*
X02186D03*
X0193Y01768D03*
X02186D03*
X0237Y01942D03*
X02626D03*
X0237Y01765D03*
X02626D03*
X01876Y00057D03*
Y00313D03*
X02054Y00057D03*
Y00313D03*
G54D51*
X00085Y0093D03*
G54D52*
X00085Y0083D03*
Y0073D03*
X00185Y0093D03*
Y0083D03*
Y0073D03*
G54D53*
X0256Y00105D03*
Y00223D03*
X0284Y00488D03*
Y0037D03*
X00534Y00234D03*
Y00116D03*
X00416Y00234D03*
Y00116D03*
X01631Y01766D03*
Y01884D03*
X01749Y01766D03*
Y01884D03*
X01226Y01766D03*
Y01884D03*
X01344Y01766D03*
Y01884D03*
X0284Y01085D03*
Y00967D03*
X02722Y01085D03*
Y00967D03*
X0284Y0078D03*
Y00662D03*
X02722Y0078D03*
Y00662D03*
X00821Y01766D03*
Y01884D03*
X00939Y01766D03*
Y01884D03*
X00533Y01883D03*
Y01765D03*
X00415Y01883D03*
Y01765D03*
G54D54*
X02442Y0026D03*
X02678D03*
X02958Y00333D03*
X02722D03*
X00652Y00079D03*
X00298D03*
X01513Y01921D03*
X01867D03*
X01108D03*
X01462D03*
X02958Y0093D03*
X02604D03*
X02958Y00625D03*
X02604D03*
X00703Y01921D03*
X01057D03*
X00651Y0192D03*
X00297D03*
G54D55*
X02525Y00905D03*
Y00805D03*
G54D56*
X02525Y00705D03*
G54D57*
X0015Y01225D03*
G54D58*
X001Y01225D03*
X0015Y01275D03*
X001D03*
X0015Y01325D03*
X001D03*
X0015Y01375D03*
X001D03*
X0015Y01425D03*
X001D03*
G54D59*
X0015Y0185D03*
X0285D03*
G54D60*
X0285Y0015D03*
X0015D03*
G54D61*
X01135Y0115D03*
X01098Y01112D03*
X01143Y01195D03*
X01865Y01155D03*
X0122Y01235D03*
X0118Y01225D03*
X0089Y0116D03*
X0183Y0119D03*
X02075Y0065D03*
X0292Y01205D03*
X02555Y01285D03*
Y0134D03*
Y0138D03*
X02556Y01439D03*
X0113Y0085D03*
X01085Y00895D03*
X02965Y017D03*
X0254D03*
X0268D03*
X0282D03*
X02385Y00085D03*
X01295Y00685D03*
X01015Y00295D03*
X0166Y0064D03*
X01906Y0088D03*
X02247Y01945D03*
X0132Y01335D03*
X02245Y01765D03*
X02265Y00945D03*
X002Y01245D03*
X01995Y00755D03*
X0126Y015D03*
G54D68*
X00415Y0036D03*
X00475D03*
G54D69*
X01006Y0007D03*
Y0012D03*
Y0017D03*
Y0022D03*
X00813Y0007D03*
Y0012D03*
Y0017D03*
Y0022D03*
G54D70*
X0071Y00177D03*
Y0012D03*
X02065Y00759D03*
Y00701D03*
X0238Y0021D03*
Y00267D03*
G54D71*
X01764Y00569D03*
X01716Y00521D03*
X01699Y00599D03*
X01651Y00551D03*
G54D72*
X01343Y01377D03*
X01277Y01443D03*
G54D73*
X0093Y0112D03*
X0097Y0116D03*
X0106Y0115D03*
X0102Y0111D03*
G54D74*
X00164Y01095D03*
X00106D03*
G54D75*
X02415Y00827D03*
Y00753D03*
G54D76*
X02136Y00805D03*
Y00755D03*
Y00705D03*
Y00655D03*
X02344D03*
Y00705D03*
Y00755D03*
Y00805D03*
G54D77*
X02321Y00135D03*
Y00335D03*
X02139D03*
Y00135D03*
G54D78*
X0292Y01285D03*
Y01335D03*
Y01385D03*
Y01435D03*
X0262D03*
Y01385D03*
Y01335D03*
Y01285D03*
G54D79*
X0289Y01681D03*
Y01599D03*
X0275Y01681D03*
Y01599D03*
X0261Y0168D03*
Y01597D03*
X0247Y0168D03*
Y01597D03*
G54D80*
X0112Y01046D03*
X01142Y01068D03*
X01165Y0109D03*
X01187Y01113D03*
X01209Y01135D03*
X01231Y01157D03*
X01254Y0118D03*
X01276Y01202D03*
X01298Y01224D03*
X0132Y01246D03*
X01343Y01269D03*
X01365Y01291D03*
X01387Y01313D03*
X0141Y01335D03*
X01432Y01358D03*
X01454Y0138D03*
X0188Y00954D03*
X01858Y00932D03*
X01835Y0091D03*
X01813Y00887D03*
X01791Y00865D03*
X01769Y00843D03*
X01746Y0082D03*
X01724Y00798D03*
X01702Y00776D03*
X0168Y00754D03*
X01657Y00731D03*
X01635Y00709D03*
X01613Y00687D03*
X0159Y00665D03*
X01568Y00642D03*
X01546Y0062D03*
G54D81*
X01546Y0138D03*
X01568Y01358D03*
X0159Y01335D03*
X01613Y01313D03*
X01635Y01291D03*
X01657Y01269D03*
X0168Y01246D03*
X01702Y01224D03*
X01724Y01202D03*
X01746Y0118D03*
X01769Y01157D03*
X01791Y01135D03*
X01813Y01113D03*
X01835Y0109D03*
X01858Y01068D03*
X0188Y01046D03*
X01454Y0062D03*
X01432Y00642D03*
X0141Y00665D03*
X01387Y00687D03*
X01365Y00709D03*
X01343Y00731D03*
X0132Y00754D03*
X01298Y00776D03*
X01276Y00798D03*
X01254Y0082D03*
X01231Y00843D03*
X01209Y00865D03*
X01187Y00887D03*
X01165Y0091D03*
X01142Y00932D03*
X0112Y00954D03*
M02*