%FSTAX23Y23*%
%MOIN*%
%SFA1B1*%

%IPPOS*%
%ADD20R,0.059000X0.049000*%
%ADD24R,0.043000X0.053000*%
%ADD60C,0.012000*%
%ADD62C,0.059000*%
%ADD63R,0.061000X0.061000*%
%ADD64C,0.061000*%
%ADD65C,0.060000*%
%ADD66C,0.059000*%
%ADD67R,0.059000X0.059000*%
%ADD68R,0.040000X0.040000*%
%ADD69C,0.040000*%
%ADD70C,0.242000*%
%ADD71C,0.240000*%
%ADD72C,0.025000*%
%ADD73R,0.033000X0.051000*%
%ADD74R,0.047000X0.031000*%
%ADD75R,0.049000X0.059000*%
%LNtemperature_monitor_&_display-1*%
%LPD*%
G36*
X02357Y01985D02*
X02348Y01981D01*
X02338Y01974*
X02331Y01965*
X02327Y01954*
X02325Y01942*
Y01941*
X02315Y01931*
X02283*
X02282*
X02278*
X02274Y01933*
X02272Y01936*
X02273Y01938*
X02274Y01945*
X02273Y01952*
X02271Y01959*
X02266Y01965*
X0226Y01969*
X02254Y01972*
X02247Y01973*
X02239Y01972*
X02233Y01969*
X0223Y01967*
X02228*
X02224Y01969*
X02218Y01977*
X02208Y01984*
X02206Y01985*
X02207Y0199*
X02356*
X02357Y01985*
G37*
G36*
X02166D02*
X02163Y01984D01*
X02154Y01977*
X02147Y01967*
X02143Y01957*
X02141Y01945*
X02143Y01933*
Y01932*
X0213Y01919*
X02125Y01921*
Y01931*
X02062*
X02058*
X01995*
Y01904*
X01958*
X01957Y01909*
X01962Y01913*
X01969Y01923*
X01973Y01933*
X01975Y01945*
X01973Y01957*
X01969Y01967*
X01962Y01977*
X01952Y01984*
X0195Y01985*
X01951Y0199*
X02165*
X02166Y01985*
G37*
G36*
X02215Y01905D02*
Y01849D01*
X0222*
Y0183*
X02247*
X02273*
Y01846*
X02274Y01847*
X02281*
X02282Y01846*
Y01779*
X02322*
X02325Y01778*
X02326Y01774*
X02325Y01765*
X02327Y01753*
X02331Y01743*
X02338Y01733*
X02348Y01726*
X02349*
Y01669*
X01865Y01186*
X01862*
X01858Y0119*
X01857Y01197*
X01854Y01204*
X01851Y01207*
Y01659*
X01917Y01725*
X01918Y01724*
X0193Y01723*
X01942Y01724*
X01952Y01729*
X01962Y01736*
X01969Y01745*
X01973Y01756*
X01975Y01768*
X01973Y01779*
X01969Y0179*
X01966Y01794*
X01968Y01799*
X02*
Y01784*
X02017*
Y0182*
X02027*
Y0183*
X02053*
Y01849*
X02058*
X02062Y01846*
Y01779*
X02125*
Y01792*
X0213Y01794*
X02143Y0178*
Y01779*
X02141Y01768*
X02143Y01756*
X02147Y01745*
X02154Y01736*
X02163Y01729*
X02174Y01724*
X02186Y01723*
X02198Y01724*
X02208Y01729*
X02218Y01736*
X02225Y01745*
Y01746*
X02231Y01747*
X02235Y01745*
Y01765*
X02245*
Y01775*
X02267*
Y01784*
X02273*
Y0181*
X02247*
X0222*
Y01804*
X02215Y01802*
X02208Y01807*
X02198Y01811*
X02186Y01813*
X02174Y01811*
X02173*
X02149Y01835*
X02142Y0184*
X02134Y01841*
X02125*
Y01869*
X02131*
X02139Y0187*
X02146Y01875*
X02173Y01902*
X02174*
X02186Y019*
X02198Y01902*
X02208Y01906*
X0221Y01908*
X02215Y01905*
G37*
G36*
X02829Y01985D02*
D01*
X02808Y0198*
X02788Y01972*
X0277Y0196*
X02754Y01946*
X0274Y0193*
X02728Y01912*
X0272Y01892*
X02715Y01871*
X02714Y0185*
X02715Y01829*
X0272Y01808*
X02728Y01788*
X0274Y0177*
X02754Y01754*
X0277Y0174*
X02788Y01728*
X02793Y01726*
X02792Y01721*
X0277*
X02762Y0172*
X02705*
X027Y01718*
Y0172*
X02694Y01724*
X02687Y01727*
X0268Y01728*
X02673Y01727*
X02666Y01724*
X02663Y01721*
X02652*
X02649Y01726*
X02658Y01733*
X02665Y01743*
X02669Y01753*
X02671Y01765*
X02669Y01777*
X02665Y01787*
X02658Y01797*
X02648Y01804*
X02638Y01808*
X02626Y0181*
X02614Y01808*
X02603Y01804*
X02594Y01797*
X02587Y01787*
X02583Y01777*
X02581Y01765*
X02583Y01753*
X02587Y01743*
X02594Y01733*
X02603Y01726*
X02607Y01725*
X02606Y0172*
X02565*
X0256Y01718*
Y0172*
X02554Y01724*
X02547Y01727*
X0254Y01728*
X02533Y01727*
X02526Y01724*
X02523Y01721*
X0249*
X02482Y0172*
X02425*
Y0164*
X02515*
Y01679*
X02523*
X02526Y01676*
X02533Y01673*
X0254Y01672*
X02547Y01673*
X02554Y01676*
X0256Y0168*
Y01682*
X02565Y0168*
Y0164*
X02655*
Y01679*
X02663*
X02666Y01676*
X02673Y01673*
X0268Y01672*
X02687Y01673*
X02694Y01676*
X027Y0168*
Y01682*
X02705Y0168*
Y0164*
X02795*
Y01679*
X02803*
X02806Y01676*
X02813Y01673*
X0282Y01672*
X02827Y01673*
X02834Y01676*
X0284Y0168*
Y01682*
X02845Y0168*
Y0164*
X02935*
Y01679*
X02948*
X02951Y01676*
X02958Y01673*
X02965Y01672*
X02972Y01673*
X02979Y01676*
X02985Y0168*
Y01681*
X0299Y01679*
Y00954*
X02985Y00953*
X02983Y00955*
X02976Y0096*
X02967Y00964*
X02958Y00965*
X02949Y00964*
X0294Y0096*
X02933Y00955*
X02928Y00948*
X02924Y00939*
X02923Y0093*
X02924Y00921*
X02928Y00912*
X02933Y00905*
X0294Y00899*
X02949Y00896*
X02958Y00895*
X02967Y00896*
X02976Y00899*
X02983Y00905*
X02985Y00907*
X0299Y00905*
Y00649*
X02985Y00648*
X02983Y0065*
X02976Y00655*
X02967Y00659*
X02958Y0066*
X02949Y00659*
X0294Y00655*
X02933Y0065*
X02928Y00643*
X02924Y00634*
X02923Y00625*
X02924Y00616*
X02928Y00607*
X02933Y006*
X0294Y00594*
X02949Y00591*
X02958Y0059*
X02967Y00591*
X02976Y00594*
X02983Y006*
X02985Y00602*
X0299Y006*
Y00357*
X02985Y00356*
X02983Y00358*
X02976Y00364*
X02967Y00367*
X02958Y00368*
X02949Y00367*
X0294Y00364*
X02933Y00358*
X02928Y00351*
X02924Y00342*
X02923Y00333*
X02924Y00324*
X02928Y00315*
X02933Y00308*
X0294Y00302*
X02949Y00299*
X02958Y00298*
X02967Y00299*
X02976Y00302*
X02983Y00308*
X02985Y0031*
X0299Y00309*
Y00158*
X02985*
X02984Y00171*
X02979Y00192*
X02971Y00211*
X0296Y0023*
X02946Y00246*
X0293Y0026*
X02911Y00271*
X02892Y00279*
X02871Y00284*
X0285Y00285*
X02829Y00284*
X02808Y00279*
X02789Y00271*
X0277Y0026*
X02754Y00246*
X0274Y0023*
X02729Y00211*
X02721Y00192*
X02716Y00171*
X02715Y0015*
X02716Y00129*
X02721Y00108*
X02729Y00089*
X0274Y0007*
X02754Y00054*
X0277Y0004*
X02789Y00029*
X02808Y00021*
X02829Y00016*
X02842Y00015*
Y0001*
X01893*
X01892Y00015*
X01899Y00018*
X01908Y00025*
X01915Y00035*
X0192Y00045*
X01921Y00057*
X0192Y00069*
X01915Y00079*
X01908Y00089*
X01899Y00096*
X01888Y001*
X01876Y00102*
X01865Y001*
X01854Y00096*
X01845Y00089*
X01838Y00079*
X01833Y00069*
X01832Y00057*
X01833Y00045*
X01838Y00035*
X01845Y00025*
X01854Y00018*
X01861Y00015*
X0186Y0001*
X00158*
Y00015*
X00171Y00016*
X00192Y00021*
X00211Y00029*
X0023Y0004*
X00246Y00054*
X00259Y00069*
X00261Y0007*
X00262Y00069*
X00264Y00068*
X00267Y00061*
X00273Y00054*
X0028Y00048*
X00289Y00045*
X00298Y00044*
X00307Y00045*
X00315Y00048*
X00323Y00054*
X00328Y00061*
X00332Y0007*
X00333Y00079*
X00332Y00088*
X00328Y00097*
X00323Y00104*
X00315Y00109*
X00307Y00113*
X00298Y00114*
X00289Y00113*
X00285Y00111*
X0028Y00115*
X00284Y00129*
X00285Y0015*
X00284Y00171*
X00279Y00192*
X00271Y00211*
X0026Y0023*
X00246Y00246*
X0023Y0026*
X00211Y00271*
X00192Y00279*
X00171Y00284*
X0015Y00285*
X00129Y00284*
X00108Y00279*
X00089Y00271*
X0007Y0026*
X00054Y00246*
X0004Y0023*
X00029Y00211*
X00021Y00192*
X00016Y00171*
X00015Y00158*
X0001*
Y01829*
X00015*
X0002Y01808*
X00028Y01788*
X0004Y0177*
X00054Y01754*
X0007Y0174*
X00088Y01728*
X00108Y0172*
X00129Y01715*
X0015Y01714*
X00171Y01715*
X00192Y0172*
X00212Y01728*
X0023Y0174*
X00246Y01754*
X0026Y0177*
X00272Y01788*
X0028Y01808*
X00285Y01829*
X00286Y0185*
X00285Y01871*
X00282Y01884*
X00286Y01887*
X00288Y01886*
X00297Y01885*
X00306Y01886*
X00315Y0189*
X00322Y01895*
X00327Y01902*
X00331Y01911*
X00332Y0192*
X00331Y01929*
X00327Y01938*
X00322Y01945*
X00315Y01951*
X00306Y01954*
X00297Y01955*
X00288Y01954*
X00279Y01951*
X00272Y01945*
X00266Y01938*
X00264Y01933*
X00259Y01932*
X00246Y01946*
X0023Y0196*
X00212Y01972*
X00192Y0198*
X00171Y01985*
Y0199*
X01909*
X0191Y01985*
X01908Y01984*
X01898Y01977*
X01891Y01967*
X01887Y01957*
Y01956*
X01881Y01953*
X01876Y01955*
X01867Y01956*
X01858Y01955*
X0185Y01952*
X01842Y01946*
X01837Y01939*
X01833Y0193*
X01832Y01921*
X01833Y01912*
X01834Y01909*
X01832Y01904*
X01789*
X01788Y01907*
X01781Y01916*
X01772Y01923*
X01761Y01928*
X01749Y01929*
X01737Y01928*
X01726Y01923*
X01717Y01916*
X0171Y01907*
X01705Y01896*
X01704Y01884*
X01705Y01872*
X0171Y01861*
X01717Y01852*
X01724Y01846*
X01722Y01841*
X01683*
X01675Y0184*
X01668Y01835*
X01641Y01808*
Y01766*
X01631*
Y01756*
X01592*
X01596Y01746*
X01602Y01737*
X01604*
X01602Y01732*
X01595*
Y01705*
X01626*
Y01695*
X01636*
Y01658*
X01647*
Y01653*
X01696*
X01699*
X017*
X01705*
X0171Y01648*
X01683Y01621*
X01384*
Y01673*
Y01735*
X01383*
X0138Y01739*
X01383Y01743*
X01388Y01754*
X01389Y01766*
X01388Y01778*
X01383Y01789*
X01376Y01798*
X01367Y01805*
X01356Y0181*
X01344Y01811*
X01332Y0181*
X01321Y01805*
X01312Y01798*
X01305Y01789*
X013Y01778*
X01299Y01766*
X013Y01754*
X01305Y01743*
X01306Y01741*
X01304Y01737*
X0126*
X01258Y01742*
X01261Y01746*
X01265Y01756*
X01226*
X01187*
X01191Y01746*
X01197Y01737*
X01199*
X01197Y01732*
X0119*
Y01705*
X01221*
Y01695*
X01231*
Y01658*
X01242*
Y01653*
X01239Y0165*
X01055Y01465*
X0105Y01458*
X01049Y0145*
Y01331*
X01044Y01329*
X00964Y01408*
Y01615*
X00974*
Y01674*
Y01735*
X00976Y0174*
X00978Y01743*
X00983Y01754*
X00984Y01766*
X00983Y01778*
X00978Y01789*
X00971Y01798*
X00962Y01805*
X00951Y0181*
X00939Y01811*
X00927Y0181*
X00916Y01805*
X00907Y01798*
X009Y01789*
X00895Y01778*
X00894Y01766*
X00895Y01754*
X009Y01743*
X00901Y01741*
X00899Y01737*
X00855*
X00853Y01742*
X00856Y01746*
X0086Y01756*
X00821*
X00782*
X00786Y01746*
X00792Y01737*
X00794*
X00792Y01732*
X00785*
Y01705*
X00816*
Y01695*
X00826*
Y01658*
X00837*
Y01653*
X00881*
X00894Y0164*
X00896Y01639*
Y01615*
X00921*
Y01401*
X00916Y01399*
X00655Y0166*
X00648Y01665*
X0064Y01666*
X00569*
Y01735*
X0057Y0174*
X00572Y01742*
X00577Y01753*
X00578Y01765*
X00577Y01777*
X00572Y01788*
X00565Y01797*
X00556Y01804*
X00545Y01809*
X00533Y0181*
X00521Y01809*
X0051Y01804*
X00501Y01797*
X00494Y01788*
X00489Y01777*
X00488Y01765*
X00489Y01753*
X00494Y01742*
X00495Y01741*
X00493Y01737*
X00449*
X00447Y01741*
X0045Y01745*
X00454Y01755*
X00415*
X00376*
X0038Y01745*
X00386Y01737*
Y01736*
X00385Y01732*
X00379*
Y01705*
X0041*
Y01695*
X0042*
Y01658*
X00431*
Y01653*
X00474*
X00488Y0164*
X00491Y01638*
Y01615*
X00569*
Y01624*
X00631*
X01108Y01147*
Y01143*
X0111Y01139*
X01108Y01135*
Y01112*
Y01091*
X01114*
X01116Y01086*
X01106Y01076*
X01004*
X00917Y01163*
Y01167*
X00914Y01174*
X0091Y0118*
X00904Y01184*
X00897Y01187*
X0089Y01188*
X00883Y01187*
X00876Y01184*
X0087Y0118*
X00866Y01174*
X00863Y01167*
X00862Y0116*
X00863Y01153*
X00866Y01146*
X0087Y0114*
X00876Y01136*
X00883Y01133*
X00887*
X0098Y0104*
X00987Y01035*
X00995Y01034*
X01115*
X01123Y01035*
X0113Y0104*
X01362Y01271*
X01366Y01278*
X01368Y01286*
Y0137*
X01366Y01378*
X01362Y01385*
X01281Y01465*
Y01483*
X01284Y01486*
X01287Y01493*
X01288Y015*
X01287Y01507*
X01284Y01514*
X0128Y0152*
X01274Y01524*
X01267Y01527*
X0126Y01528*
X01253Y01527*
X01246Y01524*
X0124Y0152*
X01236Y01514*
X01233Y01507*
X01232Y015*
X01233Y01493*
X01236Y01486*
X01239Y01483*
Y01456*
X0124Y01448*
X01245Y01441*
X01324Y01362*
X01322Y01358*
X01321*
X0132*
X01311Y01356*
X01304Y01351*
X013Y01345*
X0132*
Y01325*
X01299*
Y01306*
X01245Y01253*
X0124Y01254*
Y01255*
X01234Y01259*
X01227Y01262*
X01223*
X01121Y01364*
Y01436*
X01264Y01579*
X01692*
X017Y0158*
X01707Y01585*
X01738Y01616*
X01789*
Y01675*
Y01736*
X01786Y01741*
X01788Y01743*
X01793Y01754*
X01794Y01766*
X01793Y01778*
X01788Y01789*
X01785Y01794*
X01787Y01799*
X01892*
X01894Y01794*
X01891Y0179*
X01887Y01779*
X01885Y01768*
X01887Y01756*
Y01755*
X01815Y01683*
X0181Y01676*
X01809Y01668*
Y01207*
X01806Y01204*
X01803Y01197*
X01802Y0119*
X01803Y01183*
X01806Y01176*
X0181Y0117*
X01816Y01166*
X01823Y01163*
X0183Y01162*
X01833Y01163*
X01838Y01158*
X01837Y01155*
X01838Y01148*
X01841Y01141*
X01845Y01135*
X01851Y01131*
X01858Y01128*
X01865Y01127*
X01872Y01128*
X01879Y01131*
X01885Y01135*
X01889Y01141*
X01892Y01148*
Y01152*
X02385Y01645*
X0239Y01652*
X02391Y0166*
Y01726*
X02392*
X02402Y01733*
X02409Y01743*
X02413Y01753*
X02415Y01765*
X02413Y01777*
X02409Y01787*
X02402Y01797*
X02392Y01804*
X02382Y01808*
X0237Y0181*
X02358Y01808*
X02357*
X0235Y01816*
X02345Y01819*
Y01849*
Y01899*
X02349Y01903*
X02358Y01899*
X0237Y01897*
X02382Y01899*
X02392Y01903*
X02402Y0191*
X02409Y0192*
X02413Y01931*
X02415Y01942*
X02413Y01954*
X02409Y01965*
X02402Y01974*
X02392Y01981*
X02383Y01985*
X02384Y0199*
X02612*
X02613Y01985*
X02603Y01981*
X02594Y01974*
X02587Y01965*
X02583Y01954*
X02581Y01942*
X02583Y01931*
X02587Y0192*
X02594Y0191*
X02603Y01903*
X02614Y01899*
X02626Y01897*
X02638Y01899*
X02648Y01903*
X02658Y0191*
X02665Y0192*
X02669Y01931*
X02671Y01942*
X02669Y01954*
X02665Y01965*
X02658Y01974*
X02648Y01981*
X02639Y01985*
X0264Y0199*
X02829*
Y01985*
G37*
G36*
X01995Y01849D02*
X02D01*
Y01841*
X01776*
X01774Y01846*
X01781Y01852*
X01788Y01861*
Y01862*
X01995*
Y01849*
G37*
G36*
X0299Y01829D02*
Y01721D01*
X02985Y01719*
Y0172*
X02979Y01724*
X02972Y01727*
X02965Y01728*
X02958Y01727*
X02951Y01724*
X02948Y01721*
X0291*
X02906*
X02905Y01725*
X02912Y01728*
X0293Y0174*
X02946Y01754*
X0296Y0177*
X02972Y01788*
X0298Y01808*
X02985Y01829*
X0299*
G37*
%LNtemperature_monitor_&_display-2*%
%LPC*%
G36*
X02053Y0181D02*
X02037D01*
Y01784*
X02053*
Y0181*
G37*
G36*
X02265Y01755D02*
X02255D01*
Y01745*
X02261Y01749*
X02265Y01755*
G37*
G36*
X01513Y01956D02*
X01504Y01955D01*
X01495Y01952*
X01488Y01946*
X01487*
X0148Y01952*
X01471Y01955*
X01462Y01956*
X01453Y01955*
X01445Y01952*
X01437Y01946*
X01432Y01939*
X01428Y0193*
X01427Y01921*
X01428Y01912*
X01432Y01903*
X01437Y01896*
X01445Y0189*
X01453Y01887*
X01462Y01886*
X01471Y01887*
X0148Y0189*
X01487Y01896*
X01488*
X01495Y0189*
X01504Y01887*
X01513Y01886*
X01522Y01887*
X0153Y0189*
X01538Y01896*
X01543Y01903*
X01547Y01912*
X01548Y01921*
X01547Y0193*
X01543Y01939*
X01538Y01946*
X0153Y01952*
X01522Y01955*
X01513Y01956*
G37*
G36*
X01108D02*
X01099Y01955D01*
X0109Y01952*
X01083Y01946*
X01082*
X01075Y01952*
X01066Y01955*
X01057Y01956*
X01048Y01955*
X0104Y01952*
X01032Y01946*
X01027Y01939*
X01023Y0193*
X01022Y01921*
X01023Y01912*
X01027Y01903*
X01032Y01896*
X0104Y0189*
X01048Y01887*
X01057Y01886*
X01066Y01887*
X01075Y0189*
X01082Y01896*
X01083*
X0109Y0189*
X01099Y01887*
X01108Y01886*
X01117Y01887*
X01125Y0189*
X01133Y01896*
X01138Y01903*
X01142Y01912*
X01143Y01921*
X01142Y0193*
X01138Y01939*
X01133Y01946*
X01125Y01952*
X01117Y01955*
X01108Y01956*
G37*
G36*
X00703D02*
X00694Y01955D01*
X00685Y01952*
X00678Y01946*
X00677Y01945*
X00676*
X00669Y01951*
X0066Y01954*
X00651Y01955*
X00642Y01954*
X00634Y01951*
X00626Y01945*
X00621Y01938*
X00617Y01929*
X00616Y0192*
X00617Y01911*
X00621Y01902*
X00626Y01895*
X00634Y0189*
X00642Y01886*
X00651Y01885*
X0066Y01886*
X00669Y0189*
X00676Y01895*
X00677Y01896*
X00678*
X00685Y0189*
X00694Y01887*
X00703Y01886*
X00712Y01887*
X0072Y0189*
X00728Y01896*
X00733Y01903*
X00737Y01912*
X00738Y01921*
X00737Y0193*
X00733Y01939*
X00728Y01946*
X0072Y01952*
X00712Y01955*
X00703Y01956*
G37*
G36*
X01631Y01929D02*
X01619Y01928D01*
X01608Y01923*
X01599Y01916*
X01592Y01907*
X01587Y01896*
X01586Y01884*
X01587Y01872*
X01592Y01861*
X01599Y01852*
X01608Y01845*
X01619Y0184*
X01631Y01839*
X01643Y0184*
X01654Y01845*
X01663Y01852*
X0167Y01861*
X01675Y01872*
X01676Y01884*
X01675Y01896*
X0167Y01907*
X01663Y01916*
X01654Y01923*
X01643Y01928*
X01631Y01929*
G37*
G36*
X01344D02*
X01332Y01928D01*
X01321Y01923*
X01312Y01916*
X01305Y01907*
X013Y01896*
X01299Y01884*
X013Y01872*
X01305Y01861*
X01312Y01852*
X01321Y01845*
X01332Y0184*
X01344Y01839*
X01356Y0184*
X01367Y01845*
X01376Y01852*
X01383Y01861*
X01388Y01872*
X01389Y01884*
X01388Y01896*
X01383Y01907*
X01376Y01916*
X01367Y01923*
X01356Y01928*
X01344Y01929*
G37*
G36*
X01226D02*
X01214Y01928D01*
X01203Y01923*
X01194Y01916*
X01187Y01907*
X01182Y01896*
X01181Y01884*
X01182Y01872*
X01187Y01861*
X01194Y01852*
X01203Y01845*
X01214Y0184*
X01226Y01839*
X01238Y0184*
X01249Y01845*
X01258Y01852*
X01265Y01861*
X0127Y01872*
X01271Y01884*
X0127Y01896*
X01265Y01907*
X01258Y01916*
X01249Y01923*
X01238Y01928*
X01226Y01929*
G37*
G36*
X00939D02*
X00927Y01928D01*
X00916Y01923*
X00907Y01916*
X009Y01907*
X00895Y01896*
X00894Y01884*
X00895Y01872*
X009Y01861*
X00907Y01852*
X00916Y01845*
X00927Y0184*
X00939Y01839*
X00951Y0184*
X00962Y01845*
X00971Y01852*
X00978Y01861*
X00983Y01872*
X00984Y01884*
X00983Y01896*
X00978Y01907*
X00971Y01916*
X00962Y01923*
X00951Y01928*
X00939Y01929*
G37*
G36*
X00821D02*
X00809Y01928D01*
X00798Y01923*
X00789Y01916*
X00782Y01907*
X00777Y01896*
X00776Y01884*
X00777Y01872*
X00782Y01861*
X00789Y01852*
X00798Y01845*
X00809Y0184*
X00821Y01839*
X00833Y0184*
X00844Y01845*
X00853Y01852*
X0086Y01861*
X00865Y01872*
X00866Y01884*
X00865Y01896*
X0086Y01907*
X00853Y01916*
X00844Y01923*
X00833Y01928*
X00821Y01929*
G37*
G36*
X00533Y01928D02*
X00521Y01927D01*
X0051Y01922*
X00501Y01915*
X00494Y01906*
X00489Y01895*
X00488Y01883*
X00489Y01871*
X00494Y0186*
X00501Y01851*
X0051Y01844*
X00521Y01839*
X00533Y01838*
X00545Y01839*
X00556Y01844*
X00565Y01851*
X00572Y0186*
X00577Y01871*
X00578Y01883*
X00577Y01895*
X00572Y01906*
X00565Y01915*
X00556Y01922*
X00545Y01927*
X00533Y01928*
G37*
G36*
X00415D02*
X00403Y01927D01*
X00392Y01922*
X00383Y01915*
X00376Y01906*
X00371Y01895*
X0037Y01883*
X00371Y01871*
X00376Y0186*
X00383Y01851*
X00392Y01844*
X00403Y01839*
X00415Y01838*
X00427Y01839*
X00438Y01844*
X00447Y01851*
X00454Y0186*
X00459Y01871*
X0046Y01883*
X00459Y01895*
X00454Y01906*
X00447Y01915*
X00438Y01922*
X00427Y01927*
X00415Y01928*
G37*
G36*
X01236Y01805D02*
Y01776D01*
X01265*
X01261Y01786*
X01254Y01794*
X01246Y01801*
X01236Y01805*
G37*
G36*
X00831D02*
Y01776D01*
X0086*
X00856Y01786*
X00849Y01794*
X00841Y01801*
X00831Y01805*
G37*
G36*
X00811D02*
D01*
X00801Y01801*
X00792Y01794*
X00786Y01786*
X00782Y01776*
X00811*
Y01805*
G37*
G36*
X01621D02*
D01*
X01611Y01801*
X01602Y01794*
X01596Y01786*
X01592Y01776*
X01621*
Y01805*
G37*
G36*
X01216D02*
D01*
X01206Y01801*
X01197Y01794*
X01191Y01786*
X01187Y01776*
X01216*
Y01805*
G37*
G36*
X00425Y01804D02*
Y01775D01*
X00454*
X0045Y01785*
X00444Y01794*
X00435Y018*
X00425Y01804*
G37*
G36*
X00405D02*
D01*
X00395Y018*
X00386Y01794*
X0038Y01785*
X00376Y01775*
X00405*
Y01804*
G37*
G36*
X01616Y01685D02*
X01595D01*
Y01658*
X01616*
Y01685*
G37*
G36*
X01211D02*
X0119D01*
Y01658*
X01211*
Y01685*
G37*
G36*
X00806D02*
X00785D01*
Y01658*
X00806*
Y01685*
G37*
G36*
X004D02*
X00379D01*
Y01658*
X004*
Y01685*
G37*
G36*
X0288Y01632D02*
X0285D01*
Y01619*
X0279*
Y01632*
X0276*
Y01597*
Y01563*
X0279*
Y01576*
X0285*
Y01563*
X0288*
Y01597*
X0289*
X0288*
Y01632*
G37*
G36*
X0274D02*
X0271D01*
Y01619*
X0265*
Y01632*
X0262*
Y01597*
Y01563*
X0265*
Y01576*
X02692*
X02694Y01571*
X02686Y01564*
X02682Y01557*
X0268Y01549*
Y015*
X02667*
Y0147*
X02701*
X02736*
Y015*
X02723*
Y0154*
X0274Y01557*
Y01597*
Y01632*
G37*
G36*
X026D02*
X0257D01*
Y01619*
X0251*
Y01632*
X0248*
Y01597*
Y01563*
X0251*
Y01576*
X0257*
Y01563*
X026*
Y01597*
Y01632*
G37*
G36*
X0293D02*
X029D01*
Y01607*
X0293*
Y01632*
G37*
G36*
X0246D02*
X0243D01*
Y01607*
X0246*
Y01632*
G37*
G36*
X0293Y01587D02*
X029D01*
Y01563*
X0293*
Y01587*
G37*
G36*
X0246D02*
X0243D01*
Y01563*
X0246*
Y01587*
G37*
G36*
X02658Y01505D02*
X02579D01*
Y0146*
X02574*
X0257Y01463*
X02564Y01465*
X02556Y01466*
X02549Y01465*
X02543Y01463*
X02537Y01458*
X02532Y01452*
X0253Y01446*
X02529Y01439*
X0253Y01431*
X02532Y01425*
X02537Y01419*
X02543Y01415*
X02549Y01412*
X02548Y01407*
X02541Y01404*
X02535Y014*
X02531Y01394*
X02528Y01387*
X02527Y0138*
X02528Y01373*
X02531Y01366*
X02535Y0136*
X02531Y01354*
X02528Y01347*
X02527Y0134*
X02528Y01333*
X02531Y01326*
X02535Y0132*
X02541Y01316*
X02543Y01315*
Y0131*
X02541Y01309*
X02535Y01305*
X02531Y01299*
X02528Y01292*
X02527Y01285*
X02528Y01278*
X02531Y01271*
X02535Y01265*
X02541Y01261*
X02548Y01258*
X02555Y01257*
X02562Y01258*
X02569Y01261*
X02572Y01264*
X02579*
Y0122*
X02658*
Y01285*
Y0135*
Y01415*
Y01505*
G37*
G36*
X0015Y0146D02*
X00141Y01459D01*
X00132Y01456*
X00125Y0145*
X00122Y01446*
X00121*
X00115Y01451*
X0011Y01453*
Y01425*
X001*
Y01415*
X00072*
X00074Y0141*
X00079Y01404*
Y01403*
X00075Y014*
X00069Y01393*
X00066Y01384*
X00065Y01375*
X00066Y01366*
X00069Y01357*
X00072Y01354*
X00075Y0135*
X00072Y01346*
X00069Y01343*
X00066Y01334*
X00065Y01325*
Y01321*
X00025Y01281*
X00021Y01274*
X00019Y01265*
Y00775*
X00021Y00766*
X00025Y00759*
X00041Y00743*
Y00742*
X00039Y0073*
X00041Y00718*
X00045Y00707*
X00053Y00698*
X00062Y0069*
X00073Y00686*
X00085Y00684*
X00097Y00686*
X00098*
X0016Y00625*
X00167Y0062*
X00175Y00619*
X01643*
X01646Y00616*
X01653Y00613*
X0166Y00612*
X01667Y00613*
X01674Y00616*
X0168Y0062*
X01684Y00626*
X01687Y00633*
X01688Y0064*
X01687Y00647*
X01684Y00654*
X0168Y0066*
X01674Y00664*
X01667Y00667*
X0166Y00668*
X01653Y00667*
X01646Y00664*
X01643Y00661*
X01317*
X01315Y00666*
X01319Y00671*
X01322Y00678*
X01323Y00685*
X01322Y00692*
X01319Y00699*
X01315Y00705*
X01309Y00709*
X01302Y00712*
X01298*
X01215Y00795*
X01208Y008*
X012Y00801*
X00229*
X00226Y00806*
X00228Y00809*
X0109*
X01098Y0081*
X01105Y00815*
X01116Y00826*
X01123Y00823*
X0113Y00822*
X01137Y00823*
X01144Y00826*
X0115Y0083*
X01154Y00836*
X01157Y00843*
X01158Y0085*
X01157Y00857*
X01154Y00864*
X0115Y0087*
X01144Y00874*
X01137Y00877*
X0113Y00878*
X01123Y00877*
X01116Y00874*
X01113Y00871*
X0111*
X01107*
X01105Y00875*
X01109Y00881*
X01112Y00888*
X01113Y00895*
X01112Y00902*
X01109Y00909*
X01105Y00915*
X01099Y00919*
X01092Y00922*
X01088*
X01021Y0099*
X01014Y00994*
X01005Y00996*
X00166*
X00158Y00994*
X00151Y0099*
X00138Y00976*
X0011*
X00107*
X00062*
Y01255*
X00065Y01257*
X0007*
X00075Y0125*
X00079Y01247*
Y01246*
X00074Y0124*
X00072Y01235*
X001*
Y01225*
X0011*
Y01197*
X00111*
X00115Y01194*
Y0119*
X00185*
Y01216*
X0019Y01219*
X00193Y01218*
X002Y01217*
X00207Y01218*
X00214Y01221*
X0022Y01225*
X00224Y01231*
X00227Y01238*
X00228Y01245*
X00227Y01252*
X00224Y01259*
X0022Y01265*
X00216Y01267*
Y01281*
X00214Y01289*
X0021Y01296*
X00185Y01321*
Y01325*
X00184Y01334*
X00181Y01343*
X00178Y01346*
X00175Y0135*
X00178Y01354*
X00181Y01357*
X00184Y01366*
X00185Y01375*
X00184Y01384*
X00181Y01393*
X00178Y01396*
X00175Y014*
X00178Y01404*
X00181Y01407*
X00184Y01416*
X00185Y01425*
X00184Y01434*
X00181Y01443*
X00175Y0145*
X00168Y01456*
X00159Y01459*
X0015Y0146*
G37*
G36*
X0009Y01453D02*
X00085Y01451D01*
X00079Y01446*
X00074Y0144*
X00072Y01435*
X0009*
Y01453*
G37*
G36*
X02736Y0145D02*
X02701D01*
X02667*
Y0142*
Y01405*
X02701*
X02736*
Y0142*
Y0145*
G37*
G36*
Y01385D02*
X02701D01*
X02667*
Y01355*
Y0134*
X02701*
X02736*
Y01355*
Y01385*
G37*
G36*
Y0132D02*
X02701D01*
X02667*
Y0129*
Y01275*
X02701*
X02736*
Y0129*
Y0132*
G37*
G36*
X0009Y01215D02*
X00072D01*
X00074Y0121*
X00079Y01204*
X00085Y01199*
X0009Y01197*
Y01215*
G37*
G36*
X02838Y01246D02*
X02837D01*
X02775*
Y01206*
Y01204*
Y0105*
X02735Y0101*
X02734Y01011*
X02722Y01012*
X0271Y01011*
X02699Y01006*
X0269Y00999*
X02683Y0099*
X02678Y00979*
X02677Y00967*
X02678Y00955*
X02683Y00944*
X0269Y00935*
X02699Y00928*
X027Y00927*
Y00886*
X02701Y00878*
X02706Y00871*
X02744Y00833*
Y00819*
X02739Y00816*
X02732Y00819*
Y0078*
Y00741*
X02739Y00744*
X02744Y00741*
Y00725*
X02726Y00707*
X02722*
X0271Y00706*
X02699Y00701*
X0269Y00694*
X02683Y00685*
X02678Y00674*
X02677Y00662*
X02678Y0065*
X02683Y00639*
X0269Y0063*
X02699Y00623*
X027Y00622*
Y00459*
X02501Y0026*
X02496Y00253*
X02495Y00245*
Y00225*
X02382Y00112*
X02378*
X02371Y00109*
X02365Y00105*
X02361Y00099*
X02358Y00092*
X02357Y00085*
X02358Y00078*
X02361Y00071*
X02365Y00065*
X02371Y00061*
X02378Y00058*
X02385Y00057*
X02392Y00058*
X02399Y00061*
X02405Y00065*
X02409Y00071*
X02412Y00078*
Y00082*
X02522Y00192*
X02527*
X02528Y00191*
X02537Y00184*
X02548Y00179*
X0256Y00178*
X02572Y00179*
X02583Y00184*
X02592Y00191*
X02599Y002*
X02604Y00211*
X02605Y00223*
X02604Y00235*
X02599Y00246*
X02592Y00255*
X02583Y00262*
X02574Y00266*
X02573Y00272*
X02736Y00435*
X02741Y00442*
X02742Y0045*
Y00622*
X02745Y00623*
X02754Y0063*
X02761Y00639*
X02766Y0065*
X02767Y00662*
X02766Y00674*
X02762Y00682*
X02781Y00701*
X02786Y00708*
X02787Y00716*
Y00841*
X02786Y0085*
X02781Y00857*
X02742Y00895*
Y00927*
X02745Y00928*
X02754Y00935*
X02761Y00944*
X02766Y00955*
X02767Y00967*
X02766Y00979*
X02765Y0098*
X02811Y01026*
X02816Y01033*
X02817Y0104*
X02819Y01042*
X02822Y01044*
X02828Y01041*
X0284Y0104*
X02852Y01041*
X02863Y01046*
X02872Y01053*
X02879Y01062*
X02884Y01073*
X02885Y01085*
X02884Y01097*
X02879Y01108*
X02872Y01117*
X02863Y01124*
X02852Y01129*
X0284Y0113*
X02828Y01129*
X02822Y01126*
X02817Y01129*
Y01164*
X02837*
X02842*
X02843*
X02905*
Y01176*
X0291Y01179*
X02913Y01178*
X0292Y01177*
X02927Y01178*
X02934Y01181*
X0294Y01185*
X02944Y01191*
X02947Y01198*
X02948Y01205*
X02947Y01212*
X02944Y01219*
X0294Y01225*
X02934Y01229*
X02927Y01232*
X0292Y01233*
X02913Y01232*
X0291Y01231*
X02905Y01234*
Y01246*
X02843*
X02838*
G37*
G36*
X01088Y01133D02*
X01081Y01129D01*
X01077Y01122*
X01088*
Y01133*
G37*
G36*
X02739Y01255D02*
X02701D01*
X02667*
Y01225*
X02699*
Y01117*
X02693Y01114*
X02687Y01105*
X02683Y01095*
X02761*
X02757Y01105*
X0275Y01114*
X02742Y0112*
X02741*
Y01246*
X0274Y01255*
X02739*
G37*
G36*
X01088Y01102D02*
X01077D01*
X01081Y01096*
X01088Y01092*
Y01102*
G37*
G36*
X02761Y01075D02*
X02732D01*
Y01046*
X02742Y0105*
X0275Y01056*
X02757Y01065*
X02761Y01075*
G37*
G36*
X02712D02*
X02683D01*
X02687Y01065*
X02693Y01056*
X02702Y0105*
X02711Y01046*
X02712*
Y01075*
G37*
G36*
X02275Y00965D02*
Y00955D01*
X02285*
X02281Y00961*
X02275Y00965*
G37*
G36*
X02255D02*
X02249Y00961D01*
X02245Y00955*
X02255*
Y00965*
G37*
G36*
X02604D02*
X02595Y00964D01*
X02586Y0096*
X02579Y00955*
X02573Y00948*
X0257Y00939*
X02568Y0093*
X02569Y00929*
X02564Y00927*
X02557Y00937*
X02547Y00944*
X02537Y00948*
X02525Y0095*
X02513Y00948*
X02503Y00944*
X02493Y00937*
X02486Y00927*
X02482Y00917*
X0248Y00905*
X02482Y00893*
X02486Y00883*
X02493Y00873*
X02503Y00866*
X02513Y00862*
X02525Y0086*
X02537Y00862*
X02547Y00866*
X02557Y00873*
X02564Y00883*
X02568Y00893*
X0257Y00905*
X02569Y00909*
X02574Y00911*
X02579Y00905*
X02586Y00899*
X02595Y00896*
X02604Y00895*
X02613Y00896*
X02621Y00899*
X02629Y00905*
X02634Y00912*
X02638Y00921*
X02639Y0093*
X02638Y00939*
X02634Y00948*
X02629Y00955*
X02621Y0096*
X02613Y00964*
X02604Y00965*
G37*
G36*
X0284Y01012D02*
X02828Y01011D01*
X02817Y01006*
X02808Y00999*
X02801Y0099*
X02796Y00979*
X02795Y00967*
X02796Y00955*
X02801Y00944*
X02808Y00935*
X02817Y00928*
X02828Y00923*
X0284Y00922*
X02852Y00923*
X02863Y00928*
X02872Y00935*
X02879Y00944*
X02884Y00955*
X02885Y00967*
X02884Y00979*
X02879Y0099*
X02872Y00999*
X02863Y01006*
X02852Y01011*
X0284Y01012*
G37*
G36*
X02712Y00819D02*
X02711D01*
X02702Y00815*
X02693Y00809*
X02687Y008*
X02683Y0079*
X02712*
Y00819*
G37*
G36*
X02525Y0085D02*
X02513Y00848D01*
X02503Y00844*
X02493Y00837*
X02486Y00827*
X02482Y00817*
X0248Y00805*
X02482Y00793*
X02486Y00783*
X02493Y00773*
X02503Y00766*
X02513Y00762*
X02525Y0076*
X02537Y00762*
X02547Y00766*
X02557Y00773*
X02564Y00783*
X02568Y00793*
X0257Y00805*
X02568Y00817*
X02564Y00827*
X02557Y00837*
X02547Y00844*
X02537Y00848*
X02525Y0085*
G37*
G36*
X02712Y0077D02*
X02683D01*
X02687Y0076*
X02693Y00751*
X02702Y00745*
X02711Y00741*
X02712*
Y0077*
G37*
G36*
X0284Y00825D02*
X02828Y00824D01*
X02817Y00819*
X02808Y00812*
X02801Y00803*
X02796Y00792*
X02795Y0078*
X02796Y00768*
X02801Y00757*
X02808Y00748*
X02817Y00741*
X02828Y00736*
X0284Y00735*
X02852Y00736*
X02863Y00741*
X02872Y00748*
X02879Y00757*
X02884Y00768*
X02885Y0078*
X02884Y00792*
X02879Y00803*
X02872Y00812*
X02863Y00819*
X02852Y00824*
X0284Y00825*
G37*
G36*
X0257Y0075D02*
X0248D01*
Y0066*
X0257*
Y0075*
G37*
G36*
X02286Y00935D02*
X02244D01*
Y00789*
X02108Y00654*
X02104Y00656*
Y00657*
X02102Y00666*
X02098Y00673*
X02096*
Y00712*
X02095Y00721*
X0209Y00728*
X01933Y00885*
Y00887*
X0193Y00894*
X01926Y009*
X0192Y00904*
X01913Y00907*
X01906Y00908*
X01899Y00907*
X01892Y00904*
X01886Y009*
X01882Y00894*
X01879Y00887*
X01878Y0088*
X01879Y00873*
X01882Y00866*
X01886Y0086*
X01892Y00856*
X01899Y00853*
X01905Y00852*
X0198Y00777*
Y00772*
X01979Y00771*
X01974Y00764*
X01973Y00759*
X01992Y00765*
X01995Y00762*
Y00745*
X01975*
X01974Y00746*
Y00747*
Y00372*
X01975Y00363*
X0198Y00356*
X02013Y00323*
X02054*
X02092*
X02088Y00333*
X02082Y00341*
X02075Y00346*
Y0056*
X0228Y00765*
X02285Y00772*
X02286Y0078*
Y00935*
G37*
G36*
X0284Y00707D02*
X02828Y00706D01*
X02817Y00701*
X02808Y00694*
X02801Y00685*
X02796Y00674*
X02795Y00662*
X02796Y0065*
X02801Y00639*
X02808Y0063*
X02817Y00623*
X02828Y00618*
X0284Y00617*
X02852Y00618*
X02863Y00623*
X02872Y0063*
X02879Y00639*
X02884Y0065*
X02885Y00662*
X02884Y00674*
X02879Y00685*
X02872Y00694*
X02863Y00701*
X02852Y00706*
X0284Y00707*
G37*
G36*
X02604Y0066D02*
X02595Y00659D01*
X02586Y00655*
X02579Y0065*
X02573Y00643*
X0257Y00634*
X02568Y00625*
X0257Y00616*
X02573Y00607*
X02579Y006*
X02586Y00594*
X02595Y00591*
X02604Y0059*
X02613Y00591*
X02621Y00594*
X02629Y006*
X02634Y00607*
X02638Y00616*
X02639Y00625*
X02638Y00634*
X02634Y00643*
X02629Y0065*
X02621Y00655*
X02613Y00659*
X02604Y0066*
G37*
G36*
X0284Y00533D02*
X02828Y00532D01*
X02817Y00527*
X02808Y0052*
X02801Y00511*
X02796Y005*
X02795Y00488*
X02796Y00476*
X02801Y00465*
X02808Y00456*
X02817Y00449*
X02828Y00444*
X0284Y00443*
X02852Y00444*
X02863Y00449*
X02872Y00456*
X02879Y00465*
X02884Y00476*
X02885Y00488*
X02884Y005*
X02879Y00511*
X02872Y0052*
X02863Y00527*
X02852Y00532*
X0284Y00533*
G37*
G36*
Y00415D02*
X02828Y00414D01*
X02817Y00409*
X02808Y00402*
X02801Y00393*
X02796Y00382*
X02795Y0037*
X02796Y00358*
X02801Y00347*
X02808Y00338*
X02817Y00331*
X02828Y00326*
X0284Y00325*
X02852Y00326*
X02863Y00331*
X02872Y00338*
X02879Y00347*
X02884Y00358*
X02885Y0037*
X02884Y00382*
X02879Y00393*
X02872Y00402*
X02863Y00409*
X02852Y00414*
X0284Y00415*
G37*
G36*
X02722Y00368D02*
X02713Y00367D01*
X02704Y00364*
X02697Y00358*
X02691Y00351*
X02688Y00342*
X02687Y00333*
X02688Y00324*
X02691Y00315*
X02697Y00308*
X02704Y00302*
X02713Y00299*
X02722Y00298*
X02731Y00299*
X0274Y00302*
X02747Y00308*
X02752Y00315*
X02756Y00324*
X02757Y00333*
X02756Y00342*
X02752Y00351*
X02747Y00358*
X0274Y00364*
X02731Y00367*
X02722Y00368*
G37*
G36*
X00996Y00337D02*
X00923D01*
Y00332*
X00913*
Y00295*
X00893*
Y00332*
X00871*
Y00316*
X00595*
X00587Y00315*
X0058Y0031*
X00544Y00274*
Y00244*
X00574*
X00604Y00274*
X00871*
Y00258*
X00898*
X009Y00254*
X00858Y00211*
X00573*
X0057Y00216*
X00573Y00224*
X00495*
X00498Y00216*
X00495Y00211*
X0049*
X00482Y0021*
X00475Y00205*
X00429Y00159*
X00428Y0016*
X00416Y00161*
X00404Y0016*
X00393Y00155*
X00384Y00148*
X00377Y00139*
X00372Y00128*
X00371Y00116*
X00372Y00104*
X00377Y00093*
X00384Y00084*
X00393Y00077*
X00404Y00072*
X00416Y00071*
X00428Y00072*
X00439Y00077*
X00448Y00084*
X00455Y00093*
X0046Y00104*
X00461Y00116*
X0046Y00128*
X00459Y00129*
X00499Y00169*
X00867*
X00875Y0017*
X00882Y00175*
X00958Y00251*
X0096Y00253*
X00996*
Y00268*
X01001Y00271*
X01008Y00268*
X01015Y00267*
X01022Y00268*
X01029Y00271*
X01035Y00275*
X01039Y00281*
X01042Y00288*
X01043Y00295*
X01042Y00302*
X01039Y00309*
X01035Y00315*
X01029Y00319*
X01022Y00322*
X01015Y00323*
X01008Y00322*
X01001Y00319*
X00996Y00322*
Y00337*
G37*
G36*
X02092Y00303D02*
X02064D01*
Y00274*
X02073Y00278*
X02082Y00285*
X02088Y00293*
X02092Y00303*
G37*
G36*
X02044D02*
X02015D01*
X02019Y00293*
X02025Y00285*
X02034Y00278*
X02043Y00274*
X02044*
Y00303*
G37*
G36*
X01876Y00358D02*
X01865Y00356D01*
X01854Y00352*
X01845Y00345*
X01838Y00335*
X01833Y00325*
X01832Y00313*
X01833Y00301*
X01838Y00291*
X01845Y00281*
X01854Y00274*
X01865Y0027*
X01876Y00268*
X01888Y0027*
X01899Y00274*
X01908Y00281*
X01915Y00291*
X0192Y00301*
X01921Y00313*
X0192Y00325*
X01915Y00335*
X01908Y00345*
X01899Y00352*
X01888Y00356*
X01876Y00358*
G37*
G36*
X00524Y00273D02*
D01*
X00514Y00269*
X00505Y00263*
X00499Y00254*
X00495Y00244*
X00524*
Y00273*
G37*
G36*
X02678Y00295D02*
X02669Y00294D01*
X0266Y00291*
X02653Y00285*
X02648Y00278*
X02644Y00269*
X02643Y0026*
X02644Y00251*
X02648Y00242*
X02653Y00235*
X0266Y0023*
X02669Y00226*
X02678Y00225*
X02687Y00226*
X02696Y0023*
X02703Y00235*
X02709Y00242*
X02712Y00251*
X02713Y0026*
X02712Y00269*
X02709Y00278*
X02703Y00285*
X02696Y00291*
X02687Y00294*
X02678Y00295*
G37*
G36*
X02442D02*
X02433Y00294D01*
X02424Y00291*
X02417Y00285*
X02411Y00278*
X02408Y00269*
X02407Y0026*
X02408Y00251*
X02411Y00242*
X02417Y00235*
X02424Y0023*
X02433Y00226*
X02442Y00225*
X02451Y00226*
X0246Y0023*
X02467Y00235*
X02472Y00242*
X02476Y00251*
X02477Y0026*
X02476Y00269*
X02472Y00278*
X02467Y00285*
X0246Y00291*
X02451Y00294*
X02442Y00295*
G37*
G36*
X00416Y00279D02*
X00404Y00278D01*
X00393Y00273*
X00384Y00266*
X00377Y00257*
X00372Y00246*
X00371Y00234*
X00372Y00222*
X00377Y00211*
X00384Y00202*
X00393Y00195*
X00404Y0019*
X00416Y00189*
X00428Y0019*
X00439Y00195*
X00448Y00202*
X00455Y00211*
X0046Y00222*
X00461Y00234*
X0046Y00246*
X00455Y00257*
X00448Y00266*
X00439Y00273*
X00428Y00278*
X00416Y00279*
G37*
G36*
X00534Y00161D02*
X00522Y0016D01*
X00511Y00155*
X00502Y00148*
X00495Y00139*
X0049Y00128*
X00489Y00116*
X0049Y00104*
X00495Y00093*
X00502Y00084*
X00511Y00077*
X00522Y00072*
X00534Y00071*
X00546Y00072*
X00557Y00077*
X00566Y00084*
X00573Y00093*
X00578Y00104*
X00579Y00116*
X00578Y00128*
X00573Y00139*
X00566Y00148*
X00557Y00155*
X00546Y0016*
X00534Y00161*
G37*
G36*
X02064Y00096D02*
Y00067D01*
X02092*
X02088Y00077*
X02082Y00085*
X02073Y00092*
X02064Y00096*
G37*
G36*
X02044D02*
X02043D01*
X02034Y00092*
X02025Y00085*
X02019Y00077*
X02015Y00067*
X02044*
Y00096*
G37*
G36*
X0256Y0015D02*
X02548Y00149D01*
X02537Y00144*
X02528Y00137*
X02521Y00128*
X02516Y00117*
X02515Y00105*
X02516Y00093*
X02521Y00082*
X02528Y00073*
X02537Y00066*
X02548Y00061*
X0256Y0006*
X02572Y00061*
X02583Y00066*
X02592Y00073*
X02599Y00082*
X02604Y00093*
X02605Y00105*
X02604Y00117*
X02599Y00128*
X02592Y00137*
X02583Y00144*
X02572Y00149*
X0256Y0015*
G37*
G36*
X00652Y00114D02*
X00643Y00113D01*
X00634Y00109*
X00627Y00104*
X00622Y00097*
X00618Y00088*
X00617Y00079*
X00618Y0007*
X00622Y00061*
X00627Y00054*
X00634Y00048*
X00643Y00045*
X00652Y00044*
X00661Y00045*
X0067Y00048*
X00677Y00054*
X00683Y00061*
X00686Y0007*
X00687Y00079*
X00686Y00088*
X00683Y00097*
X00677Y00104*
X0067Y00109*
X00661Y00113*
X00652Y00114*
G37*
G36*
X02092Y00047D02*
X02064D01*
Y00019*
X02073Y00023*
X02082Y00029*
X02088Y00037*
X02092Y00047*
G37*
G36*
X02044D02*
X02015D01*
X02019Y00037*
X02025Y00029*
X02034Y00023*
X02043Y00019*
X02044*
Y00047*
G37*
%LNtemperature_monitor_&_display-3*%
%LPD*%
G36*
X01058Y00892D02*
Y00888D01*
X01061Y00881*
X01065Y00875*
X01071Y00871*
X01078Y00868*
X01085Y00867*
X01091Y00868*
X01093Y00863*
X01081Y00851*
X00225*
Y00853*
X00217Y00862*
X00208Y0087*
X00197Y00874*
X00185Y00876*
X00173Y00874*
X00162Y0087*
X00153Y00862*
X00145Y00853*
X00141Y00842*
X00139Y0083*
X00141Y00818*
X00145Y00807*
X00141Y00804*
X00129Y00817*
Y00818*
X00131Y0083*
X00129Y00842*
X00125Y00853*
X00117Y00862*
X00108Y0087*
X00097Y00874*
X00085Y00876*
X00073Y00874*
X00067Y00872*
X00062Y00875*
Y00884*
X00131*
Y00933*
X00136*
X00139Y0093*
X00141Y00918*
X00145Y00907*
X00153Y00898*
X00162Y0089*
X00173Y00886*
X00185Y00884*
X00197Y00886*
X00208Y0089*
X00217Y00898*
X00225Y00907*
X00229Y00918*
X00231Y0093*
X00229Y00942*
X00227Y00948*
X0023Y00953*
X00997*
X01058Y00892*
G37*
G36*
X00127Y0076D02*
X00135Y00759D01*
X0015*
X00152Y00754*
X0015Y0075*
X00146Y00741*
X00145Y0074*
X00185*
X00225*
X00224Y00741*
X0022Y0075*
X00218Y00754*
X0022Y00759*
X01191*
X01268Y00682*
Y00678*
X01271Y00671*
X01275Y00666*
X01273Y00661*
X00184*
X00129Y00717*
Y00718*
X00131Y0073*
X00129Y00742*
X00125Y00753*
X00121Y00758*
X00124Y00762*
X00127Y0076*
G37*
G36*
X02054Y00704D02*
Y00667D01*
X02051Y00664*
X02048Y00657*
X02047Y0065*
X02048Y00643*
X02051Y00636*
X02055Y0063*
X02061Y00626*
X02068Y00623*
X02071*
X02072Y00618*
X02038Y00584*
X02034Y00577*
X02032Y00569*
Y00371*
X02028Y00369*
X02016Y0038*
Y00734*
X02021Y00736*
X02054Y00704*
G37*
%LNtemperature_monitor_&_display-4*%
%LPC*%
G36*
X00225Y0072D02*
X00195D01*
Y0069*
X00196Y00691*
X00205Y00695*
X00214Y00701*
X0022Y0071*
X00224Y00719*
X00225Y0072*
G37*
G36*
X00175D02*
X00145D01*
X00146Y00719*
X0015Y0071*
X00156Y00701*
X00165Y00695*
X00174Y00691*
X00175Y0069*
Y0072*
G37*
%LNtemperature_monitor_&_display-5*%
%LPD*%
G54D20*
X0247Y01597D03*
Y0168D03*
X0289D03*
Y01597D03*
X0275Y0168D03*
Y01597D03*
X0261Y0168D03*
Y01597D03*
G54D24*
X0096Y00295D03*
X00903D03*
X01626Y01695D03*
X01684D03*
X01221D03*
X01279D03*
X00467D03*
X0041D03*
X00874D03*
X00816D03*
G54D60*
X02721Y00967D02*
Y00976D01*
Y00886D02*
Y00967D01*
X02722D02*
X02796Y01041D01*
Y01204*
X02807Y01215*
X0272Y01087D02*
X02722Y01085D01*
X0272Y01087D02*
Y01246D01*
X02701Y01265D02*
X0272Y01246D01*
X0261Y01597D02*
X02745D01*
X02701Y01549D02*
X02726Y01574D01*
Y01579*
X02745Y01597*
X0275*
X0132Y01298D02*
Y01335D01*
X01135Y01112D02*
X0132Y01298D01*
X02701Y0146D02*
Y01549D01*
X01143Y01195D02*
Y01199D01*
X01865Y01155D02*
X0237Y0166D01*
X011Y01355D02*
X0122Y01235D01*
X01115Y01055D02*
X01347Y01286D01*
X00995Y01055D02*
X01115D01*
X01347Y01286D02*
Y0137D01*
X01098Y01112D02*
X01135D01*
X0117Y01225D02*
X0118D01*
X0107Y01325D02*
X0117Y01225D01*
X0107Y01325D02*
Y0145D01*
X0064Y01645D02*
X01135Y0115D01*
X0053Y01645D02*
X0064D01*
X00943Y01399D02*
X01143Y01199D01*
X00943Y01399D02*
Y01636D01*
X011Y01355D02*
Y01445D01*
X0183Y01668D02*
X0193Y01768D01*
X0183Y0119D02*
Y01668D01*
X01746Y01709D02*
X0175Y01705D01*
X0053Y01645D02*
D01*
X0052Y01655D02*
X0053Y01645D01*
X02721Y0045D02*
Y00671D01*
X02516Y00245D02*
X02721Y0045D01*
X02516Y00216D02*
Y00245D01*
X02385Y00085D02*
X02516Y00216D01*
X02075Y0065D02*
Y00712D01*
X01907Y0088D02*
X02075Y00712D01*
Y0065D02*
D01*
X0208Y00655*
X02083Y00657*
X02721Y00671D02*
X02766Y00716D01*
Y00841*
X0111Y0085D02*
X0113D01*
X0109Y0083D02*
X0111Y0085D01*
X01005Y00975D02*
X01085Y00895D01*
X00166Y00975D02*
X01005D01*
X0291Y017D02*
X02965D01*
X0289Y0168D02*
X0291Y017D01*
X0249D02*
X0254D01*
X0247Y0168D02*
X0249Y017D01*
X0263D02*
X0268D01*
X0261Y0168D02*
X0263Y017D01*
X0277D02*
X0282D01*
X0275Y0168D02*
X0277Y017D01*
X02555Y01285D02*
X026D01*
X02619Y01266*
Y01265D02*
Y01266D01*
X02609Y0134D02*
X02619Y0133D01*
X02555Y0134D02*
X02609D01*
X02604Y0138D02*
X02619Y01395D01*
X02555Y0138D02*
X02604D01*
X02556Y01439D02*
X026D01*
X00895Y01155D02*
X00995Y01055D01*
X012Y0078D02*
X01295Y00685D01*
X00135Y0078D02*
X012D01*
X0096Y00295D02*
X01015D01*
X00085Y0073D02*
X00175Y0064D01*
X0166*
X01906Y0088D02*
X01907D01*
X0237Y0166D02*
Y01765D01*
X02335Y018D02*
X0237Y01765D01*
X02324Y018D02*
X02335D01*
X02313Y01811D02*
X02324Y018D01*
X02313Y01811D02*
Y0182D01*
Y01899D02*
X02348Y01933D01*
X02313Y01885D02*
X02316Y01888D01*
X02361Y01933D02*
X0237Y01942D01*
X02348Y01933D02*
X02361D01*
X02313Y0189D02*
Y01899D01*
X02134Y0182D02*
X02186Y01768D01*
X02093Y0182D02*
X02134D01*
X02093Y0189D02*
X02131D01*
X02186Y01945*
X01746Y01883D02*
X0202D01*
X02027Y0189*
X01628Y01765D02*
X01683Y0182D01*
X02027*
X01746Y01709D02*
Y01765D01*
X01628Y01697D02*
Y01765D01*
X01626Y01695D02*
X01628Y01697D01*
X01684Y01691D02*
Y01695D01*
Y01691D02*
X017Y01674D01*
X01714*
X01742Y01646*
X0175*
X01683Y0169D02*
X01699Y01674D01*
X01692Y016D02*
X01737Y01645D01*
X01223Y01697D02*
Y01765D01*
X01221Y01695D02*
X01223Y01697D01*
X01265Y01645D02*
X01337D01*
X01279Y01691D02*
Y01695D01*
Y01691D02*
X01295Y01674D01*
X01308*
X01337Y01645*
X01341Y01708D02*
Y01765D01*
Y01708D02*
X01345Y01704D01*
X0107Y0145D02*
X01265Y01645D01*
X00935Y01705D02*
Y01765D01*
X00923Y01655D02*
X00943Y01636D01*
X00869Y01695D02*
X00878Y01685D01*
X00909Y01655D02*
X00923D01*
X00874Y01691D02*
X00909Y01655D01*
X00874Y01691D02*
Y01695D01*
X00817Y017D02*
Y01765D01*
X00503Y01655D02*
X0052D01*
X00467Y01691D02*
X00503Y01655D01*
X0041Y01695D02*
X00412Y01697D01*
Y01765*
X02245D02*
X02246Y01766D01*
Y01819*
X02247Y0182*
Y01945D02*
D01*
Y0189D02*
Y01945D01*
Y0189D02*
D01*
X0126Y01456D02*
X01347Y0137D01*
X0126Y01456D02*
Y015D01*
X00085Y0083D02*
X00135Y0078D01*
X00185Y0083D02*
X0109D01*
X00146Y00955D02*
X00166Y00975D01*
X0011Y00955D02*
X00146D01*
X00085Y0093D02*
X0011Y00955D01*
X00534Y00234D02*
X00595Y00295D01*
X00903*
X00416Y00116D02*
X0049Y0019D01*
X00867*
X00943Y00266*
Y00278*
X0096Y00295*
X02265Y0078D02*
Y0094D01*
X02054Y00569D02*
X02265Y0078D01*
X02054Y00313D02*
Y00569D01*
X02721Y00886D02*
X02766Y00841D01*
X01995Y00372D02*
X02054Y00313D01*
X01995Y00372D02*
Y00755D01*
X00194Y0125D02*
X002Y01245D01*
X02701Y0133D02*
Y01395D01*
X0275Y01597D02*
X0289D01*
X0247D02*
X0261D01*
X02701Y01265D02*
Y0133D01*
Y01395D02*
Y0146D01*
X026Y01439D02*
X02619Y01457D01*
X01255Y016D02*
X01692D01*
X011Y01445D02*
X01255Y016D01*
X01626Y01696D02*
Y01695D01*
X0053Y0171D02*
Y01765D01*
X0004Y00775D02*
X00085Y0073D01*
X0004Y00775D02*
Y01265D01*
X001Y01325*
X00194Y0125D02*
Y01281D01*
X0015Y01325D02*
X00194Y01281D01*
X02873Y01205D02*
X0292D01*
G54D62*
X0193Y01945D03*
X02186D03*
X0193Y01768D03*
X02186D03*
X0237Y01942D03*
X02626D03*
X0237Y01765D03*
X02626D03*
X01876Y00057D03*
Y00313D03*
X02054Y00057D03*
Y00313D03*
G54D63*
X00085Y0093D03*
G54D64*
X00085Y0083D03*
Y0073D03*
X00185Y0093D03*
Y0083D03*
Y0073D03*
G54D65*
X0256Y00105D03*
Y00223D03*
X0284Y00488D03*
Y0037D03*
X00534Y00234D03*
Y00116D03*
X00416Y00234D03*
Y00116D03*
X01631Y01766D03*
Y01884D03*
X01749Y01766D03*
Y01884D03*
X01226Y01766D03*
Y01884D03*
X01344Y01766D03*
Y01884D03*
X0284Y01085D03*
Y00967D03*
X02722Y01085D03*
Y00967D03*
X0284Y0078D03*
Y00662D03*
X02722Y0078D03*
Y00662D03*
X00821Y01766D03*
Y01884D03*
X00939Y01766D03*
Y01884D03*
X00533Y01883D03*
Y01765D03*
X00415Y01883D03*
Y01765D03*
G54D66*
X02525Y00905D03*
Y00805D03*
G54D67*
X02525Y00705D03*
G54D68*
X0015Y01225D03*
G54D69*
X001Y01225D03*
X0015Y01275D03*
X001D03*
X0015Y01325D03*
X001D03*
X0015Y01375D03*
X001D03*
X0015Y01425D03*
X001D03*
G54D70*
X0015Y0185D03*
X0285D03*
G54D71*
X0285Y0015D03*
X0015D03*
G54D72*
X01143Y01195D03*
X01865Y01155D03*
X0122Y01235D03*
X0118Y01225D03*
X01135Y0115D03*
X01098Y01112D03*
X0089Y0116D03*
X0183Y0119D03*
X02075Y0065D03*
X0292Y01205D03*
X02555Y01285D03*
Y0134D03*
Y0138D03*
X02556Y01439D03*
X0113Y0085D03*
X01085Y00895D03*
X02965Y017D03*
X0254D03*
X0268D03*
X0282D03*
X02385Y00085D03*
X01295Y00685D03*
X01015Y00295D03*
X0166Y0064D03*
X01906Y0088D03*
X02247Y01945D03*
X0132Y01335D03*
X02245Y01765D03*
X02265Y00945D03*
X002Y01245D03*
X01995Y00755D03*
X0126Y015D03*
G54D73*
X02247Y0182D03*
X02313D03*
X02247Y0189D03*
X02313D03*
X02027Y0182D03*
X02093D03*
X02027Y0189D03*
X02093D03*
X02873Y01205D03*
X02807D03*
G54D74*
X0175Y01646D03*
Y01705D03*
X01345Y01645D03*
Y01704D03*
X00935Y01645D03*
Y01705D03*
X0053Y01645D03*
Y01705D03*
G54D75*
X02619Y01265D03*
X02701D03*
X02619Y0133D03*
X02701D03*
X02619Y01395D03*
X02701D03*
X02619Y0146D03*
X02701D03*
M02*