%FSTAX23Y23*%
%MOIN*%
%SFA1B1*%

%IPPOS*%
%ADD9500C,0.010000*%
%ADD9501C,0.028000*%
%ADD9502C,0.035000*%
%ADD9503C,0.039000*%
%ADD9504C,0.040000*%
%ADD9505C,0.126000*%
%ADD9506C,0.040000*%
%LNtemperature_monitor_&_display-1*%
%LPD*%
G54D9500*
X01015Y00295D03*
X0113Y0085D03*
X01085Y00895D03*
X01098Y01112D03*
X01135Y0115D03*
X01143Y01195D03*
X0118Y01225D03*
X0122Y01235D03*
X0132Y01335D03*
X0126Y015D03*
X0089Y0116D03*
X002Y01245D03*
X01295Y00685D03*
X0166Y0064D03*
X02075Y0065D03*
X01995Y00755D03*
X01906Y0088D03*
X01865Y01155D03*
X0183Y0119D03*
X02265Y00945D03*
X02555Y01285D03*
Y0134D03*
Y0138D03*
X02556Y01439D03*
X0292Y01205D03*
X02385Y00085D03*
X0254Y017D03*
X0268D03*
X0282D03*
X02965D03*
X02245Y01765D03*
X02247Y01945D03*
G54D9501*
X001Y01225D03*
X0015D03*
Y01275D03*
X001D03*
Y01325D03*
X0015D03*
Y01375D03*
X001D03*
Y01425D03*
X0015D03*
G54D9502*
X02525Y00705D03*
Y00805D03*
Y00905D03*
G54D9503*
X01876Y00057D03*
X02054D03*
Y00313D03*
X01876D03*
X0193Y01768D03*
Y01945D03*
X02186D03*
Y01768D03*
X0237Y01765D03*
Y01942D03*
X02626D03*
Y01765D03*
G54D9504*
X00416Y00116D03*
X00534D03*
Y00234D03*
X00416D03*
X00185Y0073D03*
X00085D03*
Y0083D03*
Y0093D03*
X00185D03*
Y0083D03*
X02722Y0078D03*
X0284D03*
Y00662D03*
X02722D03*
X0284Y00488D03*
Y0037D03*
X0256Y00223D03*
Y00105D03*
X02722Y00967D03*
X0284D03*
Y01085D03*
X02722D03*
X01749Y01766D03*
X01631D03*
Y01884D03*
X01749D03*
X01344D03*
X01226D03*
Y01766D03*
X01344D03*
X00939D03*
X00821D03*
Y01884D03*
X00939D03*
X00533Y01883D03*
Y01765D03*
X00415D03*
Y01883D03*
G54D9505*
X0015Y0015D03*
X0285D03*
Y0185D03*
X0015D03*
G54D9506*
X00298Y00079D03*
X00652D03*
X02442Y0026D03*
X02678D03*
X02722Y00333D03*
X02958D03*
Y00625D03*
Y0093D03*
X02604D03*
Y00625D03*
X01867Y01921D03*
X01513D03*
X01462D03*
X01108D03*
X01057D03*
X00703D03*
X00651Y0192D03*
X00297D03*
M02*