%FSTAX23Y23*%
%MOIN*%
%SFA1B1*%

%IPPOS*%
%ADD20R,0.059000X0.049000*%
%ADD24R,0.043000X0.053000*%
%ADD62C,0.059000*%
%ADD63R,0.061000X0.061000*%
%ADD64C,0.061000*%
%ADD65C,0.060000*%
%ADD66C,0.059000*%
%ADD67R,0.059000X0.059000*%
%ADD68R,0.040000X0.040000*%
%ADD69C,0.040000*%
%ADD70C,0.242000*%
%ADD71C,0.240000*%
%ADD73R,0.033000X0.051000*%
%ADD74R,0.047000X0.031000*%
%ADD75R,0.049000X0.059000*%
%LNtemperature_monitor_&_display-1*%
%LPD*%
G54D20*
X0247Y01597D03*
Y0168D03*
X0289D03*
Y01597D03*
X0275Y0168D03*
Y01597D03*
X0261Y0168D03*
Y01597D03*
G54D24*
X0096Y00295D03*
X00903D03*
X01626Y01695D03*
X01684D03*
X01221D03*
X01279D03*
X00467D03*
X0041D03*
X00874D03*
X00816D03*
G54D62*
X0193Y01945D03*
X02186D03*
X0193Y01768D03*
X02186D03*
X0237Y01942D03*
X02626D03*
X0237Y01765D03*
X02626D03*
X01876Y00057D03*
Y00313D03*
X02054Y00057D03*
Y00313D03*
G54D63*
X00085Y0093D03*
G54D64*
X00085Y0083D03*
Y0073D03*
X00185Y0093D03*
Y0083D03*
Y0073D03*
G54D65*
X0256Y00105D03*
Y00223D03*
X0284Y00488D03*
Y0037D03*
X00534Y00234D03*
Y00116D03*
X00416Y00234D03*
Y00116D03*
X01631Y01766D03*
Y01884D03*
X01749Y01766D03*
Y01884D03*
X01226Y01766D03*
Y01884D03*
X01344Y01766D03*
Y01884D03*
X0284Y01085D03*
Y00967D03*
X02722Y01085D03*
Y00967D03*
X0284Y0078D03*
Y00662D03*
X02722Y0078D03*
Y00662D03*
X00821Y01766D03*
Y01884D03*
X00939Y01766D03*
Y01884D03*
X00533Y01883D03*
Y01765D03*
X00415Y01883D03*
Y01765D03*
G54D66*
X02525Y00905D03*
Y00805D03*
G54D67*
X02525Y00705D03*
G54D68*
X0015Y01225D03*
G54D69*
X001Y01225D03*
X0015Y01275D03*
X001D03*
X0015Y01325D03*
X001D03*
X0015Y01375D03*
X001D03*
X0015Y01425D03*
X001D03*
G54D70*
X0015Y0185D03*
X0285D03*
G54D71*
X0285Y0015D03*
X0015D03*
G54D73*
X02247Y0182D03*
X02313D03*
X02247Y0189D03*
X02313D03*
X02027Y0182D03*
X02093D03*
X02027Y0189D03*
X02093D03*
X02873Y01205D03*
X02807D03*
G54D74*
X0175Y01646D03*
Y01705D03*
X01345Y01645D03*
Y01704D03*
X00935Y01645D03*
Y01705D03*
X0053Y01645D03*
Y01705D03*
G54D75*
X02619Y01265D03*
X02701D03*
X02619Y0133D03*
X02701D03*
X02619Y01395D03*
X02701D03*
X02619Y0146D03*
X02701D03*
M02*