%FSTAX23Y23*%
%MOIN*%
%SFA1B1*%

%IPPOS*%
%ADD32R,0.100000X0.250000*%
%ADD36R,0.067000X0.057000*%
%ADD40R,0.051000X0.061000*%
%ADD48C,0.067000*%
%ADD49R,0.069000X0.069000*%
%ADD50C,0.069000*%
%ADD51C,0.068000*%
%ADD52C,0.008000*%
%ADD53C,0.067000*%
%ADD54R,0.067000X0.067000*%
%ADD55R,0.046000X0.046000*%
%ADD56C,0.046000*%
%ADD57C,0.250000*%
%ADD58C,0.248000*%
%ADD59C,0.033000*%
%ADD76R,0.041000X0.059000*%
%ADD77R,0.055000X0.039000*%
%ADD78R,0.057000X0.067000*%
%LNtemperature_monitor_&_display-1*%
%LPD*%
G54D32*
X00125Y01325D03*
G54D36*
X0247Y01597D03*
Y0168D03*
X0289D03*
Y01597D03*
X0275Y0168D03*
Y01597D03*
X0261Y0168D03*
Y01597D03*
G54D40*
X0096Y00295D03*
X00903D03*
X01626Y01695D03*
X01684D03*
X01221D03*
X01279D03*
X00467D03*
X0041D03*
X00874D03*
X00816D03*
G54D48*
X0193Y01945D03*
X02186D03*
X0193Y01768D03*
X02186D03*
X0237Y01942D03*
X02626D03*
X0237Y01765D03*
X02626D03*
X01876Y00057D03*
Y00313D03*
X02054Y00057D03*
Y00313D03*
G54D49*
X00085Y0093D03*
G54D50*
X00085Y0083D03*
Y0073D03*
X00185Y0093D03*
Y0083D03*
Y0073D03*
G54D51*
X0256Y00105D03*
Y00223D03*
X0284Y00488D03*
Y0037D03*
X00534Y00234D03*
Y00116D03*
X00416Y00234D03*
Y00116D03*
X01631Y01766D03*
Y01884D03*
X01749Y01766D03*
Y01884D03*
X01226Y01766D03*
Y01884D03*
X01344Y01766D03*
Y01884D03*
X0284Y01085D03*
Y00967D03*
X02722Y01085D03*
Y00967D03*
X0284Y0078D03*
Y00662D03*
X02722Y0078D03*
Y00662D03*
X00821Y01766D03*
Y01884D03*
X00939Y01766D03*
Y01884D03*
X00533Y01883D03*
Y01765D03*
X00415Y01883D03*
Y01765D03*
G54D52*
X02442Y0026D03*
X02678D03*
X02958Y00333D03*
X02722D03*
X00652Y00079D03*
X00298D03*
X01513Y01921D03*
X01867D03*
X01108D03*
X01462D03*
X02958Y0093D03*
X02604D03*
X02958Y00625D03*
X02604D03*
X00703Y01921D03*
X01057D03*
X00651Y0192D03*
X00297D03*
G54D53*
X02525Y00905D03*
Y00805D03*
G54D54*
X02525Y00705D03*
G54D55*
X0015Y01225D03*
G54D56*
X001Y01225D03*
X0015Y01275D03*
X001D03*
X0015Y01325D03*
X001D03*
X0015Y01375D03*
X001D03*
X0015Y01425D03*
X001D03*
G54D57*
X0015Y0185D03*
X0285D03*
G54D58*
X0285Y0015D03*
X0015D03*
G54D59*
X01143Y01195D03*
X01865Y01155D03*
X0122Y01235D03*
X0118Y01225D03*
X01135Y0115D03*
X01098Y01112D03*
X0089Y0116D03*
X0183Y0119D03*
X02075Y0065D03*
X0292Y01205D03*
X02555Y01285D03*
Y0134D03*
Y0138D03*
X02556Y01439D03*
X0113Y0085D03*
X01085Y00895D03*
X02965Y017D03*
X0254D03*
X0268D03*
X0282D03*
X02385Y00085D03*
X01295Y00685D03*
X01015Y00295D03*
X0166Y0064D03*
X01906Y0088D03*
X02247Y01945D03*
X0132Y01335D03*
X02245Y01765D03*
X02265Y00945D03*
X002Y01245D03*
X01995Y00755D03*
X0126Y015D03*
G54D76*
X02247Y0182D03*
X02313D03*
X02247Y0189D03*
X02313D03*
X02027Y0182D03*
X02093D03*
X02027Y0189D03*
X02093D03*
X02873Y01205D03*
X02807D03*
G54D77*
X0175Y01646D03*
Y01705D03*
X01345Y01645D03*
Y01704D03*
X00935Y01645D03*
Y01705D03*
X0053Y01645D03*
Y01705D03*
G54D78*
X02619Y01265D03*
X02701D03*
X02619Y0133D03*
X02701D03*
X02619Y01395D03*
X02701D03*
X02619Y0146D03*
X02701D03*
M02*