%FSTAX23Y23*%
%MOIN*%
%SFA1B1*%

%IPPOS*%
%AMD14*
4,1,4,-0.029700,0.006400,0.006400,-0.029700,0.029700,-0.006400,-0.006400,0.029700,-0.029700,0.006400,0.0*
%
%AMD15*
4,1,4,0.002100,-0.029700,0.029700,-0.002100,-0.002100,0.029700,-0.029700,0.002100,0.002100,-0.029700,0.0*
%
%AMD16*
4,1,4,0.033900,-0.003500,-0.003500,0.033900,-0.033900,0.003500,0.003500,-0.033900,0.033900,-0.003500,0.0*
%
%AMD23*
4,1,4,-0.008800,0.024400,-0.024400,0.008800,0.008800,-0.024400,0.024400,-0.008800,-0.008800,0.024400,0.0*
1,1,0.022000,-0.016600,0.016600*
1,1,0.022000,0.016600,-0.016600*
%
%AMD24*
4,1,4,-0.024400,-0.008800,-0.008800,-0.024400,0.024400,0.008800,0.008800,0.024400,-0.024400,-0.008800,0.0*
1,1,0.022000,-0.016600,-0.016600*
1,1,0.022000,0.016600,0.016600*
%
%ADD10R,0.031000X0.047000*%
%ADD11O,0.098000X0.028000*%
%ADD12R,0.053000X0.043000*%
%ADD13R,0.059000X0.049000*%
G04~CAMADD=14~9~0.0~0.0~510.0~330.0~0.0~0.0~0~0.0~0.0~0.0~0.0~0~0.0~0.0~0.0~0.0~0~0.0~0.0~0.0~135.0~594.0~593.0*
%ADD14D14*%
G04~CAMADD=15~9~0.0~0.0~390.0~450.0~0.0~0.0~0~0.0~0.0~0.0~0.0~0~0.0~0.0~0.0~0.0~0~0.0~0.0~0.0~225.0~594.0~593.0*
%ADD15D15*%
G04~CAMADD=16~9~0.0~0.0~530.0~430.0~0.0~0.0~0~0.0~0.0~0.0~0.0~0~0.0~0.0~0.0~0.0~0~0.0~0.0~0.0~315.0~678.0~677.0*
%ADD16D16*%
%ADD17R,0.043000X0.053000*%
%ADD18R,0.055000X0.041000*%
%ADD19R,0.059000X0.024000*%
%ADD20R,0.083000X0.051000*%
%ADD21R,0.050000X0.030000*%
%ADD22R,0.047000X0.043000*%
G04~CAMADD=23~3~0.0~0.0~220.0~690.0~0.0~0.0~0~0.0~0.0~0.0~0.0~0~0.0~0.0~0.0~0.0~0~0.0~0.0~0.0~45.0~550.0~550.0*
%ADD23D23*%
G04~CAMADD=24~3~0.0~0.0~220.0~690.0~0.0~0.0~0~0.0~0.0~0.0~0.0~0~0.0~0.0~0.0~0.0~0~0.0~0.0~0.0~135.0~550.0~550.0*
%ADD24D24*%
%ADD25C,0.012000*%
%ADD26C,0.008000*%
%ADD27C,0.059000*%
%ADD28R,0.061000X0.061000*%
%ADD29C,0.061000*%
%ADD30C,0.060000*%
%ADD31C,0.059000*%
%ADD32R,0.059000X0.059000*%
%ADD33R,0.040000X0.040000*%
%ADD34C,0.040000*%
%ADD35C,0.242000*%
%ADD36C,0.240000*%
%ADD37C,0.025000*%
%LNtemperature_monitor_&_display_copper_signal_top-1*%
%LPD*%
G36*
X02166Y01985D02*
X02163Y01984D01*
X02154Y01977*
X02147Y01967*
Y01966*
X01969*
Y01967*
X01962Y01977*
X01952Y01984*
X0195Y01985*
X01951Y0199*
X02165*
X02166Y01985*
G37*
G36*
X02613D02*
X02603Y01981D01*
X02594Y01974*
X02587Y01965*
Y01964*
X02409*
Y01965*
X02402Y01974*
X02392Y01981*
X02383Y01985*
X02384Y0199*
X02612*
X02613Y01985*
G37*
G36*
X02829D02*
D01*
X02808Y0198*
X02788Y01972*
X0277Y0196*
X02754Y01946*
X0274Y0193*
X02728Y01912*
X0272Y01892*
X02715Y01871*
X02714Y0185*
X02715Y01829*
X0272Y01808*
X02728Y01788*
X0274Y0177*
X02754Y01754*
X0277Y0174*
X02788Y01728*
X02793Y01726*
X02792Y01721*
X02769*
X0276Y0172*
X02758Y01718*
X02711*
Y01709*
X02706Y01708*
X02704Y01714*
X027Y0172*
X02694Y01724*
X02687Y01727*
X0268Y01728*
X02673Y01727*
X02666Y01724*
X02663Y01721*
X02652*
X02649Y01726*
X02658Y01733*
X02665Y01743*
X02669Y01753*
X02671Y01765*
X02669Y01777*
X02665Y01787*
X02658Y01797*
X02648Y01804*
X02638Y01808*
X02626Y0181*
X02614Y01808*
X02603Y01804*
X02594Y01797*
X02587Y01787*
Y01786*
X02409*
Y01787*
X02402Y01797*
X02392Y01804*
X02382Y01808*
X0237Y0181*
X02358Y01808*
X02348Y01804*
X02338Y01797*
X02331Y01787*
X02327Y01777*
X02325Y01765*
X02327Y01753*
X02331Y01743*
X02338Y01733*
X02348Y01726*
X02358Y01722*
X0237Y0172*
X02382Y01722*
X02392Y01726*
X02402Y01733*
X02409Y01743*
Y01744*
X02587*
Y01743*
X02594Y01733*
X02603Y01726*
X02614Y01722*
Y01717*
X02571*
Y01709*
X02566Y01708*
X02564Y01714*
X0256Y0172*
X02554Y01724*
X02547Y01727*
X0254Y01728*
X02533Y01727*
X02526Y01724*
X02523Y01721*
X0249*
X02482Y0172*
X02477Y01717*
X02431*
Y01643*
X02509*
Y01679*
X02523*
X02526Y01676*
X02533Y01673*
X0254Y01672*
X02547Y01673*
X02554Y01676*
X0256Y0168*
X02564Y01686*
X02566Y01692*
X02571Y01691*
Y01643*
X02649*
Y01679*
X02663*
X02666Y01676*
X02673Y01673*
X0268Y01672*
X02687Y01673*
X02694Y01676*
X027Y0168*
X02704Y01686*
X02706Y01692*
X02711Y01691*
Y01645*
X02789*
Y01679*
X02803*
X02806Y01676*
X02813Y01673*
X0282Y01672*
X02827Y01673*
X02834Y01676*
X0284Y0168*
X02844Y01686*
X02846Y01692*
X02851Y01691*
Y01645*
X02929*
Y01679*
X02948*
X02951Y01676*
X02958Y01673*
X02965Y01672*
X02972Y01673*
X02979Y01676*
X02985Y0168*
Y01681*
X0299Y01679*
Y00954*
X02985Y00953*
X02983Y00955*
X02976Y0096*
X02967Y00964*
X02958Y00965*
X02949Y00964*
X0294Y0096*
X02933Y00955*
X02928Y00948*
X02924Y00939*
X02923Y0093*
X02924Y00921*
X02928Y00912*
X02933Y00905*
X0294Y00899*
X02949Y00896*
X02958Y00895*
X02967Y00896*
X02976Y00899*
X02983Y00905*
X02985Y00907*
X0299Y00905*
Y00649*
X02985Y00648*
X02983Y0065*
X02976Y00655*
X02967Y00659*
X02958Y0066*
X02949Y00659*
X0294Y00655*
X02933Y0065*
X02928Y00643*
X02924Y00634*
X02923Y00625*
X02924Y00616*
X02928Y00607*
X02933Y006*
X0294Y00594*
X02949Y00591*
X02958Y0059*
X02967Y00591*
X02976Y00594*
X02983Y006*
X02985Y00602*
X0299Y006*
Y00357*
X02985Y00356*
X02983Y00358*
X02976Y00364*
X02967Y00367*
X02958Y00368*
X02949Y00367*
X0294Y00364*
X02933Y00358*
X02928Y00351*
X02924Y00342*
X02923Y00333*
X02924Y00324*
X02928Y00315*
X02933Y00308*
X0294Y00302*
X02949Y00299*
X02958Y00298*
X02967Y00299*
X02976Y00302*
X02983Y00308*
X02985Y0031*
X0299Y00309*
Y00158*
X02985*
X02984Y00171*
X02979Y00192*
X02971Y00211*
X0296Y0023*
X02946Y00246*
X0293Y0026*
X02911Y00271*
X02892Y00279*
X02871Y00284*
X0285Y00285*
X02829Y00284*
X02808Y00279*
X02789Y00271*
X0277Y0026*
X02754Y00246*
X0274Y0023*
X02729Y00211*
X02721Y00192*
X02716Y00171*
X02715Y0015*
X02716Y00129*
X02721Y00108*
X02729Y00089*
X0274Y0007*
X02754Y00054*
X0277Y0004*
X02789Y00029*
X02808Y00021*
X02829Y00016*
X02842Y00015*
Y0001*
X0207*
X02069Y00015*
X02076Y00018*
X02085Y00025*
X02092Y00035*
X02097Y00045*
X02098Y00057*
X02097Y00069*
X02092Y00079*
X02085Y00089*
X02076Y00096*
X02075*
Y00271*
X02079Y00275*
X02084Y00274*
X02265*
X02273Y00276*
X0228Y0028*
X02294Y00294*
X02334*
Y00287*
X02336Y00279*
X02338Y00276*
Y00231*
X02343*
Y0022*
X0238*
X02417*
Y00231*
X02422*
X02426Y00229*
X02433Y00226*
X02442Y00225*
X02451Y00226*
X0246Y0023*
X02467Y00235*
X02472Y00242*
X02476Y00251*
X02477Y00256*
X02482Y00258*
X02489Y00251*
Y00155*
X0249Y00147*
X02495Y0014*
X02517Y00118*
X02516Y00117*
X02515Y00105*
X02516Y00093*
X02521Y00082*
X02528Y00073*
X02537Y00066*
X02548Y00061*
X0256Y0006*
X02572Y00061*
X02583Y00066*
X02592Y00073*
X02599Y00082*
X02604Y00093*
X02605Y00105*
X02604Y00117*
X02599Y00128*
X02592Y00137*
X02583Y00144*
X02572Y00149*
X0256Y0015*
X02548Y00149*
X02547Y00148*
X02531Y00164*
Y00183*
X02536Y00185*
X02537Y00184*
X02548Y00179*
X0256Y00178*
X02572Y00179*
X02583Y00184*
X02592Y00191*
X02599Y002*
X02604Y00211*
X02605Y00223*
X02604Y00235*
X02599Y00246*
X02592Y00255*
X02583Y00262*
X02572Y00267*
X0256Y00268*
X02554*
X02551Y0027*
X0255Y00277*
X02545Y00284*
X0244Y00389*
X02442Y00394*
X02786*
X02797Y00383*
X02796Y00382*
X02795Y0037*
X02796Y00358*
X02801Y00347*
X02808Y00338*
X02817Y00331*
X02828Y00326*
X0284Y00325*
X02852Y00326*
X02863Y00331*
X02872Y00338*
X02879Y00347*
X02884Y00358*
X02885Y0037*
X02884Y00382*
X02879Y00393*
X02872Y00402*
X02863Y00409*
X02852Y00414*
X0284Y00415*
X02828Y00414*
X02827Y00413*
X02811Y00429*
X02827Y00445*
X02828Y00444*
X0284Y00443*
X02852Y00444*
X02863Y00449*
X02872Y00456*
X02879Y00465*
X02884Y00476*
X02885Y00488*
X02884Y005*
X02879Y00511*
X02872Y0052*
X02863Y00527*
X02852Y00532*
X0284Y00533*
X02828Y00532*
X02817Y00527*
X02808Y0052*
X02801Y00511*
X02796Y005*
X02795Y00488*
X02796Y00476*
X02797Y00475*
X02778Y00456*
X0223*
X02097Y00589*
X02099Y00594*
X02287*
X02295Y00595*
X02302Y006*
X02334Y00632*
Y00655*
X02354*
Y00633*
X02384*
Y00634*
X02554*
X02562Y00635*
X02566Y00638*
X0257Y00634*
X02568Y00625*
X0257Y00616*
X02573Y00607*
X02579Y006*
X02586Y00594*
X02595Y00591*
X02604Y0059*
X02613Y00591*
X02621Y00594*
X02629Y006*
X02634Y00607*
X02638Y00616*
X02639Y00625*
X02638Y00634*
X02634Y00643*
X02632Y00645*
X02635Y0065*
X02684*
X02687Y00642*
X02693Y00633*
X02702Y00627*
X02711Y00623*
X02712*
Y00662*
X02722*
Y00672*
X02761*
X02757Y00682*
X02752Y00689*
X02754Y00694*
X02786*
X02799Y00681*
X02796Y00674*
X02795Y00662*
X02796Y0065*
X02801Y00639*
X02808Y0063*
X02817Y00623*
X02828Y00618*
X0284Y00617*
X02852Y00618*
X02863Y00623*
X02872Y0063*
X02879Y00639*
X02884Y0065*
X02885Y00662*
X02884Y00674*
X02879Y00685*
X02872Y00694*
X02863Y00701*
X02861Y00702*
Y00709*
X02899Y00747*
X02904Y00754*
X02905Y00762*
Y00923*
X02904Y00931*
X02899Y00938*
X02883Y00954*
X02884Y00955*
X02885Y00967*
X02884Y00979*
X02879Y0099*
X02872Y00999*
X02863Y01006*
X02852Y01011*
X0284Y01012*
X02828Y01011*
X02821Y01008*
X02816Y01011*
Y01041*
X0282Y01045*
X02828Y01041*
X0284Y0104*
X02852Y01041*
X02863Y01046*
X02872Y01053*
X02879Y01062*
X02884Y01073*
X02885Y01085*
X02884Y01097*
X02879Y01108*
X02872Y01117*
X02863Y01124*
X02852Y01129*
X0284Y0113*
X02828Y01129*
X02817Y01124*
X02808Y01117*
X02801Y01108*
X02796Y01097*
X02795Y01085*
Y0108*
X0278Y01065*
X02775Y01058*
X02774Y0105*
Y00923*
X02775Y00914*
X0278Y00907*
X02818Y0087*
Y00819*
X02817*
X02808Y00812*
X02801Y00803*
X02796Y00792*
X02795Y0078*
X02796Y00768*
X02797Y00767*
X02787Y00757*
X02766*
X02763Y00762*
X02766Y00768*
X02767Y0078*
X02766Y00792*
X02761Y00803*
X02754Y00812*
X02745Y00819*
X02734Y00824*
X02722Y00825*
X0271Y00824*
X02699Y00819*
X0269Y00812*
X02683Y00803*
X02678Y00792*
X02677Y0078*
X02678Y00768*
X02681Y00762*
X02678Y00757*
X02608*
X02601Y00764*
X02594Y00768*
X02586Y0077*
X0256*
X02558Y00775*
X02564Y00783*
X02568Y00793*
X0257Y00805*
X02568Y00817*
X02564Y00827*
X02557Y00837*
X02547Y00844*
X02537Y00848*
X02525Y0085*
X02513Y00848*
X02503Y00844*
X02497Y0084*
X02494Y00843*
X02512Y00862*
X02513*
X02525Y0086*
X02537Y00862*
X02547Y00866*
X02557Y00873*
X02564Y00883*
X02568Y00893*
X0257Y00905*
X02569Y00909*
X02574Y00911*
X02579Y00905*
X02586Y00899*
X02595Y00896*
X02604Y00895*
X02613Y00896*
X02621Y00899*
X02629Y00905*
X02634Y00912*
X02638Y00921*
X02639Y0093*
X02638Y00939*
X02634Y00948*
X02629Y00955*
X02621Y0096*
X02616Y00963*
X02615Y00969*
X02695Y01049*
X02699Y01046*
X0271Y01041*
X02722Y0104*
X02734Y01041*
X02745Y01046*
X02754Y01053*
X02761Y01062*
X02766Y01073*
X02767Y01085*
X02766Y01097*
X02761Y01108*
X02754Y01117*
X02745Y01124*
X02734Y01129*
X02722Y0113*
X0271Y01129*
X02699Y01124*
X0269Y01117*
X02683Y01108*
X02678Y01097*
X02677Y01092*
X02567Y00981*
X0238*
Y00986*
X0229*
Y00966*
X02282*
X02279Y00969*
X02272Y00972*
X02265Y00973*
X02258Y00972*
X02251Y00969*
X02245Y00965*
X02241Y00959*
X02238Y00952*
X02237Y00945*
X02238Y00938*
X02241Y00931*
X02245Y00925*
X02251Y00921*
X02258Y00918*
X02265Y00917*
X02272Y00918*
X02279Y00921*
X02282Y00924*
X0229*
Y00907*
Y00903*
Y00824*
X023*
Y00778*
Y00728*
Y00678*
X02305Y00677*
Y00663*
X02278Y00636*
X0218*
Y00682*
X02175Y00683*
Y00695*
X02136*
Y00715*
X02175*
Y00727*
X0218Y00728*
Y00778*
Y00832*
X02091*
Y00826*
X01949*
X01923Y00852*
X01924Y00859*
X01926Y0086*
X0193Y00866*
X01933Y00873*
X01934Y0088*
X01933Y00887*
X0193Y00894*
X01926Y009*
X0192Y00904*
X01914Y00907*
X0191Y0091*
X01911Y00916*
X01915Y00919*
X01919Y00924*
X01922Y00931*
X01923Y00937*
X01922Y00944*
X01919Y0095*
X01915Y00956*
X01882Y00989*
X01876Y00993*
X0187Y00996*
X01863Y00997*
X01857Y00996*
X0185Y00993*
X01845Y00989*
X01841Y00984*
X01838Y00978*
Y00974*
X01834*
X01828Y00971*
X01823Y00967*
X01818Y00962*
X01816Y00955*
X01815Y00952*
X01812Y00951*
X01806Y00949*
X018Y00945*
X01796Y00939*
X01794Y00933*
X01793Y0093*
X0179Y00929*
X01783Y00927*
X01778Y00922*
X01774Y00917*
X01771Y00911*
Y00907*
X01767*
X01761Y00904*
X01756Y009*
X01752Y00895*
X01749Y00888*
Y00885*
X01745*
X01739Y00882*
X01734Y00878*
X01729Y00872*
X01727Y00866*
X01726Y00863*
X01723Y00862*
X01717Y0086*
X01711Y00856*
X01707Y0085*
X01705Y00844*
X01704Y0084*
X01701*
X01694Y00837*
X01689Y00833*
X01685Y00828*
X01682Y00822*
Y00818*
X01678*
X01672Y00815*
X01667Y00811*
X01663Y00806*
X0166Y00799*
Y00796*
X01656Y00795*
X0165Y00793*
X01644Y00789*
X0164Y00783*
X01638Y00777*
X01637Y00774*
X01634Y00773*
X01628Y00771*
X01622Y00766*
X01618Y00761*
X01615Y00755*
Y00748*
Y00746*
X01612*
X01615Y00743*
Y00741*
X01618Y00735*
X01622Y0073*
X01639Y00713*
X01631Y00705*
X01614Y00722*
X01609Y00726*
X01603Y00729*
X01601*
X01598Y00732*
Y00729*
X01596Y0073*
X01589Y00729*
X01583Y00726*
X01578Y00722*
X01573Y00717*
X01571Y0071*
X0157Y00707*
X01567Y00706*
X01561Y00704*
X01555Y007*
X01551Y00694*
X01549Y00688*
X01548Y00685*
X01545Y00684*
X01538Y00682*
X01533Y00677*
X01529Y00672*
X01526Y00666*
Y00662*
X01522*
X01516Y00659*
X01511Y00655*
X01507Y0065*
X01504Y00643*
X01503Y00637*
X01504Y0063*
X01507Y00624*
X01511Y00618*
X01544Y00585*
X0155Y00581*
X01556Y00578*
X01563Y00577*
X01569Y00578*
X01576Y00581*
X01581Y00585*
X01585Y0059*
X01588Y00597*
Y006*
X01592*
X01598Y00603*
X01603Y00607*
X01607Y00613*
X0161Y00619*
X01611Y00622*
X01614Y00623*
X0162Y00625*
X01626Y00629*
X01628Y00633*
X0163*
X01634Y00632*
X01636Y00626*
X0164Y0062*
X01646Y00616*
X0165Y00614*
X01651Y00609*
X01648Y00605*
X01645Y00602*
X01644Y00601*
X016Y00558*
X01658Y005*
X01675Y00518*
X01723Y0047*
X01732Y0048*
X01855Y00357*
Y00352*
X01854*
X01845Y00345*
X01838Y00335*
X01833Y00325*
X01832Y00313*
X01833Y00301*
X01838Y00291*
X01845Y00281*
X01854Y00274*
X01855*
Y00096*
X01854*
X01845Y00089*
X01838Y00079*
X01833Y00069*
X01832Y00057*
X01833Y00045*
X01838Y00035*
X01845Y00025*
X01854Y00018*
X01861Y00015*
X0186Y0001*
X00158*
Y00015*
X00171Y00016*
X00192Y00021*
X00211Y00029*
X0023Y0004*
X00246Y00054*
X00259Y00069*
X00261Y0007*
X00262Y00069*
X00264Y00068*
X00267Y00061*
X00273Y00054*
X0028Y00048*
X00289Y00045*
X00298Y00044*
X00307Y00045*
X00315Y00048*
X00323Y00054*
X00328Y00061*
X00332Y0007*
X00333Y00079*
X00332Y00088*
X00328Y00097*
X00323Y00104*
X00315Y00109*
X00307Y00113*
X00298Y00114*
X00289Y00113*
X00285Y00111*
X0028Y00115*
X00284Y00129*
X00285Y0015*
X00284Y00171*
X00279Y00192*
X00271Y00211*
X0026Y0023*
X00246Y00246*
X0023Y0026*
X00211Y00271*
X00192Y00279*
X00171Y00284*
X0015Y00285*
X00129Y00284*
X00108Y00279*
X00089Y00271*
X0007Y0026*
X00054Y00246*
X0004Y0023*
X00029Y00211*
X00021Y00192*
X00016Y00171*
X00015Y00158*
X0001*
Y01829*
X00015*
X0002Y01808*
X00028Y01788*
X0004Y0177*
X00054Y01754*
X0007Y0174*
X00088Y01728*
X00108Y0172*
X00129Y01715*
X0015Y01714*
X00171Y01715*
X00192Y0172*
X00212Y01728*
X0023Y0174*
X00246Y01754*
X0026Y0177*
X00272Y01788*
X0028Y01808*
X00285Y01829*
X00286Y0185*
X00285Y01871*
X00282Y01884*
X00286Y01887*
X00288Y01886*
X00297Y01885*
X00306Y01886*
X00315Y0189*
X00322Y01895*
X00327Y01902*
X00331Y01911*
X00332Y0192*
X00331Y01929*
X00327Y01938*
X00322Y01945*
X00315Y01951*
X00306Y01954*
X00297Y01955*
X00288Y01954*
X00279Y01951*
X00272Y01945*
X00266Y01938*
X00264Y01933*
X00259Y01932*
X00246Y01946*
X0023Y0196*
X00212Y01972*
X00192Y0198*
X00171Y01985*
Y0199*
X01909*
X0191Y01985*
X01908Y01984*
X01898Y01977*
X01891Y01967*
X01887Y01957*
Y01956*
X01881Y01953*
X01876Y01955*
X01867Y01956*
X01858Y01955*
X0185Y01952*
X01842Y01946*
X01837Y01939*
X01833Y0193*
X01832Y01921*
X01833Y01912*
X01837Y01903*
X01842Y01896*
X0185Y0189*
X01858Y01887*
X01867Y01886*
X01876Y01887*
X01885Y0189*
X01892Y01896*
X01898Y01903*
X01899Y01907*
X01904Y01909*
X01908Y01906*
X01918Y01902*
X0193Y019*
X01942Y01902*
X01952Y01906*
X01962Y01913*
X01969Y01923*
Y01924*
X02147*
Y01923*
X02154Y01913*
X02163Y01906*
X02174Y01902*
X02186Y019*
X02198Y01902*
X02208Y01906*
X02218Y01913*
X02225Y01923*
X02226Y01926*
X02232Y01928*
X02237Y01925*
Y01945*
Y01965*
X02232Y01962*
X02226Y01964*
X02225Y01967*
X02218Y01977*
X02208Y01984*
X02206Y01985*
X02207Y0199*
X02356*
X02357Y01985*
X02348Y01981*
X02338Y01974*
X02331Y01965*
X02327Y01954*
X02325Y01942*
X02327Y01931*
X02331Y0192*
X02338Y0191*
X02348Y01903*
X02358Y01899*
X0237Y01897*
X02382Y01899*
X02392Y01903*
X02402Y0191*
X02409Y0192*
Y01921*
X02587*
Y0192*
X02594Y0191*
X02603Y01903*
X02614Y01899*
X02626Y01897*
X02638Y01899*
X02648Y01903*
X02658Y0191*
X02665Y0192*
X02669Y01931*
X02671Y01942*
X02669Y01954*
X02665Y01965*
X02658Y01974*
X02648Y01981*
X02639Y01985*
X0264Y0199*
X02829*
Y01985*
G37*
G36*
X0299Y01829D02*
Y01721D01*
X02985Y01719*
Y0172*
X02979Y01724*
X02972Y01727*
X02965Y01728*
X02958Y01727*
X02951Y01724*
X02948Y01721*
X02909*
X02907*
X02906Y01726*
X02912Y01728*
X0293Y0174*
X02946Y01754*
X0296Y0177*
X02972Y01788*
X0298Y01808*
X02985Y01829*
X0299*
G37*
G36*
X02491Y00934D02*
X02486Y00927D01*
X02482Y00917*
X0248Y00905*
X02482Y00893*
Y00892*
X02453Y00863*
X0243*
X02428*
X0238*
Y00903*
Y00907*
Y00939*
X02488*
X02491Y00934*
G37*
G36*
X01925Y0079D02*
X01932Y00785D01*
X0194Y00784*
X01979*
X0198Y00781*
X01981Y00779*
X01975Y00775*
X01971Y00769*
X01968Y00762*
X01967Y00755*
X01968Y00748*
X01971Y00741*
X01975Y00735*
X01981Y00731*
X01988Y00728*
X01995Y00727*
X02002Y00728*
X02009Y00731*
X02012Y00734*
X02023*
Y00722*
X02028*
Y00711*
X02065*
Y00691*
X02026*
X02025Y0069*
X02024Y00681*
Y00669*
X02019Y00667*
X01843Y00843*
X01844Y00849*
X01848Y00852*
X01851Y00856*
X01857Y00857*
X01925Y0079*
G37*
G36*
X01796Y00551D02*
X01802Y00557D01*
X02018Y0034*
X02015Y00335*
X0201Y00325*
X02009Y00313*
X0201Y00301*
X02015Y00291*
X02022Y00281*
X02031Y00274*
X02032*
Y00096*
X02031*
X02022Y00089*
X02015Y00079*
X0201Y00069*
X02009Y00057*
X0201Y00045*
X02015Y00035*
X02022Y00025*
X02031Y00018*
X02038Y00015*
X02037Y0001*
X01893*
X01892Y00015*
X01899Y00018*
X01908Y00025*
X01915Y00035*
X0192Y00045*
X01921Y00057*
X0192Y00069*
X01915Y00079*
X01908Y00089*
X01899Y00096*
X01898*
Y00274*
X01899*
X01908Y00281*
X01915Y00291*
X0192Y00301*
X01921Y00313*
X0192Y00325*
X01915Y00335*
X01908Y00345*
X01899Y00352*
X01898*
Y00366*
X01896Y00374*
X01892Y00381*
X01763Y0051*
X01767Y00515*
X0172Y00563*
X01726Y00569*
X01738Y00557*
X01757Y00576*
X01764Y00569*
X01771Y00576*
X01796Y00551*
G37*
G36*
X02083Y00365D02*
Y00355D01*
Y00353*
Y00352*
X02077Y00351*
X02076Y00352*
X02065Y00356*
X02061Y00357*
X0206Y00359*
X01709Y0071*
X01711Y00715*
X01715Y00719*
X01718Y00723*
X01724Y00724*
X02083Y00365*
G37*
%LNtemperature_monitor_&_display_copper_signal_top-2*%
%LPC*%
G36*
X02257Y01965D02*
Y01955D01*
X02267*
X02263Y01961*
X02257Y01965*
G37*
G36*
X01513Y01956D02*
X01504Y01955D01*
X01495Y01952*
X01488Y01946*
X01487*
X0148Y01952*
X01471Y01955*
X01462Y01956*
X01453Y01955*
X01445Y01952*
X01437Y01946*
X01432Y01939*
X01428Y0193*
X01427Y01921*
X01428Y01912*
X01432Y01903*
X01437Y01896*
X01445Y0189*
X01453Y01887*
X01462Y01886*
X01471Y01887*
X0148Y0189*
X01487Y01896*
X01488*
X01495Y0189*
X01504Y01887*
X01513Y01886*
X01522Y01887*
X0153Y0189*
X01538Y01896*
X01543Y01903*
X01547Y01912*
X01548Y01921*
X01547Y0193*
X01543Y01939*
X01538Y01946*
X0153Y01952*
X01522Y01955*
X01513Y01956*
G37*
G36*
X01108D02*
X01099Y01955D01*
X0109Y01952*
X01083Y01946*
X01082*
X01075Y01952*
X01066Y01955*
X01057Y01956*
X01048Y01955*
X0104Y01952*
X01032Y01946*
X01027Y01939*
X01023Y0193*
X01022Y01921*
X01023Y01912*
X01027Y01903*
X01032Y01896*
X0104Y0189*
X01048Y01887*
X01057Y01886*
X01066Y01887*
X01075Y0189*
X01082Y01896*
X01083*
X0109Y0189*
X01099Y01887*
X01108Y01886*
X01117Y01887*
X01125Y0189*
X01133Y01896*
X01138Y01903*
X01142Y01912*
X01143Y01921*
X01142Y0193*
X01138Y01939*
X01133Y01946*
X01125Y01952*
X01117Y01955*
X01108Y01956*
G37*
G36*
X00703D02*
X00694Y01955D01*
X00685Y01952*
X00678Y01946*
X00677Y01945*
X00676*
X00669Y01951*
X0066Y01954*
X00651Y01955*
X00642Y01954*
X00634Y01951*
X00626Y01945*
X00621Y01938*
X00617Y01929*
X00616Y0192*
X00617Y01911*
X00621Y01902*
X00626Y01895*
X00634Y0189*
X00642Y01886*
X00651Y01885*
X0066Y01886*
X00669Y0189*
X00676Y01895*
X00677Y01896*
X00678*
X00685Y0189*
X00694Y01887*
X00703Y01886*
X00712Y01887*
X0072Y0189*
X00728Y01896*
X00733Y01903*
X00737Y01912*
X00738Y01921*
X00737Y0193*
X00733Y01939*
X00728Y01946*
X0072Y01952*
X00712Y01955*
X00703Y01956*
G37*
G36*
X02267Y01935D02*
X02257D01*
Y01925*
X02263Y01929*
X02267Y01935*
G37*
G36*
X01759Y01923D02*
Y01894D01*
X01788*
X01784Y01904*
X01778Y01913*
X01769Y01919*
X01759Y01923*
G37*
G36*
X01354D02*
Y01894D01*
X01383*
X01379Y01904*
X01373Y01913*
X01364Y01919*
X01354Y01923*
G37*
G36*
X00949D02*
Y01894D01*
X00978*
X00974Y01904*
X00968Y01913*
X00959Y01919*
X00949Y01923*
G37*
G36*
X00929D02*
D01*
X00919Y01919*
X00911Y01913*
X00904Y01904*
X009Y01894*
X00929*
Y01923*
G37*
G36*
X01334D02*
D01*
X01324Y01919*
X01316Y01913*
X01309Y01904*
X01305Y01894*
X01334*
Y01923*
G37*
G36*
X01739D02*
D01*
X01729Y01919*
X01721Y01913*
X01714Y01904*
X0171Y01894*
X01739*
Y01923*
G37*
G36*
X00543Y01922D02*
Y01893D01*
X00572*
Y01894*
X00568Y01903*
X00562Y01912*
X00553Y01918*
X00544Y01922*
X00543*
G37*
G36*
X00523D02*
D01*
X00513Y01918*
X00505Y01912*
X00498Y01903*
X00494Y01894*
Y01893*
X00523*
Y01922*
G37*
G36*
X01788Y01874D02*
X01759D01*
Y01845*
X01769Y01849*
X01778Y01856*
X01784Y01864*
X01788Y01874*
G37*
G36*
X01383D02*
X01354D01*
Y01845*
X01364Y01849*
X01373Y01856*
X01379Y01864*
X01383Y01874*
G37*
G36*
X00978D02*
X00949D01*
Y01845*
X00959Y01849*
X00968Y01856*
X00974Y01864*
X00978Y01874*
G37*
G36*
X01334D02*
X01305D01*
X01309Y01864*
X01316Y01856*
X01324Y01849*
X01334Y01845*
Y01874*
G37*
G36*
X00929D02*
X009D01*
X00904Y01864*
X00911Y01856*
X00919Y01849*
X00929Y01845*
Y01874*
G37*
G36*
X01739D02*
X0171D01*
X01714Y01864*
X01721Y01856*
X01729Y01849*
X01739Y01845*
Y01874*
G37*
G36*
X00572Y01873D02*
X00543D01*
Y01844*
X00544*
X00553Y01848*
X00562Y01855*
X00568Y01863*
X00572Y01873*
G37*
G36*
X00523D02*
X00494D01*
X00498Y01863*
X00505Y01855*
X00513Y01848*
X00523Y01844*
Y01873*
G37*
G36*
X01631Y01929D02*
X01619Y01928D01*
X01608Y01923*
X01599Y01916*
X01592Y01907*
X01587Y01896*
X01586Y01884*
X01587Y01872*
X01592Y01861*
X01599Y01852*
X01608Y01845*
X01619Y0184*
X01631Y01839*
X01643Y0184*
X01654Y01845*
X01663Y01852*
X0167Y01861*
X01675Y01872*
X01676Y01884*
X01675Y01896*
X0167Y01907*
X01663Y01916*
X01654Y01923*
X01643Y01928*
X01631Y01929*
G37*
G36*
X01226D02*
X01214Y01928D01*
X01203Y01923*
X01194Y01916*
X01187Y01907*
X01182Y01896*
X01181Y01884*
X01182Y01872*
X01187Y01861*
X01194Y01852*
X01203Y01845*
X01214Y0184*
X01226Y01839*
X01238Y0184*
X01249Y01845*
X01258Y01852*
X01265Y01861*
X0127Y01872*
X01271Y01884*
X0127Y01896*
X01265Y01907*
X01258Y01916*
X01249Y01923*
X01238Y01928*
X01226Y01929*
G37*
G36*
X00821D02*
X00809Y01928D01*
X00798Y01923*
X00789Y01916*
X00782Y01907*
X00777Y01896*
X00776Y01884*
X00777Y01872*
X00782Y01861*
X00789Y01852*
X00798Y01845*
X00809Y0184*
X00821Y01839*
X00833Y0184*
X00844Y01845*
X00853Y01852*
X0086Y01861*
X00865Y01872*
X00866Y01884*
X00865Y01896*
X0086Y01907*
X00853Y01916*
X00844Y01923*
X00833Y01928*
X00821Y01929*
G37*
G36*
X00415Y01928D02*
X00403Y01927D01*
X00392Y01922*
X00383Y01915*
X00376Y01906*
X00371Y01895*
X0037Y01883*
X00371Y01871*
X00376Y0186*
X00383Y01851*
X00392Y01844*
X00403Y01839*
X00415Y01838*
X00427Y01839*
X00438Y01844*
X00447Y01851*
X00454Y0186*
X00459Y01871*
X0046Y01883*
X00459Y01895*
X00454Y01906*
X00447Y01915*
X00438Y01922*
X00427Y01927*
X00415Y01928*
G37*
G36*
X02186Y01813D02*
X02174Y01811D01*
X02163Y01807*
X02154Y018*
X02147Y0179*
Y01789*
X01969*
Y0179*
X01962Y018*
X01952Y01807*
X01942Y01811*
X0193Y01813*
X01918Y01811*
X01908Y01807*
X01898Y018*
X01891Y0179*
X01887Y01779*
X01885Y01768*
X01887Y01756*
X01891Y01745*
X01898Y01736*
X01908Y01729*
X01918Y01724*
X0193Y01723*
X01942Y01724*
X01952Y01729*
X01962Y01736*
X01969Y01745*
Y01746*
X02147*
Y01745*
X02154Y01736*
X02163Y01729*
X02174Y01724*
X02186Y01723*
X02198Y01724*
X02208Y01729*
X02218Y01736*
X02222Y01742*
X02229Y01743*
X02231Y01741*
X02238Y01738*
X02245Y01737*
X02252Y01738*
X02259Y01741*
X02265Y01745*
X02269Y01751*
X02272Y01758*
X02273Y01765*
X02272Y01772*
X02269Y01779*
X02265Y01785*
X02259Y01789*
X02252Y01792*
X02245Y01793*
X02238Y01792*
X02231Y01789*
X0223Y01788*
X02226Y01789*
X02225Y0179*
X02218Y018*
X02208Y01807*
X02198Y01811*
X02186Y01813*
G37*
G36*
X01749Y01811D02*
X01737Y0181D01*
X01726Y01805*
X01717Y01798*
X0171Y01789*
X01705Y01778*
X01704Y01766*
X01705Y01754*
X0171Y01743*
X01717Y01734*
X01726Y01727*
X01737Y01722*
X01749Y01721*
X01761Y01722*
X01772Y01727*
X01781Y01734*
X01788Y01743*
X01793Y01754*
X01794Y01766*
X01793Y01778*
X01788Y01789*
X01781Y01798*
X01772Y01805*
X01761Y0181*
X01749Y01811*
G37*
G36*
X01631D02*
X01619Y0181D01*
X01608Y01805*
X01599Y01798*
X01592Y01789*
X01587Y01778*
X01586Y01766*
X01587Y01754*
X01592Y01743*
X01599Y01734*
X01608Y01727*
X01619Y01722*
X01631Y01721*
X01643Y01722*
X01654Y01727*
X01663Y01734*
X0167Y01743*
X01675Y01754*
X01676Y01766*
X01675Y01778*
X0167Y01789*
X01663Y01798*
X01654Y01805*
X01643Y0181*
X01631Y01811*
G37*
G36*
X01344D02*
X01332Y0181D01*
X01321Y01805*
X01312Y01798*
X01305Y01789*
X013Y01778*
X01299Y01766*
X013Y01754*
X01305Y01743*
X01312Y01734*
X01321Y01727*
X01332Y01722*
X01344Y01721*
X01356Y01722*
X01367Y01727*
X01376Y01734*
X01383Y01743*
X01388Y01754*
X01389Y01766*
X01388Y01778*
X01383Y01789*
X01376Y01798*
X01367Y01805*
X01356Y0181*
X01344Y01811*
G37*
G36*
X00939D02*
X00927Y0181D01*
X00916Y01805*
X00907Y01798*
X009Y01789*
X00895Y01778*
X00894Y01766*
X00895Y01754*
X009Y01743*
X00907Y01734*
X00916Y01727*
X00927Y01722*
X00939Y01721*
X00951Y01722*
X00962Y01727*
X00971Y01734*
X00978Y01743*
X00983Y01754*
X00984Y01766*
X00983Y01778*
X00978Y01789*
X00971Y01798*
X00962Y01805*
X00951Y0181*
X00939Y01811*
G37*
G36*
X00821D02*
X00809Y0181D01*
X00798Y01805*
X00789Y01798*
X00782Y01789*
X00777Y01778*
X00776Y01766*
X00777Y01754*
X00782Y01743*
X00789Y01734*
X00798Y01727*
X00809Y01722*
X00821Y01721*
X00833Y01722*
X00844Y01727*
X00853Y01734*
X0086Y01743*
X00865Y01754*
X00866Y01766*
X00865Y01778*
X0086Y01789*
X00853Y01798*
X00844Y01805*
X00833Y0181*
X00821Y01811*
G37*
G36*
X00533Y0181D02*
X00521Y01809D01*
X0051Y01804*
X00501Y01797*
X00494Y01788*
X00489Y01777*
X00488Y01765*
X00489Y01753*
X00494Y01742*
X00501Y01733*
X0051Y01726*
X00521Y01721*
X00533Y0172*
X00545Y01721*
X00556Y01726*
X00565Y01733*
X00572Y01742*
X00577Y01753*
X00578Y01765*
X00577Y01777*
X00572Y01788*
X00565Y01797*
X00556Y01804*
X00545Y01809*
X00533Y0181*
G37*
G36*
X00415D02*
X00403Y01809D01*
X00392Y01804*
X00383Y01797*
X00376Y01788*
X00371Y01777*
X0037Y01765*
X00371Y01753*
X00376Y01742*
X00383Y01733*
X00392Y01726*
X00403Y01721*
X00415Y0172*
X00427Y01721*
X00438Y01726*
X00447Y01733*
X00454Y01742*
X00459Y01753*
X0046Y01765*
X00459Y01777*
X00454Y01788*
X00447Y01797*
X00438Y01804*
X00427Y01809*
X00415Y0181*
G37*
G36*
X01226Y01811D02*
X01214Y0181D01*
X01203Y01805*
X01194Y01798*
X01187Y01789*
X01182Y01778*
X01181Y01766*
X01182Y01754*
X01187Y01743*
X01194Y01734*
X01202Y01728*
Y01432*
X01203Y01424*
X01208Y01417*
X01264Y01361*
X01262Y01356*
X00249*
X00185Y01421*
Y01425*
X00184Y01434*
X00181Y01443*
X00175Y0145*
X00168Y01456*
X00159Y01459*
X0015Y0146*
X00141Y01459*
X00132Y01456*
X00125Y0145*
X00118Y01456*
X00109Y01459*
X001Y0146*
X00091Y01459*
X00082Y01456*
X00075Y0145*
X00069Y01443*
X00066Y01434*
X00065Y01425*
X00066Y01416*
X00069Y01407*
X00072Y01404*
X00075Y014*
X00072Y01396*
X00069Y01393*
X00066Y01384*
X00065Y01375*
X00066Y01366*
X00069Y01357*
X00072Y01354*
X00075Y0135*
X00072Y01346*
X00069Y01343*
X00066Y01334*
X00065Y01325*
X00066Y01316*
X00069Y01307*
X00075Y013*
X00079Y01297*
Y01296*
X00074Y0129*
X00071Y01283*
X0007Y01275*
X00051Y01256*
X00046Y01249*
X00045Y01241*
Y01144*
X00046Y01136*
X00051Y01129*
X00075Y01105*
X00106*
Y01095*
X00116*
Y01058*
X00125*
Y00976*
X00039*
Y00884*
X00119*
Y00868*
X00114Y00865*
X00108Y0087*
X00097Y00874*
X00085Y00876*
X00073Y00874*
X00062Y0087*
X00053Y00862*
X00045Y00853*
X00041Y00842*
X00039Y0083*
X00041Y00818*
X00045Y00807*
X00053Y00798*
X00062Y0079*
X00073Y00786*
X00085Y00784*
X00097Y00786*
X00108Y0079*
X00114Y00795*
X00119Y00792*
Y00775*
X00121Y00766*
X00117Y00762*
X00108Y0077*
X00097Y00774*
X00085Y00776*
X00073Y00774*
X00062Y0077*
X00053Y00762*
X00045Y00753*
X00041Y00742*
X00039Y0073*
X00041Y00718*
X00045Y00707*
X00053Y00698*
X00062Y0069*
X00073Y00686*
X00085Y00684*
X00097Y00686*
X00108Y0069*
X00117Y00698*
X00125Y00707*
X00129Y00718*
X00131Y0073*
X00129Y00742*
X00125Y00753*
X00129Y00756*
X00141Y00743*
Y00742*
X00139Y0073*
X00141Y00718*
X00145Y00707*
X00153Y00698*
X00162Y0069*
X00173Y00686*
X00185Y00684*
X00197Y00686*
X00208Y0069*
X00217Y00698*
X00225Y00707*
X00229Y00718*
X00231Y0073*
X00229Y00742*
X00225Y00753*
X00217Y00762*
X00208Y0077*
X00197Y00774*
X00185Y00776*
X00173Y00774*
X00172*
X00165Y00781*
Y00784*
X0017Y00787*
X00173Y00786*
X00185Y00784*
X00197Y00786*
X00208Y0079*
X00217Y00798*
X00225Y00807*
X00229Y00818*
X00231Y0083*
X00229Y00842*
X00225Y00853*
X00217Y00862*
X00208Y0087*
X00197Y00874*
X00185Y00876*
X00173Y00874*
X00167Y00872*
X00162Y00875*
Y00891*
X00167Y00894*
X00174Y00891*
X00175Y0089*
Y0093*
Y0097*
X00174Y00969*
X00172*
X00168Y00971*
Y01053*
X002*
Y01137*
X00168*
Y01146*
X00167Y01154*
X00162Y01161*
X00137Y01185*
X00139Y0119*
X00185*
Y01197*
X00211*
X00219Y01199*
X00226Y01203*
X00268Y01245*
X00883*
X00885Y0124*
X0079Y01145*
X00785Y01138*
X00784Y0113*
Y00249*
X00778*
X00771Y00248*
X00764Y00245*
X00758Y0024*
X00753Y00234*
X0075Y00227*
X00749Y0022*
Y00217*
X00746Y00214*
X007*
X00543Y0037*
X00536Y00375*
X00528Y00376*
X00505*
Y00399*
X00385*
Y00321*
X00394*
Y00274*
X00393Y00273*
X00384Y00266*
X00377Y00257*
X00372Y00246*
X00371Y00234*
X00372Y00222*
X00377Y00211*
X00384Y00202*
X00393Y00195*
X00404Y0019*
X00416Y00189*
X00428Y0019*
X00439Y00195*
X00448Y00202*
X00455Y00211*
X0046Y00222*
X00461Y00234*
X0046Y00246*
X00455Y00257*
X00448Y00266*
X00439Y00273*
X00437Y00274*
Y00321*
X00505*
Y00334*
X00519*
X00668Y00184*
Y00158*
X0064*
X00577Y00221*
X00578Y00222*
X00579Y00234*
X00578Y00246*
X00573Y00257*
X00566Y00266*
X00557Y00273*
X00546Y00278*
X00534Y00279*
X00522Y00278*
X00511Y00273*
X00502Y00266*
X00495Y00257*
X0049Y00246*
X00489Y00234*
X0049Y00222*
X00495Y00211*
X00502Y00202*
X00511Y00195*
X00522Y0019*
X00534Y00189*
X00546Y0019*
X00547Y00191*
X00616Y00121*
X00623Y00117*
X00631Y00115*
X00635*
X00636Y0011*
X00634Y00109*
X00627Y00104*
X00622Y00097*
X00618Y00088*
X00617Y00079*
X00618Y0007*
X00622Y00061*
X00627Y00054*
X00634Y00048*
X00643Y00045*
X00652Y00044*
X00661Y00045*
X0067Y00048*
X00677Y00054*
X00683Y00061*
X00686Y0007*
X00687Y00079*
Y0008*
X00691Y00083*
X00747*
X0075Y00078*
Y00077*
X00749Y0007*
X0075Y00062*
X00753Y00055*
X00758Y00049*
X00764Y00045*
X00771Y00042*
X00778Y00041*
X00849*
X00856Y00042*
X00863Y00045*
X00869Y00049*
X00874Y00055*
X00877Y00062*
X00878Y0007*
X00877Y00077*
X00874Y00084*
X00869Y0009*
X00867Y00092*
Y00097*
X00869Y00099*
X00874Y00105*
X00877Y00112*
X00878Y0012*
X00877Y00127*
X00874Y00134*
X00869Y0014*
X00867Y00142*
Y00147*
X00869Y00149*
X00874Y00155*
X00877Y00162*
X00878Y0017*
X00877Y00177*
X00874Y00184*
X00869Y0019*
X00867Y00192*
Y00197*
X00869Y00199*
X00874Y00205*
X00877Y00212*
X00878Y0022*
X00877Y00227*
X00874Y00234*
X00869Y0024*
X00863Y00245*
X00856Y00248*
X00849Y00249*
X00826*
Y01121*
X00859Y01153*
X00864Y01151*
X00866Y01146*
X0087Y0114*
X00876Y01136*
X00879Y01135*
X0088Y01129*
X00875Y01123*
X00933Y01065*
X00956Y01087*
X00997Y01046*
X01004Y01041*
X01012Y0104*
X01089*
X01118Y01011*
X01124Y01007*
X0113Y01004*
X01137Y01003*
X01143Y01004*
X0115Y01007*
X01155Y01011*
X01159Y01016*
X01162Y01022*
Y01026*
X01166*
X01172Y01029*
X01177Y01033*
X01182Y01038*
X01184Y01045*
X01185Y01048*
X01188Y01049*
X01194Y01051*
X012Y01055*
X01204Y01061*
X01206Y01067*
X01207Y0107*
X0121Y01071*
X01217Y01073*
X01222Y01078*
X01226Y01083*
X01229Y01089*
Y01093*
X01233*
X01239Y01096*
X01244Y011*
X01248Y01105*
X01251Y01112*
Y01115*
X01255*
X01261Y01118*
X01266Y01122*
X01271Y01128*
X01273Y01134*
X01274Y01137*
X01277Y01138*
X01283Y0114*
X01289Y01144*
X01293Y0115*
X01295Y01156*
X01296Y0116*
X01299*
X01306Y01163*
X01311Y01167*
X01315Y01172*
X01318Y01178*
Y01182*
X01322*
X01328Y01185*
X01333Y01189*
X01337Y01194*
X0134Y01201*
Y01204*
X01344Y01205*
X0135Y01207*
X01356Y01211*
X0136Y01217*
X01362Y01223*
X01363Y01226*
X01366Y01227*
X01372Y01229*
X01378Y01234*
X01382Y01239*
X01385Y01245*
Y01249*
X01388*
X01395Y01252*
X014Y01256*
X01404Y01261*
X01407Y01267*
X01408Y01274*
Y01276*
X0141*
X01407Y01279*
Y01281*
X01404Y01287*
X014Y01293*
X01383Y01309*
X01391Y01317*
X01408Y013*
X01413Y01296*
X01419Y01294*
X01421Y01293*
X01424Y01291*
Y01293*
X01426*
X01433Y01294*
X01439Y01296*
X01445Y013*
X01449Y01306*
X01451Y01312*
X01452Y01315*
X01455Y01316*
X01462Y01318*
X01467Y01323*
X01471Y01328*
X01474Y01334*
Y01338*
X01478*
X01484Y01341*
X01489Y01345*
X01493Y0135*
X01496Y01357*
X01497Y01363*
X01496Y0137*
X01493Y01376*
X01489Y01382*
X01468Y01403*
X01568Y01504*
X01633*
X01635Y01499*
X01558Y01422*
X01556*
X0155Y01419*
X01544Y01415*
X01511Y01382*
X01507Y01376*
X01504Y0137*
X01503Y01363*
X01504Y01357*
X01507Y0135*
X01511Y01345*
X01516Y01341*
X01522Y01338*
X01526*
Y01334*
X01529Y01328*
X01533Y01323*
X01538Y01318*
X01545Y01316*
X01548Y01315*
X01549Y01312*
X01551Y01306*
X01555Y013*
X01561Y01296*
X01567Y01294*
X0157Y01293*
X01571Y0129*
X01573Y01283*
X01578Y01278*
X01583Y01274*
X01589Y01271*
X01593*
Y01267*
X01596Y01261*
X016Y01256*
X01605Y01252*
X01612Y01249*
X01615*
Y01245*
X01618Y01239*
X01622Y01234*
X01628Y01229*
X01634Y01227*
X01637Y01226*
X01638Y01223*
X0164Y01217*
X01644Y01211*
X0165Y01207*
X01656Y01205*
X0166Y01204*
Y01201*
X01663Y01194*
X01667Y01189*
X01672Y01185*
X01678Y01182*
X01682*
Y01178*
X01685Y01172*
X01689Y01167*
X01694Y01163*
X01701Y0116*
X01704*
X01705Y01156*
X01707Y0115*
X01711Y01144*
X01717Y0114*
X01723Y01138*
X01726Y01137*
X01727Y01134*
X01729Y01128*
X01734Y01122*
X01739Y01118*
X01745Y01115*
X01749*
Y01112*
X01752Y01105*
X01756Y011*
X01761Y01096*
X01767Y01093*
X01771*
Y01089*
X01774Y01083*
X01778Y01078*
X01783Y01073*
X0179Y01071*
X01793Y0107*
X01794Y01067*
X01796Y01061*
X018Y01055*
X01806Y01051*
X01812Y01049*
X01815Y01048*
X01816Y01045*
X01818Y01038*
X01823Y01033*
X01828Y01029*
X01834Y01026*
X01838*
Y01022*
X01841Y01016*
X01845Y01011*
X0185Y01007*
X01857Y01004*
X01863Y01003*
X0187Y01004*
X01876Y01007*
X01882Y01011*
X01915Y01044*
X01919Y0105*
X01922Y01056*
X01923Y01063*
X01922Y01069*
X01919Y01076*
X01915Y01081*
X0191Y01085*
X01903Y01088*
X019*
Y01092*
X01897Y01098*
X01893Y01103*
X01887Y01107*
X01881Y0111*
X01878Y01111*
X01877Y01114*
X01875Y0112*
X01872Y01123*
Y01124*
X01874Y01129*
X01879Y01131*
X01885Y01135*
X01889Y01141*
X01892Y01148*
X01893Y01155*
X01892Y01162*
X01889Y01169*
X01885Y01175*
X01879Y01179*
X01872Y01182*
X01865Y01183*
X01862Y01182*
X01857Y01187*
X01858Y0119*
X01857Y01197*
X01854Y01204*
X0185Y0121*
X01844Y01214*
X01837Y01217*
X0183Y01218*
X01823Y01217*
X01816Y01214*
X0181Y0121*
X01806Y01204*
X01804Y01199*
X01799Y01196*
X01798Y01197*
X01792Y01199*
X01789Y012*
X01788Y01203*
X01786Y01209*
X01781Y01215*
X01776Y01219*
X0177Y01221*
X01766Y01222*
Y01225*
X01763Y01232*
X01759Y01237*
X01754Y01241*
X01748Y01244*
X01744*
Y01248*
X01741Y01254*
X01737Y01259*
X01732Y01263*
X01725Y01266*
X01722*
X01721Y0127*
X01719Y01276*
X01715Y01281*
X01712Y01284*
X01713Y01289*
X02521*
X02528Y01282*
Y01278*
X02531Y01271*
X02535Y01265*
X02541Y01261*
X02548Y01258*
X02555Y01257*
X02562Y01258*
X02569Y01261*
X02572Y01264*
X0258*
Y01255*
X0266*
Y01305*
Y01355*
Y01405*
Y01465*
X0258*
Y0146*
X02574*
X0257Y01463*
X02564Y01465*
X02556Y01466*
X02549Y01465*
X02543Y01463*
X02539Y0146*
X01663*
X01661Y01465*
X0168Y01484*
X02794*
X02803Y01485*
X0281Y0149*
X02882Y01562*
X02929*
Y01635*
X02851*
Y01592*
X02786Y01526*
X02713*
X02711Y01531*
X02742Y01562*
X02789*
Y01635*
X02711*
Y01592*
X02666Y01546*
X02594*
X02592Y01551*
X02602Y01561*
X02649*
Y01634*
X02571*
Y01591*
X02547Y01566*
X02509*
Y01634*
X02431*
Y01591*
X02427Y01586*
X01542*
X01534Y01585*
X01527Y0158*
X01375Y01428*
X0137Y01421*
X01369Y01413*
Y014*
X01364Y01398*
X01341Y01421*
X01327Y01407*
X0135Y01384*
X01336Y0137*
X01313Y01393*
X01302Y01383*
X01287Y01399*
X01328Y01441*
X01294Y01475*
X01292Y01477*
X01284Y01486*
X01287Y01493*
X01288Y015*
X01287Y01507*
X01284Y01514*
X0128Y0152*
X01274Y01524*
X01267Y01527*
X0126Y01528*
X01253Y01527*
X0125Y01525*
X01245Y01529*
Y01725*
X01249Y01727*
X01258Y01734*
X01265Y01743*
X0127Y01754*
X01271Y01766*
X0127Y01778*
X01265Y01789*
X01258Y01798*
X01249Y01805*
X01238Y0181*
X01226Y01811*
G37*
G36*
X0296Y01465D02*
X0288D01*
Y01405*
Y01355*
Y01305*
Y01255*
X02899*
Y01222*
X02896Y01219*
X02893Y01212*
X02892Y01205*
X02893Y01198*
X02896Y01191*
X029Y01185*
X02906Y01181*
X02913Y01178*
X0292Y01177*
X02927Y01178*
X02934Y01181*
X0294Y01185*
X02944Y01191*
X02947Y01198*
X02948Y01205*
X02947Y01212*
X02944Y01219*
X02941Y01222*
Y01255*
X0296*
Y01305*
Y01355*
Y01405*
Y01465*
G37*
G36*
X00096Y01085D02*
X00075D01*
Y01058*
X00096*
Y01085*
G37*
G36*
X02732Y01006D02*
Y00977D01*
X02761*
X02757Y00987*
X0275Y00995*
X02742Y01002*
X02732Y01006*
G37*
G36*
X02712D02*
X02711D01*
X02702Y01002*
X02693Y00995*
X02687Y00987*
X02683Y00977*
X02712*
Y01006*
G37*
G36*
X00195Y0097D02*
Y0094D01*
X00225*
X00224Y00941*
X0022Y0095*
X00214Y00959*
X00205Y00965*
X00196Y00969*
X00195Y0097*
G37*
G36*
X02761Y00957D02*
X02732D01*
Y00928*
X02742Y00932*
X0275Y00938*
X02757Y00947*
X02761Y00956*
Y00957*
G37*
G36*
X02712D02*
X02683D01*
Y00956*
X02687Y00947*
X02693Y00938*
X02702Y00932*
X02711Y00928*
X02712*
Y00957*
G37*
G36*
X00225Y0092D02*
X00195D01*
Y0089*
X00196Y00891*
X00205Y00895*
X00214Y00901*
X0022Y0091*
X00224Y00919*
X00225Y0092*
G37*
G36*
X02761Y00652D02*
X02732D01*
Y00623*
X02742Y00627*
X0275Y00633*
X02757Y00642*
X02761Y00651*
Y00652*
G37*
G36*
X01137Y00997D02*
X0113Y00996D01*
X01124Y00993*
X01118Y00989*
X01085Y00956*
X01081Y0095*
X01078Y00944*
X01077Y00937*
X01078Y00931*
X0108Y00927*
X01078Y00922*
X01077Y00921*
X01071Y00919*
X01065Y00915*
X01061Y00909*
X01058Y00902*
X01057Y00895*
X01058Y00888*
X01061Y00881*
X01065Y00875*
X01071Y00871*
X01078Y00868*
X01085Y00867*
X01092Y00868*
X01099Y00871*
X01101Y00873*
X01107Y00872*
X01109Y00869*
Y00867*
X01106Y00864*
X01103Y00857*
X01102Y0085*
X01103Y00843*
X01106Y00836*
X0111Y0083*
X01116Y00826*
X01123Y00823*
X0113Y00822*
X01137Y00823*
X01144Y00826*
X0115Y0083*
X01154Y00836*
X01157Y00843*
Y00844*
X01161Y00846*
X01163Y00845*
X01167*
Y00842*
X0117Y00835*
X01174Y0083*
X01179Y00826*
X01186Y00823*
X01189*
Y00819*
X01192Y00813*
X01196Y00808*
X01202Y00803*
X01208Y00801*
X01211Y008*
X01212Y00797*
X01214Y00791*
X01219Y00785*
X01224Y00781*
X0123Y00779*
X01234Y00778*
Y00775*
X01237Y00768*
X01241Y00763*
X01246Y00759*
X01252Y00756*
X01256*
Y00752*
X01259Y00746*
X01263Y00741*
X01268Y00737*
X01275Y00734*
X01278*
X01279Y0073*
X01281Y00724*
X01285Y00719*
X01288Y00717*
Y00715*
X01287Y00711*
X01281Y00709*
X01275Y00705*
X01271Y00699*
X01268Y00692*
Y00688*
X01151Y00571*
X01146Y00564*
X01145Y00556*
Y00303*
X01069Y00227*
X01065Y00229*
X01064Y0023*
X01059Y00237*
X01051Y00242*
X01042Y00244*
X01036*
Y00285*
X00994*
Y00244*
X00971*
X00962Y00242*
X00954Y00237*
X00949Y0023*
X01006*
Y0021*
X00949*
X00954Y00203*
X00957Y00201*
X00956Y00195*
X0095Y0019*
X00946Y00184*
X00943Y00177*
X00942Y0017*
X00943Y00162*
X00946Y00155*
X0095Y00149*
X00953Y00147*
Y00142*
X0095Y0014*
X00946Y00134*
X00943Y00127*
X00942Y0012*
X00943Y00112*
X00946Y00105*
X0095Y00099*
X00953Y00097*
Y00092*
X0095Y0009*
X00946Y00084*
X00943Y00077*
X00942Y0007*
X00943Y00062*
X00946Y00055*
X0095Y00049*
X00956Y00045*
X00963Y00042*
X00971Y00041*
X01042*
X01049Y00042*
X01056Y00045*
X01062Y00049*
X01067Y00055*
X0107Y00062*
X01071Y00069*
X01239Y00237*
X01244Y00244*
X01246Y00252*
Y0047*
X01388Y00612*
X01394Y00611*
X01397Y00607*
X01402Y00603*
X01408Y006*
X01412*
Y00597*
X01415Y0059*
X01419Y00585*
X01424Y00581*
X01431Y00578*
X01437Y00577*
X01444Y00578*
X0145Y00581*
X01456Y00585*
X01489Y00618*
X01493Y00624*
X01496Y0063*
X01497Y00637*
X01496Y00643*
X01493Y0065*
X01489Y00655*
X01484Y00659*
X01478Y00662*
X01474*
Y00666*
X01471Y00672*
X01467Y00677*
X01462Y00682*
X01455Y00684*
X01452Y00685*
X01451Y00688*
X01449Y00694*
X01445Y007*
X01439Y00704*
X01433Y00706*
X0143Y00707*
X01429Y0071*
X01427Y00717*
X01422Y00722*
X01417Y00726*
X01411Y00729*
X01407*
Y00733*
X01404Y00739*
X014Y00744*
X01395Y00748*
X01388Y00751*
X01385*
Y00755*
X01382Y00761*
X01378Y00766*
X01372Y00771*
X01366Y00773*
X01363Y00774*
X01362Y00777*
X0136Y00783*
X01356Y00789*
X0135Y00793*
X01344Y00795*
X0134Y00796*
Y00799*
X01337Y00806*
X01333Y00811*
X01328Y00815*
X01322Y00818*
X01318*
Y00822*
X01315Y00828*
X01311Y00833*
X01306Y00837*
X01299Y0084*
X01296*
X01295Y00844*
X01293Y0085*
X01289Y00856*
X01283Y0086*
X01277Y00862*
X01274Y00863*
X01273Y00866*
X01271Y00872*
X01266Y00878*
X01261Y00882*
X01255Y00885*
X01251*
Y00888*
X01248Y00895*
X01244Y009*
X01239Y00904*
X01233Y00907*
X01229*
Y00911*
X01226Y00917*
X01222Y00922*
X01217Y00927*
X0121Y00929*
X01207Y0093*
X01206Y00933*
X01204Y00939*
X012Y00945*
X01194Y00949*
X01188Y00951*
X01185Y00952*
X01184Y00955*
X01182Y00962*
X01177Y00967*
X01172Y00971*
X01166Y00974*
X01162*
Y00978*
X01159Y00984*
X01155Y00989*
X0115Y00993*
X01143Y00996*
X01137Y00997*
G37*
G36*
X01025Y00315D02*
Y00305D01*
X01035*
X01031Y00311*
X01025Y00315*
G37*
G36*
X01005D02*
X00999Y00311D01*
X00995Y00305*
X01005*
Y00315*
G37*
G36*
X02722Y00368D02*
X02713Y00367D01*
X02704Y00364*
X02697Y00358*
X02691Y00351*
X02688Y00342*
X02687Y00333*
X02688Y00324*
X02691Y00315*
X02697Y00308*
X02704Y00302*
X02713Y00299*
X02722Y00298*
X02731Y00299*
X0274Y00302*
X02747Y00308*
X02752Y00315*
X02756Y00324*
X02757Y00333*
X02756Y00342*
X02752Y00351*
X02747Y00358*
X0274Y00364*
X02731Y00367*
X02722Y00368*
G37*
G36*
X02678Y00295D02*
X02669Y00294D01*
X0266Y00291*
X02653Y00285*
X02648Y00278*
X02644Y00269*
X02643Y0026*
X02644Y00251*
X02648Y00242*
X02653Y00235*
X0266Y0023*
X02669Y00226*
X02678Y00225*
X02687Y00226*
X02696Y0023*
X02703Y00235*
X02709Y00242*
X02712Y00251*
X02713Y0026*
X02712Y00269*
X02709Y00278*
X02703Y00285*
X02696Y00291*
X02687Y00294*
X02678Y00295*
G37*
G36*
X02311Y00171D02*
X02269D01*
Y00156*
X02191*
Y00171*
X02149*
Y00135*
Y00099*
X02191*
Y00114*
X02269*
Y00099*
X02311*
Y00135*
Y00171*
G37*
G36*
X02417Y002D02*
X0238D01*
X02337*
X02336Y00198*
X02334Y0019*
Y00171*
X02331*
Y00145*
X02375*
X02376Y00146*
X02377Y00155*
Y00178*
X02417*
Y002*
G37*
G36*
X02129Y00171D02*
X02088D01*
Y00145*
X02129*
Y00171*
G37*
G36*
X00426Y00155D02*
Y00126D01*
X00455*
X00451Y00136*
X00444Y00144*
X00436Y00151*
X00426Y00155*
G37*
G36*
X00406D02*
X00405D01*
X00396Y00151*
X00387Y00144*
X00381Y00136*
X00377Y00126*
X00406*
Y00155*
G37*
G36*
X02129Y00125D02*
X02088D01*
Y00099*
X02129*
Y00125*
G37*
G36*
X00455Y00106D02*
X00426D01*
Y00077*
X00436Y00081*
X00444Y00087*
X00451Y00096*
X00455Y00105*
Y00106*
G37*
G36*
X00406D02*
X00377D01*
Y00105*
X00381Y00096*
X00387Y00087*
X00396Y00081*
X00405Y00077*
X00406*
Y00106*
G37*
G36*
X00534Y00161D02*
X00522Y0016D01*
X00511Y00155*
X00502Y00148*
X00495Y00139*
X0049Y00128*
X00489Y00116*
X0049Y00104*
X00495Y00093*
X00502Y00084*
X00511Y00077*
X00522Y00072*
X00534Y00071*
X00546Y00072*
X00557Y00077*
X00566Y00084*
X00573Y00093*
X00578Y00104*
X00579Y00116*
X00578Y00128*
X00573Y00139*
X00566Y00148*
X00557Y00155*
X00546Y0016*
X00534Y00161*
G37*
G36*
X02405Y00075D02*
X02395D01*
Y00065*
X02401Y00069*
X02405Y00075*
G37*
G36*
X02377Y00125D02*
X02331D01*
Y00099*
X02342*
X02346Y00095*
X02348Y00091*
X02364Y00075*
X02369Y00069*
X02375Y00065*
Y00085*
X02385*
Y00095*
X02405*
X02401Y00101*
X02395Y00106*
X02381Y00119*
X02379Y00123*
X02377Y00125*
G37*
G36*
X01764Y00555D02*
X01752Y00543D01*
X0177Y00525*
X01782Y00536*
X01764Y00555*
G37*
%LNtemperature_monitor_&_display_copper_signal_top-3*%
%LPD*%
G36*
X02543Y01415D02*
X02549Y01412D01*
X02548Y01407*
X02541Y01404*
X02538Y01401*
X01649*
X01647Y01406*
X01658Y01417*
X02539*
X02543Y01415*
G37*
G36*
X01157Y0124D02*
X01156Y01239D01*
X01153Y01232*
X01152Y01226*
X01151Y01225*
X01148Y01222*
X01143Y01223*
X01136Y01222*
X01129Y01219*
X01123Y01215*
X01119Y01209*
X01116Y01202*
X01115Y01195*
X01116Y01188*
X01119Y01181*
X0112Y01179*
X01121Y01174*
X01115Y0117*
X01112Y01165*
X01108Y01167*
X011Y01169*
X01093*
X01057Y01205*
X01046Y01195*
X01Y0124*
X01002Y01245*
X01154*
X01157Y0124*
G37*
G36*
X0133Y00674D02*
X01334Y00671D01*
X01335Y00665*
X01193Y00522*
X01188Y00525*
Y00547*
X01298Y00658*
X01302*
X01309Y00661*
X01315Y00665*
X01319Y00671*
X01321Y00677*
X01322*
X01324Y00678*
X01327*
X0133Y00674*
G37*
G54D10*
X00415Y0036D03*
X00475D03*
G54D11*
X01006Y0007D03*
Y0012D03*
Y0017D03*
Y0022D03*
X00813Y0007D03*
Y0012D03*
Y0017D03*
Y0022D03*
G54D12*
X0071Y00177D03*
Y0012D03*
X02065Y00759D03*
Y00701D03*
X0238Y0021D03*
Y00267D03*
G54D13*
X02335Y00864D03*
Y00946D03*
G54D14*
X01764Y00569D03*
X01716Y00521D03*
X01699Y00599D03*
X01651Y00551D03*
G54D15*
X01343Y01377D03*
X01277Y01443D03*
G54D16*
X0093Y0112D03*
X0097Y0116D03*
X0106Y0115D03*
X0102Y0111D03*
G54D17*
X00164Y01095D03*
X00106D03*
G54D18*
X02415Y00827D03*
Y00753D03*
G54D19*
X02136Y00805D03*
Y00755D03*
Y00705D03*
Y00655D03*
X02344D03*
Y00705D03*
Y00755D03*
Y00805D03*
G54D20*
X02321Y00135D03*
Y00335D03*
X02139D03*
Y00135D03*
G54D21*
X0292Y01285D03*
Y01335D03*
Y01385D03*
Y01435D03*
X0262D03*
Y01385D03*
Y01335D03*
Y01285D03*
G54D22*
X0289Y01681D03*
Y01599D03*
X0275Y01681D03*
Y01599D03*
X0261Y0168D03*
Y01597D03*
X0247Y0168D03*
Y01597D03*
G54D23*
X0112Y01046D03*
X01142Y01068D03*
X01165Y0109D03*
X01187Y01113D03*
X01209Y01135D03*
X01231Y01157D03*
X01254Y0118D03*
X01276Y01202D03*
X01298Y01224D03*
X0132Y01246D03*
X01343Y01269D03*
X01365Y01291D03*
X01387Y01313D03*
X0141Y01335D03*
X01432Y01358D03*
X01454Y0138D03*
X0188Y00954D03*
X01858Y00932D03*
X01835Y0091D03*
X01813Y00887D03*
X01791Y00865D03*
X01769Y00843D03*
X01746Y0082D03*
X01724Y00798D03*
X01702Y00776D03*
X0168Y00754D03*
X01657Y00731D03*
X01635Y00709D03*
X01613Y00687D03*
X0159Y00665D03*
X01568Y00642D03*
X01546Y0062D03*
G54D24*
X01546Y0138D03*
X01568Y01358D03*
X0159Y01335D03*
X01613Y01313D03*
X01635Y01291D03*
X01657Y01269D03*
X0168Y01246D03*
X01702Y01224D03*
X01724Y01202D03*
X01746Y0118D03*
X01769Y01157D03*
X01791Y01135D03*
X01813Y01113D03*
X01835Y0109D03*
X01858Y01068D03*
X0188Y01046D03*
X01454Y0062D03*
X01432Y00642D03*
X0141Y00665D03*
X01387Y00687D03*
X01365Y00709D03*
X01343Y00731D03*
X0132Y00754D03*
X01298Y00776D03*
X01276Y00798D03*
X01254Y0082D03*
X01231Y00843D03*
X01209Y00865D03*
X01187Y00887D03*
X01165Y0091D03*
X01142Y00932D03*
X0112Y00954D03*
G54D25*
X0025Y01295D02*
X01227D01*
X002Y01245D02*
X0025Y01295D01*
X01227D02*
X01298Y01224D01*
X00211Y01219D02*
X00259Y01266D01*
X00156Y01219D02*
X00211D01*
X00805Y0113D02*
X0091Y01235D01*
X00805Y00227D02*
Y0113D01*
X01012Y01061D02*
X01105D01*
X00958Y01115D02*
X01012Y01061D01*
X00935Y01115D02*
X00958D01*
X00975Y01154D02*
X0102Y0111D01*
X00975Y01235D02*
X0106Y0115D01*
X0091Y01235D02*
X00975D01*
X01135Y0115D02*
X0115D01*
X01129Y01123D02*
X01162Y0109D01*
X01124Y01123D02*
X01129D01*
X011Y01147D02*
X01124Y01123D01*
X01094Y01112D02*
X01098D01*
X01142Y01068*
X01143Y01195D02*
X01147D01*
X01247Y01231D02*
X01276Y01202D01*
X01247Y01231D02*
Y01246D01*
X01226Y01266D02*
X01247Y01246D01*
X00259Y01266D02*
X01226D01*
X00474Y00355D02*
X00528D01*
X00706Y00177*
X02172Y00395D02*
X02403D01*
X01746Y0082D02*
X02172Y00395D01*
X01664Y0131D02*
X0253D01*
X01663Y01309D02*
X01664Y0131D01*
X01654Y01309D02*
X01663D01*
X01635Y01291D02*
X01654Y01309D01*
X01642Y0134D02*
X02555D01*
X01635Y0138D02*
X02555D01*
X01649Y01439D02*
X02556D01*
X00805Y00227D02*
X00809Y00223D01*
X0081*
X01162Y0109D02*
X01165D01*
X01042Y0007D02*
X01224Y00252D01*
X01006Y0007D02*
X01042D01*
Y0012D02*
X01204Y00282D01*
X01006Y0012D02*
X01042D01*
Y0017D02*
X01166Y00294D01*
X01006Y0017D02*
X01042D01*
X01863Y01153D02*
X01865Y01155D01*
X01853Y01153D02*
X01863D01*
X01813Y01113D02*
X01853Y01153D01*
X0122Y01213D02*
Y01235D01*
X0118Y01209D02*
Y01225D01*
Y01209D02*
X01231Y01158D01*
X01147Y01195D02*
X01207Y01135D01*
X0122Y01213D02*
X01254Y0118D01*
X0115Y0115D02*
X01187Y01113D01*
X01063Y01147D02*
X011D01*
X01083Y01101D02*
X01094Y01112D01*
X01052Y01101D02*
X01083D01*
X0089Y0116D02*
X0093Y0112D01*
X0193Y01945D02*
X02186D01*
X01828Y01188D02*
X0183Y0119D01*
X01828Y01173D02*
Y01188D01*
X01791Y01136D02*
X01828Y01173D01*
X01791Y01135D02*
Y01136D01*
X01006Y0022D02*
X01015Y00228D01*
X0253Y00261D02*
Y00268D01*
X02403Y00395D02*
X0253Y00268D01*
Y00261D02*
X0256Y00231D01*
Y00223D02*
Y00231D01*
X0251Y00155D02*
Y0026D01*
Y00155D02*
X0256Y00105D01*
X02787Y00435D02*
X0284Y00488D01*
X02795Y00415D02*
X0284Y0037D01*
X02196Y00415D02*
X02795D01*
X02069Y00755D02*
X02136D01*
X02065Y00759D02*
X02069Y00755D01*
X02061D02*
X02065Y00759D01*
X01995Y00755D02*
X02061D01*
X01719Y00524D02*
X01876Y00366D01*
X01651Y00551D02*
X01658Y00545D01*
X01678*
X01702Y00521*
X01716*
X02363Y00107D02*
Y00108D01*
X02336Y00135D02*
X02363Y00108D01*
X02321Y00135D02*
X02336D01*
X02363Y00107D02*
X02385Y00085D01*
X02124Y00335D02*
X02139D01*
X02104Y00355D02*
X02124Y00335D01*
X02104Y00355D02*
Y00374D01*
X01702Y00776D02*
X02104Y00374D01*
X02139Y00135D02*
X02321D01*
X02376Y0021D02*
X0238D01*
X02356Y0019D02*
X02376Y0021D01*
X02356Y00155D02*
Y0019D01*
X02336Y00135D02*
X02356Y00155D01*
X02376Y00267D02*
X0238D01*
X02356Y00287D02*
X02376Y00267D01*
X02356Y00287D02*
Y00315D01*
X02336Y00335D02*
X02356Y00315D01*
X02321Y00335D02*
X02336D01*
X01769Y00843D02*
X02196Y00415D01*
X00105Y01187D02*
Y0122D01*
X001Y01225D02*
X00105Y0122D01*
X02335Y00941D02*
X02354Y0096D01*
X01362Y01291D02*
Y01293D01*
X00147Y01083D02*
X00164Y011D01*
X00105Y01187D02*
X00147Y01146D01*
X01764Y00569D02*
Y00578D01*
X01635Y00706D02*
X01764Y00578D01*
X01635Y00706D02*
Y00709D01*
X0171Y00528D02*
X01716Y00521D01*
X0166Y00637D02*
X01699Y00599D01*
X0166Y00637D02*
Y0064D01*
X02075Y0065D02*
X02131D01*
X02136Y00655*
X02844Y00963D02*
Y00971D01*
Y00963D02*
X02884Y00923D01*
Y00762D02*
Y00923D01*
X0284Y00718D02*
X02884Y00762D01*
X0284Y00662D02*
Y00718D01*
X02586Y00749D02*
X02599Y00736D01*
X02796*
X0284Y0078*
X02395Y00375D02*
X0251Y0026D01*
X02555Y0134D02*
X02615D01*
X0261Y01285D02*
X02615Y0128D01*
X02555Y01285D02*
X0261D01*
X02619Y01386D02*
X0262Y01385D01*
Y01335D02*
D01*
X02615Y0144D02*
X0262Y01435D01*
X0292Y01215D02*
Y01285D01*
X02556Y01439D02*
X02614D01*
X0292Y01285D02*
Y01335D01*
X02615Y0134D02*
X0262Y01335D01*
X02555Y0138D02*
X02615D01*
X0292Y01335D02*
Y01385D01*
X02615Y0138D02*
X0262Y01385D01*
X0292D02*
Y01435D01*
X01615Y01313D02*
X01642Y0134D01*
X0019Y01315D02*
X01252D01*
X0024Y01335D02*
X01276D01*
X0015Y01425D02*
X0024Y01335D01*
X01276D02*
X01343Y01269D01*
X0015Y01275D02*
X0019Y01315D01*
X01252D02*
X0132Y01246D01*
X0113Y0085D02*
Y00872D01*
X01165Y00907*
X01085Y00895D02*
X01105D01*
X01142Y00931*
X02909Y017D02*
X02965D01*
X0289Y01681D02*
X02909Y017D01*
X0249D02*
X0254D01*
X0247Y0168D02*
X0249Y017D01*
X0263D02*
X0268D01*
X0261Y0168D02*
X0263Y017D01*
X02769D02*
X0282D01*
X0275Y01681D02*
X02769Y017D01*
X0253Y0131D02*
X02555Y01285D01*
X0159Y01335D02*
X01635Y0138D01*
X01568Y01358D02*
X01649Y01439D01*
X02385Y00085D02*
Y00086D01*
X0093Y0112D02*
D01*
X01105Y01061D02*
X0112Y01046D01*
X00975Y01154D02*
Y01155D01*
X01043Y0111D02*
X01052Y01101D01*
X0102Y0111D02*
X01043D01*
X01296Y00685D02*
X01343Y00731D01*
X01166Y00556D02*
X01295Y00685D01*
X01296*
X01015Y00228D02*
Y00295D01*
X01613Y00687D02*
X01655Y00645D01*
X01906Y0088D02*
Y00884D01*
X01858Y00932D02*
X01906Y00884D01*
X01835Y0091D02*
X0194Y00805D01*
X02136*
X02045Y0064D02*
Y00681D01*
Y0064D02*
X0207Y00615D01*
X01791Y00865D02*
X02221Y00435D01*
X02787*
X0207Y00615D02*
X02287D01*
X02045Y00681D02*
X02065Y00701D01*
X02287Y00615D02*
X02327Y00655D01*
X02136D02*
D01*
X01223Y01432D02*
Y01765D01*
Y01432D02*
X0132Y01335D01*
X0193Y01768D02*
X02186D01*
X01142Y01068D02*
D01*
X0132Y01335D02*
D01*
X01362Y01293*
X0014Y00775D02*
X00185Y0073D01*
X0014Y00775D02*
Y00948D01*
X00147Y00955*
Y01083*
X0081Y00223D02*
X00813Y0022D01*
X01142Y00931D02*
D01*
Y00932*
X01166Y00294D02*
Y00556D01*
X01165Y0091D02*
D01*
Y00907D02*
Y0091D01*
D01*
X02334Y00945D02*
X02335Y00946D01*
X02265Y00945D02*
X02334D01*
X02305Y00335D02*
X02321D01*
X02265Y00295D02*
X02305Y00335D01*
X02084Y00295D02*
X02265D01*
X02066Y00313D02*
X02084Y00295D01*
X02054Y00313D02*
X02066D01*
X0015Y01225D02*
X00156Y01219D01*
X01631Y01758D02*
Y01766D01*
X02327Y00655D02*
X02344D01*
X0271Y01094D02*
X02721D01*
X02576Y0096D02*
X0271Y01094D01*
X02354Y0096D02*
X02576D01*
X0257Y00671D02*
X02721D01*
X02554Y00655D02*
X0257Y00671D01*
X02344Y00655D02*
X02554D01*
X00693Y00137D02*
X0071Y0012D01*
X00631Y00137D02*
X00693D01*
X00534Y00234D02*
X00631Y00137D01*
X01876Y00313D02*
Y00366D01*
X01613Y00687D02*
D01*
X01224Y00479D02*
X0141Y00665D01*
X01224Y00252D02*
Y00479D01*
X01204Y00504D02*
X01387Y00687D01*
X01204Y00282D02*
Y00504D01*
X00813Y0007D02*
Y0012D01*
X0071D02*
X00813D01*
X00717Y0017D02*
X00813D01*
X0071Y00177D02*
X00717Y0017D01*
X00706Y00177D02*
X0071D01*
X00415Y00355D02*
X00416D01*
Y00234D02*
Y00355D01*
Y00234D02*
D01*
X0237Y01765D02*
X02626D01*
X0237Y01942D02*
X02626D01*
X01434Y014D02*
X01559Y01525D01*
X01434Y014D02*
X01454Y0138D01*
X01559Y01525D02*
X02674D01*
X01542Y01565D02*
X02436D01*
X02468Y01597*
X0247*
X0139Y01413D02*
X01542Y01565D01*
X0139Y01364D02*
Y01413D01*
Y01364D02*
X01391Y01363D01*
Y01354D02*
Y01363D01*
Y01354D02*
X0141Y01335D01*
X01551Y01545D02*
X02556D01*
X02608Y01597*
X0261*
X01413Y01407D02*
X01551Y01545D01*
X01413Y01386D02*
Y01407D01*
Y01386D02*
D01*
Y01376D02*
Y01386D01*
Y01376D02*
X01432Y01358D01*
X02674Y01525D02*
X02748Y01599D01*
X0275*
X02794Y01505D02*
X02888Y01599D01*
X01671Y01505D02*
X02794D01*
X02888Y01599D02*
X0289D01*
X01546Y0138D02*
X01671Y01505D01*
X01613Y01313D02*
X01615D01*
X01613D02*
X01631Y01332D01*
X02795Y0105D02*
X02839Y01094D01*
X02795Y00923D02*
Y0105D01*
Y00923D02*
X02839Y00879D01*
Y00789D02*
Y00879D01*
X02795Y00715D02*
X02839Y00671D01*
X02535Y00715D02*
X02795D01*
X02525Y00705D02*
X02535Y00715D01*
X02344Y00705D02*
X02525D01*
X02419Y00749D02*
X02586D01*
X02415Y00753D02*
X02419Y00749D01*
X02344Y00755D02*
X02413D01*
X02415Y00753*
X01231Y01157D02*
Y01158D01*
X01207Y01135D02*
X01209D01*
Y01138*
X01858Y00932D02*
D01*
X0243Y00842D02*
X02462D01*
X02415Y00827D02*
X0243Y00842D01*
X02462D02*
X02525Y00905D01*
X02335Y00859D02*
X02344Y00849D01*
Y00805D02*
Y00849D01*
X02069Y00705D02*
X02131D01*
X02065Y00701D02*
X02069Y00705D01*
X02147Y00375D02*
X02395D01*
X01724Y00798D02*
X02147Y00375D01*
X01792Y00822D02*
X01793D01*
X01771Y00843D02*
X01792Y00822D01*
X01769Y00843D02*
X01771D01*
X01343Y01358D02*
X01387Y01313D01*
D01*
X01343Y01377D02*
X01347D01*
X01343Y01358D02*
Y01377D01*
X00147Y01117D02*
X00164Y011D01*
X00147Y01117D02*
Y01146D01*
X00106Y011D02*
Y01104D01*
X00066Y01144D02*
X00106Y01104D01*
X00066Y01144D02*
Y01241D01*
X001Y01275*
X02054Y00057D02*
Y00313D01*
X01876Y00057D02*
Y00313D01*
X02045Y00322D02*
X02054Y00313D01*
X02045Y00322D02*
Y00344D01*
X01657Y00731D02*
X02045Y00344D01*
X01613Y00685D02*
Y00687D01*
X01702Y00776D02*
D01*
X01277Y01443D02*
Y01462D01*
X0126Y015D02*
X01262Y01498D01*
Y01477D02*
Y01498D01*
Y01477D02*
X01277Y01462D01*
X01362Y01291D02*
X01365D01*
X01746Y0082D02*
D01*
G54D26*
X02473Y01597D02*
X02475Y01595D01*
X0247Y01597D02*
X02473D01*
G54D27*
X0193Y01945D03*
X02186D03*
X0193Y01768D03*
X02186D03*
X0237Y01942D03*
X02626D03*
X0237Y01765D03*
X02626D03*
X01876Y00057D03*
Y00313D03*
X02054Y00057D03*
Y00313D03*
G54D28*
X00085Y0093D03*
G54D29*
X00085Y0083D03*
Y0073D03*
X00185Y0093D03*
Y0083D03*
Y0073D03*
G54D30*
X0256Y00105D03*
Y00223D03*
X0284Y00488D03*
Y0037D03*
X00534Y00234D03*
Y00116D03*
X00416Y00234D03*
Y00116D03*
X01631Y01766D03*
Y01884D03*
X01749Y01766D03*
Y01884D03*
X01226Y01766D03*
Y01884D03*
X01344Y01766D03*
Y01884D03*
X0284Y01085D03*
Y00967D03*
X02722Y01085D03*
Y00967D03*
X0284Y0078D03*
Y00662D03*
X02722Y0078D03*
Y00662D03*
X00821Y01766D03*
Y01884D03*
X00939Y01766D03*
Y01884D03*
X00533Y01883D03*
Y01765D03*
X00415Y01883D03*
Y01765D03*
G54D31*
X02525Y00905D03*
Y00805D03*
G54D32*
X02525Y00705D03*
G54D33*
X0015Y01225D03*
G54D34*
X001Y01225D03*
X0015Y01275D03*
X001D03*
X0015Y01325D03*
X001D03*
X0015Y01375D03*
X001D03*
X0015Y01425D03*
X001D03*
G54D35*
X0015Y0185D03*
X0285D03*
G54D36*
X0285Y0015D03*
X0015D03*
G54D37*
X01135Y0115D03*
X01098Y01112D03*
X01143Y01195D03*
X01865Y01155D03*
X0122Y01235D03*
X0118Y01225D03*
X0089Y0116D03*
X0183Y0119D03*
X02075Y0065D03*
X0292Y01205D03*
X02555Y01285D03*
Y0134D03*
Y0138D03*
X02556Y01439D03*
X0113Y0085D03*
X01085Y00895D03*
X02965Y017D03*
X0254D03*
X0268D03*
X0282D03*
X02385Y00085D03*
X01295Y00685D03*
X01015Y00295D03*
X0166Y0064D03*
X01906Y0088D03*
X02247Y01945D03*
X0132Y01335D03*
X02245Y01765D03*
X02265Y00945D03*
X002Y01245D03*
X01995Y00755D03*
X0126Y015D03*
M02*