%FSTAX23Y23*%
%MOIN*%
%SFA1B1*%

%IPPOS*%
%ADD66C,0.004000*%
%LNtemperature_monitor_&_display_mechanical_13-1*%
%LPD*%
G54D66*
X00886Y00208D02*
D01*
X00885Y00209*
X00885Y0021*
X00885Y00212*
X00885Y00213*
X00884Y00214*
X00884Y00216*
X00883Y00217*
X00882Y00218*
X00882Y00219*
X00881Y0022*
X0088Y00221*
X00879Y00222*
X00878Y00223*
X00877Y00224*
X00876Y00225*
X00874Y00225*
X00873Y00226*
X00872Y00227*
X0087Y00227*
X00869Y00227*
X00868Y00227*
X00866Y00227*
X00865*
X00863Y00227*
X00862Y00227*
X00861Y00227*
X00859Y00227*
X00858Y00226*
X00857Y00225*
X00856Y00225*
X00854Y00224*
X00853Y00223*
X00852Y00222*
X00851Y00221*
X0085Y0022*
X00849Y00219*
X00849Y00218*
X00848Y00217*
X00847Y00216*
X00847Y00214*
X00846Y00213*
X00846Y00212*
X00846Y0021*
X00846Y00209*
X00846Y00208*
X00846Y00206*
X00846Y00205*
X00846Y00203*
X00846Y00202*
X00847Y00201*
X00847Y00199*
X00848Y00198*
X00849Y00197*
X00849Y00196*
X0085Y00195*
X00851Y00194*
X00852Y00193*
X00853Y00192*
X00854Y00191*
X00856Y0019*
X00857Y0019*
X00858Y00189*
X00859Y00188*
X00861Y00188*
X00862Y00188*
X00863Y00188*
X00865Y00188*
X00866*
X00868Y00188*
X00869Y00188*
X0087Y00188*
X00872Y00188*
X00873Y00189*
X00874Y0019*
X00876Y0019*
X00877Y00191*
X00878Y00192*
X00879Y00193*
X0088Y00194*
X00881Y00195*
X00882Y00196*
X00882Y00197*
X00883Y00198*
X00884Y00199*
X00884Y00201*
X00885Y00202*
X00885Y00203*
X00885Y00205*
X00885Y00206*
X00886Y00208*
X0118Y01D02*
D01*
X01179Y01001*
X01179Y01002*
X01179Y01004*
X01179Y01005*
X01178Y01006*
X01178Y01008*
X01177Y01009*
X01176Y0101*
X01176Y01011*
X01175Y01012*
X01174Y01013*
X01173Y01014*
X01172Y01015*
X01171Y01016*
X0117Y01017*
X01168Y01017*
X01167Y01018*
X01166Y01019*
X01164Y01019*
X01163Y01019*
X01162Y01019*
X0116Y01019*
X01159*
X01157Y01019*
X01156Y01019*
X01155Y01019*
X01153Y01019*
X01152Y01018*
X01151Y01017*
X0115Y01017*
X01148Y01016*
X01147Y01015*
X01146Y01014*
X01145Y01013*
X01144Y01012*
X01143Y01011*
X01143Y0101*
X01142Y01009*
X01141Y01008*
X01141Y01006*
X0114Y01005*
X0114Y01004*
X0114Y01002*
X0114Y01001*
X0114Y01*
X0114Y00998*
X0114Y00997*
X0114Y00995*
X0114Y00994*
X01141Y00993*
X01141Y00991*
X01142Y0099*
X01143Y00989*
X01143Y00988*
X01144Y00987*
X01145Y00986*
X01146Y00985*
X01147Y00984*
X01148Y00983*
X0115Y00982*
X01151Y00982*
X01152Y00981*
X01153Y0098*
X01155Y0098*
X01156Y0098*
X01157Y0098*
X01159Y0098*
X0116*
X01162Y0098*
X01163Y0098*
X01164Y0098*
X01166Y0098*
X01167Y00981*
X01168Y00982*
X0117Y00982*
X01171Y00983*
X01172Y00984*
X01173Y00985*
X01174Y00986*
X01175Y00987*
X01176Y00988*
X01176Y00989*
X01177Y0099*
X01178Y00991*
X01178Y00993*
X01179Y00994*
X01179Y00995*
X01179Y00997*
X01179Y00998*
X0118Y01*
X00975Y00266D02*
Y00323D01*
X00888Y00266D02*
Y00323D01*
X00975*
X00888Y00266D02*
X00975D01*
X00402Y00332D02*
Y00388D01*
X00488Y00332D02*
Y00388D01*
X00402D02*
X00488D01*
X00402Y00332D02*
X00488D01*
X00831Y00047D02*
X00989D01*
X00831Y00243D02*
X00989D01*
Y00047D02*
Y00243D01*
X00831Y00047D02*
Y00243D01*
X02237Y01793D02*
X02323D01*
X02237Y01847D02*
X02323D01*
X02237Y01793D02*
Y01847D01*
X02323Y01793D02*
Y01847D01*
X02237Y01863D02*
Y01917D01*
X02323Y01863D02*
Y01917D01*
X02237Y01863D02*
X02323D01*
X02237Y01917D02*
X02323D01*
X02017Y01793D02*
Y01847D01*
X02103Y01793D02*
Y01847D01*
X02017Y01793D02*
X02103D01*
X02017Y01847D02*
X02103D01*
X02017Y01863D02*
Y01917D01*
X02103Y01863D02*
Y01917D01*
X02017Y01863D02*
X02103D01*
X02017Y01917D02*
X02103D01*
X01722Y01633D02*
X01778D01*
X01722Y01719D02*
X01778D01*
Y01633D02*
Y01719D01*
X01722Y01633D02*
Y01719D01*
X01611Y01666D02*
Y01724D01*
X01699Y01666D02*
Y01724D01*
X01611Y01666D02*
X01699D01*
X01611Y01724D02*
X01699D01*
X01206Y01666D02*
Y01724D01*
X01294Y01666D02*
Y01724D01*
X01206Y01666D02*
X01294D01*
X01206Y01724D02*
X01294D01*
X01317Y01631D02*
X01373D01*
X01317Y01718D02*
X01373D01*
Y01631D02*
Y01718D01*
X01317Y01631D02*
Y01718D01*
X00482Y01666D02*
Y01724D01*
X00395Y01666D02*
Y01724D01*
X00482*
X00395Y01666D02*
X00482D01*
X00889D02*
Y01724D01*
X00801Y01666D02*
Y01724D01*
X00889*
X00801Y01666D02*
X00889D01*
X00907Y01632D02*
X00963D01*
X00907Y01718D02*
X00963D01*
Y01632D02*
Y01718D01*
X00907Y01632D02*
Y01718D01*
X00502Y01632D02*
X00558D01*
X00502Y01718D02*
X00558D01*
Y01632D02*
Y01718D01*
X00502D02*
Y01632D01*
X02883Y01178D02*
Y01232D01*
X02797Y01178D02*
Y01232D01*
X02883*
X02797Y01178D02*
X02883D01*
X02617Y01238D02*
X02703D01*
X02617Y01292D02*
X02703D01*
X02617Y01238D02*
Y01292D01*
X02703Y01238D02*
Y01292D01*
X02617Y01303D02*
X02703D01*
X02617Y01357D02*
X02703D01*
X02617Y01303D02*
Y01357D01*
X02703Y01303D02*
Y01357D01*
X02617Y01368D02*
X02703D01*
X02617Y01422D02*
X02703D01*
X02617Y01368D02*
Y01422D01*
X02703Y01368D02*
Y01422D01*
X02617Y01433D02*
X02703D01*
X02617Y01487D02*
X02703D01*
X02617Y01433D02*
Y01487D01*
X02703Y01433D02*
Y01487D01*
X00738Y00105D02*
Y00192D01*
X00681Y00105D02*
Y00192D01*
X00738*
X00681Y00105D02*
X00738D01*
X00035Y00673D02*
X00235D01*
X00035D02*
Y00987D01*
X00235*
Y00673D02*
Y00987D01*
X02308Y00862D02*
X02362D01*
X02308Y00948D02*
X02362D01*
X02308Y00862D02*
Y00948D01*
X02362Y00862D02*
Y00948D01*
X02094Y00686D02*
Y00774D01*
X02036Y00686D02*
Y00774D01*
X02094*
X02036Y00686D02*
X02094D01*
X01728Y00496D02*
X01789Y00557D01*
X01691Y00533D02*
X01752Y00594D01*
X01789Y00557*
X01691Y00533D02*
X01728Y00496D01*
X01663Y00526D02*
X01724Y00587D01*
X01626Y00563D02*
X01687Y00624D01*
X01724Y00587*
X01626Y00563D02*
X01663Y00526D01*
X02351Y00195D02*
X02409D01*
X02351Y00282D02*
X02409D01*
X02351Y00195D02*
Y00282D01*
X02409Y00195D02*
Y00282D01*
X01321Y0136D02*
X0136Y01399D01*
X0126Y01421D02*
X01299Y0146D01*
X0126Y01421D02*
X01321Y0136D01*
X01299Y0146D02*
X0136Y01399D01*
X00899Y01129D02*
X00961Y01191D01*
X00939Y01089D02*
X01001Y01151D01*
X00899Y01129D02*
X00939Y01089D01*
X00961Y01191D02*
X01001Y01151D01*
X01029Y01079D02*
X01091Y01141D01*
X00989Y01119D02*
X01051Y01181D01*
X01091Y01141*
X00989Y01119D02*
X01029Y01079D01*
X00091Y01066D02*
X00179D01*
X00091Y01124D02*
X00179D01*
Y01066D02*
Y01124D01*
X00091Y01066D02*
Y01124D01*
X02388Y00833D02*
X02442D01*
X02388Y00747D02*
X02442D01*
Y00833*
X02388Y00747D02*
Y00833D01*
X02497Y01595D02*
Y01682D01*
X02443Y01595D02*
Y01682D01*
Y01595D02*
X02497D01*
X02443Y01682D02*
X02497D01*
X02863D02*
X02917D01*
X02863Y01595D02*
X02917D01*
X02863D02*
Y01682D01*
X02917Y01595D02*
Y01682D01*
X02723D02*
X02777D01*
X02723Y01595D02*
X02777D01*
X02723D02*
Y01682D01*
X02777Y01595D02*
Y01682D01*
X02583D02*
X02637D01*
X02583Y01595D02*
X02637D01*
X02583D02*
Y01682D01*
X02637Y01595D02*
Y01682D01*
X02648Y01238D02*
Y01482D01*
Y01238D02*
X02892D01*
X02648Y01482D02*
X02892D01*
Y01238D02*
Y01482D01*
X02863Y01681D02*
X02917D01*
X02863Y01599D02*
X02917D01*
Y01681*
X02863Y01599D02*
Y01681D01*
X02723D02*
X02777D01*
X02723Y01599D02*
X02777D01*
Y01681*
X02723Y01599D02*
Y01681D01*
X02583Y0168D02*
X02637D01*
X02583Y01597D02*
X02637D01*
Y0168*
X02583Y01597D02*
Y0168D01*
X02443D02*
X02497D01*
X02443Y01597D02*
X02497D01*
Y0168*
X02443Y01597D02*
Y0168D01*
X015Y0061D02*
X0189Y01D01*
X0111D02*
X015Y0139D01*
X0189Y01*
X0111D02*
X015Y0061D01*
M02*