%FSTAX23Y23*%
%MOIN*%
%SFA1B1*%

%IPPOS*%
%ADD83C,0.040000*%
%ADD84C,0.039000*%
%ADD85C,0.040000*%
%ADD86C,0.039000*%
%ADD87C,0.035000*%
%ADD88C,0.028000*%
%ADD89C,0.126000*%
%ADD90C,0.126000*%
%ADD91C,0.126000*%
%ADD92C,0.126000*%
%ADD93C,0.010000*%
%LNtemperature_monitor_&_display_pth_drill-1*%
%LPD*%
G54D83*
X0256Y00105D03*
Y00223D03*
X0284Y00488D03*
Y0037D03*
X00534Y00234D03*
Y00116D03*
X00416Y00234D03*
Y00116D03*
X01631Y01766D03*
Y01884D03*
X01749Y01766D03*
Y01884D03*
X01226Y01766D03*
Y01884D03*
X01344Y01766D03*
Y01884D03*
X0284Y01085D03*
Y00967D03*
X02722Y01085D03*
Y00967D03*
X0284Y0078D03*
Y00662D03*
X02722Y0078D03*
Y00662D03*
X00821Y01766D03*
Y01884D03*
X00939Y01766D03*
Y01884D03*
X00533Y01883D03*
Y01765D03*
X00415Y01883D03*
Y01765D03*
G54D84*
X0193Y01945D03*
X02186D03*
X0193Y01768D03*
X02186D03*
X0237Y01942D03*
X02626D03*
X0237Y01765D03*
X02626D03*
G54D85*
X00085Y0093D03*
Y0083D03*
Y0073D03*
X00185Y0093D03*
Y0083D03*
Y0073D03*
G54D86*
X01876Y00057D03*
Y00313D03*
X02054Y00057D03*
Y00313D03*
G54D87*
X02525Y00905D03*
Y00805D03*
Y00705D03*
G54D88*
X0015Y01225D03*
X001D03*
X0015Y01275D03*
X001D03*
X0015Y01325D03*
X001D03*
X0015Y01375D03*
X001D03*
X0015Y01425D03*
X001D03*
G54D89*
X0015Y0185D03*
G54D90*
X0285Y0185D03*
G54D91*
X0285Y0015D03*
G54D92*
X0015Y0015D03*
G54D93*
X01135Y0115D03*
X01098Y01112D03*
X01143Y01195D03*
X01865Y01155D03*
X0122Y01235D03*
X0118Y01225D03*
X0089Y0116D03*
X0183Y0119D03*
X02075Y0065D03*
X0292Y01205D03*
X02555Y01285D03*
Y0134D03*
Y0138D03*
X02556Y01439D03*
X0113Y0085D03*
X01085Y00895D03*
X02965Y017D03*
X0254D03*
X0268D03*
X0282D03*
X02385Y00085D03*
X01295Y00685D03*
X01015Y00295D03*
X0166Y0064D03*
X01906Y0088D03*
X02247Y01945D03*
X0132Y01335D03*
X02245Y01765D03*
X02265Y00945D03*
X002Y01245D03*
X01995Y00755D03*
X0126Y015D03*
M02*