%FSTAX23Y23*%
%MOIN*%
%SFA1B1*%

%IPPOS*%
%ADD65C,0.005000*%
%LNtemperature_monitor_&_display_drillmap_1-1*%
%LPD*%
G54D65*
X01911Y01945D02*
X01949D01*
X0193Y01926D02*
Y01964D01*
X02166Y01945D02*
X02205D01*
X02186Y01926D02*
Y01964D01*
X01911Y01768D02*
X01949D01*
X0193Y01748D02*
Y01787D01*
X02166Y01768D02*
X02205D01*
X02186Y01748D02*
Y01787D01*
X02351Y01942D02*
X02389D01*
X0237Y01923D02*
Y01962D01*
X02606Y01942D02*
X02645D01*
X02626Y01923D02*
Y01962D01*
X02351Y01765D02*
X02389D01*
X0237Y01746D02*
Y01784D01*
X02606Y01765D02*
X02645D01*
X02626Y01746D02*
Y01784D01*
X00065Y0093D02*
X00105D01*
X00085Y0091D02*
Y0095D01*
X00065Y0083D02*
X00105D01*
X00085Y0081D02*
Y0085D01*
X00065Y0073D02*
X00105D01*
X00085Y0071D02*
Y0075D01*
X00165Y0093D02*
X00205D01*
X00185Y0091D02*
Y0095D01*
X00165Y0083D02*
X00205D01*
X00185Y0081D02*
Y0085D01*
X00165Y0073D02*
X00205D01*
X00185Y0071D02*
Y0075D01*
X01857Y00057D02*
X01896D01*
X01876Y00038D02*
Y00077D01*
X01857Y00313D02*
X01896D01*
X01876Y00293D02*
Y00332D01*
X02034Y00057D02*
X02073D01*
X02054Y00038D02*
Y00077D01*
X02034Y00313D02*
X02073D01*
X02054Y00293D02*
Y00332D01*
X0254Y00105D02*
X0258D01*
X0256Y00085D02*
Y00125D01*
X0254Y00223D02*
X0258D01*
X0256Y00203D02*
Y00243D01*
X02422Y0026D02*
X02462D01*
X02442Y0024D02*
Y0028D01*
X02658Y0026D02*
X02698D01*
X02678Y0024D02*
Y0028D01*
X0282Y00488D02*
X0286D01*
X0284Y00468D02*
Y00508D01*
X0282Y0037D02*
X0286D01*
X0284Y0035D02*
Y0039D01*
X02938Y00333D02*
X02978D01*
X02958Y00313D02*
Y00353D01*
X02702Y00333D02*
X02742D01*
X02722Y00313D02*
Y00353D01*
X00632Y00079D02*
X00672D01*
X00652Y00059D02*
Y00099D01*
X00278Y00079D02*
X00318D01*
X00298Y00059D02*
Y00099D01*
X00514Y00234D02*
X00554D01*
X00534Y00214D02*
Y00254D01*
X00514Y00116D02*
X00554D01*
X00534Y00096D02*
Y00136D01*
X00396Y00234D02*
X00436D01*
X00416Y00214D02*
Y00254D01*
X00396Y00116D02*
X00436D01*
X00416Y00096D02*
Y00136D01*
X02507Y00905D02*
X02543D01*
X02525Y00887D02*
Y00923D01*
X02507Y00805D02*
X02543D01*
X02525Y00787D02*
Y00823D01*
X02507Y00705D02*
X02543D01*
X02525Y00687D02*
Y00723D01*
X01493Y01921D02*
X01533D01*
X01513Y01901D02*
Y01941D01*
X01847Y01921D02*
X01887D01*
X01867Y01901D02*
Y01941D01*
X01611Y01766D02*
X01651D01*
X01631Y01746D02*
Y01786D01*
X01611Y01884D02*
X01651D01*
X01631Y01864D02*
Y01904D01*
X01729Y01766D02*
X01769D01*
X01749Y01746D02*
Y01786D01*
X01729Y01884D02*
X01769D01*
X01749Y01864D02*
Y01904D01*
X01088Y01921D02*
X01128D01*
X01108Y01901D02*
Y01941D01*
X01442Y01921D02*
X01482D01*
X01462Y01901D02*
Y01941D01*
X01206Y01766D02*
X01246D01*
X01226Y01746D02*
Y01786D01*
X01206Y01884D02*
X01246D01*
X01226Y01864D02*
Y01904D01*
X01324Y01766D02*
X01364D01*
X01344Y01746D02*
Y01786D01*
X01324Y01884D02*
X01364D01*
X01344Y01864D02*
Y01904D01*
X02938Y0093D02*
X02978D01*
X02958Y0091D02*
Y0095D01*
X02584Y0093D02*
X02624D01*
X02604Y0091D02*
Y0095D01*
X0282Y01085D02*
X0286D01*
X0284Y01065D02*
Y01105D01*
X0282Y00967D02*
X0286D01*
X0284Y00947D02*
Y00987D01*
X02702Y01085D02*
X02742D01*
X02722Y01065D02*
Y01105D01*
X02702Y00967D02*
X02742D01*
X02722Y00947D02*
Y00987D01*
X02938Y00625D02*
X02978D01*
X02958Y00605D02*
Y00645D01*
X02584Y00625D02*
X02624D01*
X02604Y00605D02*
Y00645D01*
X0282Y0078D02*
X0286D01*
X0284Y0076D02*
Y008D01*
X0282Y00662D02*
X0286D01*
X0284Y00642D02*
Y00682D01*
X02702Y0078D02*
X02742D01*
X02722Y0076D02*
Y008D01*
X02702Y00662D02*
X02742D01*
X02722Y00642D02*
Y00682D01*
X00136Y01225D02*
X00164D01*
X0015Y01211D02*
Y01239D01*
X00086Y01225D02*
X00114D01*
X001Y01211D02*
Y01239D01*
X00136Y01275D02*
X00164D01*
X0015Y01261D02*
Y01289D01*
X00086Y01275D02*
X00114D01*
X001Y01261D02*
Y01289D01*
X00136Y01325D02*
X00164D01*
X0015Y01311D02*
Y01339D01*
X00086Y01325D02*
X00114D01*
X001Y01311D02*
Y01339D01*
X00136Y01375D02*
X00164D01*
X0015Y01361D02*
Y01389D01*
X00086Y01375D02*
X00114D01*
X001Y01361D02*
Y01389D01*
X00136Y01425D02*
X00164D01*
X0015Y01411D02*
Y01439D01*
X00086Y01425D02*
X00114D01*
X001Y01411D02*
Y01439D01*
X00683Y01921D02*
X00723D01*
X00703Y01901D02*
Y01941D01*
X01037Y01921D02*
X01077D01*
X01057Y01901D02*
Y01941D01*
X00801Y01766D02*
X00841D01*
X00821Y01746D02*
Y01786D01*
X00801Y01884D02*
X00841D01*
X00821Y01864D02*
Y01904D01*
X00919Y01766D02*
X00959D01*
X00939Y01746D02*
Y01786D01*
X00919Y01884D02*
X00959D01*
X00939Y01864D02*
Y01904D01*
X00087Y0185D02*
X00213D01*
X0015Y01787D02*
Y01913D01*
X02787Y0185D02*
X02913D01*
X0285Y01787D02*
Y01913D01*
X02787Y0015D02*
X02913D01*
X0285Y00087D02*
Y00213D01*
X00087Y0015D02*
X00213D01*
X0015Y00087D02*
Y00213D01*
X00513Y01883D02*
X00553D01*
X00533Y01863D02*
Y01903D01*
X00513Y01765D02*
X00553D01*
X00533Y01745D02*
Y01785D01*
X00395Y01883D02*
X00435D01*
X00415Y01863D02*
Y01903D01*
X00395Y01765D02*
X00435D01*
X00415Y01745D02*
Y01785D01*
X00631Y0192D02*
X00671D01*
X00651Y019D02*
Y0194D01*
X00277Y0192D02*
X00317D01*
X00297Y019D02*
Y0194D01*
X0113Y0115D02*
X0114D01*
X01135Y01145D02*
Y01155D01*
X01093Y01112D02*
X01103D01*
X01098Y01107D02*
Y01117D01*
X01138Y01195D02*
X01148D01*
X01143Y0119D02*
Y012D01*
X0186Y01155D02*
X0187D01*
X01865Y0115D02*
Y0116D01*
X01215Y01235D02*
X01225D01*
X0122Y0123D02*
Y0124D01*
X01175Y01225D02*
X01185D01*
X0118Y0122D02*
Y0123D01*
X00885Y0116D02*
X00895D01*
X0089Y01155D02*
Y01165D01*
X01825Y0119D02*
X01835D01*
X0183Y01185D02*
Y01195D01*
X0207Y0065D02*
X0208D01*
X02075Y00645D02*
Y00655D01*
X02915Y01205D02*
X02925D01*
X0292Y012D02*
Y0121D01*
X0255Y01285D02*
X0256D01*
X02555Y0128D02*
Y0129D01*
X0255Y0134D02*
X0256D01*
X02555Y01335D02*
Y01345D01*
X0255Y0138D02*
X0256D01*
X02555Y01375D02*
Y01385D01*
X02551Y01439D02*
X02561D01*
X02556Y01434D02*
Y01444D01*
X01125Y0085D02*
X01135D01*
X0113Y00845D02*
Y00855D01*
X0108Y00895D02*
X0109D01*
X01085Y0089D02*
Y009D01*
X0296Y017D02*
X0297D01*
X02965Y01695D02*
Y01705D01*
X02535Y017D02*
X02545D01*
X0254Y01695D02*
Y01705D01*
X02675Y017D02*
X02685D01*
X0268Y01695D02*
Y01705D01*
X02815Y017D02*
X02825D01*
X0282Y01695D02*
Y01705D01*
X0238Y00085D02*
X0239D01*
X02385Y0008D02*
Y0009D01*
X0129Y00685D02*
X013D01*
X01295Y0068D02*
Y0069D01*
X0101Y00295D02*
X0102D01*
X01015Y0029D02*
Y003D01*
X01655Y0064D02*
X01665D01*
X0166Y00635D02*
Y00645D01*
X01901Y0088D02*
X01911D01*
X01906Y00875D02*
Y00885D01*
X02242Y01945D02*
X02252D01*
X02247Y0194D02*
Y0195D01*
X01315Y01335D02*
X01325D01*
X0132Y0133D02*
Y0134D01*
X0224Y01765D02*
X0225D01*
X02245Y0176D02*
Y0177D01*
X0226Y00945D02*
X0227D01*
X02265Y0094D02*
Y0095D01*
X00195Y01245D02*
X00205D01*
X002Y0124D02*
Y0125D01*
X0199Y00755D02*
X02D01*
X01995Y0075D02*
Y0076D01*
X01255Y015D02*
X01265D01*
X0126Y01495D02*
Y01505D01*
M02*