%FSTAX23Y23*%
%MOIN*%
%SFA1B1*%

%IPPOS*%
%ADD13R,0.059000X0.049000*%
%ADD27C,0.059000*%
%ADD28R,0.061000X0.061000*%
%ADD29C,0.061000*%
%ADD30C,0.060000*%
%ADD31C,0.059000*%
%ADD32R,0.059000X0.059000*%
%ADD33R,0.040000X0.040000*%
%ADD34C,0.040000*%
%ADD35C,0.242000*%
%ADD36C,0.240000*%
%ADD38R,0.043000X0.053000*%
%ADD39R,0.033000X0.051000*%
%ADD40R,0.047000X0.031000*%
%ADD41R,0.049000X0.059000*%
%LNtemperature_monitor_&_display_pads_bot-1*%
%LPD*%
G54D13*
X0247Y01597D03*
Y0168D03*
X0289D03*
Y01597D03*
X0275Y0168D03*
Y01597D03*
X0261Y0168D03*
Y01597D03*
G54D27*
X0193Y01945D03*
X02186D03*
X0193Y01768D03*
X02186D03*
X0237Y01942D03*
X02626D03*
X0237Y01765D03*
X02626D03*
X01876Y00057D03*
Y00313D03*
X02054Y00057D03*
Y00313D03*
G54D28*
X00085Y0093D03*
G54D29*
X00085Y0083D03*
Y0073D03*
X00185Y0093D03*
Y0083D03*
Y0073D03*
G54D30*
X0256Y00105D03*
Y00223D03*
X0284Y00488D03*
Y0037D03*
X00534Y00234D03*
Y00116D03*
X00416Y00234D03*
Y00116D03*
X01631Y01766D03*
Y01884D03*
X01749Y01766D03*
Y01884D03*
X01226Y01766D03*
Y01884D03*
X01344Y01766D03*
Y01884D03*
X0284Y01085D03*
Y00967D03*
X02722Y01085D03*
Y00967D03*
X0284Y0078D03*
Y00662D03*
X02722Y0078D03*
Y00662D03*
X00821Y01766D03*
Y01884D03*
X00939Y01766D03*
Y01884D03*
X00533Y01883D03*
Y01765D03*
X00415Y01883D03*
Y01765D03*
G54D31*
X02525Y00905D03*
Y00805D03*
G54D32*
X02525Y00705D03*
G54D33*
X0015Y01225D03*
G54D34*
X001Y01225D03*
X0015Y01275D03*
X001D03*
X0015Y01325D03*
X001D03*
X0015Y01375D03*
X001D03*
X0015Y01425D03*
X001D03*
G54D35*
X0015Y0185D03*
X0285D03*
G54D36*
X0285Y0015D03*
X0015D03*
G54D38*
X0096Y00295D03*
X00903D03*
X01626Y01695D03*
X01684D03*
X01221D03*
X01279D03*
X00467D03*
X0041D03*
X00874D03*
X00816D03*
G54D39*
X02247Y0182D03*
X02313D03*
X02247Y0189D03*
X02313D03*
X02027Y0182D03*
X02093D03*
X02027Y0189D03*
X02093D03*
X02873Y01205D03*
X02807D03*
G54D40*
X0175Y01646D03*
Y01705D03*
X01345Y01645D03*
Y01704D03*
X00935Y01645D03*
Y01705D03*
X0053Y01645D03*
Y01705D03*
G54D41*
X02619Y01265D03*
X02701D03*
X02619Y0133D03*
X02701D03*
X02619Y01395D03*
X02701D03*
X02619Y0146D03*
X02701D03*
M02*