%FSTAX23Y23*%
%MOIN*%
%SFA1B1*%

%IPPOS*%
%AMD21*
4,1,4,-0.029700,0.006400,0.006400,-0.029700,0.029700,-0.006400,-0.006400,0.029700,-0.029700,0.006400,0.0*
%
%AMD22*
4,1,4,0.002100,-0.029700,0.029700,-0.002100,-0.002100,0.029700,-0.029700,0.002100,0.002100,-0.029700,0.0*
%
%AMD23*
4,1,4,0.033900,-0.003500,-0.003500,0.033900,-0.033900,0.003500,0.003500,-0.033900,0.033900,-0.003500,0.0*
%
%AMD30*
4,1,4,-0.008800,0.024400,-0.024400,0.008800,0.008800,-0.024400,0.024400,-0.008800,-0.008800,0.024400,0.0*
1,1,0.022000,-0.016600,0.016600*
1,1,0.022000,0.016600,-0.016600*
%
%AMD31*
4,1,4,-0.024400,-0.008800,-0.008800,-0.024400,0.024400,0.008800,0.008800,0.024400,-0.024400,-0.008800,0.0*
1,1,0.022000,-0.016600,-0.016600*
1,1,0.022000,0.016600,0.016600*
%
%ADD17R,0.031000X0.047000*%
%ADD18O,0.098000X0.028000*%
%ADD19R,0.053000X0.043000*%
%ADD20R,0.059000X0.049000*%
G04~CAMADD=21~9~0.0~0.0~510.0~330.0~0.0~0.0~0~0.0~0.0~0.0~0.0~0~0.0~0.0~0.0~0.0~0~0.0~0.0~0.0~135.0~594.0~593.0*
%ADD21D21*%
G04~CAMADD=22~9~0.0~0.0~390.0~450.0~0.0~0.0~0~0.0~0.0~0.0~0.0~0~0.0~0.0~0.0~0.0~0~0.0~0.0~0.0~225.0~594.0~593.0*
%ADD22D22*%
G04~CAMADD=23~9~0.0~0.0~530.0~430.0~0.0~0.0~0~0.0~0.0~0.0~0.0~0~0.0~0.0~0.0~0.0~0~0.0~0.0~0.0~315.0~678.0~677.0*
%ADD23D23*%
%ADD24R,0.043000X0.053000*%
%ADD25R,0.055000X0.041000*%
%ADD26R,0.059000X0.024000*%
%ADD27R,0.083000X0.051000*%
%ADD28R,0.050000X0.030000*%
%ADD29R,0.047000X0.043000*%
G04~CAMADD=30~3~0.0~0.0~220.0~690.0~0.0~0.0~0~0.0~0.0~0.0~0.0~0~0.0~0.0~0.0~0.0~0~0.0~0.0~0.0~45.0~550.0~550.0*
%ADD30D30*%
G04~CAMADD=31~3~0.0~0.0~220.0~690.0~0.0~0.0~0~0.0~0.0~0.0~0.0~0~0.0~0.0~0.0~0.0~0~0.0~0.0~0.0~135.0~550.0~550.0*
%ADD31D31*%
%LNtemperature_monitor_&_display-1*%
%LPD*%
G54D17*
X00415Y0036D03*
X00475D03*
G54D18*
X01006Y0007D03*
Y0012D03*
Y0017D03*
Y0022D03*
X00813Y0007D03*
Y0012D03*
Y0017D03*
Y0022D03*
G54D19*
X0071Y00177D03*
Y0012D03*
X02065Y00759D03*
Y00701D03*
X0238Y0021D03*
Y00267D03*
G54D20*
X02335Y00864D03*
Y00946D03*
G54D21*
X01764Y00569D03*
X01716Y00521D03*
X01699Y00599D03*
X01651Y00551D03*
G54D22*
X01343Y01377D03*
X01277Y01443D03*
G54D23*
X0093Y0112D03*
X0097Y0116D03*
X0106Y0115D03*
X0102Y0111D03*
G54D24*
X00164Y01095D03*
X00106D03*
G54D25*
X02415Y00827D03*
Y00753D03*
G54D26*
X02136Y00805D03*
Y00755D03*
Y00705D03*
Y00655D03*
X02344D03*
Y00705D03*
Y00755D03*
Y00805D03*
G54D27*
X02321Y00135D03*
Y00335D03*
X02139D03*
Y00135D03*
G54D28*
X0292Y01285D03*
Y01335D03*
Y01385D03*
Y01435D03*
X0262D03*
Y01385D03*
Y01335D03*
Y01285D03*
G54D29*
X0289Y01681D03*
Y01599D03*
X0275Y01681D03*
Y01599D03*
X0261Y0168D03*
Y01597D03*
X0247Y0168D03*
Y01597D03*
G54D30*
X0112Y01046D03*
X01142Y01068D03*
X01165Y0109D03*
X01187Y01113D03*
X01209Y01135D03*
X01231Y01157D03*
X01254Y0118D03*
X01276Y01202D03*
X01298Y01224D03*
X0132Y01246D03*
X01343Y01269D03*
X01365Y01291D03*
X01387Y01313D03*
X0141Y01335D03*
X01432Y01358D03*
X01454Y0138D03*
X0188Y00954D03*
X01858Y00932D03*
X01835Y0091D03*
X01813Y00887D03*
X01791Y00865D03*
X01769Y00843D03*
X01746Y0082D03*
X01724Y00798D03*
X01702Y00776D03*
X0168Y00754D03*
X01657Y00731D03*
X01635Y00709D03*
X01613Y00687D03*
X0159Y00665D03*
X01568Y00642D03*
X01546Y0062D03*
G54D31*
X01546Y0138D03*
X01568Y01358D03*
X0159Y01335D03*
X01613Y01313D03*
X01635Y01291D03*
X01657Y01269D03*
X0168Y01246D03*
X01702Y01224D03*
X01724Y01202D03*
X01746Y0118D03*
X01769Y01157D03*
X01791Y01135D03*
X01813Y01113D03*
X01835Y0109D03*
X01858Y01068D03*
X0188Y01046D03*
X01454Y0062D03*
X01432Y00642D03*
X0141Y00665D03*
X01387Y00687D03*
X01365Y00709D03*
X01343Y00731D03*
X0132Y00754D03*
X01298Y00776D03*
X01276Y00798D03*
X01254Y0082D03*
X01231Y00843D03*
X01209Y00865D03*
X01187Y00887D03*
X01165Y0091D03*
X01142Y00932D03*
X0112Y00954D03*
M02*