%TF.GenerationSoftware,Altium Limited,Altium Designer,19.1.8 (144)*%
G04 Layer_Color=8421504*
%FSLAX23Y23*%
%MOIN*%
%TF.FileFunction,Paste,Top*%
%TF.Part,Single*%
G01*
G75*
%TA.AperFunction,SMDPad,CuDef*%
G04:AMPARAMS|DCode=10|XSize=31mil|YSize=47mil|CornerRadius=0mil|HoleSize=0mil|Usage=FLASHONLY|Rotation=225.000|XOffset=0mil|YOffset=0mil|HoleType=Round|Shape=Rectangle|*
%AMROTATEDRECTD10*
4,1,4,-0.006,0.028,0.028,-0.006,0.006,-0.028,-0.028,0.006,-0.006,0.028,0.0*
%
%ADD10ROTATEDRECTD10*%

G04:AMPARAMS|DCode=11|XSize=53mil|YSize=41mil|CornerRadius=0mil|HoleSize=0mil|Usage=FLASHONLY|Rotation=315.000|XOffset=0mil|YOffset=0mil|HoleType=Round|Shape=Rectangle|*
%AMROTATEDRECTD11*
4,1,4,-0.033,0.004,-0.004,0.033,0.033,-0.004,0.004,-0.033,-0.033,0.004,0.0*
%
%ADD11ROTATEDRECTD11*%

G04:AMPARAMS|DCode=12|XSize=53mil|YSize=42mil|CornerRadius=0mil|HoleSize=0mil|Usage=FLASHONLY|Rotation=315.000|XOffset=0mil|YOffset=0mil|HoleType=Round|Shape=Rectangle|*
%AMROTATEDRECTD12*
4,1,4,-0.034,0.004,-0.004,0.034,0.034,-0.004,0.004,-0.034,-0.034,0.004,0.0*
%
%ADD12ROTATEDRECTD12*%

%ADD13R,0.043X0.053*%
G04:AMPARAMS|DCode=14|XSize=61mil|YSize=57mil|CornerRadius=0mil|HoleSize=0mil|Usage=FLASHONLY|Rotation=315.000|XOffset=0mil|YOffset=0mil|HoleType=Round|Shape=Rectangle|*
%AMROTATEDRECTD14*
4,1,4,-0.042,0.001,-0.001,0.042,0.042,-0.001,0.001,-0.042,-0.042,0.001,0.0*
%
%ADD14ROTATEDRECTD14*%

G04:AMPARAMS|DCode=15|XSize=53mil|YSize=43mil|CornerRadius=0mil|HoleSize=0mil|Usage=FLASHONLY|Rotation=315.000|XOffset=0mil|YOffset=0mil|HoleType=Round|Shape=Rectangle|*
%AMROTATEDRECTD15*
4,1,4,-0.034,0.004,-0.004,0.034,0.034,-0.004,0.004,-0.034,-0.034,0.004,0.0*
%
%ADD15ROTATEDRECTD15*%

%ADD16R,0.053X0.043*%
%ADD17O,0.098X0.028*%
%ADD18R,0.059X0.024*%
%ADD19R,0.083X0.051*%
%ADD20R,0.030X0.050*%
%ADD21R,0.047X0.043*%
G04:AMPARAMS|DCode=22|XSize=22mil|YSize=69mil|CornerRadius=0mil|HoleSize=0mil|Usage=FLASHONLY|Rotation=225.000|XOffset=0mil|YOffset=0mil|HoleType=Round|Shape=Round|*
%AMOVALD22*
21,1,0.047,0.022,0.000,0.000,315.0*
1,1,0.022,-0.017,0.017*
1,1,0.022,0.017,-0.017*
%
%ADD22OVALD22*%

G04:AMPARAMS|DCode=23|XSize=22mil|YSize=69mil|CornerRadius=0mil|HoleSize=0mil|Usage=FLASHONLY|Rotation=315.000|XOffset=0mil|YOffset=0mil|HoleType=Round|Shape=Round|*
%AMOVALD23*
21,1,0.047,0.022,0.000,0.000,45.0*
1,1,0.022,-0.017,-0.017*
1,1,0.022,0.017,0.017*
%
%ADD23OVALD23*%

D10*
X2181Y881D02*
D03*
X2139Y839D02*
D03*
D11*
X1835Y420D02*
D03*
X1875Y460D02*
D03*
D12*
X1676Y586D02*
D03*
X1714Y624D02*
D03*
D13*
X1690Y1940D02*
D03*
X1633D02*
D03*
D14*
X1760Y465D02*
D03*
X1810Y515D02*
D03*
D15*
X1765Y570D02*
D03*
X1725Y530D02*
D03*
X2085Y885D02*
D03*
X2045Y845D02*
D03*
X1955Y850D02*
D03*
X1995Y890D02*
D03*
D16*
X2255Y1829D02*
D03*
Y1771D02*
D03*
X765Y1221D02*
D03*
Y1279D02*
D03*
X650Y1744D02*
D03*
Y1686D02*
D03*
X2455Y320D02*
D03*
Y263D02*
D03*
D17*
X1756Y1665D02*
D03*
Y1715D02*
D03*
Y1765D02*
D03*
Y1815D02*
D03*
X1564Y1665D02*
D03*
Y1715D02*
D03*
Y1765D02*
D03*
Y1815D02*
D03*
D18*
X446Y1325D02*
D03*
Y1275D02*
D03*
Y1225D02*
D03*
Y1175D02*
D03*
X654D02*
D03*
Y1225D02*
D03*
Y1275D02*
D03*
Y1325D02*
D03*
D19*
X729Y1815D02*
D03*
Y1615D02*
D03*
X910D02*
D03*
Y1815D02*
D03*
D20*
X1180Y80D02*
D03*
X1230D02*
D03*
X1280D02*
D03*
X1330D02*
D03*
Y380D02*
D03*
X1280D02*
D03*
X1230D02*
D03*
X1180D02*
D03*
D21*
X1450Y54D02*
D03*
Y136D02*
D03*
X1580Y54D02*
D03*
Y136D02*
D03*
X1710Y52D02*
D03*
Y135D02*
D03*
X1840Y52D02*
D03*
Y135D02*
D03*
D22*
X1880Y954D02*
D03*
X1858Y932D02*
D03*
X1835Y910D02*
D03*
X1813Y887D02*
D03*
X1791Y865D02*
D03*
X1769Y843D02*
D03*
X1746Y820D02*
D03*
X1724Y798D02*
D03*
X1702Y776D02*
D03*
X1680Y754D02*
D03*
X1657Y731D02*
D03*
X1635Y709D02*
D03*
X1613Y687D02*
D03*
X1590Y665D02*
D03*
X1568Y642D02*
D03*
X1546Y620D02*
D03*
X1120Y1046D02*
D03*
X1142Y1068D02*
D03*
X1165Y1090D02*
D03*
X1187Y1113D02*
D03*
X1209Y1135D02*
D03*
X1231Y1157D02*
D03*
X1254Y1180D02*
D03*
X1276Y1202D02*
D03*
X1298Y1224D02*
D03*
X1320Y1246D02*
D03*
X1343Y1269D02*
D03*
X1365Y1291D02*
D03*
X1387Y1313D02*
D03*
X1410Y1335D02*
D03*
X1432Y1358D02*
D03*
X1454Y1380D02*
D03*
D23*
Y620D02*
D03*
X1432Y642D02*
D03*
X1410Y665D02*
D03*
X1387Y687D02*
D03*
X1365Y709D02*
D03*
X1343Y731D02*
D03*
X1320Y754D02*
D03*
X1298Y776D02*
D03*
X1276Y798D02*
D03*
X1254Y820D02*
D03*
X1231Y843D02*
D03*
X1209Y865D02*
D03*
X1187Y887D02*
D03*
X1165Y910D02*
D03*
X1142Y932D02*
D03*
X1120Y954D02*
D03*
X1546Y1380D02*
D03*
X1568Y1358D02*
D03*
X1590Y1335D02*
D03*
X1613Y1313D02*
D03*
X1635Y1291D02*
D03*
X1657Y1269D02*
D03*
X1680Y1246D02*
D03*
X1702Y1224D02*
D03*
X1724Y1202D02*
D03*
X1746Y1180D02*
D03*
X1769Y1157D02*
D03*
X1791Y1135D02*
D03*
X1813Y1113D02*
D03*
X1835Y1090D02*
D03*
X1858Y1068D02*
D03*
X1880Y1046D02*
D03*
%TF.MD5,012518e4187042a782bb720ff20c70f1*%
M02*
