G04*
G04 #@! TF.GenerationSoftware,Altium Limited,Altium Designer,19.1.8 (144)*
G04*
G04 Layer_Color=8388736*
%FSLAX23Y23*%
%MOIN*%
G70*
G01*
G75*
%ADD33R,0.100X0.250*%
%ADD34R,0.039X0.055*%
%ADD35O,0.106X0.036*%
%ADD36R,0.061X0.051*%
%ADD37R,0.067X0.057*%
G04:AMPARAMS|DCode=38|XSize=59mil|YSize=41mil|CornerRadius=0mil|HoleSize=0mil|Usage=FLASHONLY|Rotation=135.000|XOffset=0mil|YOffset=0mil|HoleType=Round|Shape=Rectangle|*
%AMROTATEDRECTD38*
4,1,4,0.036,-0.006,0.006,-0.036,-0.036,0.006,-0.006,0.036,0.036,-0.006,0.0*
%
%ADD38ROTATEDRECTD38*%

G04:AMPARAMS|DCode=39|XSize=47mil|YSize=53mil|CornerRadius=0mil|HoleSize=0mil|Usage=FLASHONLY|Rotation=225.000|XOffset=0mil|YOffset=0mil|HoleType=Round|Shape=Rectangle|*
%AMROTATEDRECTD39*
4,1,4,-0.002,0.036,0.036,-0.002,0.002,-0.036,-0.036,0.002,-0.002,0.036,0.0*
%
%ADD39ROTATEDRECTD39*%

G04:AMPARAMS|DCode=40|XSize=61mil|YSize=51mil|CornerRadius=0mil|HoleSize=0mil|Usage=FLASHONLY|Rotation=315.000|XOffset=0mil|YOffset=0mil|HoleType=Round|Shape=Rectangle|*
%AMROTATEDRECTD40*
4,1,4,-0.040,0.004,-0.004,0.040,0.040,-0.004,0.004,-0.040,-0.040,0.004,0.0*
%
%ADD40ROTATEDRECTD40*%

%ADD41R,0.051X0.061*%
%ADD42R,0.063X0.049*%
%ADD43R,0.067X0.032*%
%ADD44R,0.091X0.059*%
%ADD45R,0.058X0.038*%
%ADD46R,0.055X0.051*%
G04:AMPARAMS|DCode=47|XSize=30mil|YSize=77mil|CornerRadius=0mil|HoleSize=0mil|Usage=FLASHONLY|Rotation=45.000|XOffset=0mil|YOffset=0mil|HoleType=Round|Shape=Round|*
%AMOVALD47*
21,1,0.047,0.030,0.000,0.000,135.0*
1,1,0.030,0.017,-0.017*
1,1,0.030,-0.017,0.017*
%
%ADD47OVALD47*%

G04:AMPARAMS|DCode=48|XSize=30mil|YSize=77mil|CornerRadius=0mil|HoleSize=0mil|Usage=FLASHONLY|Rotation=135.000|XOffset=0mil|YOffset=0mil|HoleType=Round|Shape=Round|*
%AMOVALD48*
21,1,0.047,0.030,0.000,0.000,225.0*
1,1,0.030,0.017,0.017*
1,1,0.030,-0.017,-0.017*
%
%ADD48OVALD48*%

%ADD49C,0.067*%
%ADD50R,0.069X0.069*%
%ADD51C,0.069*%
%ADD52C,0.068*%
%ADD53C,0.008*%
%ADD54C,0.067*%
%ADD55R,0.067X0.067*%
%ADD56R,0.046X0.046*%
%ADD57C,0.046*%
%ADD58C,0.250*%
%ADD59C,0.248*%
%ADD60C,0.033*%
G36*
X1440Y615D02*
X1430Y605D01*
X1105Y930D01*
X1115Y940D01*
X1440Y615D01*
D02*
G37*
G36*
X1865Y965D02*
X1535Y635D01*
X1520Y650D01*
X1850Y980D01*
X1865Y965D01*
D02*
G37*
G36*
X1445Y1395D02*
X1110Y1060D01*
X1100Y1070D01*
X1435Y1405D01*
X1445Y1395D01*
D02*
G37*
G36*
X1875Y1020D02*
X1870Y1015D01*
X1515Y1370D01*
X1520Y1375D01*
X1875Y1020D01*
D02*
G37*
D33*
X125Y1325D02*
D03*
D34*
X415Y360D02*
D03*
X475D02*
D03*
D35*
X1006Y70D02*
D03*
Y120D02*
D03*
Y170D02*
D03*
Y220D02*
D03*
X813Y70D02*
D03*
Y120D02*
D03*
Y170D02*
D03*
Y220D02*
D03*
D36*
X710Y177D02*
D03*
Y120D02*
D03*
X2065Y759D02*
D03*
Y701D02*
D03*
X2380Y210D02*
D03*
Y267D02*
D03*
D37*
X2335Y864D02*
D03*
Y946D02*
D03*
D38*
X1764Y569D02*
D03*
X1716Y521D02*
D03*
X1699Y599D02*
D03*
X1651Y551D02*
D03*
D39*
X1343Y1377D02*
D03*
X1277Y1443D02*
D03*
D40*
X930Y1120D02*
D03*
X970Y1160D02*
D03*
X1060Y1150D02*
D03*
X1020Y1110D02*
D03*
D41*
X164Y1095D02*
D03*
X106D02*
D03*
D42*
X2415Y827D02*
D03*
Y753D02*
D03*
D43*
X2136Y805D02*
D03*
Y755D02*
D03*
Y705D02*
D03*
Y655D02*
D03*
X2344D02*
D03*
Y705D02*
D03*
Y755D02*
D03*
Y805D02*
D03*
D44*
X2321Y135D02*
D03*
Y335D02*
D03*
X2139D02*
D03*
Y135D02*
D03*
D45*
X2920Y1285D02*
D03*
Y1335D02*
D03*
Y1385D02*
D03*
Y1435D02*
D03*
X2620D02*
D03*
Y1385D02*
D03*
Y1335D02*
D03*
Y1285D02*
D03*
D46*
X2890Y1681D02*
D03*
Y1599D02*
D03*
X2750Y1681D02*
D03*
Y1599D02*
D03*
X2610Y1680D02*
D03*
Y1597D02*
D03*
X2470Y1680D02*
D03*
Y1597D02*
D03*
D47*
X1120Y1046D02*
D03*
X1142Y1068D02*
D03*
X1165Y1090D02*
D03*
X1187Y1113D02*
D03*
X1209Y1135D02*
D03*
X1231Y1157D02*
D03*
X1254Y1180D02*
D03*
X1276Y1202D02*
D03*
X1298Y1224D02*
D03*
X1320Y1246D02*
D03*
X1343Y1269D02*
D03*
X1365Y1291D02*
D03*
X1387Y1313D02*
D03*
X1410Y1335D02*
D03*
X1432Y1358D02*
D03*
X1454Y1380D02*
D03*
X1880Y954D02*
D03*
X1858Y932D02*
D03*
X1835Y910D02*
D03*
X1813Y887D02*
D03*
X1791Y865D02*
D03*
X1769Y843D02*
D03*
X1746Y820D02*
D03*
X1724Y798D02*
D03*
X1702Y776D02*
D03*
X1680Y754D02*
D03*
X1657Y731D02*
D03*
X1635Y709D02*
D03*
X1613Y687D02*
D03*
X1590Y665D02*
D03*
X1568Y642D02*
D03*
X1546Y620D02*
D03*
D48*
Y1380D02*
D03*
X1568Y1358D02*
D03*
X1590Y1335D02*
D03*
X1613Y1313D02*
D03*
X1635Y1291D02*
D03*
X1657Y1269D02*
D03*
X1680Y1246D02*
D03*
X1702Y1224D02*
D03*
X1724Y1202D02*
D03*
X1746Y1180D02*
D03*
X1769Y1157D02*
D03*
X1791Y1135D02*
D03*
X1813Y1113D02*
D03*
X1835Y1090D02*
D03*
X1858Y1068D02*
D03*
X1880Y1046D02*
D03*
X1454Y620D02*
D03*
X1432Y642D02*
D03*
X1410Y665D02*
D03*
X1387Y687D02*
D03*
X1365Y709D02*
D03*
X1343Y731D02*
D03*
X1320Y754D02*
D03*
X1298Y776D02*
D03*
X1276Y798D02*
D03*
X1254Y820D02*
D03*
X1231Y843D02*
D03*
X1209Y865D02*
D03*
X1187Y887D02*
D03*
X1165Y910D02*
D03*
X1142Y932D02*
D03*
X1120Y954D02*
D03*
D49*
X1930Y1945D02*
D03*
X2186D02*
D03*
X1930Y1768D02*
D03*
X2186D02*
D03*
X2370Y1942D02*
D03*
X2626D02*
D03*
X2370Y1765D02*
D03*
X2626D02*
D03*
X1876Y57D02*
D03*
Y313D02*
D03*
X2054Y57D02*
D03*
Y313D02*
D03*
D50*
X85Y930D02*
D03*
D51*
Y830D02*
D03*
Y730D02*
D03*
X185Y930D02*
D03*
Y830D02*
D03*
Y730D02*
D03*
D52*
X2560Y105D02*
D03*
Y223D02*
D03*
X2840Y488D02*
D03*
Y370D02*
D03*
X534Y234D02*
D03*
Y116D02*
D03*
X416Y234D02*
D03*
Y116D02*
D03*
X1631Y1766D02*
D03*
Y1884D02*
D03*
X1749Y1766D02*
D03*
Y1884D02*
D03*
X1226Y1766D02*
D03*
Y1884D02*
D03*
X1344Y1766D02*
D03*
Y1884D02*
D03*
X2840Y1085D02*
D03*
Y967D02*
D03*
X2722Y1085D02*
D03*
Y967D02*
D03*
X2840Y780D02*
D03*
Y662D02*
D03*
X2722Y780D02*
D03*
Y662D02*
D03*
X821Y1766D02*
D03*
Y1884D02*
D03*
X939Y1766D02*
D03*
Y1884D02*
D03*
X533Y1883D02*
D03*
Y1765D02*
D03*
X415Y1883D02*
D03*
Y1765D02*
D03*
D53*
X2442Y260D02*
D03*
X2678D02*
D03*
X2958Y333D02*
D03*
X2722D02*
D03*
X652Y79D02*
D03*
X298D02*
D03*
X1513Y1921D02*
D03*
X1867D02*
D03*
X1108D02*
D03*
X1462D02*
D03*
X2958Y930D02*
D03*
X2604D02*
D03*
X2958Y625D02*
D03*
X2604D02*
D03*
X703Y1921D02*
D03*
X1057D02*
D03*
X651Y1920D02*
D03*
X297D02*
D03*
D54*
X2525Y905D02*
D03*
Y805D02*
D03*
D55*
Y705D02*
D03*
D56*
X150Y1225D02*
D03*
D57*
X100D02*
D03*
X150Y1275D02*
D03*
X100D02*
D03*
X150Y1325D02*
D03*
X100D02*
D03*
X150Y1375D02*
D03*
X100D02*
D03*
X150Y1425D02*
D03*
X100D02*
D03*
D58*
X150Y1850D02*
D03*
X2850D02*
D03*
D59*
Y150D02*
D03*
X150D02*
D03*
D60*
X1135Y1150D02*
D03*
X1098Y1112D02*
D03*
X1143Y1195D02*
D03*
X1865Y1155D02*
D03*
X1220Y1235D02*
D03*
X1180Y1225D02*
D03*
X890Y1160D02*
D03*
X1830Y1190D02*
D03*
X2075Y650D02*
D03*
X2920Y1205D02*
D03*
X2555Y1285D02*
D03*
Y1340D02*
D03*
Y1380D02*
D03*
X2556Y1439D02*
D03*
X1130Y850D02*
D03*
X1085Y895D02*
D03*
X2965Y1700D02*
D03*
X2540D02*
D03*
X2680D02*
D03*
X2820D02*
D03*
X2385Y85D02*
D03*
X1295Y685D02*
D03*
X1015Y295D02*
D03*
X1660Y640D02*
D03*
X1906Y880D02*
D03*
X2247Y1945D02*
D03*
X1320Y1335D02*
D03*
X2245Y1765D02*
D03*
X2265Y945D02*
D03*
X200Y1245D02*
D03*
X1995Y755D02*
D03*
X1260Y1500D02*
D03*
M02*
