G04*
G04 #@! TF.GenerationSoftware,Altium Limited,Altium Designer,19.1.8 (144)*
G04*
G04 Layer_Physical_Order=1*
G04 Layer_Color=255*
%FSLAX23Y23*%
%MOIN*%
G70*
G01*
G75*
%ADD18R,0.031X0.047*%
%ADD19O,0.098X0.028*%
%ADD20R,0.053X0.043*%
%ADD21R,0.059X0.049*%
G04:AMPARAMS|DCode=22|XSize=51mil|YSize=33mil|CornerRadius=0mil|HoleSize=0mil|Usage=FLASHONLY|Rotation=135.000|XOffset=0mil|YOffset=0mil|HoleType=Round|Shape=Rectangle|*
%AMROTATEDRECTD22*
4,1,4,0.030,-0.006,0.006,-0.030,-0.030,0.006,-0.006,0.030,0.030,-0.006,0.0*
%
%ADD22ROTATEDRECTD22*%

G04:AMPARAMS|DCode=23|XSize=39mil|YSize=45mil|CornerRadius=0mil|HoleSize=0mil|Usage=FLASHONLY|Rotation=225.000|XOffset=0mil|YOffset=0mil|HoleType=Round|Shape=Rectangle|*
%AMROTATEDRECTD23*
4,1,4,-0.002,0.030,0.030,-0.002,0.002,-0.030,-0.030,0.002,-0.002,0.030,0.0*
%
%ADD23ROTATEDRECTD23*%

G04:AMPARAMS|DCode=24|XSize=53mil|YSize=43mil|CornerRadius=0mil|HoleSize=0mil|Usage=FLASHONLY|Rotation=315.000|XOffset=0mil|YOffset=0mil|HoleType=Round|Shape=Rectangle|*
%AMROTATEDRECTD24*
4,1,4,-0.034,0.004,-0.004,0.034,0.034,-0.004,0.004,-0.034,-0.034,0.004,0.0*
%
%ADD24ROTATEDRECTD24*%

%ADD25R,0.043X0.053*%
%ADD26R,0.055X0.041*%
%ADD27R,0.059X0.024*%
%ADD28R,0.083X0.051*%
%ADD29R,0.050X0.030*%
%ADD30R,0.047X0.043*%
G04:AMPARAMS|DCode=31|XSize=22mil|YSize=69mil|CornerRadius=0mil|HoleSize=0mil|Usage=FLASHONLY|Rotation=45.000|XOffset=0mil|YOffset=0mil|HoleType=Round|Shape=Round|*
%AMOVALD31*
21,1,0.047,0.022,0.000,0.000,135.0*
1,1,0.022,0.017,-0.017*
1,1,0.022,-0.017,0.017*
%
%ADD31OVALD31*%

G04:AMPARAMS|DCode=32|XSize=22mil|YSize=69mil|CornerRadius=0mil|HoleSize=0mil|Usage=FLASHONLY|Rotation=135.000|XOffset=0mil|YOffset=0mil|HoleType=Round|Shape=Round|*
%AMOVALD32*
21,1,0.047,0.022,0.000,0.000,225.0*
1,1,0.022,0.017,0.017*
1,1,0.022,-0.017,-0.017*
%
%ADD32OVALD32*%

%ADD61C,0.012*%
%ADD62C,0.008*%
%ADD63C,0.059*%
%ADD64R,0.061X0.061*%
%ADD65C,0.061*%
%ADD66C,0.060*%
%ADD67C,0.059*%
%ADD68R,0.059X0.059*%
%ADD69R,0.040X0.040*%
%ADD70C,0.040*%
%ADD71C,0.242*%
%ADD72C,0.240*%
%ADD73C,0.025*%
G36*
X2166Y1985D02*
X2163Y1984D01*
X2154Y1977D01*
X2147Y1967D01*
X2147Y1966D01*
X1969D01*
X1969Y1967D01*
X1962Y1977D01*
X1952Y1984D01*
X1950Y1985D01*
X1951Y1990D01*
X2165D01*
X2166Y1985D01*
D02*
G37*
G36*
X2613D02*
X2603Y1981D01*
X2594Y1974D01*
X2587Y1965D01*
X2587Y1964D01*
X2409D01*
X2409Y1965D01*
X2402Y1974D01*
X2392Y1981D01*
X2383Y1985D01*
X2384Y1990D01*
X2612Y1990D01*
X2613Y1985D01*
D02*
G37*
G36*
X2829Y1985D02*
X2829Y1985D01*
X2808Y1980D01*
X2788Y1972D01*
X2770Y1960D01*
X2754Y1946D01*
X2740Y1930D01*
X2728Y1912D01*
X2720Y1892D01*
X2715Y1871D01*
X2714Y1850D01*
X2715Y1829D01*
X2720Y1808D01*
X2728Y1788D01*
X2740Y1770D01*
X2754Y1754D01*
X2770Y1740D01*
X2788Y1728D01*
X2793Y1726D01*
X2792Y1721D01*
X2769D01*
X2760Y1720D01*
X2758Y1718D01*
X2711D01*
Y1709D01*
X2706Y1708D01*
X2704Y1714D01*
X2700Y1720D01*
X2694Y1724D01*
X2687Y1727D01*
X2680Y1728D01*
X2673Y1727D01*
X2666Y1724D01*
X2663Y1721D01*
X2652D01*
X2649Y1726D01*
X2649Y1726D01*
X2658Y1733D01*
X2665Y1743D01*
X2669Y1753D01*
X2671Y1765D01*
X2669Y1777D01*
X2665Y1787D01*
X2658Y1797D01*
X2648Y1804D01*
X2638Y1808D01*
X2626Y1810D01*
X2614Y1808D01*
X2603Y1804D01*
X2594Y1797D01*
X2587Y1787D01*
X2587Y1786D01*
X2409D01*
X2409Y1787D01*
X2402Y1797D01*
X2392Y1804D01*
X2382Y1808D01*
X2370Y1810D01*
X2358Y1808D01*
X2348Y1804D01*
X2338Y1797D01*
X2331Y1787D01*
X2327Y1777D01*
X2325Y1765D01*
X2327Y1753D01*
X2331Y1743D01*
X2338Y1733D01*
X2348Y1726D01*
X2358Y1722D01*
X2370Y1720D01*
X2382Y1722D01*
X2392Y1726D01*
X2402Y1733D01*
X2409Y1743D01*
X2409Y1744D01*
X2587D01*
X2587Y1743D01*
X2594Y1733D01*
X2603Y1726D01*
X2614Y1722D01*
X2614Y1722D01*
X2614Y1717D01*
X2571D01*
Y1709D01*
X2566Y1708D01*
X2564Y1714D01*
X2560Y1720D01*
X2554Y1724D01*
X2547Y1727D01*
X2540Y1728D01*
X2533Y1727D01*
X2526Y1724D01*
X2523Y1721D01*
X2490D01*
X2482Y1720D01*
X2477Y1717D01*
X2431D01*
Y1643D01*
X2509D01*
Y1679D01*
X2523D01*
X2526Y1676D01*
X2533Y1673D01*
X2540Y1672D01*
X2547Y1673D01*
X2554Y1676D01*
X2560Y1680D01*
X2564Y1686D01*
X2566Y1692D01*
X2571Y1691D01*
Y1643D01*
X2649D01*
Y1679D01*
X2663D01*
X2666Y1676D01*
X2673Y1673D01*
X2680Y1672D01*
X2687Y1673D01*
X2694Y1676D01*
X2700Y1680D01*
X2704Y1686D01*
X2706Y1692D01*
X2711Y1691D01*
Y1645D01*
X2789D01*
Y1679D01*
X2803D01*
X2806Y1676D01*
X2813Y1673D01*
X2820Y1672D01*
X2827Y1673D01*
X2834Y1676D01*
X2840Y1680D01*
X2844Y1686D01*
X2846Y1692D01*
X2851Y1691D01*
Y1645D01*
X2929D01*
Y1679D01*
X2948D01*
X2951Y1676D01*
X2958Y1673D01*
X2965Y1672D01*
X2972Y1673D01*
X2979Y1676D01*
X2985Y1680D01*
X2985Y1681D01*
X2990Y1679D01*
X2990Y954D01*
X2985Y953D01*
X2983Y955D01*
X2976Y960D01*
X2967Y964D01*
X2958Y965D01*
X2949Y964D01*
X2940Y960D01*
X2933Y955D01*
X2928Y948D01*
X2924Y939D01*
X2923Y930D01*
X2924Y921D01*
X2928Y912D01*
X2933Y905D01*
X2940Y899D01*
X2949Y896D01*
X2958Y895D01*
X2967Y896D01*
X2976Y899D01*
X2983Y905D01*
X2985Y907D01*
X2990Y905D01*
Y649D01*
X2985Y648D01*
X2983Y650D01*
X2976Y655D01*
X2967Y659D01*
X2958Y660D01*
X2949Y659D01*
X2940Y655D01*
X2933Y650D01*
X2928Y643D01*
X2924Y634D01*
X2923Y625D01*
X2924Y616D01*
X2928Y607D01*
X2933Y600D01*
X2940Y594D01*
X2949Y591D01*
X2958Y590D01*
X2967Y591D01*
X2976Y594D01*
X2983Y600D01*
X2985Y602D01*
X2990Y600D01*
X2990Y357D01*
X2985Y356D01*
X2983Y358D01*
X2976Y364D01*
X2967Y367D01*
X2958Y368D01*
X2949Y367D01*
X2940Y364D01*
X2933Y358D01*
X2928Y351D01*
X2924Y342D01*
X2923Y333D01*
X2924Y324D01*
X2928Y315D01*
X2933Y308D01*
X2940Y302D01*
X2949Y299D01*
X2958Y298D01*
X2967Y299D01*
X2976Y302D01*
X2983Y308D01*
X2985Y310D01*
X2990Y309D01*
Y158D01*
X2985Y158D01*
X2984Y171D01*
X2979Y192D01*
X2971Y211D01*
X2960Y230D01*
X2946Y246D01*
X2930Y260D01*
X2911Y271D01*
X2892Y279D01*
X2871Y284D01*
X2850Y285D01*
X2829Y284D01*
X2808Y279D01*
X2789Y271D01*
X2770Y260D01*
X2754Y246D01*
X2740Y230D01*
X2729Y211D01*
X2721Y192D01*
X2716Y171D01*
X2715Y150D01*
X2716Y129D01*
X2721Y108D01*
X2729Y89D01*
X2740Y70D01*
X2754Y54D01*
X2770Y40D01*
X2789Y29D01*
X2808Y21D01*
X2829Y16D01*
X2842Y15D01*
X2842Y10D01*
X2070D01*
X2069Y15D01*
X2076Y18D01*
X2085Y25D01*
X2092Y35D01*
X2097Y45D01*
X2098Y57D01*
X2097Y69D01*
X2092Y79D01*
X2085Y89D01*
X2076Y96D01*
X2075Y96D01*
Y271D01*
X2079Y275D01*
X2084Y274D01*
X2265D01*
X2273Y276D01*
X2280Y280D01*
X2294Y294D01*
X2334D01*
Y287D01*
X2336Y279D01*
X2338Y276D01*
Y231D01*
X2343D01*
Y220D01*
X2380D01*
X2417D01*
Y231D01*
X2422D01*
X2422Y231D01*
X2426Y229D01*
X2433Y226D01*
X2442Y225D01*
X2451Y226D01*
X2460Y230D01*
X2467Y235D01*
X2472Y242D01*
X2476Y251D01*
X2477Y256D01*
X2482Y258D01*
X2489Y251D01*
Y155D01*
X2490Y147D01*
X2495Y140D01*
X2517Y118D01*
X2516Y117D01*
X2515Y105D01*
X2516Y93D01*
X2521Y82D01*
X2528Y73D01*
X2537Y66D01*
X2548Y61D01*
X2560Y60D01*
X2572Y61D01*
X2583Y66D01*
X2592Y73D01*
X2599Y82D01*
X2604Y93D01*
X2605Y105D01*
X2604Y117D01*
X2599Y128D01*
X2592Y137D01*
X2583Y144D01*
X2572Y149D01*
X2560Y150D01*
X2548Y149D01*
X2547Y148D01*
X2531Y164D01*
Y183D01*
X2536Y185D01*
X2537Y184D01*
X2548Y179D01*
X2560Y178D01*
X2572Y179D01*
X2583Y184D01*
X2592Y191D01*
X2599Y200D01*
X2604Y211D01*
X2605Y223D01*
X2604Y235D01*
X2599Y246D01*
X2592Y255D01*
X2583Y262D01*
X2572Y267D01*
X2560Y268D01*
X2554Y268D01*
X2551Y270D01*
X2550Y277D01*
X2545Y284D01*
X2440Y389D01*
X2442Y394D01*
X2786D01*
X2797Y383D01*
X2796Y382D01*
X2795Y370D01*
X2796Y358D01*
X2801Y347D01*
X2808Y338D01*
X2817Y331D01*
X2828Y326D01*
X2840Y325D01*
X2852Y326D01*
X2863Y331D01*
X2872Y338D01*
X2879Y347D01*
X2884Y358D01*
X2885Y370D01*
X2884Y382D01*
X2879Y393D01*
X2872Y402D01*
X2863Y409D01*
X2852Y414D01*
X2840Y415D01*
X2828Y414D01*
X2827Y413D01*
X2811Y429D01*
X2827Y445D01*
X2828Y444D01*
X2840Y443D01*
X2852Y444D01*
X2863Y449D01*
X2872Y456D01*
X2879Y465D01*
X2884Y476D01*
X2885Y488D01*
X2884Y500D01*
X2879Y511D01*
X2872Y520D01*
X2863Y527D01*
X2852Y532D01*
X2840Y533D01*
X2828Y532D01*
X2817Y527D01*
X2808Y520D01*
X2801Y511D01*
X2796Y500D01*
X2795Y488D01*
X2796Y476D01*
X2797Y475D01*
X2778Y456D01*
X2230D01*
X2097Y589D01*
X2099Y594D01*
X2287D01*
X2295Y595D01*
X2302Y600D01*
X2334Y632D01*
Y655D01*
X2354D01*
Y633D01*
X2384D01*
Y634D01*
X2554D01*
X2562Y635D01*
X2566Y638D01*
X2570Y634D01*
X2570Y634D01*
X2568Y625D01*
X2570Y616D01*
X2573Y607D01*
X2579Y600D01*
X2586Y594D01*
X2595Y591D01*
X2604Y590D01*
X2613Y591D01*
X2621Y594D01*
X2629Y600D01*
X2634Y607D01*
X2638Y616D01*
X2639Y625D01*
X2638Y634D01*
X2634Y643D01*
X2632Y645D01*
X2635Y650D01*
X2684D01*
X2687Y642D01*
X2693Y633D01*
X2702Y627D01*
X2711Y623D01*
X2712Y623D01*
Y662D01*
X2722D01*
Y672D01*
X2761D01*
X2761Y672D01*
X2757Y682D01*
X2752Y689D01*
X2754Y694D01*
X2786D01*
X2799Y681D01*
X2796Y674D01*
X2795Y662D01*
X2796Y650D01*
X2801Y639D01*
X2808Y630D01*
X2817Y623D01*
X2828Y618D01*
X2840Y617D01*
X2852Y618D01*
X2863Y623D01*
X2872Y630D01*
X2879Y639D01*
X2884Y650D01*
X2885Y662D01*
X2884Y674D01*
X2879Y685D01*
X2872Y694D01*
X2863Y701D01*
X2861Y702D01*
Y709D01*
X2899Y747D01*
X2904Y754D01*
X2905Y762D01*
Y923D01*
X2904Y931D01*
X2899Y938D01*
X2883Y954D01*
X2884Y955D01*
X2885Y967D01*
X2884Y979D01*
X2879Y990D01*
X2872Y999D01*
X2863Y1006D01*
X2852Y1011D01*
X2840Y1012D01*
X2828Y1011D01*
X2821Y1008D01*
X2816Y1011D01*
Y1041D01*
X2820Y1045D01*
X2828Y1041D01*
X2840Y1040D01*
X2852Y1041D01*
X2863Y1046D01*
X2872Y1053D01*
X2879Y1062D01*
X2884Y1073D01*
X2885Y1085D01*
X2884Y1097D01*
X2879Y1108D01*
X2872Y1117D01*
X2863Y1124D01*
X2852Y1129D01*
X2840Y1130D01*
X2828Y1129D01*
X2817Y1124D01*
X2808Y1117D01*
X2801Y1108D01*
X2796Y1097D01*
X2795Y1085D01*
X2795Y1080D01*
X2780Y1065D01*
X2775Y1058D01*
X2774Y1050D01*
Y923D01*
X2775Y914D01*
X2780Y907D01*
X2818Y870D01*
Y819D01*
X2817Y819D01*
X2808Y812D01*
X2801Y803D01*
X2796Y792D01*
X2795Y780D01*
X2796Y768D01*
X2797Y767D01*
X2787Y757D01*
X2766D01*
X2763Y762D01*
X2766Y768D01*
X2767Y780D01*
X2766Y792D01*
X2761Y803D01*
X2754Y812D01*
X2745Y819D01*
X2734Y824D01*
X2722Y825D01*
X2710Y824D01*
X2699Y819D01*
X2690Y812D01*
X2683Y803D01*
X2678Y792D01*
X2677Y780D01*
X2678Y768D01*
X2681Y762D01*
X2678Y757D01*
X2608D01*
X2601Y764D01*
X2594Y768D01*
X2586Y770D01*
X2560D01*
X2558Y775D01*
X2564Y783D01*
X2568Y793D01*
X2570Y805D01*
X2568Y817D01*
X2564Y827D01*
X2557Y837D01*
X2547Y844D01*
X2537Y848D01*
X2525Y850D01*
X2513Y848D01*
X2503Y844D01*
X2497Y840D01*
X2494Y843D01*
X2512Y862D01*
X2513Y862D01*
X2525Y860D01*
X2537Y862D01*
X2547Y866D01*
X2557Y873D01*
X2564Y883D01*
X2568Y893D01*
X2570Y905D01*
X2569Y909D01*
X2574Y911D01*
X2579Y905D01*
X2586Y899D01*
X2595Y896D01*
X2604Y895D01*
X2613Y896D01*
X2621Y899D01*
X2629Y905D01*
X2634Y912D01*
X2638Y921D01*
X2639Y930D01*
X2638Y939D01*
X2634Y948D01*
X2629Y955D01*
X2621Y960D01*
X2616Y963D01*
X2615Y969D01*
X2695Y1049D01*
X2699Y1046D01*
X2710Y1041D01*
X2722Y1040D01*
X2734Y1041D01*
X2745Y1046D01*
X2754Y1053D01*
X2761Y1062D01*
X2766Y1073D01*
X2767Y1085D01*
X2766Y1097D01*
X2761Y1108D01*
X2754Y1117D01*
X2745Y1124D01*
X2734Y1129D01*
X2722Y1130D01*
X2710Y1129D01*
X2699Y1124D01*
X2690Y1117D01*
X2683Y1108D01*
X2678Y1097D01*
X2677Y1092D01*
X2567Y981D01*
X2380D01*
Y986D01*
X2290D01*
Y966D01*
X2282D01*
X2279Y969D01*
X2272Y972D01*
X2265Y973D01*
X2258Y972D01*
X2251Y969D01*
X2245Y965D01*
X2241Y959D01*
X2238Y952D01*
X2237Y945D01*
X2238Y938D01*
X2241Y931D01*
X2245Y925D01*
X2251Y921D01*
X2258Y918D01*
X2265Y917D01*
X2272Y918D01*
X2279Y921D01*
X2282Y924D01*
X2290D01*
Y907D01*
X2290D01*
Y903D01*
X2290D01*
Y824D01*
X2300D01*
Y778D01*
Y728D01*
Y678D01*
X2300D01*
X2305Y677D01*
Y663D01*
X2278Y636D01*
X2180D01*
Y682D01*
X2180D01*
X2175Y683D01*
Y695D01*
X2136D01*
Y715D01*
X2175D01*
Y727D01*
X2180Y728D01*
X2180D01*
Y778D01*
Y832D01*
X2091D01*
Y826D01*
X1949D01*
X1923Y852D01*
X1924Y859D01*
X1926Y860D01*
X1930Y866D01*
X1933Y873D01*
X1934Y880D01*
X1933Y887D01*
X1930Y894D01*
X1926Y900D01*
X1920Y904D01*
X1914Y907D01*
X1910Y910D01*
X1911Y916D01*
X1915Y919D01*
X1919Y924D01*
X1922Y931D01*
X1923Y937D01*
X1922Y944D01*
X1919Y950D01*
X1915Y956D01*
X1882Y989D01*
X1876Y993D01*
X1870Y996D01*
X1863Y997D01*
X1857Y996D01*
X1850Y993D01*
X1845Y989D01*
X1841Y984D01*
X1838Y978D01*
X1838Y974D01*
X1834Y974D01*
X1828Y971D01*
X1823Y967D01*
X1818Y962D01*
X1816Y955D01*
X1815Y952D01*
X1812Y951D01*
X1806Y949D01*
X1800Y945D01*
X1796Y939D01*
X1794Y933D01*
X1793Y930D01*
X1790Y929D01*
X1783Y927D01*
X1778Y922D01*
X1774Y917D01*
X1771Y911D01*
X1771Y907D01*
X1767Y907D01*
X1761Y904D01*
X1756Y900D01*
X1752Y895D01*
X1749Y888D01*
X1749Y885D01*
X1745Y885D01*
X1739Y882D01*
X1734Y878D01*
X1729Y872D01*
X1727Y866D01*
X1726Y863D01*
X1723Y862D01*
X1717Y860D01*
X1711Y856D01*
X1707Y850D01*
X1705Y844D01*
X1704Y840D01*
X1701Y840D01*
X1694Y837D01*
X1689Y833D01*
X1685Y828D01*
X1682Y822D01*
X1682Y818D01*
X1678Y818D01*
X1672Y815D01*
X1667Y811D01*
X1663Y806D01*
X1660Y799D01*
X1660Y796D01*
X1656Y795D01*
X1650Y793D01*
X1644Y789D01*
X1640Y783D01*
X1638Y777D01*
X1637Y774D01*
X1634Y773D01*
X1628Y771D01*
X1622Y766D01*
X1618Y761D01*
X1615Y755D01*
X1615Y748D01*
X1615Y746D01*
X1612Y746D01*
X1615Y743D01*
X1615Y741D01*
X1618Y735D01*
X1622Y730D01*
X1639Y713D01*
X1631Y705D01*
X1614Y722D01*
X1609Y726D01*
X1603Y729D01*
X1601Y729D01*
X1598Y732D01*
X1598Y729D01*
X1596Y730D01*
X1589Y729D01*
X1583Y726D01*
X1578Y722D01*
X1573Y717D01*
X1571Y710D01*
X1570Y707D01*
X1567Y706D01*
X1561Y704D01*
X1555Y700D01*
X1551Y694D01*
X1549Y688D01*
X1548Y685D01*
X1545Y684D01*
X1538Y682D01*
X1533Y677D01*
X1529Y672D01*
X1526Y666D01*
X1526Y662D01*
X1522Y662D01*
X1516Y659D01*
X1511Y655D01*
X1507Y650D01*
X1504Y643D01*
X1503Y637D01*
X1504Y630D01*
X1507Y624D01*
X1511Y618D01*
X1544Y585D01*
X1550Y581D01*
X1556Y578D01*
X1563Y577D01*
X1569Y578D01*
X1576Y581D01*
X1581Y585D01*
X1585Y590D01*
X1588Y597D01*
X1588Y600D01*
X1592Y600D01*
X1598Y603D01*
X1603Y607D01*
X1607Y613D01*
X1610Y619D01*
X1611Y622D01*
X1614Y623D01*
X1620Y625D01*
X1626Y629D01*
X1628Y633D01*
X1630Y633D01*
X1634Y632D01*
X1636Y626D01*
X1640Y620D01*
X1646Y616D01*
X1650Y614D01*
X1651Y609D01*
X1648Y605D01*
X1648Y605D01*
X1645Y602D01*
X1644Y601D01*
X1600Y558D01*
X1658Y500D01*
X1675Y518D01*
X1723Y470D01*
X1732Y480D01*
X1855Y357D01*
Y352D01*
X1854Y352D01*
X1845Y345D01*
X1838Y335D01*
X1833Y325D01*
X1832Y313D01*
X1833Y301D01*
X1838Y291D01*
X1845Y281D01*
X1854Y274D01*
X1855Y274D01*
Y96D01*
X1854Y96D01*
X1845Y89D01*
X1838Y79D01*
X1833Y69D01*
X1832Y57D01*
X1833Y45D01*
X1838Y35D01*
X1845Y25D01*
X1854Y18D01*
X1861Y15D01*
X1860Y10D01*
X158D01*
X158Y15D01*
X171Y16D01*
X192Y21D01*
X211Y29D01*
X230Y40D01*
X246Y54D01*
X259Y69D01*
X261Y70D01*
X262Y69D01*
X264Y68D01*
X267Y61D01*
X273Y54D01*
X280Y48D01*
X289Y45D01*
X298Y44D01*
X307Y45D01*
X315Y48D01*
X323Y54D01*
X328Y61D01*
X332Y70D01*
X333Y79D01*
X332Y88D01*
X328Y97D01*
X323Y104D01*
X315Y109D01*
X307Y113D01*
X298Y114D01*
X289Y113D01*
X285Y111D01*
X280Y115D01*
X284Y129D01*
X285Y150D01*
X284Y171D01*
X279Y192D01*
X271Y211D01*
X260Y230D01*
X246Y246D01*
X230Y260D01*
X211Y271D01*
X192Y279D01*
X171Y284D01*
X150Y285D01*
X129Y284D01*
X108Y279D01*
X89Y271D01*
X70Y260D01*
X54Y246D01*
X40Y230D01*
X29Y211D01*
X21Y192D01*
X16Y171D01*
X15Y158D01*
X10Y158D01*
Y1829D01*
X15Y1829D01*
X15Y1829D01*
X20Y1808D01*
X28Y1788D01*
X40Y1770D01*
X54Y1754D01*
X70Y1740D01*
X88Y1728D01*
X108Y1720D01*
X129Y1715D01*
X150Y1714D01*
X171Y1715D01*
X192Y1720D01*
X212Y1728D01*
X230Y1740D01*
X246Y1754D01*
X260Y1770D01*
X272Y1788D01*
X280Y1808D01*
X285Y1829D01*
X286Y1850D01*
X285Y1871D01*
X282Y1884D01*
X286Y1887D01*
X288Y1886D01*
X297Y1885D01*
X306Y1886D01*
X315Y1890D01*
X322Y1895D01*
X327Y1902D01*
X331Y1911D01*
X332Y1920D01*
X331Y1929D01*
X327Y1938D01*
X322Y1945D01*
X315Y1951D01*
X306Y1954D01*
X297Y1955D01*
X288Y1954D01*
X279Y1951D01*
X272Y1945D01*
X266Y1938D01*
X264Y1933D01*
X264Y1933D01*
X259Y1932D01*
X246Y1946D01*
X230Y1960D01*
X212Y1972D01*
X192Y1980D01*
X171Y1985D01*
X171Y1985D01*
X171Y1990D01*
X1909Y1990D01*
X1910Y1985D01*
X1908Y1984D01*
X1898Y1977D01*
X1891Y1967D01*
X1887Y1957D01*
X1887Y1956D01*
X1881Y1953D01*
X1876Y1955D01*
X1867Y1956D01*
X1858Y1955D01*
X1850Y1952D01*
X1842Y1946D01*
X1837Y1939D01*
X1833Y1930D01*
X1832Y1921D01*
X1833Y1912D01*
X1837Y1903D01*
X1842Y1896D01*
X1850Y1890D01*
X1858Y1887D01*
X1867Y1886D01*
X1876Y1887D01*
X1885Y1890D01*
X1892Y1896D01*
X1898Y1903D01*
X1899Y1907D01*
X1904Y1909D01*
X1908Y1906D01*
X1918Y1902D01*
X1930Y1900D01*
X1942Y1902D01*
X1952Y1906D01*
X1962Y1913D01*
X1969Y1923D01*
X1969Y1924D01*
X2147D01*
X2147Y1923D01*
X2154Y1913D01*
X2163Y1906D01*
X2174Y1902D01*
X2186Y1900D01*
X2198Y1902D01*
X2208Y1906D01*
X2218Y1913D01*
X2225Y1923D01*
X2226Y1926D01*
X2232Y1928D01*
X2237Y1925D01*
Y1945D01*
Y1965D01*
X2232Y1962D01*
X2226Y1964D01*
X2225Y1967D01*
X2218Y1977D01*
X2208Y1984D01*
X2206Y1985D01*
X2207Y1990D01*
X2356D01*
X2357Y1985D01*
X2348Y1981D01*
X2338Y1974D01*
X2331Y1965D01*
X2327Y1954D01*
X2325Y1942D01*
X2327Y1931D01*
X2331Y1920D01*
X2338Y1910D01*
X2348Y1903D01*
X2358Y1899D01*
X2370Y1897D01*
X2382Y1899D01*
X2392Y1903D01*
X2402Y1910D01*
X2409Y1920D01*
X2409Y1921D01*
X2587D01*
X2587Y1920D01*
X2594Y1910D01*
X2603Y1903D01*
X2614Y1899D01*
X2626Y1897D01*
X2638Y1899D01*
X2648Y1903D01*
X2658Y1910D01*
X2665Y1920D01*
X2669Y1931D01*
X2671Y1942D01*
X2669Y1954D01*
X2665Y1965D01*
X2658Y1974D01*
X2648Y1981D01*
X2639Y1985D01*
X2640Y1990D01*
X2829D01*
X2829Y1985D01*
D02*
G37*
G36*
X2990Y1829D02*
Y1721D01*
X2985Y1719D01*
X2985Y1720D01*
X2979Y1724D01*
X2972Y1727D01*
X2965Y1728D01*
X2958Y1727D01*
X2951Y1724D01*
X2948Y1721D01*
X2909D01*
X2907Y1721D01*
X2906Y1726D01*
X2912Y1728D01*
X2930Y1740D01*
X2946Y1754D01*
X2960Y1770D01*
X2972Y1788D01*
X2980Y1808D01*
X2985Y1829D01*
X2985Y1829D01*
X2990Y1829D01*
D02*
G37*
G36*
X2491Y934D02*
X2486Y927D01*
X2482Y917D01*
X2480Y905D01*
X2482Y893D01*
X2482Y892D01*
X2453Y863D01*
X2430D01*
X2428Y863D01*
X2380D01*
Y903D01*
X2380D01*
Y907D01*
X2380D01*
Y939D01*
X2488D01*
X2491Y934D01*
D02*
G37*
G36*
X1925Y790D02*
X1932Y785D01*
X1940Y784D01*
X1979D01*
X1980Y781D01*
X1981Y779D01*
X1975Y775D01*
X1971Y769D01*
X1968Y762D01*
X1967Y755D01*
X1968Y748D01*
X1971Y741D01*
X1975Y735D01*
X1981Y731D01*
X1988Y728D01*
X1995Y727D01*
X2002Y728D01*
X2009Y731D01*
X2012Y734D01*
X2023D01*
Y722D01*
X2028D01*
Y711D01*
X2065D01*
Y691D01*
X2026D01*
X2025Y690D01*
X2024Y681D01*
Y669D01*
X2019Y667D01*
X1843Y843D01*
X1844Y849D01*
X1848Y852D01*
X1851Y856D01*
X1857Y857D01*
X1925Y790D01*
D02*
G37*
G36*
X1796Y551D02*
X1802Y557D01*
X2018Y340D01*
X2015Y335D01*
X2010Y325D01*
X2009Y313D01*
X2010Y301D01*
X2015Y291D01*
X2022Y281D01*
X2031Y274D01*
X2032Y274D01*
Y96D01*
X2031Y96D01*
X2022Y89D01*
X2015Y79D01*
X2010Y69D01*
X2009Y57D01*
X2010Y45D01*
X2015Y35D01*
X2022Y25D01*
X2031Y18D01*
X2038Y15D01*
X2037Y10D01*
X1893D01*
X1892Y15D01*
X1899Y18D01*
X1908Y25D01*
X1915Y35D01*
X1920Y45D01*
X1921Y57D01*
X1920Y69D01*
X1915Y79D01*
X1908Y89D01*
X1899Y96D01*
X1898Y96D01*
Y274D01*
X1899Y274D01*
X1908Y281D01*
X1915Y291D01*
X1920Y301D01*
X1921Y313D01*
X1920Y325D01*
X1915Y335D01*
X1908Y345D01*
X1899Y352D01*
X1898Y352D01*
Y366D01*
X1896Y374D01*
X1892Y381D01*
X1763Y510D01*
X1767Y515D01*
X1720Y563D01*
X1726Y569D01*
X1738Y557D01*
X1757Y576D01*
X1764Y569D01*
X1771Y576D01*
X1796Y551D01*
D02*
G37*
G36*
X2083Y365D02*
Y355D01*
X2083Y353D01*
X2083Y352D01*
X2077Y351D01*
X2076Y352D01*
X2065Y356D01*
X2061Y357D01*
X2060Y359D01*
X1709Y710D01*
X1711Y715D01*
X1715Y719D01*
X1718Y723D01*
X1724Y724D01*
X2083Y365D01*
D02*
G37*
%LPC*%
G36*
X2257Y1965D02*
Y1955D01*
X2267D01*
X2263Y1961D01*
X2257Y1965D01*
D02*
G37*
G36*
X1513Y1956D02*
X1504Y1955D01*
X1495Y1952D01*
X1488Y1946D01*
X1487D01*
X1480Y1952D01*
X1471Y1955D01*
X1462Y1956D01*
X1453Y1955D01*
X1445Y1952D01*
X1437Y1946D01*
X1432Y1939D01*
X1428Y1930D01*
X1427Y1921D01*
X1428Y1912D01*
X1432Y1903D01*
X1437Y1896D01*
X1445Y1890D01*
X1453Y1887D01*
X1462Y1886D01*
X1471Y1887D01*
X1480Y1890D01*
X1487Y1896D01*
X1488D01*
X1495Y1890D01*
X1504Y1887D01*
X1513Y1886D01*
X1522Y1887D01*
X1530Y1890D01*
X1538Y1896D01*
X1543Y1903D01*
X1547Y1912D01*
X1548Y1921D01*
X1547Y1930D01*
X1543Y1939D01*
X1538Y1946D01*
X1530Y1952D01*
X1522Y1955D01*
X1513Y1956D01*
D02*
G37*
G36*
X1108D02*
X1099Y1955D01*
X1090Y1952D01*
X1083Y1946D01*
X1082D01*
X1075Y1952D01*
X1066Y1955D01*
X1057Y1956D01*
X1048Y1955D01*
X1040Y1952D01*
X1032Y1946D01*
X1027Y1939D01*
X1023Y1930D01*
X1022Y1921D01*
X1023Y1912D01*
X1027Y1903D01*
X1032Y1896D01*
X1040Y1890D01*
X1048Y1887D01*
X1057Y1886D01*
X1066Y1887D01*
X1075Y1890D01*
X1082Y1896D01*
X1083D01*
X1090Y1890D01*
X1099Y1887D01*
X1108Y1886D01*
X1117Y1887D01*
X1125Y1890D01*
X1133Y1896D01*
X1138Y1903D01*
X1142Y1912D01*
X1143Y1921D01*
X1142Y1930D01*
X1138Y1939D01*
X1133Y1946D01*
X1125Y1952D01*
X1117Y1955D01*
X1108Y1956D01*
D02*
G37*
G36*
X703D02*
X694Y1955D01*
X685Y1952D01*
X678Y1946D01*
X677Y1945D01*
X676D01*
X669Y1951D01*
X660Y1954D01*
X651Y1955D01*
X642Y1954D01*
X634Y1951D01*
X626Y1945D01*
X621Y1938D01*
X617Y1929D01*
X616Y1920D01*
X617Y1911D01*
X621Y1902D01*
X626Y1895D01*
X634Y1890D01*
X642Y1886D01*
X651Y1885D01*
X660Y1886D01*
X669Y1890D01*
X676Y1895D01*
X677Y1896D01*
X678D01*
X685Y1890D01*
X694Y1887D01*
X703Y1886D01*
X712Y1887D01*
X720Y1890D01*
X728Y1896D01*
X733Y1903D01*
X737Y1912D01*
X738Y1921D01*
X737Y1930D01*
X733Y1939D01*
X728Y1946D01*
X720Y1952D01*
X712Y1955D01*
X703Y1956D01*
D02*
G37*
G36*
X2267Y1935D02*
X2257D01*
Y1925D01*
X2263Y1929D01*
X2267Y1935D01*
D02*
G37*
G36*
X1759Y1923D02*
Y1894D01*
X1788D01*
X1788Y1894D01*
X1784Y1904D01*
X1778Y1913D01*
X1769Y1919D01*
X1759Y1923D01*
X1759Y1923D01*
D02*
G37*
G36*
X1354D02*
Y1894D01*
X1383D01*
X1383Y1894D01*
X1379Y1904D01*
X1373Y1913D01*
X1364Y1919D01*
X1354Y1923D01*
X1354Y1923D01*
D02*
G37*
G36*
X949D02*
Y1894D01*
X978D01*
X978Y1894D01*
X974Y1904D01*
X968Y1913D01*
X959Y1919D01*
X949Y1923D01*
X949Y1923D01*
D02*
G37*
G36*
X929D02*
X929Y1923D01*
X919Y1919D01*
X911Y1913D01*
X904Y1904D01*
X900Y1894D01*
X900Y1894D01*
X929D01*
Y1923D01*
D02*
G37*
G36*
X1334D02*
X1334Y1923D01*
X1324Y1919D01*
X1316Y1913D01*
X1309Y1904D01*
X1305Y1894D01*
X1305Y1894D01*
X1334D01*
Y1923D01*
D02*
G37*
G36*
X1739D02*
X1739Y1923D01*
X1729Y1919D01*
X1721Y1913D01*
X1714Y1904D01*
X1710Y1894D01*
X1710Y1894D01*
X1739D01*
Y1923D01*
D02*
G37*
G36*
X543Y1922D02*
Y1893D01*
X572D01*
X572Y1894D01*
X568Y1903D01*
X562Y1912D01*
X553Y1918D01*
X544Y1922D01*
X543Y1922D01*
D02*
G37*
G36*
X523D02*
X523Y1922D01*
X513Y1918D01*
X505Y1912D01*
X498Y1903D01*
X494Y1894D01*
X494Y1893D01*
X523D01*
Y1922D01*
D02*
G37*
G36*
X1788Y1874D02*
X1759D01*
Y1845D01*
X1759Y1845D01*
X1769Y1849D01*
X1778Y1856D01*
X1784Y1864D01*
X1788Y1874D01*
X1788Y1874D01*
D02*
G37*
G36*
X1383D02*
X1354D01*
Y1845D01*
X1354Y1845D01*
X1364Y1849D01*
X1373Y1856D01*
X1379Y1864D01*
X1383Y1874D01*
X1383Y1874D01*
D02*
G37*
G36*
X978D02*
X949D01*
Y1845D01*
X949Y1845D01*
X959Y1849D01*
X968Y1856D01*
X974Y1864D01*
X978Y1874D01*
X978Y1874D01*
D02*
G37*
G36*
X1334D02*
X1305D01*
X1305Y1874D01*
X1309Y1864D01*
X1316Y1856D01*
X1324Y1849D01*
X1334Y1845D01*
X1334Y1845D01*
Y1874D01*
D02*
G37*
G36*
X929D02*
X900D01*
X900Y1874D01*
X904Y1864D01*
X911Y1856D01*
X919Y1849D01*
X929Y1845D01*
X929Y1845D01*
Y1874D01*
D02*
G37*
G36*
X1739D02*
X1710D01*
X1710Y1874D01*
X1714Y1864D01*
X1721Y1856D01*
X1729Y1849D01*
X1739Y1845D01*
X1739Y1845D01*
Y1874D01*
D02*
G37*
G36*
X572Y1873D02*
X543D01*
Y1844D01*
X544Y1844D01*
X553Y1848D01*
X562Y1855D01*
X568Y1863D01*
X572Y1873D01*
X572Y1873D01*
D02*
G37*
G36*
X523D02*
X494D01*
X494Y1873D01*
X498Y1863D01*
X505Y1855D01*
X513Y1848D01*
X523Y1844D01*
X523Y1844D01*
Y1873D01*
D02*
G37*
G36*
X1631Y1929D02*
X1619Y1928D01*
X1608Y1923D01*
X1599Y1916D01*
X1592Y1907D01*
X1587Y1896D01*
X1586Y1884D01*
X1587Y1872D01*
X1592Y1861D01*
X1599Y1852D01*
X1608Y1845D01*
X1619Y1840D01*
X1631Y1839D01*
X1643Y1840D01*
X1654Y1845D01*
X1663Y1852D01*
X1670Y1861D01*
X1675Y1872D01*
X1676Y1884D01*
X1675Y1896D01*
X1670Y1907D01*
X1663Y1916D01*
X1654Y1923D01*
X1643Y1928D01*
X1631Y1929D01*
D02*
G37*
G36*
X1226D02*
X1214Y1928D01*
X1203Y1923D01*
X1194Y1916D01*
X1187Y1907D01*
X1182Y1896D01*
X1181Y1884D01*
X1182Y1872D01*
X1187Y1861D01*
X1194Y1852D01*
X1203Y1845D01*
X1214Y1840D01*
X1226Y1839D01*
X1238Y1840D01*
X1249Y1845D01*
X1258Y1852D01*
X1265Y1861D01*
X1270Y1872D01*
X1271Y1884D01*
X1270Y1896D01*
X1265Y1907D01*
X1258Y1916D01*
X1249Y1923D01*
X1238Y1928D01*
X1226Y1929D01*
D02*
G37*
G36*
X821D02*
X809Y1928D01*
X798Y1923D01*
X789Y1916D01*
X782Y1907D01*
X777Y1896D01*
X776Y1884D01*
X777Y1872D01*
X782Y1861D01*
X789Y1852D01*
X798Y1845D01*
X809Y1840D01*
X821Y1839D01*
X833Y1840D01*
X844Y1845D01*
X853Y1852D01*
X860Y1861D01*
X865Y1872D01*
X866Y1884D01*
X865Y1896D01*
X860Y1907D01*
X853Y1916D01*
X844Y1923D01*
X833Y1928D01*
X821Y1929D01*
D02*
G37*
G36*
X415Y1928D02*
X403Y1927D01*
X392Y1922D01*
X383Y1915D01*
X376Y1906D01*
X371Y1895D01*
X370Y1883D01*
X371Y1871D01*
X376Y1860D01*
X383Y1851D01*
X392Y1844D01*
X403Y1839D01*
X415Y1838D01*
X427Y1839D01*
X438Y1844D01*
X447Y1851D01*
X454Y1860D01*
X459Y1871D01*
X460Y1883D01*
X459Y1895D01*
X454Y1906D01*
X447Y1915D01*
X438Y1922D01*
X427Y1927D01*
X415Y1928D01*
D02*
G37*
G36*
X2186Y1813D02*
X2174Y1811D01*
X2163Y1807D01*
X2154Y1800D01*
X2147Y1790D01*
X2147Y1789D01*
X1969D01*
X1969Y1790D01*
X1962Y1800D01*
X1952Y1807D01*
X1942Y1811D01*
X1930Y1813D01*
X1918Y1811D01*
X1908Y1807D01*
X1898Y1800D01*
X1891Y1790D01*
X1887Y1779D01*
X1885Y1768D01*
X1887Y1756D01*
X1891Y1745D01*
X1898Y1736D01*
X1908Y1729D01*
X1918Y1724D01*
X1930Y1723D01*
X1942Y1724D01*
X1952Y1729D01*
X1962Y1736D01*
X1969Y1745D01*
X1969Y1746D01*
X2147D01*
X2147Y1745D01*
X2154Y1736D01*
X2163Y1729D01*
X2174Y1724D01*
X2186Y1723D01*
X2198Y1724D01*
X2208Y1729D01*
X2218Y1736D01*
X2222Y1742D01*
X2229Y1743D01*
X2231Y1741D01*
X2238Y1738D01*
X2245Y1737D01*
X2252Y1738D01*
X2259Y1741D01*
X2265Y1745D01*
X2269Y1751D01*
X2272Y1758D01*
X2273Y1765D01*
X2272Y1772D01*
X2269Y1779D01*
X2265Y1785D01*
X2259Y1789D01*
X2252Y1792D01*
X2245Y1793D01*
X2238Y1792D01*
X2231Y1789D01*
X2230Y1788D01*
X2226Y1789D01*
X2225Y1790D01*
X2218Y1800D01*
X2208Y1807D01*
X2198Y1811D01*
X2186Y1813D01*
D02*
G37*
G36*
X1749Y1811D02*
X1737Y1810D01*
X1726Y1805D01*
X1717Y1798D01*
X1710Y1789D01*
X1705Y1778D01*
X1704Y1766D01*
X1705Y1754D01*
X1710Y1743D01*
X1717Y1734D01*
X1726Y1727D01*
X1737Y1722D01*
X1749Y1721D01*
X1761Y1722D01*
X1772Y1727D01*
X1781Y1734D01*
X1788Y1743D01*
X1793Y1754D01*
X1794Y1766D01*
X1793Y1778D01*
X1788Y1789D01*
X1781Y1798D01*
X1772Y1805D01*
X1761Y1810D01*
X1749Y1811D01*
D02*
G37*
G36*
X1631D02*
X1619Y1810D01*
X1608Y1805D01*
X1599Y1798D01*
X1592Y1789D01*
X1587Y1778D01*
X1586Y1766D01*
X1587Y1754D01*
X1592Y1743D01*
X1599Y1734D01*
X1608Y1727D01*
X1619Y1722D01*
X1631Y1721D01*
X1643Y1722D01*
X1654Y1727D01*
X1663Y1734D01*
X1670Y1743D01*
X1675Y1754D01*
X1676Y1766D01*
X1675Y1778D01*
X1670Y1789D01*
X1663Y1798D01*
X1654Y1805D01*
X1643Y1810D01*
X1631Y1811D01*
D02*
G37*
G36*
X1344D02*
X1332Y1810D01*
X1321Y1805D01*
X1312Y1798D01*
X1305Y1789D01*
X1300Y1778D01*
X1299Y1766D01*
X1300Y1754D01*
X1305Y1743D01*
X1312Y1734D01*
X1321Y1727D01*
X1332Y1722D01*
X1344Y1721D01*
X1356Y1722D01*
X1367Y1727D01*
X1376Y1734D01*
X1383Y1743D01*
X1388Y1754D01*
X1389Y1766D01*
X1388Y1778D01*
X1383Y1789D01*
X1376Y1798D01*
X1367Y1805D01*
X1356Y1810D01*
X1344Y1811D01*
D02*
G37*
G36*
X939D02*
X927Y1810D01*
X916Y1805D01*
X907Y1798D01*
X900Y1789D01*
X895Y1778D01*
X894Y1766D01*
X895Y1754D01*
X900Y1743D01*
X907Y1734D01*
X916Y1727D01*
X927Y1722D01*
X939Y1721D01*
X951Y1722D01*
X962Y1727D01*
X971Y1734D01*
X978Y1743D01*
X983Y1754D01*
X984Y1766D01*
X983Y1778D01*
X978Y1789D01*
X971Y1798D01*
X962Y1805D01*
X951Y1810D01*
X939Y1811D01*
D02*
G37*
G36*
X821D02*
X809Y1810D01*
X798Y1805D01*
X789Y1798D01*
X782Y1789D01*
X777Y1778D01*
X776Y1766D01*
X777Y1754D01*
X782Y1743D01*
X789Y1734D01*
X798Y1727D01*
X809Y1722D01*
X821Y1721D01*
X833Y1722D01*
X844Y1727D01*
X853Y1734D01*
X860Y1743D01*
X865Y1754D01*
X866Y1766D01*
X865Y1778D01*
X860Y1789D01*
X853Y1798D01*
X844Y1805D01*
X833Y1810D01*
X821Y1811D01*
D02*
G37*
G36*
X533Y1810D02*
X521Y1809D01*
X510Y1804D01*
X501Y1797D01*
X494Y1788D01*
X489Y1777D01*
X488Y1765D01*
X489Y1753D01*
X494Y1742D01*
X501Y1733D01*
X510Y1726D01*
X521Y1721D01*
X533Y1720D01*
X545Y1721D01*
X556Y1726D01*
X565Y1733D01*
X572Y1742D01*
X577Y1753D01*
X578Y1765D01*
X577Y1777D01*
X572Y1788D01*
X565Y1797D01*
X556Y1804D01*
X545Y1809D01*
X533Y1810D01*
D02*
G37*
G36*
X415D02*
X403Y1809D01*
X392Y1804D01*
X383Y1797D01*
X376Y1788D01*
X371Y1777D01*
X370Y1765D01*
X371Y1753D01*
X376Y1742D01*
X383Y1733D01*
X392Y1726D01*
X403Y1721D01*
X415Y1720D01*
X427Y1721D01*
X438Y1726D01*
X447Y1733D01*
X454Y1742D01*
X459Y1753D01*
X460Y1765D01*
X459Y1777D01*
X454Y1788D01*
X447Y1797D01*
X438Y1804D01*
X427Y1809D01*
X415Y1810D01*
D02*
G37*
G36*
X1226Y1811D02*
X1214Y1810D01*
X1203Y1805D01*
X1194Y1798D01*
X1187Y1789D01*
X1182Y1778D01*
X1181Y1766D01*
X1182Y1754D01*
X1187Y1743D01*
X1194Y1734D01*
X1202Y1728D01*
Y1432D01*
X1203Y1424D01*
X1208Y1417D01*
X1264Y1361D01*
X1262Y1356D01*
X249D01*
X185Y1421D01*
X185Y1425D01*
X184Y1434D01*
X181Y1443D01*
X175Y1450D01*
X168Y1456D01*
X159Y1459D01*
X150Y1460D01*
X141Y1459D01*
X132Y1456D01*
X125Y1450D01*
X125D01*
X118Y1456D01*
X109Y1459D01*
X100Y1460D01*
X91Y1459D01*
X82Y1456D01*
X75Y1450D01*
X69Y1443D01*
X66Y1434D01*
X65Y1425D01*
X66Y1416D01*
X69Y1407D01*
X72Y1404D01*
X75Y1400D01*
X72Y1396D01*
X69Y1393D01*
X66Y1384D01*
X65Y1375D01*
X66Y1366D01*
X69Y1357D01*
X72Y1354D01*
X75Y1350D01*
X72Y1346D01*
X69Y1343D01*
X66Y1334D01*
X65Y1325D01*
X66Y1316D01*
X69Y1307D01*
X75Y1300D01*
X79Y1297D01*
Y1296D01*
X74Y1290D01*
X71Y1283D01*
X70Y1275D01*
X51Y1256D01*
X46Y1249D01*
X45Y1241D01*
Y1144D01*
X46Y1136D01*
X51Y1129D01*
X75Y1105D01*
Y1105D01*
X106D01*
Y1095D01*
X116D01*
Y1058D01*
X125D01*
Y976D01*
X39D01*
Y884D01*
X119D01*
Y868D01*
X114Y865D01*
X108Y870D01*
X97Y874D01*
X85Y876D01*
X73Y874D01*
X62Y870D01*
X53Y862D01*
X45Y853D01*
X41Y842D01*
X39Y830D01*
X41Y818D01*
X45Y807D01*
X53Y798D01*
X62Y790D01*
X73Y786D01*
X85Y784D01*
X97Y786D01*
X108Y790D01*
X114Y795D01*
X119Y792D01*
Y775D01*
X121Y766D01*
X121Y766D01*
X117Y762D01*
X108Y770D01*
X97Y774D01*
X85Y776D01*
X73Y774D01*
X62Y770D01*
X53Y762D01*
X45Y753D01*
X41Y742D01*
X39Y730D01*
X41Y718D01*
X45Y707D01*
X53Y698D01*
X62Y690D01*
X73Y686D01*
X85Y684D01*
X97Y686D01*
X108Y690D01*
X117Y698D01*
X125Y707D01*
X129Y718D01*
X131Y730D01*
X129Y742D01*
X125Y753D01*
X129Y756D01*
X141Y743D01*
X141Y742D01*
X139Y730D01*
X141Y718D01*
X145Y707D01*
X153Y698D01*
X162Y690D01*
X173Y686D01*
X185Y684D01*
X197Y686D01*
X208Y690D01*
X217Y698D01*
X225Y707D01*
X229Y718D01*
X231Y730D01*
X229Y742D01*
X225Y753D01*
X217Y762D01*
X208Y770D01*
X197Y774D01*
X185Y776D01*
X173Y774D01*
X172Y774D01*
X165Y781D01*
X165Y784D01*
X170Y787D01*
X173Y786D01*
X185Y784D01*
X197Y786D01*
X208Y790D01*
X217Y798D01*
X225Y807D01*
X229Y818D01*
X231Y830D01*
X229Y842D01*
X225Y853D01*
X217Y862D01*
X208Y870D01*
X197Y874D01*
X185Y876D01*
X173Y874D01*
X167Y872D01*
X162Y875D01*
Y891D01*
X167Y894D01*
X174Y891D01*
X175Y890D01*
Y930D01*
Y970D01*
X174Y969D01*
X172Y969D01*
X168Y971D01*
Y1053D01*
X200D01*
Y1137D01*
X168D01*
Y1146D01*
X167Y1154D01*
X162Y1161D01*
X137Y1185D01*
X139Y1190D01*
X185D01*
Y1197D01*
X211D01*
X219Y1199D01*
X226Y1203D01*
X268Y1245D01*
X883D01*
X885Y1240D01*
X790Y1145D01*
X785Y1138D01*
X784Y1130D01*
Y249D01*
X778D01*
X771Y248D01*
X764Y245D01*
X758Y240D01*
X753Y234D01*
X750Y227D01*
X749Y220D01*
X749Y217D01*
X746Y214D01*
X700D01*
X543Y370D01*
X536Y375D01*
X528Y376D01*
X505D01*
Y399D01*
X385D01*
Y321D01*
X394D01*
Y274D01*
X393Y273D01*
X384Y266D01*
X377Y257D01*
X372Y246D01*
X371Y234D01*
X372Y222D01*
X377Y211D01*
X384Y202D01*
X393Y195D01*
X404Y190D01*
X416Y189D01*
X428Y190D01*
X439Y195D01*
X448Y202D01*
X455Y211D01*
X460Y222D01*
X461Y234D01*
X460Y246D01*
X455Y257D01*
X448Y266D01*
X439Y273D01*
X437Y274D01*
Y321D01*
X505D01*
Y334D01*
X519D01*
X668Y184D01*
Y158D01*
X640D01*
X577Y221D01*
X578Y222D01*
X579Y234D01*
X578Y246D01*
X573Y257D01*
X566Y266D01*
X557Y273D01*
X546Y278D01*
X534Y279D01*
X522Y278D01*
X511Y273D01*
X502Y266D01*
X495Y257D01*
X490Y246D01*
X489Y234D01*
X490Y222D01*
X495Y211D01*
X502Y202D01*
X511Y195D01*
X522Y190D01*
X534Y189D01*
X546Y190D01*
X547Y191D01*
X616Y121D01*
X623Y117D01*
X631Y115D01*
X635D01*
X636Y110D01*
X634Y109D01*
X627Y104D01*
X622Y97D01*
X618Y88D01*
X617Y79D01*
X618Y70D01*
X622Y61D01*
X627Y54D01*
X634Y48D01*
X643Y45D01*
X652Y44D01*
X661Y45D01*
X670Y48D01*
X677Y54D01*
X683Y61D01*
X686Y70D01*
X687Y79D01*
X687Y80D01*
X691Y83D01*
X747D01*
X750Y78D01*
X750Y77D01*
X749Y70D01*
X750Y62D01*
X753Y55D01*
X758Y49D01*
X764Y45D01*
X771Y42D01*
X778Y41D01*
X849D01*
X856Y42D01*
X863Y45D01*
X869Y49D01*
X874Y55D01*
X877Y62D01*
X878Y70D01*
X877Y77D01*
X874Y84D01*
X869Y90D01*
X867Y92D01*
Y97D01*
X869Y99D01*
X874Y105D01*
X877Y112D01*
X878Y120D01*
X877Y127D01*
X874Y134D01*
X869Y140D01*
X867Y142D01*
Y147D01*
X869Y149D01*
X874Y155D01*
X877Y162D01*
X878Y170D01*
X877Y177D01*
X874Y184D01*
X869Y190D01*
X867Y192D01*
Y197D01*
X869Y199D01*
X874Y205D01*
X877Y212D01*
X878Y220D01*
X877Y227D01*
X874Y234D01*
X869Y240D01*
X863Y245D01*
X856Y248D01*
X849Y249D01*
X826D01*
Y1121D01*
X859Y1153D01*
X864Y1151D01*
X866Y1146D01*
X870Y1140D01*
X876Y1136D01*
X879Y1135D01*
X880Y1129D01*
X875Y1123D01*
X933Y1065D01*
X956Y1087D01*
X997Y1046D01*
X1004Y1041D01*
X1012Y1040D01*
X1089D01*
X1118Y1011D01*
X1124Y1007D01*
X1130Y1004D01*
X1137Y1003D01*
X1143Y1004D01*
X1150Y1007D01*
X1155Y1011D01*
X1159Y1016D01*
X1162Y1022D01*
X1162Y1026D01*
X1166Y1026D01*
X1172Y1029D01*
X1177Y1033D01*
X1182Y1038D01*
X1184Y1045D01*
X1185Y1048D01*
X1188Y1049D01*
X1194Y1051D01*
X1200Y1055D01*
X1204Y1061D01*
X1206Y1067D01*
X1207Y1070D01*
X1210Y1071D01*
X1217Y1073D01*
X1222Y1078D01*
X1226Y1083D01*
X1229Y1089D01*
X1229Y1093D01*
X1233Y1093D01*
X1239Y1096D01*
X1244Y1100D01*
X1248Y1105D01*
X1251Y1112D01*
X1251Y1115D01*
X1255Y1115D01*
X1261Y1118D01*
X1266Y1122D01*
X1271Y1128D01*
X1273Y1134D01*
X1274Y1137D01*
X1277Y1138D01*
X1283Y1140D01*
X1289Y1144D01*
X1293Y1150D01*
X1295Y1156D01*
X1296Y1160D01*
X1299Y1160D01*
X1306Y1163D01*
X1311Y1167D01*
X1315Y1172D01*
X1318Y1178D01*
X1318Y1182D01*
X1322Y1182D01*
X1328Y1185D01*
X1333Y1189D01*
X1337Y1194D01*
X1340Y1201D01*
X1340Y1204D01*
X1344Y1205D01*
X1350Y1207D01*
X1356Y1211D01*
X1360Y1217D01*
X1362Y1223D01*
X1363Y1226D01*
X1366Y1227D01*
X1372Y1229D01*
X1378Y1234D01*
X1382Y1239D01*
X1385Y1245D01*
X1385Y1249D01*
X1388Y1249D01*
X1395Y1252D01*
X1400Y1256D01*
X1404Y1261D01*
X1407Y1267D01*
X1408Y1274D01*
X1408Y1276D01*
X1410Y1276D01*
X1407Y1279D01*
X1407Y1281D01*
X1404Y1287D01*
X1400Y1293D01*
X1383Y1309D01*
X1391Y1317D01*
X1408Y1300D01*
X1413Y1296D01*
X1419Y1294D01*
X1421Y1293D01*
X1424Y1291D01*
X1424Y1293D01*
X1426Y1293D01*
X1433Y1294D01*
X1439Y1296D01*
X1445Y1300D01*
X1449Y1306D01*
X1451Y1312D01*
X1452Y1315D01*
X1455Y1316D01*
X1462Y1318D01*
X1467Y1323D01*
X1471Y1328D01*
X1474Y1334D01*
X1474Y1338D01*
X1478Y1338D01*
X1484Y1341D01*
X1489Y1345D01*
X1493Y1350D01*
X1496Y1357D01*
X1497Y1363D01*
X1496Y1370D01*
X1493Y1376D01*
X1489Y1382D01*
X1468Y1403D01*
X1568Y1504D01*
X1633D01*
X1635Y1499D01*
X1558Y1422D01*
X1556Y1422D01*
X1550Y1419D01*
X1544Y1415D01*
X1511Y1382D01*
X1507Y1376D01*
X1504Y1370D01*
X1503Y1363D01*
X1504Y1357D01*
X1507Y1350D01*
X1511Y1345D01*
X1516Y1341D01*
X1522Y1338D01*
X1526Y1338D01*
X1526Y1334D01*
X1529Y1328D01*
X1533Y1323D01*
X1538Y1318D01*
X1545Y1316D01*
X1548Y1315D01*
X1549Y1312D01*
X1551Y1306D01*
X1555Y1300D01*
X1561Y1296D01*
X1567Y1294D01*
X1570Y1293D01*
X1571Y1290D01*
X1573Y1283D01*
X1578Y1278D01*
X1583Y1274D01*
X1589Y1271D01*
X1593Y1271D01*
X1593Y1267D01*
X1596Y1261D01*
X1600Y1256D01*
X1605Y1252D01*
X1612Y1249D01*
X1615Y1249D01*
X1615Y1245D01*
X1618Y1239D01*
X1622Y1234D01*
X1628Y1229D01*
X1634Y1227D01*
X1637Y1226D01*
X1638Y1223D01*
X1640Y1217D01*
X1644Y1211D01*
X1650Y1207D01*
X1656Y1205D01*
X1660Y1204D01*
X1660Y1201D01*
X1663Y1194D01*
X1667Y1189D01*
X1672Y1185D01*
X1678Y1182D01*
X1682Y1182D01*
X1682Y1178D01*
X1685Y1172D01*
X1689Y1167D01*
X1694Y1163D01*
X1701Y1160D01*
X1704Y1160D01*
X1705Y1156D01*
X1707Y1150D01*
X1711Y1144D01*
X1717Y1140D01*
X1723Y1138D01*
X1726Y1137D01*
X1727Y1134D01*
X1729Y1128D01*
X1734Y1122D01*
X1739Y1118D01*
X1745Y1115D01*
X1749Y1115D01*
X1749Y1112D01*
X1752Y1105D01*
X1756Y1100D01*
X1761Y1096D01*
X1767Y1093D01*
X1771Y1093D01*
X1771Y1089D01*
X1774Y1083D01*
X1778Y1078D01*
X1783Y1073D01*
X1790Y1071D01*
X1793Y1070D01*
X1794Y1067D01*
X1796Y1061D01*
X1800Y1055D01*
X1806Y1051D01*
X1812Y1049D01*
X1815Y1048D01*
X1816Y1045D01*
X1818Y1038D01*
X1823Y1033D01*
X1828Y1029D01*
X1834Y1026D01*
X1838Y1026D01*
X1838Y1022D01*
X1841Y1016D01*
X1845Y1011D01*
X1850Y1007D01*
X1857Y1004D01*
X1863Y1003D01*
X1870Y1004D01*
X1876Y1007D01*
X1882Y1011D01*
X1915Y1044D01*
X1919Y1050D01*
X1922Y1056D01*
X1923Y1063D01*
X1922Y1069D01*
X1919Y1076D01*
X1915Y1081D01*
X1910Y1085D01*
X1903Y1088D01*
X1900Y1088D01*
X1900Y1092D01*
X1897Y1098D01*
X1893Y1103D01*
X1887Y1107D01*
X1881Y1110D01*
X1878Y1111D01*
X1877Y1114D01*
X1875Y1120D01*
X1872Y1123D01*
X1872Y1124D01*
X1874Y1129D01*
X1879Y1131D01*
X1885Y1135D01*
X1889Y1141D01*
X1892Y1148D01*
X1893Y1155D01*
X1892Y1162D01*
X1889Y1169D01*
X1885Y1175D01*
X1879Y1179D01*
X1872Y1182D01*
X1865Y1183D01*
X1862Y1182D01*
X1857Y1187D01*
X1858Y1190D01*
X1857Y1197D01*
X1854Y1204D01*
X1850Y1210D01*
X1844Y1214D01*
X1837Y1217D01*
X1830Y1218D01*
X1823Y1217D01*
X1816Y1214D01*
X1810Y1210D01*
X1806Y1204D01*
X1804Y1199D01*
X1799Y1196D01*
X1798Y1197D01*
X1792Y1199D01*
X1789Y1200D01*
X1788Y1203D01*
X1786Y1209D01*
X1781Y1215D01*
X1776Y1219D01*
X1770Y1221D01*
X1766Y1222D01*
X1766Y1225D01*
X1763Y1232D01*
X1759Y1237D01*
X1754Y1241D01*
X1748Y1244D01*
X1744Y1244D01*
X1744Y1248D01*
X1741Y1254D01*
X1737Y1259D01*
X1732Y1263D01*
X1725Y1266D01*
X1722Y1266D01*
X1721Y1270D01*
X1719Y1276D01*
X1715Y1281D01*
X1712Y1284D01*
X1713Y1289D01*
X2521D01*
X2528Y1282D01*
X2528Y1278D01*
X2531Y1271D01*
X2535Y1265D01*
X2541Y1261D01*
X2548Y1258D01*
X2555Y1257D01*
X2562Y1258D01*
X2569Y1261D01*
X2572Y1264D01*
X2580D01*
Y1255D01*
X2660D01*
Y1305D01*
Y1355D01*
Y1405D01*
Y1465D01*
X2580D01*
Y1460D01*
X2574D01*
X2570Y1463D01*
X2564Y1465D01*
X2556Y1466D01*
X2549Y1465D01*
X2543Y1463D01*
X2539Y1460D01*
X1663D01*
X1661Y1465D01*
X1680Y1484D01*
X2794D01*
X2803Y1485D01*
X2810Y1490D01*
X2882Y1562D01*
X2929D01*
Y1635D01*
X2851D01*
Y1592D01*
X2786Y1526D01*
X2713D01*
X2711Y1531D01*
X2742Y1562D01*
X2789D01*
Y1635D01*
X2711D01*
Y1592D01*
X2666Y1546D01*
X2594D01*
X2592Y1551D01*
X2602Y1561D01*
X2649D01*
Y1634D01*
X2571D01*
Y1591D01*
X2547Y1566D01*
X2509D01*
Y1634D01*
X2431D01*
Y1591D01*
X2427Y1586D01*
X1542D01*
X1534Y1585D01*
X1527Y1580D01*
X1375Y1428D01*
X1370Y1421D01*
X1369Y1413D01*
Y1400D01*
X1364Y1398D01*
X1341Y1421D01*
X1327Y1407D01*
X1350Y1384D01*
X1336Y1370D01*
X1313Y1393D01*
X1302Y1383D01*
X1287Y1399D01*
X1328Y1441D01*
X1294Y1475D01*
X1292Y1477D01*
X1284Y1486D01*
Y1486D01*
X1284Y1486D01*
X1287Y1493D01*
X1288Y1500D01*
X1287Y1507D01*
X1284Y1514D01*
X1280Y1520D01*
X1274Y1524D01*
X1267Y1527D01*
X1260Y1528D01*
X1253Y1527D01*
X1250Y1525D01*
X1245Y1529D01*
Y1725D01*
X1249Y1727D01*
X1258Y1734D01*
X1265Y1743D01*
X1270Y1754D01*
X1271Y1766D01*
X1270Y1778D01*
X1265Y1789D01*
X1258Y1798D01*
X1249Y1805D01*
X1238Y1810D01*
X1226Y1811D01*
D02*
G37*
G36*
X2960Y1465D02*
X2880D01*
Y1405D01*
Y1355D01*
Y1305D01*
Y1255D01*
X2899D01*
Y1222D01*
X2896Y1219D01*
X2893Y1212D01*
X2892Y1205D01*
X2893Y1198D01*
X2896Y1191D01*
X2900Y1185D01*
X2906Y1181D01*
X2913Y1178D01*
X2920Y1177D01*
X2927Y1178D01*
X2934Y1181D01*
X2940Y1185D01*
X2944Y1191D01*
X2947Y1198D01*
X2948Y1205D01*
X2947Y1212D01*
X2944Y1219D01*
X2941Y1222D01*
Y1255D01*
X2960D01*
Y1305D01*
Y1355D01*
Y1405D01*
Y1465D01*
D02*
G37*
G36*
X96Y1085D02*
X75D01*
Y1058D01*
X96D01*
Y1085D01*
D02*
G37*
G36*
X2732Y1006D02*
Y977D01*
X2761D01*
X2761Y977D01*
X2757Y987D01*
X2750Y995D01*
X2742Y1002D01*
X2732Y1006D01*
X2732Y1006D01*
D02*
G37*
G36*
X2712D02*
X2711Y1006D01*
X2702Y1002D01*
X2693Y995D01*
X2687Y987D01*
X2683Y977D01*
X2683Y977D01*
X2712D01*
Y1006D01*
D02*
G37*
G36*
X195Y970D02*
Y940D01*
X225D01*
X224Y941D01*
X220Y950D01*
X214Y959D01*
X205Y965D01*
X196Y969D01*
X195Y970D01*
D02*
G37*
G36*
X2761Y957D02*
X2732D01*
Y928D01*
X2732Y928D01*
X2742Y932D01*
X2750Y938D01*
X2757Y947D01*
X2761Y956D01*
X2761Y957D01*
D02*
G37*
G36*
X2712D02*
X2683D01*
X2683Y956D01*
X2687Y947D01*
X2693Y938D01*
X2702Y932D01*
X2711Y928D01*
X2712Y928D01*
Y957D01*
D02*
G37*
G36*
X225Y920D02*
X195D01*
Y890D01*
X196Y891D01*
X205Y895D01*
X214Y901D01*
X220Y910D01*
X224Y919D01*
X225Y920D01*
D02*
G37*
G36*
X2761Y652D02*
X2732D01*
Y623D01*
X2732Y623D01*
X2742Y627D01*
X2750Y633D01*
X2757Y642D01*
X2761Y651D01*
X2761Y652D01*
D02*
G37*
G36*
X1137Y997D02*
X1130Y996D01*
X1124Y993D01*
X1118Y989D01*
X1085Y956D01*
X1081Y950D01*
X1078Y944D01*
X1077Y937D01*
X1078Y931D01*
X1080Y927D01*
X1078Y922D01*
X1077Y921D01*
X1071Y919D01*
X1065Y915D01*
X1061Y909D01*
X1058Y902D01*
X1057Y895D01*
X1058Y888D01*
X1061Y881D01*
X1065Y875D01*
X1071Y871D01*
X1078Y868D01*
X1085Y867D01*
X1092Y868D01*
X1099Y871D01*
X1101Y873D01*
X1107Y872D01*
X1109Y869D01*
Y867D01*
X1106Y864D01*
X1103Y857D01*
X1102Y850D01*
X1103Y843D01*
X1106Y836D01*
X1110Y830D01*
X1116Y826D01*
X1123Y823D01*
X1130Y822D01*
X1137Y823D01*
X1144Y826D01*
X1150Y830D01*
X1154Y836D01*
X1157Y843D01*
X1157Y844D01*
X1161Y846D01*
X1163Y845D01*
X1167Y845D01*
X1167Y842D01*
X1170Y835D01*
X1174Y830D01*
X1179Y826D01*
X1186Y823D01*
X1189Y823D01*
X1189Y819D01*
X1192Y813D01*
X1196Y808D01*
X1202Y803D01*
X1208Y801D01*
X1211Y800D01*
X1212Y797D01*
X1214Y791D01*
X1219Y785D01*
X1224Y781D01*
X1230Y779D01*
X1234Y778D01*
X1234Y775D01*
X1237Y768D01*
X1241Y763D01*
X1246Y759D01*
X1252Y756D01*
X1256Y756D01*
X1256Y752D01*
X1259Y746D01*
X1263Y741D01*
X1268Y737D01*
X1275Y734D01*
X1278Y734D01*
X1279Y730D01*
X1281Y724D01*
X1285Y719D01*
X1288Y717D01*
X1288Y715D01*
X1287Y711D01*
X1281Y709D01*
X1275Y705D01*
X1271Y699D01*
X1268Y692D01*
X1268Y688D01*
X1151Y571D01*
X1146Y564D01*
X1145Y556D01*
Y303D01*
X1069Y227D01*
X1065Y229D01*
X1064Y230D01*
X1059Y237D01*
X1051Y242D01*
X1042Y244D01*
X1036D01*
Y285D01*
X994D01*
Y244D01*
X971D01*
X962Y242D01*
X954Y237D01*
X949Y230D01*
X1006D01*
Y210D01*
X949D01*
X954Y203D01*
X957Y201D01*
X956Y195D01*
X950Y190D01*
X946Y184D01*
X943Y177D01*
X942Y170D01*
X943Y162D01*
X946Y155D01*
X950Y149D01*
X953Y147D01*
Y142D01*
X950Y140D01*
X946Y134D01*
X943Y127D01*
X942Y120D01*
X943Y112D01*
X946Y105D01*
X950Y99D01*
X953Y97D01*
Y92D01*
X950Y90D01*
X946Y84D01*
X943Y77D01*
X942Y70D01*
X943Y62D01*
X946Y55D01*
X950Y49D01*
X956Y45D01*
X963Y42D01*
X971Y41D01*
X1042D01*
X1049Y42D01*
X1056Y45D01*
X1062Y49D01*
X1067Y55D01*
X1070Y62D01*
X1071Y69D01*
X1239Y237D01*
X1244Y244D01*
X1246Y252D01*
Y470D01*
X1388Y612D01*
X1394Y611D01*
X1397Y607D01*
X1402Y603D01*
X1408Y600D01*
X1412Y600D01*
X1412Y597D01*
X1415Y590D01*
X1419Y585D01*
X1424Y581D01*
X1431Y578D01*
X1437Y577D01*
X1444Y578D01*
X1450Y581D01*
X1456Y585D01*
X1489Y618D01*
X1493Y624D01*
X1496Y630D01*
X1497Y637D01*
X1496Y643D01*
X1493Y650D01*
X1489Y655D01*
X1484Y659D01*
X1478Y662D01*
X1474Y662D01*
X1474Y666D01*
X1471Y672D01*
X1467Y677D01*
X1462Y682D01*
X1455Y684D01*
X1452Y685D01*
X1451Y688D01*
X1449Y694D01*
X1445Y700D01*
X1439Y704D01*
X1433Y706D01*
X1430Y707D01*
X1429Y710D01*
X1427Y717D01*
X1422Y722D01*
X1417Y726D01*
X1411Y729D01*
X1407Y729D01*
X1407Y733D01*
X1404Y739D01*
X1400Y744D01*
X1395Y748D01*
X1388Y751D01*
X1385Y751D01*
X1385Y755D01*
X1382Y761D01*
X1378Y766D01*
X1372Y771D01*
X1366Y773D01*
X1363Y774D01*
X1362Y777D01*
X1360Y783D01*
X1356Y789D01*
X1350Y793D01*
X1344Y795D01*
X1340Y796D01*
X1340Y799D01*
X1337Y806D01*
X1333Y811D01*
X1328Y815D01*
X1322Y818D01*
X1318Y818D01*
X1318Y822D01*
X1315Y828D01*
X1311Y833D01*
X1306Y837D01*
X1299Y840D01*
X1296Y840D01*
X1295Y844D01*
X1293Y850D01*
X1289Y856D01*
X1283Y860D01*
X1277Y862D01*
X1274Y863D01*
X1273Y866D01*
X1271Y872D01*
X1266Y878D01*
X1261Y882D01*
X1255Y885D01*
X1251Y885D01*
X1251Y888D01*
X1248Y895D01*
X1244Y900D01*
X1239Y904D01*
X1233Y907D01*
X1229Y907D01*
X1229Y911D01*
X1226Y917D01*
X1222Y922D01*
X1217Y927D01*
X1210Y929D01*
X1207Y930D01*
X1206Y933D01*
X1204Y939D01*
X1200Y945D01*
X1194Y949D01*
X1188Y951D01*
X1185Y952D01*
X1184Y955D01*
X1182Y962D01*
X1177Y967D01*
X1172Y971D01*
X1166Y974D01*
X1162Y974D01*
X1162Y978D01*
X1159Y984D01*
X1155Y989D01*
X1150Y993D01*
X1143Y996D01*
X1137Y997D01*
D02*
G37*
G36*
X1025Y315D02*
Y305D01*
X1035D01*
X1031Y311D01*
X1025Y315D01*
D02*
G37*
G36*
X1005D02*
X999Y311D01*
X995Y305D01*
X1005D01*
Y315D01*
D02*
G37*
G36*
X2722Y368D02*
X2713Y367D01*
X2704Y364D01*
X2697Y358D01*
X2691Y351D01*
X2688Y342D01*
X2687Y333D01*
X2688Y324D01*
X2691Y315D01*
X2697Y308D01*
X2704Y302D01*
X2713Y299D01*
X2722Y298D01*
X2731Y299D01*
X2740Y302D01*
X2747Y308D01*
X2752Y315D01*
X2756Y324D01*
X2757Y333D01*
X2756Y342D01*
X2752Y351D01*
X2747Y358D01*
X2740Y364D01*
X2731Y367D01*
X2722Y368D01*
D02*
G37*
G36*
X2678Y295D02*
X2669Y294D01*
X2660Y291D01*
X2653Y285D01*
X2648Y278D01*
X2644Y269D01*
X2643Y260D01*
X2644Y251D01*
X2648Y242D01*
X2653Y235D01*
X2660Y230D01*
X2669Y226D01*
X2678Y225D01*
X2687Y226D01*
X2696Y230D01*
X2703Y235D01*
X2709Y242D01*
X2712Y251D01*
X2713Y260D01*
X2712Y269D01*
X2709Y278D01*
X2703Y285D01*
X2696Y291D01*
X2687Y294D01*
X2678Y295D01*
D02*
G37*
G36*
X2311Y171D02*
X2269D01*
Y156D01*
X2191D01*
Y171D01*
X2149D01*
Y135D01*
Y99D01*
X2191D01*
Y114D01*
X2269D01*
Y99D01*
X2311D01*
Y135D01*
Y171D01*
D02*
G37*
G36*
X2417Y200D02*
X2380D01*
X2337D01*
X2336Y198D01*
X2334Y190D01*
Y171D01*
X2331D01*
Y145D01*
X2375D01*
X2376Y146D01*
X2377Y155D01*
Y178D01*
X2417D01*
Y200D01*
D02*
G37*
G36*
X2129Y171D02*
X2088D01*
Y145D01*
X2129D01*
Y171D01*
D02*
G37*
G36*
X426Y155D02*
Y126D01*
X455D01*
X455Y126D01*
X451Y136D01*
X444Y144D01*
X436Y151D01*
X426Y155D01*
X426Y155D01*
D02*
G37*
G36*
X406D02*
X405Y155D01*
X396Y151D01*
X387Y144D01*
X381Y136D01*
X377Y126D01*
X377Y126D01*
X406D01*
Y155D01*
D02*
G37*
G36*
X2129Y125D02*
X2088D01*
Y99D01*
X2129D01*
Y125D01*
D02*
G37*
G36*
X455Y106D02*
X426D01*
Y77D01*
X426Y77D01*
X436Y81D01*
X444Y87D01*
X451Y96D01*
X455Y105D01*
X455Y106D01*
D02*
G37*
G36*
X406D02*
X377D01*
X377Y105D01*
X381Y96D01*
X387Y87D01*
X396Y81D01*
X405Y77D01*
X406Y77D01*
Y106D01*
D02*
G37*
G36*
X534Y161D02*
X522Y160D01*
X511Y155D01*
X502Y148D01*
X495Y139D01*
X490Y128D01*
X489Y116D01*
X490Y104D01*
X495Y93D01*
X502Y84D01*
X511Y77D01*
X522Y72D01*
X534Y71D01*
X546Y72D01*
X557Y77D01*
X566Y84D01*
X573Y93D01*
X578Y104D01*
X579Y116D01*
X578Y128D01*
X573Y139D01*
X566Y148D01*
X557Y155D01*
X546Y160D01*
X534Y161D01*
D02*
G37*
G36*
X2405Y75D02*
X2395D01*
Y65D01*
X2401Y69D01*
X2405Y75D01*
D02*
G37*
G36*
X2377Y125D02*
X2331D01*
Y99D01*
X2342D01*
X2346Y95D01*
X2348Y91D01*
X2364Y75D01*
X2369Y69D01*
X2375Y65D01*
Y85D01*
X2385D01*
Y95D01*
X2405D01*
X2401Y101D01*
X2395Y106D01*
X2381Y119D01*
X2379Y123D01*
X2377Y125D01*
D02*
G37*
%LPD*%
G36*
X2543Y1415D02*
X2549Y1412D01*
X2549Y1412D01*
X2548Y1407D01*
X2541Y1404D01*
X2538Y1401D01*
X1649D01*
X1647Y1406D01*
X1658Y1417D01*
X2539D01*
X2543Y1415D01*
D02*
G37*
G36*
X1157Y1240D02*
X1156Y1239D01*
X1153Y1232D01*
X1152Y1226D01*
X1151Y1225D01*
X1148Y1222D01*
X1143Y1223D01*
X1136Y1222D01*
X1129Y1219D01*
X1123Y1215D01*
X1119Y1209D01*
X1116Y1202D01*
X1115Y1195D01*
X1116Y1188D01*
X1119Y1181D01*
X1120Y1179D01*
X1121Y1174D01*
X1115Y1170D01*
X1112Y1165D01*
X1108Y1167D01*
X1100Y1169D01*
X1093D01*
X1057Y1205D01*
X1046Y1195D01*
X1000Y1240D01*
X1002Y1245D01*
X1154D01*
X1157Y1240D01*
D02*
G37*
G36*
X1330Y674D02*
X1334Y671D01*
X1335Y665D01*
X1193Y522D01*
X1188Y525D01*
Y547D01*
X1298Y658D01*
X1302Y658D01*
X1309Y661D01*
X1315Y665D01*
X1319Y671D01*
X1321Y677D01*
X1322Y677D01*
X1324Y678D01*
X1327Y678D01*
X1330Y674D01*
D02*
G37*
%LPC*%
G36*
X1764Y555D02*
X1752Y543D01*
X1770Y525D01*
X1782Y536D01*
X1764Y555D01*
D02*
G37*
%LPD*%
D18*
X415Y360D02*
D03*
X475D02*
D03*
D19*
X1006Y70D02*
D03*
Y120D02*
D03*
Y170D02*
D03*
Y220D02*
D03*
X813Y70D02*
D03*
Y120D02*
D03*
Y170D02*
D03*
Y220D02*
D03*
D20*
X710Y177D02*
D03*
Y120D02*
D03*
X2065Y759D02*
D03*
Y701D02*
D03*
X2380Y210D02*
D03*
Y267D02*
D03*
D21*
X2335Y864D02*
D03*
Y946D02*
D03*
D22*
X1764Y569D02*
D03*
X1716Y521D02*
D03*
X1699Y599D02*
D03*
X1651Y551D02*
D03*
D23*
X1343Y1377D02*
D03*
X1277Y1443D02*
D03*
D24*
X930Y1120D02*
D03*
X970Y1160D02*
D03*
X1060Y1150D02*
D03*
X1020Y1110D02*
D03*
D25*
X164Y1095D02*
D03*
X106D02*
D03*
D26*
X2415Y827D02*
D03*
Y753D02*
D03*
D27*
X2136Y805D02*
D03*
Y755D02*
D03*
Y705D02*
D03*
Y655D02*
D03*
X2344D02*
D03*
Y705D02*
D03*
Y755D02*
D03*
Y805D02*
D03*
D28*
X2321Y135D02*
D03*
Y335D02*
D03*
X2139D02*
D03*
Y135D02*
D03*
D29*
X2920Y1285D02*
D03*
Y1335D02*
D03*
Y1385D02*
D03*
Y1435D02*
D03*
X2620D02*
D03*
Y1385D02*
D03*
Y1335D02*
D03*
Y1285D02*
D03*
D30*
X2890Y1681D02*
D03*
Y1599D02*
D03*
X2750Y1681D02*
D03*
Y1599D02*
D03*
X2610Y1680D02*
D03*
Y1597D02*
D03*
X2470Y1680D02*
D03*
Y1597D02*
D03*
D31*
X1120Y1046D02*
D03*
X1142Y1068D02*
D03*
X1165Y1090D02*
D03*
X1187Y1113D02*
D03*
X1209Y1135D02*
D03*
X1231Y1157D02*
D03*
X1254Y1180D02*
D03*
X1276Y1202D02*
D03*
X1298Y1224D02*
D03*
X1320Y1246D02*
D03*
X1343Y1269D02*
D03*
X1365Y1291D02*
D03*
X1387Y1313D02*
D03*
X1410Y1335D02*
D03*
X1432Y1358D02*
D03*
X1454Y1380D02*
D03*
X1880Y954D02*
D03*
X1858Y932D02*
D03*
X1835Y910D02*
D03*
X1813Y887D02*
D03*
X1791Y865D02*
D03*
X1769Y843D02*
D03*
X1746Y820D02*
D03*
X1724Y798D02*
D03*
X1702Y776D02*
D03*
X1680Y754D02*
D03*
X1657Y731D02*
D03*
X1635Y709D02*
D03*
X1613Y687D02*
D03*
X1590Y665D02*
D03*
X1568Y642D02*
D03*
X1546Y620D02*
D03*
D32*
Y1380D02*
D03*
X1568Y1358D02*
D03*
X1590Y1335D02*
D03*
X1613Y1313D02*
D03*
X1635Y1291D02*
D03*
X1657Y1269D02*
D03*
X1680Y1246D02*
D03*
X1702Y1224D02*
D03*
X1724Y1202D02*
D03*
X1746Y1180D02*
D03*
X1769Y1157D02*
D03*
X1791Y1135D02*
D03*
X1813Y1113D02*
D03*
X1835Y1090D02*
D03*
X1858Y1068D02*
D03*
X1880Y1046D02*
D03*
X1454Y620D02*
D03*
X1432Y642D02*
D03*
X1410Y665D02*
D03*
X1387Y687D02*
D03*
X1365Y709D02*
D03*
X1343Y731D02*
D03*
X1320Y754D02*
D03*
X1298Y776D02*
D03*
X1276Y798D02*
D03*
X1254Y820D02*
D03*
X1231Y843D02*
D03*
X1209Y865D02*
D03*
X1187Y887D02*
D03*
X1165Y910D02*
D03*
X1142Y932D02*
D03*
X1120Y954D02*
D03*
D61*
X250Y1295D02*
X1227D01*
X200Y1245D02*
X250Y1295D01*
X1227D02*
X1298Y1224D01*
X211Y1219D02*
X259Y1266D01*
X156Y1219D02*
X211D01*
X805Y1130D02*
X910Y1235D01*
X805Y227D02*
Y1130D01*
X1012Y1061D02*
X1105D01*
X958Y1115D02*
X1012Y1061D01*
X935Y1115D02*
X958D01*
X975Y1154D02*
X1020Y1110D01*
X975Y1235D02*
X1060Y1150D01*
X910Y1235D02*
X975D01*
X1135Y1150D02*
X1150D01*
X1129Y1123D02*
X1162Y1090D01*
X1124Y1123D02*
X1129D01*
X1100Y1147D02*
X1124Y1123D01*
X1094Y1112D02*
X1098D01*
X1142Y1068D01*
X1143Y1195D02*
X1147D01*
X1247Y1231D02*
X1276Y1202D01*
X1247Y1231D02*
Y1246D01*
X1226Y1266D02*
X1247Y1246D01*
X259Y1266D02*
X1226D01*
X474Y355D02*
X528D01*
X706Y177D01*
X2172Y395D02*
X2403D01*
X1746Y820D02*
X2172Y395D01*
X1664Y1310D02*
X2530D01*
X1663Y1309D02*
X1664Y1310D01*
X1654Y1309D02*
X1663D01*
X1635Y1291D02*
X1654Y1309D01*
X1642Y1340D02*
X2555D01*
X1635Y1380D02*
X2555D01*
X1649Y1439D02*
X2556D01*
X805Y227D02*
X809Y223D01*
X810D01*
X1162Y1090D02*
X1165D01*
X1042Y70D02*
X1224Y252D01*
X1006Y70D02*
X1042D01*
Y120D02*
X1204Y282D01*
X1006Y120D02*
X1042D01*
Y170D02*
X1166Y294D01*
X1006Y170D02*
X1042D01*
X1863Y1153D02*
X1865Y1155D01*
X1853Y1153D02*
X1863D01*
X1813Y1113D02*
X1853Y1153D01*
X1220Y1213D02*
Y1235D01*
X1180Y1209D02*
Y1225D01*
Y1209D02*
X1231Y1158D01*
X1147Y1195D02*
X1207Y1135D01*
X1220Y1213D02*
X1254Y1180D01*
X1150Y1150D02*
X1187Y1113D01*
X1063Y1147D02*
X1100D01*
X1083Y1101D02*
X1094Y1112D01*
X1052Y1101D02*
X1083D01*
X890Y1160D02*
X930Y1120D01*
X1930Y1945D02*
X2186D01*
X1828Y1188D02*
X1830Y1190D01*
X1828Y1173D02*
Y1188D01*
X1791Y1136D02*
X1828Y1173D01*
X1791Y1135D02*
Y1136D01*
X1006Y220D02*
X1015Y228D01*
X2530Y261D02*
Y268D01*
X2403Y395D02*
X2530Y268D01*
Y261D02*
X2560Y231D01*
Y223D02*
Y231D01*
X2510Y155D02*
Y260D01*
Y155D02*
X2560Y105D01*
X2787Y435D02*
X2840Y488D01*
X2795Y415D02*
X2840Y370D01*
X2196Y415D02*
X2795D01*
X2069Y755D02*
X2136D01*
X2065Y759D02*
X2069Y755D01*
X2061D02*
X2065Y759D01*
X1995Y755D02*
X2061D01*
X1719Y524D02*
X1876Y366D01*
X1651Y551D02*
X1658Y545D01*
X1678D01*
X1702Y521D01*
X1716D01*
X2363Y107D02*
Y108D01*
X2336Y135D02*
X2363Y108D01*
X2321Y135D02*
X2336D01*
X2363Y107D02*
X2385Y85D01*
X2124Y335D02*
X2139D01*
X2104Y355D02*
X2124Y335D01*
X2104Y355D02*
Y374D01*
X1702Y776D02*
X2104Y374D01*
X2139Y135D02*
X2321D01*
X2376Y210D02*
X2380D01*
X2356Y190D02*
X2376Y210D01*
X2356Y155D02*
Y190D01*
X2336Y135D02*
X2356Y155D01*
X2376Y267D02*
X2380D01*
X2356Y287D02*
X2376Y267D01*
X2356Y287D02*
Y315D01*
X2336Y335D02*
X2356Y315D01*
X2321Y335D02*
X2336D01*
X1769Y843D02*
X2196Y415D01*
X105Y1187D02*
Y1220D01*
X100Y1225D02*
X105Y1220D01*
X2335Y941D02*
X2354Y960D01*
X1362Y1291D02*
Y1293D01*
X147Y1083D02*
X164Y1100D01*
X105Y1187D02*
X147Y1146D01*
X1764Y569D02*
Y578D01*
X1635Y706D02*
X1764Y578D01*
X1635Y706D02*
Y709D01*
X1710Y528D02*
X1716Y521D01*
X1660Y637D02*
X1699Y599D01*
X1660Y637D02*
Y640D01*
X2075Y650D02*
X2131D01*
X2136Y655D01*
X2844Y963D02*
Y971D01*
Y963D02*
X2884Y923D01*
Y762D02*
Y923D01*
X2840Y718D02*
X2884Y762D01*
X2840Y662D02*
Y718D01*
X2586Y749D02*
X2599Y736D01*
X2796D01*
X2840Y780D01*
X2395Y375D02*
X2510Y260D01*
X2555Y1340D02*
X2615D01*
X2610Y1285D02*
X2615Y1280D01*
X2555Y1285D02*
X2610D01*
X2619Y1386D02*
X2620Y1385D01*
X2620Y1335D02*
X2620Y1335D01*
X2615Y1440D02*
X2620Y1435D01*
X2920Y1215D02*
Y1285D01*
X2556Y1439D02*
X2614D01*
X2920Y1285D02*
Y1335D01*
X2615Y1340D02*
X2620Y1335D01*
X2555Y1380D02*
X2615D01*
X2920Y1335D02*
Y1385D01*
X2615Y1380D02*
X2620Y1385D01*
X2920D02*
Y1435D01*
X1615Y1313D02*
X1642Y1340D01*
X190Y1315D02*
X1252D01*
X240Y1335D02*
X1276D01*
X150Y1425D02*
X240Y1335D01*
X1276D02*
X1343Y1269D01*
X150Y1275D02*
X190Y1315D01*
X1252D02*
X1320Y1246D01*
X1130Y850D02*
Y872D01*
X1165Y907D01*
X1085Y895D02*
X1105D01*
X1142Y931D01*
X2909Y1700D02*
X2965D01*
X2890Y1681D02*
X2909Y1700D01*
X2490D02*
X2540D01*
X2470Y1680D02*
X2490Y1700D01*
X2630D02*
X2680D01*
X2610Y1680D02*
X2630Y1700D01*
X2769D02*
X2820D01*
X2750Y1681D02*
X2769Y1700D01*
X2530Y1310D02*
X2555Y1285D01*
X1590Y1335D02*
X1635Y1380D01*
X1568Y1358D02*
X1649Y1439D01*
X2385Y85D02*
Y86D01*
X930Y1120D02*
Y1120D01*
X1105Y1061D02*
X1120Y1046D01*
X975Y1154D02*
Y1155D01*
X1043Y1110D02*
X1052Y1101D01*
X1020Y1110D02*
X1043D01*
X1296Y685D02*
X1343Y731D01*
X1166Y556D02*
X1295Y685D01*
X1296D01*
X1015Y228D02*
Y295D01*
X1613Y687D02*
X1655Y645D01*
X1906Y880D02*
Y884D01*
X1858Y932D02*
X1906Y884D01*
X1835Y910D02*
X1940Y805D01*
X2136D01*
X2045Y640D02*
Y681D01*
Y640D02*
X2070Y615D01*
X1791Y865D02*
X2221Y435D01*
X2787D01*
X2070Y615D02*
X2287D01*
X2045Y681D02*
X2065Y701D01*
X2287Y615D02*
X2327Y655D01*
X2136Y655D02*
X2136Y655D01*
X1223Y1432D02*
Y1765D01*
Y1432D02*
X1320Y1335D01*
X1930Y1768D02*
X2186D01*
X1142Y1068D02*
X1142D01*
X1320Y1335D02*
X1320D01*
X1362Y1293D01*
X140Y775D02*
X185Y730D01*
X140Y775D02*
Y948D01*
X147Y955D01*
Y1083D01*
X810Y223D02*
X813Y220D01*
X1142Y931D02*
X1142D01*
Y932D01*
X1142D01*
X1166Y294D02*
Y556D01*
X1165Y910D02*
Y910D01*
X1165Y907D02*
Y910D01*
X1165D02*
X1165D01*
X2334Y945D02*
X2335Y946D01*
X2265Y945D02*
X2334D01*
X2305Y335D02*
X2321D01*
X2265Y295D02*
X2305Y335D01*
X2084Y295D02*
X2265D01*
X2066Y313D02*
X2084Y295D01*
X2054Y313D02*
X2066D01*
X150Y1225D02*
X156Y1219D01*
X1631Y1758D02*
Y1766D01*
X2327Y655D02*
X2344D01*
X2710Y1094D02*
X2721D01*
X2576Y960D02*
X2710Y1094D01*
X2354Y960D02*
X2576D01*
X2570Y671D02*
X2721D01*
X2554Y655D02*
X2570Y671D01*
X2344Y655D02*
X2554D01*
X693Y137D02*
X710Y120D01*
X631Y137D02*
X693D01*
X534Y234D02*
X631Y137D01*
X1876Y313D02*
Y366D01*
X1613Y687D02*
X1613D01*
X1224Y479D02*
X1410Y665D01*
X1224Y252D02*
Y479D01*
X1204Y504D02*
X1387Y687D01*
X1204Y282D02*
Y504D01*
X813Y70D02*
Y120D01*
X710D02*
X813D01*
X717Y170D02*
X813D01*
X710Y177D02*
X717Y170D01*
X706Y177D02*
X710D01*
X415Y355D02*
X416Y355D01*
Y234D02*
Y355D01*
Y234D02*
X416Y234D01*
X2370Y1765D02*
X2626D01*
X2370Y1942D02*
X2626D01*
X1434Y1400D02*
X1559Y1525D01*
X1434Y1400D02*
X1454Y1380D01*
X1559Y1525D02*
X2674D01*
X1542Y1565D02*
X2436D01*
X2468Y1597D01*
X2470D01*
X1390Y1413D02*
X1542Y1565D01*
X1390Y1364D02*
Y1413D01*
Y1364D02*
X1391Y1363D01*
Y1354D02*
Y1363D01*
Y1354D02*
X1410Y1335D01*
X1551Y1545D02*
X2556D01*
X2608Y1597D01*
X2610D01*
X1413Y1407D02*
X1551Y1545D01*
X1413Y1386D02*
Y1407D01*
Y1386D02*
X1413Y1386D01*
Y1376D02*
Y1386D01*
Y1376D02*
X1432Y1358D01*
X2674Y1525D02*
X2748Y1599D01*
X2750D01*
X2794Y1505D02*
X2888Y1599D01*
X1671Y1505D02*
X2794D01*
X2888Y1599D02*
X2890D01*
X1546Y1380D02*
X1671Y1505D01*
X1613Y1313D02*
X1615D01*
X1613D02*
X1631Y1332D01*
X2795Y1050D02*
X2839Y1094D01*
X2795Y923D02*
Y1050D01*
Y923D02*
X2839Y879D01*
Y789D02*
Y879D01*
X2795Y715D02*
X2839Y671D01*
X2535Y715D02*
X2795D01*
X2525Y705D02*
X2535Y715D01*
X2344Y705D02*
X2525D01*
X2419Y749D02*
X2586D01*
X2415Y753D02*
X2419Y749D01*
X2344Y755D02*
X2413D01*
X2415Y753D01*
X1231Y1157D02*
Y1158D01*
X1207Y1135D02*
X1209D01*
Y1138D01*
X1858Y932D02*
X1858D01*
X2430Y842D02*
X2462D01*
X2415Y827D02*
X2430Y842D01*
X2462D02*
X2525Y905D01*
X2335Y859D02*
X2344Y849D01*
Y805D02*
Y849D01*
X2069Y705D02*
X2131D01*
X2065Y701D02*
X2069Y705D01*
X2147Y375D02*
X2395D01*
X1724Y798D02*
X2147Y375D01*
X1792Y822D02*
X1793D01*
X1771Y843D02*
X1792Y822D01*
X1769Y843D02*
X1771D01*
X1343Y1358D02*
X1387Y1313D01*
Y1313D02*
Y1313D01*
X1343Y1377D02*
X1347D01*
X1343Y1358D02*
Y1377D01*
X147Y1117D02*
X164Y1100D01*
X147Y1117D02*
Y1146D01*
X106Y1100D02*
Y1104D01*
X66Y1144D02*
X106Y1104D01*
X66Y1144D02*
Y1241D01*
X100Y1275D01*
X2054Y57D02*
Y313D01*
X1876Y57D02*
Y313D01*
X2045Y322D02*
X2054Y313D01*
X2045Y322D02*
Y344D01*
X1657Y731D02*
X2045Y344D01*
X1613Y685D02*
Y687D01*
X1702Y776D02*
Y776D01*
X1277Y1443D02*
Y1462D01*
X1260Y1500D02*
X1262Y1498D01*
Y1477D02*
Y1498D01*
Y1477D02*
X1277Y1462D01*
X1362Y1291D02*
X1365D01*
X1746Y820D02*
Y820D01*
D62*
X2473Y1597D02*
X2475Y1595D01*
X2470Y1597D02*
X2473D01*
D63*
X1930Y1945D02*
D03*
X2186D02*
D03*
X1930Y1768D02*
D03*
X2186D02*
D03*
X2370Y1942D02*
D03*
X2626D02*
D03*
X2370Y1765D02*
D03*
X2626D02*
D03*
X1876Y57D02*
D03*
Y313D02*
D03*
X2054Y57D02*
D03*
Y313D02*
D03*
D64*
X85Y930D02*
D03*
D65*
Y830D02*
D03*
Y730D02*
D03*
X185Y930D02*
D03*
Y830D02*
D03*
Y730D02*
D03*
D66*
X2560Y105D02*
D03*
Y223D02*
D03*
X2840Y488D02*
D03*
Y370D02*
D03*
X534Y234D02*
D03*
Y116D02*
D03*
X416Y234D02*
D03*
Y116D02*
D03*
X1631Y1766D02*
D03*
Y1884D02*
D03*
X1749Y1766D02*
D03*
Y1884D02*
D03*
X1226Y1766D02*
D03*
Y1884D02*
D03*
X1344Y1766D02*
D03*
Y1884D02*
D03*
X2840Y1085D02*
D03*
Y967D02*
D03*
X2722Y1085D02*
D03*
Y967D02*
D03*
X2840Y780D02*
D03*
Y662D02*
D03*
X2722Y780D02*
D03*
Y662D02*
D03*
X821Y1766D02*
D03*
Y1884D02*
D03*
X939Y1766D02*
D03*
Y1884D02*
D03*
X533Y1883D02*
D03*
Y1765D02*
D03*
X415Y1883D02*
D03*
Y1765D02*
D03*
D67*
X2525Y905D02*
D03*
Y805D02*
D03*
D68*
Y705D02*
D03*
D69*
X150Y1225D02*
D03*
D70*
X100D02*
D03*
X150Y1275D02*
D03*
X100D02*
D03*
X150Y1325D02*
D03*
X100D02*
D03*
X150Y1375D02*
D03*
X100D02*
D03*
X150Y1425D02*
D03*
X100D02*
D03*
D71*
X150Y1850D02*
D03*
X2850D02*
D03*
D72*
Y150D02*
D03*
X150D02*
D03*
D73*
X1135Y1150D02*
D03*
X1098Y1112D02*
D03*
X1143Y1195D02*
D03*
X1865Y1155D02*
D03*
X1220Y1235D02*
D03*
X1180Y1225D02*
D03*
X890Y1160D02*
D03*
X1830Y1190D02*
D03*
X2075Y650D02*
D03*
X2920Y1205D02*
D03*
X2555Y1285D02*
D03*
Y1340D02*
D03*
Y1380D02*
D03*
X2556Y1439D02*
D03*
X1130Y850D02*
D03*
X1085Y895D02*
D03*
X2965Y1700D02*
D03*
X2540D02*
D03*
X2680D02*
D03*
X2820D02*
D03*
X2385Y85D02*
D03*
X1295Y685D02*
D03*
X1015Y295D02*
D03*
X1660Y640D02*
D03*
X1906Y880D02*
D03*
X2247Y1945D02*
D03*
X1320Y1335D02*
D03*
X2245Y1765D02*
D03*
X2265Y945D02*
D03*
X200Y1245D02*
D03*
X1995Y755D02*
D03*
X1260Y1500D02*
D03*
M02*
