%TF.GenerationSoftware,Altium Limited,Altium Designer,19.1.8 (144)*%
G04 Layer_Color=128*
%FSLAX23Y23*%
%MOIN*%
%TF.FileFunction,Drillmap*%
%TF.Part,Single*%
G01*
G75*
%TA.AperFunction,NonConductor*%
%ADD65C,0.005*%
D65*
X1911Y1945D02*
X1949D01*
X1930Y1926D02*
Y1964D01*
X2166Y1945D02*
X2205D01*
X2186Y1926D02*
Y1964D01*
X1911Y1768D02*
X1949D01*
X1930Y1748D02*
Y1787D01*
X2166Y1768D02*
X2205D01*
X2186Y1748D02*
Y1787D01*
X2351Y1942D02*
X2389D01*
X2370Y1923D02*
Y1962D01*
X2606Y1942D02*
X2645D01*
X2626Y1923D02*
Y1962D01*
X2351Y1765D02*
X2389D01*
X2370Y1746D02*
Y1784D01*
X2606Y1765D02*
X2645D01*
X2626Y1746D02*
Y1784D01*
X65Y930D02*
X105D01*
X85Y910D02*
Y950D01*
X65Y830D02*
X105D01*
X85Y810D02*
Y850D01*
X65Y730D02*
X105D01*
X85Y710D02*
Y750D01*
X165Y930D02*
X205D01*
X185Y910D02*
Y950D01*
X165Y830D02*
X205D01*
X185Y810D02*
Y850D01*
X165Y730D02*
X205D01*
X185Y710D02*
Y750D01*
X1857Y57D02*
X1896D01*
X1876Y38D02*
Y77D01*
X1857Y313D02*
X1896D01*
X1876Y293D02*
Y332D01*
X2034Y57D02*
X2073D01*
X2054Y38D02*
Y77D01*
X2034Y313D02*
X2073D01*
X2054Y293D02*
Y332D01*
X2540Y105D02*
X2580D01*
X2560Y85D02*
Y125D01*
X2540Y223D02*
X2580D01*
X2560Y203D02*
Y243D01*
X2422Y260D02*
X2462D01*
X2442Y240D02*
Y280D01*
X2658Y260D02*
X2698D01*
X2678Y240D02*
Y280D01*
X2820Y488D02*
X2860D01*
X2840Y468D02*
Y508D01*
X2820Y370D02*
X2860D01*
X2840Y350D02*
Y390D01*
X2938Y333D02*
X2978D01*
X2958Y313D02*
Y353D01*
X2702Y333D02*
X2742D01*
X2722Y313D02*
Y353D01*
X632Y79D02*
X672D01*
X652Y59D02*
Y99D01*
X278Y79D02*
X318D01*
X298Y59D02*
Y99D01*
X514Y234D02*
X554D01*
X534Y214D02*
Y254D01*
X514Y116D02*
X554D01*
X534Y96D02*
Y136D01*
X396Y234D02*
X436D01*
X416Y214D02*
Y254D01*
X396Y116D02*
X436D01*
X416Y96D02*
Y136D01*
X2507Y905D02*
X2543D01*
X2525Y887D02*
Y923D01*
X2507Y805D02*
X2543D01*
X2525Y787D02*
Y823D01*
X2507Y705D02*
X2543D01*
X2525Y687D02*
Y723D01*
X1493Y1921D02*
X1533D01*
X1513Y1901D02*
Y1941D01*
X1847Y1921D02*
X1887D01*
X1867Y1901D02*
Y1941D01*
X1611Y1766D02*
X1651D01*
X1631Y1746D02*
Y1786D01*
X1611Y1884D02*
X1651D01*
X1631Y1864D02*
Y1904D01*
X1729Y1766D02*
X1769D01*
X1749Y1746D02*
Y1786D01*
X1729Y1884D02*
X1769D01*
X1749Y1864D02*
Y1904D01*
X1088Y1921D02*
X1128D01*
X1108Y1901D02*
Y1941D01*
X1442Y1921D02*
X1482D01*
X1462Y1901D02*
Y1941D01*
X1206Y1766D02*
X1246D01*
X1226Y1746D02*
Y1786D01*
X1206Y1884D02*
X1246D01*
X1226Y1864D02*
Y1904D01*
X1324Y1766D02*
X1364D01*
X1344Y1746D02*
Y1786D01*
X1324Y1884D02*
X1364D01*
X1344Y1864D02*
Y1904D01*
X2938Y930D02*
X2978D01*
X2958Y910D02*
Y950D01*
X2584Y930D02*
X2624D01*
X2604Y910D02*
Y950D01*
X2820Y1085D02*
X2860D01*
X2840Y1065D02*
Y1105D01*
X2820Y967D02*
X2860D01*
X2840Y947D02*
Y987D01*
X2702Y1085D02*
X2742D01*
X2722Y1065D02*
Y1105D01*
X2702Y967D02*
X2742D01*
X2722Y947D02*
Y987D01*
X2938Y625D02*
X2978D01*
X2958Y605D02*
Y645D01*
X2584Y625D02*
X2624D01*
X2604Y605D02*
Y645D01*
X2820Y780D02*
X2860D01*
X2840Y760D02*
Y800D01*
X2820Y662D02*
X2860D01*
X2840Y642D02*
Y682D01*
X2702Y780D02*
X2742D01*
X2722Y760D02*
Y800D01*
X2702Y662D02*
X2742D01*
X2722Y642D02*
Y682D01*
X136Y1225D02*
X164D01*
X150Y1211D02*
Y1239D01*
X86Y1225D02*
X114D01*
X100Y1211D02*
Y1239D01*
X136Y1275D02*
X164D01*
X150Y1261D02*
Y1289D01*
X86Y1275D02*
X114D01*
X100Y1261D02*
Y1289D01*
X136Y1325D02*
X164D01*
X150Y1311D02*
Y1339D01*
X86Y1325D02*
X114D01*
X100Y1311D02*
Y1339D01*
X136Y1375D02*
X164D01*
X150Y1361D02*
Y1389D01*
X86Y1375D02*
X114D01*
X100Y1361D02*
Y1389D01*
X136Y1425D02*
X164D01*
X150Y1411D02*
Y1439D01*
X86Y1425D02*
X114D01*
X100Y1411D02*
Y1439D01*
X683Y1921D02*
X723D01*
X703Y1901D02*
Y1941D01*
X1037Y1921D02*
X1077D01*
X1057Y1901D02*
Y1941D01*
X801Y1766D02*
X841D01*
X821Y1746D02*
Y1786D01*
X801Y1884D02*
X841D01*
X821Y1864D02*
Y1904D01*
X919Y1766D02*
X959D01*
X939Y1746D02*
Y1786D01*
X919Y1884D02*
X959D01*
X939Y1864D02*
Y1904D01*
X87Y1850D02*
X213D01*
X150Y1787D02*
Y1913D01*
X2787Y1850D02*
X2913D01*
X2850Y1787D02*
Y1913D01*
X2787Y150D02*
X2913D01*
X2850Y87D02*
Y213D01*
X87Y150D02*
X213D01*
X150Y87D02*
Y213D01*
X513Y1883D02*
X553D01*
X533Y1863D02*
Y1903D01*
X513Y1765D02*
X553D01*
X533Y1745D02*
Y1785D01*
X395Y1883D02*
X435D01*
X415Y1863D02*
Y1903D01*
X395Y1765D02*
X435D01*
X415Y1745D02*
Y1785D01*
X631Y1920D02*
X671D01*
X651Y1900D02*
Y1940D01*
X277Y1920D02*
X317D01*
X297Y1900D02*
Y1940D01*
X1130Y1150D02*
X1140D01*
X1135Y1145D02*
Y1155D01*
X1093Y1112D02*
X1103D01*
X1098Y1107D02*
Y1117D01*
X1138Y1195D02*
X1148D01*
X1143Y1190D02*
Y1200D01*
X1860Y1155D02*
X1870D01*
X1865Y1150D02*
Y1160D01*
X1215Y1235D02*
X1225D01*
X1220Y1230D02*
Y1240D01*
X1175Y1225D02*
X1185D01*
X1180Y1220D02*
Y1230D01*
X885Y1160D02*
X895D01*
X890Y1155D02*
Y1165D01*
X1825Y1190D02*
X1835D01*
X1830Y1185D02*
Y1195D01*
X2070Y650D02*
X2080D01*
X2075Y645D02*
Y655D01*
X2915Y1205D02*
X2925D01*
X2920Y1200D02*
Y1210D01*
X2550Y1285D02*
X2560D01*
X2555Y1280D02*
Y1290D01*
X2550Y1340D02*
X2560D01*
X2555Y1335D02*
Y1345D01*
X2550Y1380D02*
X2560D01*
X2555Y1375D02*
Y1385D01*
X2551Y1439D02*
X2561D01*
X2556Y1434D02*
Y1444D01*
X1125Y850D02*
X1135D01*
X1130Y845D02*
Y855D01*
X1080Y895D02*
X1090D01*
X1085Y890D02*
Y900D01*
X2960Y1700D02*
X2970D01*
X2965Y1695D02*
Y1705D01*
X2535Y1700D02*
X2545D01*
X2540Y1695D02*
Y1705D01*
X2675Y1700D02*
X2685D01*
X2680Y1695D02*
Y1705D01*
X2815Y1700D02*
X2825D01*
X2820Y1695D02*
Y1705D01*
X2380Y85D02*
X2390D01*
X2385Y80D02*
Y90D01*
X1290Y685D02*
X1300D01*
X1295Y680D02*
Y690D01*
X1010Y295D02*
X1020D01*
X1015Y290D02*
Y300D01*
X1655Y640D02*
X1665D01*
X1660Y635D02*
Y645D01*
X1901Y880D02*
X1911D01*
X1906Y875D02*
Y885D01*
X2242Y1945D02*
X2252D01*
X2247Y1940D02*
Y1950D01*
X1315Y1335D02*
X1325D01*
X1320Y1330D02*
Y1340D01*
X2240Y1765D02*
X2250D01*
X2245Y1760D02*
Y1770D01*
X2260Y945D02*
X2270D01*
X2265Y940D02*
Y950D01*
X195Y1245D02*
X205D01*
X200Y1240D02*
Y1250D01*
X1990Y755D02*
X2000D01*
X1995Y750D02*
Y760D01*
X1255Y1500D02*
X1265D01*
X1260Y1495D02*
Y1505D01*
%TF.MD5,54ce7657790a80f0e22b07e42c535468*%
M02*
