%TF.GenerationSoftware,Altium Limited,Altium Designer,19.1.8 (144)*%
G04 Layer_Color=16711935*
%FSLAX23Y23*%
%MOIN*%
%TF.FileFunction,Other,Mechanical_13*%
%TF.Part,Single*%
G01*
G75*
%TA.AperFunction,NonConductor*%
%ADD66C,0.004*%
D66*
X886Y208D02*
G03*
X886Y208I-20J0D01*
G01*
X1180Y1000D02*
G03*
X1180Y1000I-20J0D01*
G01*
X975Y266D02*
Y323D01*
X888Y266D02*
Y323D01*
X975D01*
X888Y266D02*
X975D01*
X402Y332D02*
Y388D01*
X488Y332D02*
Y388D01*
X402D02*
X488D01*
X402Y332D02*
X488D01*
X831Y47D02*
X989D01*
X831Y243D02*
X989D01*
Y47D02*
Y243D01*
X831Y47D02*
Y243D01*
X2237Y1793D02*
X2323D01*
X2237Y1847D02*
X2323D01*
X2237Y1793D02*
Y1847D01*
X2323Y1793D02*
Y1847D01*
X2237Y1863D02*
Y1917D01*
X2323Y1863D02*
Y1917D01*
X2237Y1863D02*
X2323D01*
X2237Y1917D02*
X2323D01*
X2017Y1793D02*
Y1847D01*
X2103Y1793D02*
Y1847D01*
X2017Y1793D02*
X2103D01*
X2017Y1847D02*
X2103D01*
X2017Y1863D02*
Y1917D01*
X2103Y1863D02*
Y1917D01*
X2017Y1863D02*
X2103D01*
X2017Y1917D02*
X2103D01*
X1722Y1633D02*
X1778D01*
X1722Y1719D02*
X1778D01*
Y1633D02*
Y1719D01*
X1722Y1633D02*
Y1719D01*
X1611Y1666D02*
Y1724D01*
X1699Y1666D02*
Y1724D01*
X1611Y1666D02*
X1699D01*
X1611Y1724D02*
X1699D01*
X1206Y1666D02*
Y1724D01*
X1294Y1666D02*
Y1724D01*
X1206Y1666D02*
X1294D01*
X1206Y1724D02*
X1294D01*
X1317Y1631D02*
X1373D01*
X1317Y1718D02*
X1373D01*
Y1631D02*
Y1718D01*
X1317Y1631D02*
Y1718D01*
X482Y1666D02*
Y1724D01*
X395Y1666D02*
Y1724D01*
X482D01*
X395Y1666D02*
X482D01*
X889D02*
Y1724D01*
X801Y1666D02*
Y1724D01*
X889D01*
X801Y1666D02*
X889D01*
X907Y1632D02*
X963D01*
X907Y1718D02*
X963D01*
Y1632D02*
Y1718D01*
X907Y1632D02*
Y1718D01*
X502Y1632D02*
X558Y1632D01*
X502Y1718D02*
X558D01*
Y1632D02*
Y1718D01*
X502D02*
X502Y1632D01*
X2883Y1178D02*
Y1232D01*
X2797Y1178D02*
Y1232D01*
X2883D01*
X2797Y1178D02*
X2883D01*
X2617Y1238D02*
X2703D01*
X2617Y1292D02*
X2703D01*
X2617Y1238D02*
Y1292D01*
X2703Y1238D02*
Y1292D01*
X2617Y1303D02*
X2703D01*
X2617Y1357D02*
X2703D01*
X2617Y1303D02*
Y1357D01*
X2703Y1303D02*
Y1357D01*
X2617Y1368D02*
X2703D01*
X2617Y1422D02*
X2703D01*
X2617Y1368D02*
Y1422D01*
X2703Y1368D02*
Y1422D01*
X2617Y1433D02*
X2703D01*
X2617Y1487D02*
X2703D01*
X2617Y1433D02*
Y1487D01*
X2703Y1433D02*
Y1487D01*
X738Y105D02*
Y192D01*
X681Y105D02*
Y192D01*
X738D01*
X681Y105D02*
X738D01*
X35Y673D02*
X235D01*
X35D02*
Y987D01*
X235D01*
Y673D02*
Y987D01*
X2308Y862D02*
X2362D01*
X2308Y948D02*
X2362D01*
X2308Y862D02*
Y948D01*
X2362Y862D02*
Y948D01*
X2094Y686D02*
Y774D01*
X2036Y686D02*
Y774D01*
X2094D01*
X2036Y686D02*
X2094D01*
X1728Y496D02*
X1789Y557D01*
X1691Y533D02*
X1752Y594D01*
X1789Y557D01*
X1691Y533D02*
X1728Y496D01*
X1663Y526D02*
X1724Y587D01*
X1626Y563D02*
X1687Y624D01*
X1724Y587D01*
X1626Y563D02*
X1663Y526D01*
X2351Y195D02*
X2409D01*
X2351Y282D02*
X2409D01*
X2351Y195D02*
Y282D01*
X2409Y195D02*
Y282D01*
X1321Y1360D02*
X1360Y1399D01*
X1260Y1421D02*
X1299Y1460D01*
X1260Y1421D02*
X1321Y1360D01*
X1299Y1460D02*
X1360Y1399D01*
X899Y1129D02*
X961Y1191D01*
X939Y1089D02*
X1001Y1151D01*
X899Y1129D02*
X939Y1089D01*
X961Y1191D02*
X1001Y1151D01*
X1029Y1079D02*
X1091Y1141D01*
X989Y1119D02*
X1051Y1181D01*
X1091Y1141D01*
X989Y1119D02*
X1029Y1079D01*
X91Y1066D02*
X179D01*
X91Y1124D02*
X179D01*
Y1066D02*
Y1124D01*
X91Y1066D02*
Y1124D01*
X2388Y833D02*
X2442D01*
X2388Y747D02*
X2442D01*
Y833D01*
X2388Y747D02*
Y833D01*
X2497Y1595D02*
Y1682D01*
X2443Y1595D02*
Y1682D01*
Y1595D02*
X2497D01*
X2443Y1682D02*
X2497D01*
X2863D02*
X2917D01*
X2863Y1595D02*
X2917D01*
X2863D02*
Y1682D01*
X2917Y1595D02*
Y1682D01*
X2723D02*
X2777D01*
X2723Y1595D02*
X2777D01*
X2723D02*
Y1682D01*
X2777Y1595D02*
Y1682D01*
X2583Y1682D02*
X2637D01*
X2583Y1595D02*
X2637D01*
X2583D02*
Y1682D01*
X2637Y1595D02*
Y1682D01*
X2648Y1238D02*
Y1482D01*
Y1238D02*
X2892D01*
X2648Y1482D02*
X2892D01*
Y1238D02*
Y1482D01*
X2863Y1681D02*
X2917D01*
X2863Y1599D02*
X2917D01*
Y1681D01*
X2863Y1599D02*
Y1681D01*
X2723D02*
X2777D01*
X2723Y1599D02*
X2777D01*
Y1681D01*
X2723Y1599D02*
Y1681D01*
X2583Y1680D02*
X2637D01*
X2583Y1597D02*
X2637D01*
Y1680D01*
X2583Y1597D02*
Y1680D01*
X2443D02*
X2497D01*
X2443Y1597D02*
X2497D01*
Y1680D01*
X2443Y1597D02*
Y1680D01*
X1500Y610D02*
X1890Y1000D01*
X1110D02*
X1500Y1390D01*
X1890Y1000D01*
X1110D02*
X1500Y610D01*
%TF.MD5,336057ff9182e9a0de16e38df50d8fb4*%
M02*
