%TF.GenerationSoftware,Altium Limited,Altium Designer,19.1.8 (144)*%
G04 Layer_Color=2752767*
%FSLAX23Y23*%
%MOIN*%
%TF.FileFunction,Drawing*%
%TF.Part,Single*%
G01*
G75*
%TA.AperFunction,NonConductor*%
%ADD65C,0.005*%
%ADD95C,0.007*%
D65*
X1910Y1925D02*
Y1965D01*
X1950D01*
Y1925D01*
X1910D01*
X2166D02*
Y1965D01*
X2206D01*
Y1925D01*
X2166D01*
X1910Y1748D02*
Y1788D01*
X1950D01*
Y1748D01*
X1910D01*
X2166D02*
Y1788D01*
X2206D01*
Y1748D01*
X2166D01*
X2350Y1922D02*
Y1962D01*
X2390D01*
Y1922D01*
X2350D01*
X2606D02*
Y1962D01*
X2646D01*
Y1922D01*
X2606D01*
X2350Y1745D02*
Y1785D01*
X2390D01*
Y1745D01*
X2350D01*
X2606D02*
Y1785D01*
X2646D01*
Y1745D01*
X2606D01*
X1856Y37D02*
Y77D01*
X1896D01*
Y37D01*
X1856D01*
Y293D02*
Y333D01*
X1896D01*
Y293D01*
X1856D01*
X2034Y37D02*
Y77D01*
X2074D01*
Y37D01*
X2034D01*
Y293D02*
Y333D01*
X2074D01*
Y293D01*
X2034D01*
X2560Y85D02*
X2540Y125D01*
X2580D01*
X2560Y85D01*
Y203D02*
X2540Y243D01*
X2580D01*
X2560Y203D01*
X2442Y240D02*
X2452Y250D01*
X2462D01*
X2452Y260D01*
X2462Y270D01*
X2452D01*
X2442Y280D01*
X2432Y270D01*
X2422D01*
X2432Y260D01*
X2422Y250D01*
X2432D01*
X2442Y240D01*
X2678D02*
X2688Y250D01*
X2698D01*
X2688Y260D01*
X2698Y270D01*
X2688D01*
X2678Y280D01*
X2668Y270D01*
X2658D01*
X2668Y260D01*
X2658Y250D01*
X2668D01*
X2678Y240D01*
X2840Y468D02*
X2820Y508D01*
X2860D01*
X2840Y468D01*
Y350D02*
X2820Y390D01*
X2860D01*
X2840Y350D01*
X2958Y313D02*
X2968Y323D01*
X2978D01*
X2968Y333D01*
X2978Y343D01*
X2968D01*
X2958Y353D01*
X2948Y343D01*
X2938D01*
X2948Y333D01*
X2938Y323D01*
X2948D01*
X2958Y313D01*
X2722D02*
X2732Y323D01*
X2742D01*
X2732Y333D01*
X2742Y343D01*
X2732D01*
X2722Y353D01*
X2712Y343D01*
X2702D01*
X2712Y333D01*
X2702Y323D01*
X2712D01*
X2722Y313D01*
X652Y59D02*
X662Y69D01*
X672D01*
X662Y79D01*
X672Y89D01*
X662D01*
X652Y99D01*
X642Y89D01*
X632D01*
X642Y79D01*
X632Y69D01*
X642D01*
X652Y59D01*
X298D02*
X308Y69D01*
X318D01*
X308Y79D01*
X318Y89D01*
X308D01*
X298Y99D01*
X288Y89D01*
X278D01*
X288Y79D01*
X278Y69D01*
X288D01*
X298Y59D01*
X534Y214D02*
X514Y254D01*
X554D01*
X534Y214D01*
Y96D02*
X514Y136D01*
X554D01*
X534Y96D01*
X416Y214D02*
X396Y254D01*
X436D01*
X416Y214D01*
Y96D02*
X396Y136D01*
X436D01*
X416Y96D01*
X2505Y885D02*
X2515Y905D01*
X2505Y925D01*
X2525Y915D01*
X2545Y925D01*
X2535Y905D01*
X2545Y885D01*
X2525Y895D01*
X2505Y885D01*
Y785D02*
X2515Y805D01*
X2505Y825D01*
X2525Y815D01*
X2545Y825D01*
X2535Y805D01*
X2545Y785D01*
X2525Y795D01*
X2505Y785D01*
Y685D02*
X2515Y705D01*
X2505Y725D01*
X2525Y715D01*
X2545Y725D01*
X2535Y705D01*
X2545Y685D01*
X2525Y695D01*
X2505Y685D01*
X1513Y1901D02*
X1523Y1911D01*
X1533D01*
X1523Y1921D01*
X1533Y1931D01*
X1523D01*
X1513Y1941D01*
X1503Y1931D01*
X1493D01*
X1503Y1921D01*
X1493Y1911D01*
X1503D01*
X1513Y1901D01*
X1867D02*
X1877Y1911D01*
X1887D01*
X1877Y1921D01*
X1887Y1931D01*
X1877D01*
X1867Y1941D01*
X1857Y1931D01*
X1847D01*
X1857Y1921D01*
X1847Y1911D01*
X1857D01*
X1867Y1901D01*
X1631Y1746D02*
X1611Y1786D01*
X1651D01*
X1631Y1746D01*
Y1864D02*
X1611Y1904D01*
X1651D01*
X1631Y1864D01*
X1749Y1746D02*
X1729Y1786D01*
X1769D01*
X1749Y1746D01*
Y1864D02*
X1729Y1904D01*
X1769D01*
X1749Y1864D01*
X1108Y1901D02*
X1118Y1911D01*
X1128D01*
X1118Y1921D01*
X1128Y1931D01*
X1118D01*
X1108Y1941D01*
X1098Y1931D01*
X1088D01*
X1098Y1921D01*
X1088Y1911D01*
X1098D01*
X1108Y1901D01*
X1462D02*
X1472Y1911D01*
X1482D01*
X1472Y1921D01*
X1482Y1931D01*
X1472D01*
X1462Y1941D01*
X1452Y1931D01*
X1442D01*
X1452Y1921D01*
X1442Y1911D01*
X1452D01*
X1462Y1901D01*
X1226Y1746D02*
X1206Y1786D01*
X1246D01*
X1226Y1746D01*
Y1864D02*
X1206Y1904D01*
X1246D01*
X1226Y1864D01*
X1344Y1746D02*
X1324Y1786D01*
X1364D01*
X1344Y1746D01*
Y1864D02*
X1324Y1904D01*
X1364D01*
X1344Y1864D01*
X2958Y910D02*
X2968Y920D01*
X2978D01*
X2968Y930D01*
X2978Y940D01*
X2968D01*
X2958Y950D01*
X2948Y940D01*
X2938D01*
X2948Y930D01*
X2938Y920D01*
X2948D01*
X2958Y910D01*
X2604D02*
X2614Y920D01*
X2624D01*
X2614Y930D01*
X2624Y940D01*
X2614D01*
X2604Y950D01*
X2594Y940D01*
X2584D01*
X2594Y930D01*
X2584Y920D01*
X2594D01*
X2604Y910D01*
X2840Y1065D02*
X2820Y1105D01*
X2860D01*
X2840Y1065D01*
Y947D02*
X2820Y987D01*
X2860D01*
X2840Y947D01*
X2722Y1065D02*
X2702Y1105D01*
X2742D01*
X2722Y1065D01*
Y947D02*
X2702Y987D01*
X2742D01*
X2722Y947D01*
X2958Y605D02*
X2968Y615D01*
X2978D01*
X2968Y625D01*
X2978Y635D01*
X2968D01*
X2958Y645D01*
X2948Y635D01*
X2938D01*
X2948Y625D01*
X2938Y615D01*
X2948D01*
X2958Y605D01*
X2604D02*
X2614Y615D01*
X2624D01*
X2614Y625D01*
X2624Y635D01*
X2614D01*
X2604Y645D01*
X2594Y635D01*
X2584D01*
X2594Y625D01*
X2584Y615D01*
X2594D01*
X2604Y605D01*
X2840Y760D02*
X2820Y800D01*
X2860D01*
X2840Y760D01*
Y642D02*
X2820Y682D01*
X2860D01*
X2840Y642D01*
X2722Y760D02*
X2702Y800D01*
X2742D01*
X2722Y760D01*
Y642D02*
X2702Y682D01*
X2742D01*
X2722Y642D01*
X140Y1215D02*
Y1205D01*
X160D01*
Y1215D01*
X170D01*
Y1235D01*
X160D01*
Y1245D01*
X140D01*
Y1235D01*
X130D01*
Y1215D01*
X140D01*
X90D02*
Y1205D01*
X110D01*
Y1215D01*
X120D01*
Y1235D01*
X110D01*
Y1245D01*
X90D01*
Y1235D01*
X80D01*
Y1215D01*
X90D01*
X140Y1265D02*
Y1255D01*
X160D01*
Y1265D01*
X170D01*
Y1285D01*
X160D01*
Y1295D01*
X140D01*
Y1285D01*
X130D01*
Y1265D01*
X140D01*
X90D02*
Y1255D01*
X110D01*
Y1265D01*
X120D01*
Y1285D01*
X110D01*
Y1295D01*
X90D01*
Y1285D01*
X80D01*
Y1265D01*
X90D01*
X140Y1315D02*
Y1305D01*
X160D01*
Y1315D01*
X170D01*
Y1335D01*
X160D01*
Y1345D01*
X140D01*
Y1335D01*
X130D01*
Y1315D01*
X140D01*
X90D02*
Y1305D01*
X110D01*
Y1315D01*
X120D01*
Y1335D01*
X110D01*
Y1345D01*
X90D01*
Y1335D01*
X80D01*
Y1315D01*
X90D01*
X140Y1365D02*
Y1355D01*
X160D01*
Y1365D01*
X170D01*
Y1385D01*
X160D01*
Y1395D01*
X140D01*
Y1385D01*
X130D01*
Y1365D01*
X140D01*
X90D02*
Y1355D01*
X110D01*
Y1365D01*
X120D01*
Y1385D01*
X110D01*
Y1395D01*
X90D01*
Y1385D01*
X80D01*
Y1365D01*
X90D01*
X140Y1415D02*
Y1405D01*
X160D01*
Y1415D01*
X170D01*
Y1435D01*
X160D01*
Y1445D01*
X140D01*
Y1435D01*
X130D01*
Y1415D01*
X140D01*
X90D02*
Y1405D01*
X110D01*
Y1415D01*
X120D01*
Y1435D01*
X110D01*
Y1445D01*
X90D01*
Y1435D01*
X80D01*
Y1415D01*
X90D01*
X703Y1901D02*
X713Y1911D01*
X723D01*
X713Y1921D01*
X723Y1931D01*
X713D01*
X703Y1941D01*
X693Y1931D01*
X683D01*
X693Y1921D01*
X683Y1911D01*
X693D01*
X703Y1901D01*
X1057D02*
X1067Y1911D01*
X1077D01*
X1067Y1921D01*
X1077Y1931D01*
X1067D01*
X1057Y1941D01*
X1047Y1931D01*
X1037D01*
X1047Y1921D01*
X1037Y1911D01*
X1047D01*
X1057Y1901D01*
X821Y1746D02*
X801Y1786D01*
X841D01*
X821Y1746D01*
Y1864D02*
X801Y1904D01*
X841D01*
X821Y1864D01*
X939Y1746D02*
X919Y1786D01*
X959D01*
X939Y1746D01*
Y1864D02*
X919Y1904D01*
X959D01*
X939Y1864D01*
X130Y1830D02*
X140D01*
X150Y1840D01*
X160Y1830D01*
X170D01*
Y1840D01*
X160Y1850D01*
X170Y1860D01*
Y1870D01*
X160D01*
X150Y1860D01*
X140Y1870D01*
X130D01*
Y1860D01*
X140Y1850D01*
X130Y1840D01*
Y1830D01*
X2830D02*
X2840D01*
X2850Y1840D01*
X2860Y1830D01*
X2870D01*
Y1840D01*
X2860Y1850D01*
X2870Y1860D01*
Y1870D01*
X2860D01*
X2850Y1860D01*
X2840Y1870D01*
X2830D01*
Y1860D01*
X2840Y1850D01*
X2830Y1840D01*
Y1830D01*
Y130D02*
X2840D01*
X2850Y140D01*
X2860Y130D01*
X2870D01*
Y140D01*
X2860Y150D01*
X2870Y160D01*
Y170D01*
X2860D01*
X2850Y160D01*
X2840Y170D01*
X2830D01*
Y160D01*
X2840Y150D01*
X2830Y140D01*
Y130D01*
X130D02*
X140D01*
X150Y140D01*
X160Y130D01*
X170D01*
Y140D01*
X160Y150D01*
X170Y160D01*
Y170D01*
X160D01*
X150Y160D01*
X140Y170D01*
X130D01*
Y160D01*
X140Y150D01*
X130Y140D01*
Y130D01*
X533Y1863D02*
X513Y1903D01*
X553D01*
X533Y1863D01*
Y1745D02*
X513Y1785D01*
X553D01*
X533Y1745D01*
X415Y1863D02*
X395Y1903D01*
X435D01*
X415Y1863D01*
Y1745D02*
X395Y1785D01*
X435D01*
X415Y1745D01*
X651Y1900D02*
X661Y1910D01*
X671D01*
X661Y1920D01*
X671Y1930D01*
X661D01*
X651Y1940D01*
X641Y1930D01*
X631D01*
X641Y1920D01*
X631Y1910D01*
X641D01*
X651Y1900D01*
X297D02*
X307Y1910D01*
X317D01*
X307Y1920D01*
X317Y1930D01*
X307D01*
X297Y1940D01*
X287Y1930D01*
X277D01*
X287Y1920D01*
X277Y1910D01*
X287D01*
X297Y1900D01*
X1115Y1150D02*
X1135Y1170D01*
X1155Y1150D01*
X1135Y1130D01*
X1115Y1150D01*
X1078Y1112D02*
X1098Y1132D01*
X1118Y1112D01*
X1098Y1092D01*
X1078Y1112D01*
X1123Y1195D02*
X1143Y1215D01*
X1163Y1195D01*
X1143Y1175D01*
X1123Y1195D01*
X1845Y1155D02*
X1865Y1175D01*
X1885Y1155D01*
X1865Y1135D01*
X1845Y1155D01*
X1200Y1235D02*
X1220Y1255D01*
X1240Y1235D01*
X1220Y1215D01*
X1200Y1235D01*
X1160Y1225D02*
X1180Y1245D01*
X1200Y1225D01*
X1180Y1205D01*
X1160Y1225D01*
X870Y1160D02*
X890Y1180D01*
X910Y1160D01*
X890Y1140D01*
X870Y1160D01*
X1810Y1190D02*
X1830Y1210D01*
X1850Y1190D01*
X1830Y1170D01*
X1810Y1190D01*
X2055Y650D02*
X2075Y670D01*
X2095Y650D01*
X2075Y630D01*
X2055Y650D01*
X2900Y1205D02*
X2920Y1225D01*
X2940Y1205D01*
X2920Y1185D01*
X2900Y1205D01*
X2535Y1285D02*
X2555Y1305D01*
X2575Y1285D01*
X2555Y1265D01*
X2535Y1285D01*
Y1340D02*
X2555Y1360D01*
X2575Y1340D01*
X2555Y1320D01*
X2535Y1340D01*
Y1380D02*
X2555Y1400D01*
X2575Y1380D01*
X2555Y1360D01*
X2535Y1380D01*
X2536Y1439D02*
X2556Y1459D01*
X2576Y1439D01*
X2556Y1419D01*
X2536Y1439D01*
X1110Y850D02*
X1130Y870D01*
X1150Y850D01*
X1130Y830D01*
X1110Y850D01*
X1065Y895D02*
X1085Y915D01*
X1105Y895D01*
X1085Y875D01*
X1065Y895D01*
X2945Y1700D02*
X2965Y1720D01*
X2985Y1700D01*
X2965Y1680D01*
X2945Y1700D01*
X2520D02*
X2540Y1720D01*
X2560Y1700D01*
X2540Y1680D01*
X2520Y1700D01*
X2660D02*
X2680Y1720D01*
X2700Y1700D01*
X2680Y1680D01*
X2660Y1700D01*
X2800D02*
X2820Y1720D01*
X2840Y1700D01*
X2820Y1680D01*
X2800Y1700D01*
X2365Y85D02*
X2385Y105D01*
X2405Y85D01*
X2385Y65D01*
X2365Y85D01*
X1275Y685D02*
X1295Y705D01*
X1315Y685D01*
X1295Y665D01*
X1275Y685D01*
X995Y295D02*
X1015Y315D01*
X1035Y295D01*
X1015Y275D01*
X995Y295D01*
X1640Y640D02*
X1660Y660D01*
X1680Y640D01*
X1660Y620D01*
X1640Y640D01*
X1886Y880D02*
X1906Y900D01*
X1926Y880D01*
X1906Y860D01*
X1886Y880D01*
X2227Y1945D02*
X2247Y1965D01*
X2267Y1945D01*
X2247Y1925D01*
X2227Y1945D01*
X1300Y1335D02*
X1320Y1355D01*
X1340Y1335D01*
X1320Y1315D01*
X1300Y1335D01*
X2225Y1765D02*
X2245Y1785D01*
X2265Y1765D01*
X2245Y1745D01*
X2225Y1765D01*
X2245Y945D02*
X2265Y965D01*
X2285Y945D01*
X2265Y925D01*
X2245Y945D01*
X180Y1245D02*
X200Y1265D01*
X220Y1245D01*
X200Y1225D01*
X180Y1245D01*
X1975Y755D02*
X1995Y775D01*
X2015Y755D01*
X1995Y735D01*
X1975Y755D01*
X1240Y1500D02*
X1260Y1520D01*
X1280Y1500D01*
X1260Y1480D01*
X1240Y1500D01*
D95*
X105Y930D02*
G03*
X105Y930I-20J0D01*
G01*
Y830D02*
G03*
X105Y830I-20J0D01*
G01*
Y730D02*
G03*
X105Y730I-20J0D01*
G01*
X205Y930D02*
G03*
X205Y930I-20J0D01*
G01*
Y830D02*
G03*
X205Y830I-20J0D01*
G01*
Y730D02*
G03*
X205Y730I-20J0D01*
G01*
%TF.MD5,7602e4761dc36b398aab5980f258de1a*%
M02*
