G04*
G04 #@! TF.GenerationSoftware,Altium Limited,Altium Designer,19.1.8 (144)*
G04*
G04 Layer_Color=255*
%FSLAX23Y23*%
%MOIN*%
G70*
G01*
G75*
%ADD21R,0.059X0.049*%
%ADD25R,0.043X0.053*%
%ADD63C,0.059*%
%ADD64R,0.061X0.061*%
%ADD65C,0.061*%
%ADD66C,0.060*%
%ADD67C,0.059*%
%ADD68R,0.059X0.059*%
%ADD69R,0.040X0.040*%
%ADD70C,0.040*%
%ADD71C,0.242*%
%ADD72C,0.240*%
%ADD74R,0.033X0.051*%
%ADD75R,0.047X0.031*%
%ADD76R,0.049X0.059*%
D21*
X2470Y1597D02*
D03*
Y1680D02*
D03*
X2890D02*
D03*
Y1597D02*
D03*
X2750Y1680D02*
D03*
Y1597D02*
D03*
X2610Y1680D02*
D03*
Y1597D02*
D03*
D25*
X960Y295D02*
D03*
X903D02*
D03*
X1626Y1695D02*
D03*
X1684D02*
D03*
X1221D02*
D03*
X1279D02*
D03*
X467D02*
D03*
X410D02*
D03*
X874D02*
D03*
X816D02*
D03*
D63*
X1930Y1945D02*
D03*
X2186D02*
D03*
X1930Y1768D02*
D03*
X2186D02*
D03*
X2370Y1942D02*
D03*
X2626D02*
D03*
X2370Y1765D02*
D03*
X2626D02*
D03*
X1876Y57D02*
D03*
Y313D02*
D03*
X2054Y57D02*
D03*
Y313D02*
D03*
D64*
X85Y930D02*
D03*
D65*
Y830D02*
D03*
Y730D02*
D03*
X185Y930D02*
D03*
Y830D02*
D03*
Y730D02*
D03*
D66*
X2560Y105D02*
D03*
Y223D02*
D03*
X2840Y488D02*
D03*
Y370D02*
D03*
X534Y234D02*
D03*
Y116D02*
D03*
X416Y234D02*
D03*
Y116D02*
D03*
X1631Y1766D02*
D03*
Y1884D02*
D03*
X1749Y1766D02*
D03*
Y1884D02*
D03*
X1226Y1766D02*
D03*
Y1884D02*
D03*
X1344Y1766D02*
D03*
Y1884D02*
D03*
X2840Y1085D02*
D03*
Y967D02*
D03*
X2722Y1085D02*
D03*
Y967D02*
D03*
X2840Y780D02*
D03*
Y662D02*
D03*
X2722Y780D02*
D03*
Y662D02*
D03*
X821Y1766D02*
D03*
Y1884D02*
D03*
X939Y1766D02*
D03*
Y1884D02*
D03*
X533Y1883D02*
D03*
Y1765D02*
D03*
X415Y1883D02*
D03*
Y1765D02*
D03*
D67*
X2525Y905D02*
D03*
Y805D02*
D03*
D68*
Y705D02*
D03*
D69*
X150Y1225D02*
D03*
D70*
X100D02*
D03*
X150Y1275D02*
D03*
X100D02*
D03*
X150Y1325D02*
D03*
X100D02*
D03*
X150Y1375D02*
D03*
X100D02*
D03*
X150Y1425D02*
D03*
X100D02*
D03*
D71*
X150Y1850D02*
D03*
X2850D02*
D03*
D72*
Y150D02*
D03*
X150D02*
D03*
D74*
X2247Y1820D02*
D03*
X2313D02*
D03*
X2247Y1890D02*
D03*
X2313D02*
D03*
X2027Y1820D02*
D03*
X2093D02*
D03*
X2027Y1890D02*
D03*
X2093D02*
D03*
X2873Y1205D02*
D03*
X2807D02*
D03*
D75*
X1750Y1646D02*
D03*
Y1705D02*
D03*
X1345Y1645D02*
D03*
Y1704D02*
D03*
X935Y1645D02*
D03*
Y1705D02*
D03*
X530Y1645D02*
D03*
Y1705D02*
D03*
D76*
X2619Y1265D02*
D03*
X2701D02*
D03*
X2619Y1330D02*
D03*
X2701D02*
D03*
X2619Y1395D02*
D03*
X2701D02*
D03*
X2619Y1460D02*
D03*
X2701D02*
D03*
M02*
