%TF.GenerationSoftware,Altium Limited,Altium Designer,19.1.8 (144)*%
G04 Layer_Physical_Order=1*
G04 Layer_Color=255*
%FSLAX23Y23*%
%MOIN*%
%TF.FileFunction,Copper,L1,Top,Signal*%
%TF.Part,Single*%
G01*
G75*
%TA.AperFunction,SMDPad,CuDef*%
G04:AMPARAMS|DCode=10|XSize=53mil|YSize=41mil|CornerRadius=0mil|HoleSize=0mil|Usage=FLASHONLY|Rotation=315.000|XOffset=0mil|YOffset=0mil|HoleType=Round|Shape=Rectangle|*
%AMROTATEDRECTD10*
4,1,4,-0.033,0.004,-0.004,0.033,0.033,-0.004,0.004,-0.033,-0.033,0.004,0.0*
%
%ADD10ROTATEDRECTD10*%

G04:AMPARAMS|DCode=11|XSize=53mil|YSize=42mil|CornerRadius=0mil|HoleSize=0mil|Usage=FLASHONLY|Rotation=315.000|XOffset=0mil|YOffset=0mil|HoleType=Round|Shape=Rectangle|*
%AMROTATEDRECTD11*
4,1,4,-0.034,0.004,-0.004,0.034,0.034,-0.004,0.004,-0.034,-0.034,0.004,0.0*
%
%ADD11ROTATEDRECTD11*%

%ADD12R,0.043X0.053*%
G04:AMPARAMS|DCode=13|XSize=61mil|YSize=57mil|CornerRadius=0mil|HoleSize=0mil|Usage=FLASHONLY|Rotation=315.000|XOffset=0mil|YOffset=0mil|HoleType=Round|Shape=Rectangle|*
%AMROTATEDRECTD13*
4,1,4,-0.042,0.001,-0.001,0.042,0.042,-0.001,0.001,-0.042,-0.042,0.001,0.0*
%
%ADD13ROTATEDRECTD13*%

G04:AMPARAMS|DCode=14|XSize=53mil|YSize=43mil|CornerRadius=0mil|HoleSize=0mil|Usage=FLASHONLY|Rotation=315.000|XOffset=0mil|YOffset=0mil|HoleType=Round|Shape=Rectangle|*
%AMROTATEDRECTD14*
4,1,4,-0.034,0.004,-0.004,0.034,0.034,-0.004,0.004,-0.034,-0.034,0.004,0.0*
%
%ADD14ROTATEDRECTD14*%

%ADD15R,0.053X0.043*%
%ADD16O,0.098X0.028*%
G04:AMPARAMS|DCode=17|XSize=39mil|YSize=45mil|CornerRadius=0mil|HoleSize=0mil|Usage=FLASHONLY|Rotation=315.000|XOffset=0mil|YOffset=0mil|HoleType=Round|Shape=Rectangle|*
%AMROTATEDRECTD17*
4,1,4,-0.030,-0.002,0.002,0.030,0.030,0.002,-0.002,-0.030,-0.030,-0.002,0.0*
%
%ADD17ROTATEDRECTD17*%

%ADD18R,0.059X0.024*%
%ADD19R,0.083X0.051*%
%ADD20R,0.030X0.050*%
%ADD21R,0.047X0.043*%
G04:AMPARAMS|DCode=22|XSize=22mil|YSize=69mil|CornerRadius=0mil|HoleSize=0mil|Usage=FLASHONLY|Rotation=225.000|XOffset=0mil|YOffset=0mil|HoleType=Round|Shape=Round|*
%AMOVALD22*
21,1,0.047,0.022,0.000,0.000,315.0*
1,1,0.022,-0.017,0.017*
1,1,0.022,0.017,-0.017*
%
%ADD22OVALD22*%

G04:AMPARAMS|DCode=23|XSize=22mil|YSize=69mil|CornerRadius=0mil|HoleSize=0mil|Usage=FLASHONLY|Rotation=315.000|XOffset=0mil|YOffset=0mil|HoleType=Round|Shape=Round|*
%AMOVALD23*
21,1,0.047,0.022,0.000,0.000,45.0*
1,1,0.022,-0.017,-0.017*
1,1,0.022,0.017,0.017*
%
%ADD23OVALD23*%

%TA.AperFunction,Conductor*%
%ADD24C,0.012*%
%TA.AperFunction,ComponentPad*%
%ADD25R,0.061X0.061*%
%ADD26C,0.061*%
%ADD27C,0.040*%
%ADD28R,0.040X0.040*%
%ADD29C,0.060*%
%ADD30C,0.059*%
%ADD31C,0.059*%
%ADD32R,0.059X0.059*%
%TA.AperFunction,ViaPad*%
%ADD33C,0.240*%
%ADD34C,0.025*%
G36*
X2842Y1990D02*
X2842Y1985D01*
X2829Y1984D01*
X2808Y1979D01*
X2789Y1971D01*
X2770Y1960D01*
X2754Y1946D01*
X2740Y1930D01*
X2729Y1911D01*
X2721Y1892D01*
X2716Y1871D01*
X2715Y1850D01*
X2716Y1829D01*
X2721Y1808D01*
X2729Y1789D01*
X2740Y1770D01*
X2754Y1754D01*
X2770Y1740D01*
X2789Y1729D01*
X2808Y1721D01*
X2829Y1716D01*
X2850Y1715D01*
X2871Y1716D01*
X2892Y1721D01*
X2911Y1729D01*
X2930Y1740D01*
X2946Y1754D01*
X2960Y1770D01*
X2971Y1789D01*
X2979Y1808D01*
X2984Y1829D01*
X2985Y1842D01*
X2990Y1842D01*
Y1666D01*
X2985Y1665D01*
X2983Y1667D01*
X2976Y1673D01*
X2967Y1676D01*
X2958Y1677D01*
X2949Y1676D01*
X2940Y1673D01*
X2933Y1667D01*
X2928Y1660D01*
X2924Y1651D01*
X2923Y1642D01*
X2924Y1633D01*
X2928Y1624D01*
X2933Y1617D01*
X2940Y1611D01*
X2949Y1608D01*
X2958Y1607D01*
X2967Y1608D01*
X2976Y1611D01*
X2983Y1617D01*
X2985Y1619D01*
X2990Y1618D01*
X2990Y1296D01*
X2985Y1294D01*
X2984Y1295D01*
X2977Y1301D01*
X2968Y1304D01*
X2959Y1305D01*
X2950Y1304D01*
X2942Y1301D01*
X2934Y1295D01*
X2929Y1288D01*
X2925Y1279D01*
X2924Y1270D01*
X2925Y1261D01*
X2929Y1252D01*
X2934Y1245D01*
X2942Y1239D01*
X2950Y1236D01*
X2959Y1235D01*
X2968Y1236D01*
X2977Y1239D01*
X2984Y1245D01*
X2985Y1246D01*
X2990Y1244D01*
Y931D01*
X2985Y929D01*
X2984Y930D01*
X2977Y936D01*
X2968Y939D01*
X2959Y940D01*
X2950Y939D01*
X2942Y936D01*
X2934Y930D01*
X2929Y923D01*
X2925Y914D01*
X2924Y905D01*
X2925Y896D01*
X2929Y887D01*
X2934Y880D01*
X2942Y874D01*
X2950Y871D01*
X2959Y870D01*
X2968Y871D01*
X2977Y874D01*
X2984Y880D01*
X2985Y881D01*
X2990Y879D01*
Y570D01*
X2985Y568D01*
X2981Y571D01*
X2972Y574D01*
X2963Y575D01*
X2954Y574D01*
X2945Y571D01*
X2938Y565D01*
X2933Y558D01*
X2929Y549D01*
X2928Y540D01*
X2929Y531D01*
X2933Y522D01*
X2938Y515D01*
X2945Y510D01*
X2954Y506D01*
X2963Y505D01*
X2972Y506D01*
X2981Y510D01*
X2985Y513D01*
X2990Y510D01*
Y158D01*
X2985Y158D01*
X2984Y171D01*
X2979Y192D01*
X2971Y211D01*
X2960Y230D01*
X2946Y246D01*
X2930Y260D01*
X2911Y271D01*
X2892Y279D01*
X2871Y284D01*
X2850Y285D01*
X2829Y284D01*
X2808Y279D01*
X2789Y271D01*
X2770Y260D01*
X2754Y246D01*
X2740Y230D01*
X2729Y211D01*
X2721Y192D01*
X2716Y171D01*
X2715Y150D01*
X2716Y129D01*
X2721Y108D01*
X2729Y89D01*
X2740Y70D01*
X2754Y54D01*
X2770Y40D01*
X2789Y29D01*
X2808Y21D01*
X2829Y16D01*
X2842Y15D01*
X2842Y10D01*
X158D01*
X158Y15D01*
X171Y16D01*
X192Y21D01*
X211Y29D01*
X230Y40D01*
X246Y54D01*
X260Y70D01*
X271Y89D01*
X279Y108D01*
X284Y129D01*
X285Y150D01*
X284Y171D01*
X279Y192D01*
X271Y211D01*
X260Y230D01*
X246Y246D01*
X230Y260D01*
X211Y271D01*
X192Y279D01*
X171Y284D01*
X150Y285D01*
X129Y284D01*
X108Y279D01*
X89Y271D01*
X70Y260D01*
X54Y246D01*
X40Y230D01*
X29Y211D01*
X21Y192D01*
X16Y171D01*
X15Y158D01*
X10Y158D01*
Y1601D01*
X15Y1602D01*
X17Y1600D01*
X24Y1595D01*
X33Y1591D01*
X42Y1590D01*
X51Y1591D01*
X60Y1595D01*
X67Y1600D01*
X72Y1607D01*
X76Y1616D01*
X77Y1625D01*
X76Y1634D01*
X72Y1643D01*
X67Y1650D01*
X60Y1656D01*
X51Y1659D01*
X42Y1660D01*
X33Y1659D01*
X24Y1656D01*
X17Y1650D01*
X15Y1648D01*
X10Y1650D01*
Y1842D01*
X15Y1842D01*
X16Y1829D01*
X21Y1808D01*
X29Y1789D01*
X40Y1770D01*
X54Y1754D01*
X70Y1740D01*
X89Y1729D01*
X108Y1721D01*
X129Y1716D01*
X150Y1715D01*
X171Y1716D01*
X192Y1721D01*
X211Y1729D01*
X230Y1740D01*
X246Y1754D01*
X260Y1770D01*
X271Y1789D01*
X279Y1808D01*
X284Y1829D01*
X285Y1850D01*
X284Y1871D01*
X279Y1892D01*
X271Y1911D01*
X260Y1930D01*
X246Y1946D01*
X230Y1960D01*
X211Y1971D01*
X192Y1979D01*
X171Y1984D01*
X158Y1985D01*
X158Y1990D01*
X2842Y1990D01*
D02*
G37*
%LPC*%
G36*
X1722Y1977D02*
X1700D01*
Y1950D01*
X1722D01*
Y1977D01*
D02*
G37*
G36*
X2495Y1900D02*
Y1870D01*
X2525D01*
X2524Y1871D01*
X2520Y1880D01*
X2514Y1889D01*
X2505Y1895D01*
X2496Y1899D01*
X2495Y1900D01*
D02*
G37*
G36*
X2475D02*
X2474Y1899D01*
X2465Y1895D01*
X2456Y1889D01*
X2450Y1880D01*
X2446Y1871D01*
X2445Y1870D01*
X2475D01*
Y1900D01*
D02*
G37*
G36*
X558Y1922D02*
X549Y1921D01*
X540Y1918D01*
X533Y1912D01*
X528Y1905D01*
X524Y1896D01*
X523Y1887D01*
X524Y1878D01*
X528Y1869D01*
X533Y1862D01*
X540Y1856D01*
X549Y1853D01*
X558Y1852D01*
X567Y1853D01*
X576Y1856D01*
X583Y1862D01*
X589Y1869D01*
X592Y1878D01*
X593Y1887D01*
X592Y1896D01*
X589Y1905D01*
X583Y1912D01*
X576Y1918D01*
X567Y1921D01*
X558Y1922D01*
D02*
G37*
G36*
X322D02*
X313Y1921D01*
X304Y1918D01*
X297Y1912D01*
X291Y1905D01*
X288Y1896D01*
X287Y1887D01*
X288Y1878D01*
X291Y1869D01*
X297Y1862D01*
X304Y1856D01*
X313Y1853D01*
X322Y1852D01*
X331Y1853D01*
X340Y1856D01*
X347Y1862D01*
X352Y1869D01*
X356Y1878D01*
X357Y1887D01*
X356Y1896D01*
X352Y1905D01*
X347Y1912D01*
X340Y1918D01*
X331Y1921D01*
X322Y1922D01*
D02*
G37*
G36*
X1927Y1933D02*
X1915Y1932D01*
X1905Y1927D01*
X1895Y1920D01*
X1888Y1911D01*
X1884Y1900D01*
X1882Y1889D01*
X1884Y1877D01*
X1888Y1866D01*
X1895Y1857D01*
X1905Y1850D01*
X1915Y1845D01*
X1927Y1844D01*
X1939Y1845D01*
X1949Y1850D01*
X1959Y1857D01*
X1966Y1866D01*
X1970Y1877D01*
X1972Y1889D01*
X1970Y1900D01*
X1966Y1911D01*
X1959Y1920D01*
X1949Y1927D01*
X1939Y1932D01*
X1927Y1933D01*
D02*
G37*
G36*
X900Y1851D02*
X859D01*
Y1836D01*
X780D01*
Y1851D01*
X739D01*
Y1815D01*
Y1779D01*
X780D01*
Y1794D01*
X859D01*
Y1779D01*
X900D01*
Y1815D01*
Y1851D01*
D02*
G37*
G36*
X1288Y1857D02*
Y1828D01*
X1317D01*
X1317Y1829D01*
X1313Y1838D01*
X1307Y1847D01*
X1298Y1853D01*
X1289Y1857D01*
X1288Y1857D01*
D02*
G37*
G36*
X1268D02*
X1268Y1857D01*
X1258Y1853D01*
X1250Y1847D01*
X1243Y1838D01*
X1239Y1829D01*
X1239Y1828D01*
X1268D01*
Y1857D01*
D02*
G37*
G36*
X961Y1851D02*
X920D01*
Y1825D01*
X961D01*
Y1851D01*
D02*
G37*
G36*
X719D02*
X678D01*
Y1825D01*
X719D01*
Y1851D01*
D02*
G37*
G36*
X1725Y1930D02*
X1700D01*
Y1895D01*
X1735Y1860D01*
Y1839D01*
X1721D01*
X1712Y1837D01*
X1704Y1832D01*
X1699Y1825D01*
X1756D01*
X1814D01*
X1809Y1832D01*
X1801Y1837D01*
X1792Y1839D01*
X1778D01*
Y1868D01*
X1776Y1877D01*
X1772Y1884D01*
X1725Y1930D01*
D02*
G37*
G36*
X2525Y1850D02*
X2495D01*
Y1820D01*
X2496Y1821D01*
X2505Y1825D01*
X2514Y1831D01*
X2520Y1840D01*
X2524Y1849D01*
X2525Y1850D01*
D02*
G37*
G36*
X2475D02*
X2445D01*
X2446Y1849D01*
X2450Y1840D01*
X2456Y1831D01*
X2465Y1825D01*
X2474Y1821D01*
X2475Y1820D01*
Y1850D01*
D02*
G37*
G36*
X1396Y1890D02*
X1387Y1889D01*
X1379Y1886D01*
X1371Y1880D01*
X1366Y1873D01*
X1362Y1864D01*
X1361Y1855D01*
X1362Y1846D01*
X1366Y1837D01*
X1371Y1830D01*
X1379Y1825D01*
X1387Y1821D01*
X1396Y1820D01*
X1405Y1821D01*
X1414Y1825D01*
X1421Y1830D01*
X1427Y1837D01*
X1430Y1846D01*
X1432Y1855D01*
X1430Y1864D01*
X1427Y1873D01*
X1421Y1880D01*
X1414Y1886D01*
X1405Y1889D01*
X1396Y1890D01*
D02*
G37*
G36*
X1042D02*
X1033Y1889D01*
X1024Y1886D01*
X1017Y1880D01*
X1011Y1873D01*
X1008Y1864D01*
X1007Y1855D01*
X1008Y1846D01*
X1011Y1837D01*
X1017Y1830D01*
X1024Y1825D01*
X1033Y1821D01*
X1042Y1820D01*
X1051Y1821D01*
X1060Y1825D01*
X1067Y1830D01*
X1072Y1837D01*
X1076Y1846D01*
X1077Y1855D01*
X1076Y1864D01*
X1072Y1873D01*
X1067Y1880D01*
X1060Y1886D01*
X1051Y1889D01*
X1042Y1890D01*
D02*
G37*
G36*
X2431Y1906D02*
X2339D01*
Y1814D01*
X2431D01*
Y1906D01*
D02*
G37*
G36*
X961Y1805D02*
X920D01*
Y1779D01*
X961D01*
Y1805D01*
D02*
G37*
G36*
X1317Y1808D02*
X1288D01*
Y1779D01*
X1289Y1779D01*
X1298Y1783D01*
X1307Y1790D01*
X1313Y1798D01*
X1317Y1808D01*
X1317Y1808D01*
D02*
G37*
G36*
X1268D02*
X1239D01*
X1239Y1808D01*
X1243Y1798D01*
X1250Y1790D01*
X1258Y1783D01*
X1268Y1779D01*
X1268Y1779D01*
Y1808D01*
D02*
G37*
G36*
X1160Y1863D02*
X1148Y1862D01*
X1137Y1857D01*
X1128Y1850D01*
X1121Y1841D01*
X1116Y1830D01*
X1115Y1818D01*
X1116Y1806D01*
X1121Y1795D01*
X1128Y1786D01*
X1137Y1779D01*
X1148Y1774D01*
X1160Y1773D01*
X1172Y1774D01*
X1183Y1779D01*
X1192Y1786D01*
X1199Y1795D01*
X1204Y1806D01*
X1205Y1818D01*
X1204Y1830D01*
X1199Y1841D01*
X1192Y1850D01*
X1183Y1857D01*
X1172Y1862D01*
X1160Y1863D01*
D02*
G37*
G36*
X719Y1805D02*
X675D01*
X674Y1804D01*
X672Y1795D01*
Y1791D01*
X660Y1779D01*
Y1754D01*
X695D01*
X709Y1767D01*
X713Y1774D01*
X714Y1779D01*
X719D01*
Y1805D01*
D02*
G37*
G36*
X640Y1775D02*
X613D01*
Y1754D01*
X640D01*
Y1775D01*
D02*
G37*
G36*
X2183Y1933D02*
X2171Y1932D01*
X2161Y1927D01*
X2151Y1920D01*
X2144Y1911D01*
X2140Y1900D01*
X2138Y1889D01*
X2140Y1877D01*
X2144Y1866D01*
X2151Y1857D01*
X2161Y1850D01*
X2171Y1845D01*
X2183Y1844D01*
X2195Y1845D01*
X2201Y1848D01*
X2213Y1836D01*
Y1792D01*
Y1764D01*
X2201Y1752D01*
X2195Y1755D01*
X2183Y1756D01*
X2171Y1755D01*
X2161Y1750D01*
X2151Y1743D01*
X2144Y1734D01*
X2140Y1723D01*
X2138Y1711D01*
X2140Y1700D01*
X2144Y1689D01*
X2151Y1680D01*
X2161Y1673D01*
X2171Y1668D01*
X2183Y1667D01*
X2195Y1668D01*
X2205Y1673D01*
X2215Y1680D01*
X2222Y1689D01*
X2226Y1700D01*
X2228Y1711D01*
X2227Y1717D01*
X2245Y1735D01*
X2297D01*
Y1792D01*
Y1865D01*
X2245D01*
X2227Y1883D01*
X2228Y1889D01*
X2226Y1900D01*
X2222Y1911D01*
X2215Y1920D01*
X2205Y1927D01*
X2195Y1932D01*
X2183Y1933D01*
D02*
G37*
G36*
X2485Y1806D02*
X2473Y1804D01*
X2462Y1800D01*
X2453Y1792D01*
X2445Y1783D01*
X2441Y1772D01*
X2439Y1760D01*
X2441Y1748D01*
X2441Y1747D01*
X2429Y1734D01*
X2425Y1737D01*
X2429Y1748D01*
X2431Y1760D01*
X2429Y1772D01*
X2425Y1783D01*
X2417Y1792D01*
X2408Y1800D01*
X2397Y1804D01*
X2385Y1806D01*
X2373Y1804D01*
X2362Y1800D01*
X2353Y1792D01*
X2345Y1783D01*
X2341Y1772D01*
X2339Y1760D01*
X2341Y1748D01*
X2341Y1747D01*
X2135Y1540D01*
X1929D01*
Y1649D01*
X1927Y1658D01*
X1924Y1662D01*
X1927Y1667D01*
X1939Y1668D01*
X1949Y1673D01*
X1959Y1680D01*
X1966Y1689D01*
X1970Y1700D01*
X1972Y1711D01*
X1970Y1723D01*
X1966Y1734D01*
X1959Y1743D01*
X1949Y1750D01*
X1939Y1755D01*
X1927Y1756D01*
X1915Y1755D01*
X1905Y1750D01*
X1895Y1743D01*
X1888Y1734D01*
X1884Y1723D01*
X1882Y1712D01*
X1879Y1710D01*
X1878Y1709D01*
X1821Y1766D01*
X1820Y1773D01*
X1817Y1780D01*
X1812Y1786D01*
X1806Y1790D01*
X1806Y1796D01*
X1809Y1798D01*
X1814Y1805D01*
X1756D01*
X1699D01*
X1704Y1798D01*
X1707Y1796D01*
X1707Y1790D01*
X1700Y1786D01*
X1696Y1780D01*
X1693Y1773D01*
X1692Y1765D01*
X1693Y1757D01*
X1696Y1750D01*
X1700Y1744D01*
X1703Y1742D01*
Y1737D01*
X1700Y1736D01*
X1696Y1730D01*
X1693Y1723D01*
X1692Y1715D01*
X1693Y1707D01*
X1696Y1700D01*
X1700Y1694D01*
X1703Y1692D01*
Y1688D01*
X1700Y1686D01*
X1696Y1680D01*
X1693Y1673D01*
X1692Y1665D01*
X1693Y1657D01*
X1696Y1650D01*
X1700Y1644D01*
X1707Y1640D01*
X1714Y1637D01*
X1721Y1636D01*
X1735D01*
Y1510D01*
X1612Y1388D01*
X1606Y1389D01*
X1603Y1393D01*
X1598Y1397D01*
X1592Y1400D01*
X1588Y1400D01*
X1588Y1403D01*
X1585Y1410D01*
X1581Y1415D01*
X1576Y1419D01*
X1569Y1422D01*
X1563Y1423D01*
X1556Y1422D01*
X1550Y1419D01*
X1544Y1415D01*
X1511Y1382D01*
X1507Y1376D01*
X1504Y1370D01*
X1503Y1363D01*
X1504Y1357D01*
X1507Y1350D01*
X1511Y1345D01*
X1516Y1341D01*
X1522Y1338D01*
X1526Y1338D01*
X1526Y1334D01*
X1529Y1328D01*
X1533Y1323D01*
X1538Y1318D01*
X1545Y1316D01*
X1548Y1315D01*
X1549Y1312D01*
X1551Y1306D01*
X1555Y1300D01*
X1561Y1296D01*
X1567Y1294D01*
X1570Y1293D01*
X1571Y1290D01*
X1573Y1283D01*
X1578Y1278D01*
X1583Y1274D01*
X1589Y1271D01*
X1593Y1271D01*
X1593Y1267D01*
X1596Y1261D01*
X1600Y1256D01*
X1605Y1252D01*
X1612Y1249D01*
X1615Y1249D01*
X1615Y1245D01*
X1618Y1239D01*
X1622Y1234D01*
X1628Y1229D01*
X1634Y1227D01*
X1637Y1226D01*
X1638Y1223D01*
X1640Y1217D01*
X1644Y1211D01*
X1650Y1207D01*
X1656Y1205D01*
X1660Y1204D01*
X1660Y1201D01*
X1663Y1194D01*
X1667Y1189D01*
X1672Y1185D01*
X1678Y1182D01*
X1682Y1182D01*
X1682Y1178D01*
X1685Y1172D01*
X1689Y1167D01*
X1694Y1163D01*
X1701Y1160D01*
X1704Y1160D01*
X1705Y1156D01*
X1707Y1150D01*
X1711Y1144D01*
X1717Y1140D01*
X1723Y1138D01*
X1726Y1137D01*
X1727Y1134D01*
X1729Y1128D01*
X1734Y1122D01*
X1739Y1118D01*
X1745Y1115D01*
X1749Y1115D01*
X1749Y1112D01*
X1752Y1105D01*
X1756Y1100D01*
X1761Y1096D01*
X1767Y1093D01*
X1771Y1093D01*
X1771Y1089D01*
X1774Y1083D01*
X1778Y1078D01*
X1783Y1073D01*
X1790Y1071D01*
X1793Y1070D01*
X1794Y1067D01*
X1796Y1061D01*
X1800Y1055D01*
X1806Y1051D01*
X1812Y1049D01*
X1815Y1048D01*
X1816Y1045D01*
X1818Y1038D01*
X1823Y1033D01*
X1828Y1029D01*
X1834Y1026D01*
X1838Y1026D01*
X1838Y1022D01*
X1841Y1016D01*
X1845Y1011D01*
X1850Y1007D01*
X1857Y1004D01*
X1863Y1003D01*
X1870Y1004D01*
X1876Y1007D01*
X1882Y1011D01*
X1915Y1044D01*
X1919Y1050D01*
X1922Y1056D01*
X1923Y1063D01*
X1922Y1069D01*
X1919Y1076D01*
X1915Y1081D01*
X1912Y1083D01*
X1912Y1085D01*
X1913Y1089D01*
X1919Y1091D01*
X1925Y1095D01*
X1929Y1101D01*
X1932Y1108D01*
X1933Y1115D01*
X1932Y1122D01*
X1929Y1129D01*
X1925Y1135D01*
X1920Y1138D01*
X1919Y1144D01*
X2131Y1356D01*
X2136Y1363D01*
X2137Y1371D01*
Y1445D01*
X2337Y1644D01*
X2343Y1643D01*
X2345Y1637D01*
X2353Y1628D01*
X2362Y1620D01*
X2364Y1620D01*
Y1013D01*
X2365Y1005D01*
X2370Y998D01*
X2494Y874D01*
Y531D01*
X2490Y529D01*
X2266Y752D01*
Y935D01*
X2245D01*
Y945D01*
X2235D01*
Y965D01*
X2229Y961D01*
X2224Y955D01*
X2211Y941D01*
X2205Y947D01*
X2189Y931D01*
X2210Y910D01*
X2203Y903D01*
X2210Y896D01*
X2187Y873D01*
X2201Y859D01*
X2219Y877D01*
X2224Y875D01*
Y744D01*
X2225Y735D01*
X2230Y728D01*
X2474Y484D01*
Y356D01*
X2413D01*
Y341D01*
X2353D01*
X2350Y345D01*
X2343Y351D01*
X2334Y354D01*
X2325Y355D01*
X2316Y354D01*
X2313Y353D01*
X2310Y355D01*
Y355D01*
X2240D01*
Y341D01*
X2211D01*
X1808Y744D01*
X1808Y749D01*
X1810Y750D01*
X1814Y756D01*
X1817Y763D01*
X1818Y770D01*
X1822Y773D01*
X1827Y773D01*
X1834Y776D01*
X1840Y780D01*
X1844Y786D01*
X1847Y793D01*
X1847Y798D01*
X1850Y797D01*
X1857Y798D01*
X1864Y801D01*
X1870Y805D01*
X1874Y811D01*
X1877Y818D01*
X1878Y825D01*
X1880Y827D01*
X1887Y828D01*
X1894Y831D01*
X1900Y835D01*
X1904Y841D01*
X1905Y843D01*
X1910Y844D01*
X1958Y795D01*
X2001Y837D01*
X2048Y790D01*
X2090Y831D01*
X2135Y786D01*
X2188Y839D01*
X2139Y888D01*
X2136Y886D01*
X2082Y940D01*
X2071Y930D01*
X2045Y955D01*
X2038Y960D01*
X2030Y962D01*
X1933D01*
X1925Y960D01*
X1923Y959D01*
X1912D01*
X1882Y989D01*
X1876Y993D01*
X1870Y996D01*
X1863Y997D01*
X1857Y996D01*
X1850Y993D01*
X1845Y989D01*
X1841Y984D01*
X1838Y978D01*
X1838Y974D01*
X1834Y974D01*
X1828Y971D01*
X1823Y967D01*
X1818Y962D01*
X1816Y955D01*
X1815Y952D01*
X1812Y951D01*
X1806Y949D01*
X1800Y945D01*
X1796Y939D01*
X1794Y933D01*
X1793Y930D01*
X1790Y929D01*
X1783Y927D01*
X1778Y922D01*
X1774Y917D01*
X1771Y911D01*
X1771Y907D01*
X1767Y907D01*
X1761Y904D01*
X1756Y900D01*
X1752Y895D01*
X1749Y888D01*
X1749Y885D01*
X1745Y885D01*
X1739Y882D01*
X1734Y878D01*
X1729Y872D01*
X1727Y866D01*
X1726Y863D01*
X1723Y862D01*
X1717Y860D01*
X1711Y856D01*
X1707Y850D01*
X1705Y844D01*
X1704Y840D01*
X1701Y840D01*
X1694Y837D01*
X1689Y833D01*
X1685Y828D01*
X1682Y822D01*
X1682Y818D01*
X1678Y818D01*
X1672Y815D01*
X1667Y811D01*
X1663Y806D01*
X1660Y799D01*
X1660Y796D01*
X1656Y795D01*
X1650Y793D01*
X1644Y789D01*
X1640Y783D01*
X1638Y777D01*
X1637Y774D01*
X1634Y773D01*
X1628Y771D01*
X1622Y766D01*
X1618Y761D01*
X1615Y755D01*
X1615Y751D01*
X1612Y751D01*
X1605Y748D01*
X1600Y744D01*
X1596Y739D01*
X1593Y733D01*
X1592Y726D01*
X1592Y724D01*
X1590Y724D01*
X1593Y721D01*
X1593Y719D01*
X1596Y713D01*
X1600Y707D01*
X1617Y691D01*
X1609Y683D01*
X1592Y700D01*
X1587Y704D01*
X1581Y706D01*
X1579Y707D01*
X1576Y709D01*
X1576Y707D01*
X1574Y707D01*
X1567Y706D01*
X1561Y704D01*
X1555Y700D01*
X1551Y694D01*
X1549Y688D01*
X1548Y685D01*
X1545Y684D01*
X1538Y682D01*
X1533Y677D01*
X1529Y672D01*
X1526Y666D01*
X1526Y662D01*
X1522Y662D01*
X1516Y659D01*
X1511Y655D01*
X1507Y650D01*
X1504Y643D01*
X1503Y637D01*
X1504Y630D01*
X1507Y624D01*
X1511Y618D01*
X1541Y588D01*
Y152D01*
X1541Y151D01*
Y100D01*
X1619D01*
Y173D01*
X1584D01*
Y223D01*
X1589Y224D01*
X1671Y141D01*
Y98D01*
X1749D01*
Y172D01*
X1702D01*
X1625Y248D01*
Y311D01*
X1630Y313D01*
X1801Y141D01*
Y98D01*
X1879D01*
Y172D01*
X1832D01*
X1645Y358D01*
Y566D01*
X1650Y568D01*
X1679Y538D01*
X1677Y534D01*
X1677Y533D01*
X1695Y515D01*
X1718Y537D01*
X1732Y523D01*
X1705Y496D01*
X1706Y491D01*
X1711Y484D01*
X1716Y478D01*
X1704Y466D01*
X1726Y445D01*
X1753Y472D01*
X1767Y458D01*
X1740Y431D01*
X1761Y409D01*
X1788Y436D01*
X1794Y431D01*
X1787Y424D01*
X1806Y405D01*
X1828Y427D01*
X1835Y420D01*
X1842Y427D01*
X1868Y401D01*
X1876Y409D01*
X1879Y406D01*
X1917Y444D01*
X2240Y121D01*
X2240Y120D01*
X2241Y111D01*
X2244Y102D01*
X2250Y95D01*
X2257Y89D01*
X2266Y86D01*
X2275Y85D01*
X2284Y86D01*
X2293Y89D01*
X2296Y92D01*
X2300Y95D01*
X2304Y92D01*
X2307Y89D01*
X2316Y86D01*
X2325Y85D01*
X2334Y86D01*
X2343Y89D01*
X2350Y95D01*
X2356Y102D01*
X2359Y111D01*
X2360Y120D01*
X2359Y129D01*
X2356Y138D01*
X2350Y145D01*
Y145D01*
X2356Y152D01*
X2359Y161D01*
X2360Y170D01*
X2359Y179D01*
X2356Y188D01*
X2353Y191D01*
X2350Y195D01*
X2352Y197D01*
X2353Y199D01*
X2480D01*
X2488Y200D01*
X2495Y205D01*
X2531Y240D01*
X2535Y247D01*
X2537Y256D01*
Y883D01*
X2535Y891D01*
X2531Y898D01*
X2406Y1022D01*
Y1620D01*
X2408Y1620D01*
X2417Y1628D01*
X2425Y1637D01*
X2429Y1648D01*
X2431Y1660D01*
X2429Y1672D01*
X2427Y1678D01*
X2429Y1683D01*
X2430Y1683D01*
X2438Y1685D01*
X2443Y1688D01*
X2447Y1685D01*
X2445Y1683D01*
X2441Y1672D01*
X2439Y1660D01*
X2441Y1648D01*
X2445Y1637D01*
X2453Y1628D01*
X2462Y1620D01*
X2473Y1616D01*
X2485Y1614D01*
X2497Y1616D01*
X2508Y1620D01*
X2517Y1628D01*
X2525Y1637D01*
X2529Y1648D01*
X2531Y1660D01*
X2529Y1672D01*
X2525Y1683D01*
X2517Y1692D01*
X2508Y1700D01*
X2497Y1704D01*
X2485Y1706D01*
X2473Y1704D01*
X2462Y1700D01*
X2459Y1704D01*
X2472Y1716D01*
X2473Y1716D01*
X2485Y1714D01*
X2497Y1716D01*
X2508Y1720D01*
X2517Y1728D01*
X2525Y1737D01*
X2529Y1748D01*
X2531Y1760D01*
X2529Y1772D01*
X2525Y1783D01*
X2517Y1792D01*
X2508Y1800D01*
X2497Y1804D01*
X2485Y1806D01*
D02*
G37*
G36*
X1278Y1745D02*
X1266Y1744D01*
X1255Y1739D01*
X1246Y1732D01*
X1239Y1723D01*
X1234Y1712D01*
X1233Y1700D01*
X1234Y1688D01*
X1239Y1677D01*
X1246Y1668D01*
X1255Y1661D01*
X1266Y1656D01*
X1278Y1655D01*
X1290Y1656D01*
X1301Y1661D01*
X1310Y1668D01*
X1317Y1677D01*
X1322Y1688D01*
X1323Y1700D01*
X1322Y1712D01*
X1317Y1723D01*
X1310Y1732D01*
X1301Y1739D01*
X1290Y1744D01*
X1278Y1745D01*
D02*
G37*
G36*
X1160D02*
X1148Y1744D01*
X1137Y1739D01*
X1128Y1732D01*
X1121Y1723D01*
X1116Y1712D01*
X1115Y1700D01*
X1116Y1688D01*
X1121Y1677D01*
X1128Y1668D01*
X1137Y1661D01*
X1148Y1656D01*
X1160Y1655D01*
X1172Y1656D01*
X1183Y1661D01*
X1192Y1668D01*
X1199Y1677D01*
X1204Y1688D01*
X1205Y1700D01*
X1204Y1712D01*
X1199Y1723D01*
X1192Y1732D01*
X1183Y1739D01*
X1172Y1744D01*
X1160Y1745D01*
D02*
G37*
G36*
X2850Y1644D02*
Y1615D01*
X2879D01*
X2879Y1615D01*
X2875Y1625D01*
X2869Y1634D01*
X2860Y1640D01*
X2850Y1644D01*
X2850Y1644D01*
D02*
G37*
G36*
X2830D02*
X2830Y1644D01*
X2820Y1640D01*
X2811Y1634D01*
X2805Y1625D01*
X2801Y1615D01*
X2801Y1615D01*
X2830D01*
Y1644D01*
D02*
G37*
G36*
X2604Y1677D02*
X2595Y1676D01*
X2586Y1673D01*
X2579Y1667D01*
X2573Y1660D01*
X2570Y1651D01*
X2568Y1642D01*
X2570Y1633D01*
X2573Y1624D01*
X2579Y1617D01*
X2586Y1611D01*
X2595Y1608D01*
X2604Y1607D01*
X2613Y1608D01*
X2621Y1611D01*
X2629Y1617D01*
X2634Y1624D01*
X2638Y1633D01*
X2639Y1642D01*
X2638Y1651D01*
X2634Y1660D01*
X2629Y1667D01*
X2621Y1673D01*
X2613Y1676D01*
X2604Y1677D01*
D02*
G37*
G36*
X278Y1660D02*
X269Y1659D01*
X260Y1656D01*
X253Y1650D01*
X248Y1643D01*
X244Y1634D01*
X243Y1625D01*
X244Y1616D01*
X248Y1607D01*
X253Y1600D01*
X260Y1595D01*
X269Y1591D01*
X278Y1590D01*
X287Y1591D01*
X296Y1595D01*
X303Y1600D01*
X309Y1607D01*
X312Y1616D01*
X313Y1625D01*
X312Y1634D01*
X309Y1643D01*
X303Y1650D01*
X296Y1656D01*
X287Y1659D01*
X278Y1660D01*
D02*
G37*
G36*
X2879Y1595D02*
X2850D01*
Y1566D01*
X2850Y1566D01*
X2860Y1570D01*
X2869Y1576D01*
X2875Y1585D01*
X2879Y1595D01*
X2879Y1595D01*
D02*
G37*
G36*
X2830D02*
X2801D01*
X2801Y1595D01*
X2805Y1585D01*
X2811Y1576D01*
X2820Y1570D01*
X2830Y1566D01*
X2830Y1566D01*
Y1595D01*
D02*
G37*
G36*
X2722Y1650D02*
X2710Y1649D01*
X2699Y1644D01*
X2690Y1637D01*
X2683Y1628D01*
X2678Y1617D01*
X2677Y1605D01*
X2678Y1593D01*
X2683Y1582D01*
X2690Y1573D01*
X2699Y1566D01*
X2710Y1561D01*
X2722Y1560D01*
X2734Y1561D01*
X2745Y1566D01*
X2754Y1573D01*
X2761Y1582D01*
X2766Y1593D01*
X2767Y1605D01*
X2766Y1617D01*
X2761Y1628D01*
X2754Y1637D01*
X2745Y1644D01*
X2734Y1649D01*
X2722Y1650D01*
D02*
G37*
G36*
X2840Y1532D02*
X2828Y1531D01*
X2817Y1526D01*
X2808Y1519D01*
X2801Y1510D01*
X2796Y1499D01*
X2795Y1487D01*
X2796Y1475D01*
X2801Y1464D01*
X2808Y1455D01*
X2817Y1448D01*
X2828Y1443D01*
X2840Y1442D01*
X2852Y1443D01*
X2863Y1448D01*
X2872Y1455D01*
X2879Y1464D01*
X2884Y1475D01*
X2885Y1487D01*
X2884Y1499D01*
X2879Y1510D01*
X2872Y1519D01*
X2863Y1526D01*
X2852Y1531D01*
X2840Y1532D01*
D02*
G37*
G36*
X2722D02*
X2710Y1531D01*
X2699Y1526D01*
X2690Y1519D01*
X2683Y1510D01*
X2678Y1499D01*
X2677Y1487D01*
X2678Y1475D01*
X2683Y1464D01*
X2690Y1455D01*
X2699Y1448D01*
X2710Y1443D01*
X2722Y1442D01*
X2734Y1443D01*
X2745Y1448D01*
X2754Y1455D01*
X2761Y1464D01*
X2766Y1475D01*
X2767Y1487D01*
X2766Y1499D01*
X2761Y1510D01*
X2754Y1519D01*
X2745Y1526D01*
X2734Y1531D01*
X2722Y1532D01*
D02*
G37*
G36*
X1669Y1982D02*
X1596D01*
Y1941D01*
X1547D01*
X1539Y1939D01*
X1532Y1935D01*
X1438Y1841D01*
X1434Y1834D01*
X1432Y1826D01*
Y1754D01*
X1434Y1746D01*
X1438Y1739D01*
X1477Y1700D01*
X1484Y1695D01*
X1493Y1694D01*
X1509D01*
X1510Y1692D01*
Y1688D01*
X1508Y1686D01*
X1503Y1680D01*
X1500Y1673D01*
X1499Y1665D01*
X1500Y1657D01*
X1503Y1650D01*
X1508Y1644D01*
X1511Y1642D01*
X1511Y1636D01*
X1260Y1385D01*
X976Y1670D01*
X969Y1674D01*
X960Y1676D01*
X863D01*
X855Y1674D01*
X848Y1670D01*
X834Y1656D01*
X748D01*
X746Y1656D01*
X713D01*
X713Y1656D01*
X709Y1663D01*
X692Y1680D01*
Y1723D01*
X687D01*
Y1734D01*
X613D01*
Y1723D01*
X608D01*
Y1650D01*
X661D01*
X672Y1639D01*
Y1635D01*
X673Y1633D01*
Y1574D01*
X785D01*
Y1613D01*
X843D01*
X849Y1614D01*
X854Y1611D01*
Y1574D01*
X918D01*
X936Y1556D01*
X934Y1551D01*
X651D01*
X483Y1719D01*
X484Y1720D01*
X485Y1732D01*
X484Y1744D01*
X479Y1755D01*
X472Y1764D01*
X463Y1771D01*
X456Y1774D01*
X455Y1777D01*
X456Y1780D01*
X460Y1786D01*
X461Y1794D01*
Y1810D01*
X463Y1811D01*
X472Y1818D01*
X479Y1827D01*
X484Y1838D01*
X485Y1850D01*
X484Y1862D01*
X479Y1873D01*
X472Y1882D01*
X463Y1889D01*
X452Y1894D01*
X440Y1895D01*
X428Y1894D01*
X417Y1889D01*
X408Y1882D01*
X401Y1873D01*
X396Y1862D01*
X395Y1850D01*
X396Y1838D01*
X401Y1827D01*
X408Y1818D01*
X417Y1811D01*
X419Y1810D01*
Y1803D01*
X370Y1754D01*
X365Y1747D01*
X364Y1739D01*
Y1635D01*
X365Y1627D01*
X370Y1620D01*
X474Y1516D01*
X472Y1511D01*
X267D01*
X203Y1575D01*
X204Y1576D01*
X205Y1588D01*
X204Y1600D01*
X199Y1611D01*
X192Y1620D01*
X183Y1627D01*
X172Y1632D01*
X160Y1633D01*
X148Y1632D01*
X137Y1627D01*
X128Y1620D01*
X121Y1611D01*
X116Y1600D01*
X115Y1588D01*
X116Y1576D01*
X121Y1565D01*
X128Y1556D01*
X137Y1549D01*
X148Y1544D01*
X160Y1543D01*
X172Y1544D01*
X173Y1545D01*
X222Y1496D01*
X220Y1491D01*
X200D01*
X199Y1493D01*
X192Y1502D01*
X183Y1509D01*
X172Y1514D01*
X160Y1515D01*
X148Y1514D01*
X137Y1509D01*
X128Y1502D01*
X121Y1493D01*
X116Y1482D01*
X115Y1470D01*
X116Y1458D01*
X121Y1447D01*
X128Y1438D01*
X137Y1431D01*
X148Y1426D01*
X160Y1425D01*
X172Y1426D01*
X183Y1431D01*
X192Y1438D01*
X199Y1447D01*
X200Y1449D01*
X865D01*
X1157Y1157D01*
X1156Y1151D01*
X1152Y1148D01*
X1149Y1144D01*
X1143Y1143D01*
X895Y1390D01*
X888Y1395D01*
X880Y1396D01*
X513D01*
X505Y1395D01*
X498Y1390D01*
X460Y1352D01*
X401D01*
Y1298D01*
Y1248D01*
X402D01*
X406Y1247D01*
Y1235D01*
X446D01*
Y1215D01*
X406D01*
Y1203D01*
X402Y1202D01*
X401D01*
Y1148D01*
X490D01*
Y1154D01*
X540D01*
X604Y1090D01*
X611Y1085D01*
X619Y1084D01*
X1081D01*
X1083Y1079D01*
X1081Y1076D01*
X1078Y1069D01*
X1077Y1063D01*
X1078Y1056D01*
X1081Y1050D01*
X1085Y1044D01*
X1118Y1011D01*
X1124Y1007D01*
X1130Y1004D01*
X1137Y1003D01*
X1143Y1004D01*
X1150Y1007D01*
X1155Y1011D01*
X1159Y1016D01*
X1162Y1022D01*
X1162Y1026D01*
X1166Y1026D01*
X1172Y1029D01*
X1177Y1033D01*
X1182Y1038D01*
X1184Y1045D01*
X1185Y1048D01*
X1188Y1049D01*
X1194Y1051D01*
X1200Y1055D01*
X1204Y1061D01*
X1206Y1067D01*
X1207Y1070D01*
X1210Y1071D01*
X1217Y1073D01*
X1222Y1078D01*
X1226Y1083D01*
X1229Y1089D01*
X1229Y1093D01*
X1233Y1093D01*
X1239Y1096D01*
X1244Y1100D01*
X1248Y1105D01*
X1251Y1112D01*
X1251Y1115D01*
X1255Y1115D01*
X1261Y1118D01*
X1266Y1122D01*
X1271Y1128D01*
X1273Y1134D01*
X1274Y1137D01*
X1277Y1138D01*
X1283Y1140D01*
X1289Y1144D01*
X1293Y1150D01*
X1295Y1156D01*
X1296Y1160D01*
X1299Y1160D01*
X1306Y1163D01*
X1311Y1167D01*
X1315Y1172D01*
X1318Y1178D01*
X1318Y1182D01*
X1322Y1182D01*
X1328Y1185D01*
X1333Y1189D01*
X1337Y1194D01*
X1340Y1201D01*
X1340Y1204D01*
X1344Y1205D01*
X1350Y1207D01*
X1356Y1211D01*
X1360Y1217D01*
X1362Y1223D01*
X1363Y1226D01*
X1366Y1227D01*
X1372Y1229D01*
X1378Y1234D01*
X1382Y1239D01*
X1385Y1245D01*
X1385Y1252D01*
X1385Y1254D01*
X1388Y1254D01*
X1385Y1257D01*
X1385Y1259D01*
X1382Y1265D01*
X1378Y1270D01*
X1361Y1287D01*
X1369Y1295D01*
X1386Y1278D01*
X1391Y1274D01*
X1397Y1271D01*
X1399Y1271D01*
X1402Y1268D01*
X1402Y1271D01*
X1404Y1270D01*
X1411Y1271D01*
X1417Y1274D01*
X1422Y1278D01*
X1427Y1283D01*
X1429Y1290D01*
X1430Y1293D01*
X1433Y1294D01*
X1439Y1296D01*
X1445Y1300D01*
X1449Y1306D01*
X1451Y1312D01*
X1452Y1315D01*
X1455Y1316D01*
X1462Y1318D01*
X1467Y1323D01*
X1471Y1328D01*
X1474Y1334D01*
X1474Y1338D01*
X1478Y1338D01*
X1484Y1341D01*
X1489Y1345D01*
X1493Y1350D01*
X1496Y1357D01*
X1497Y1363D01*
X1496Y1370D01*
X1493Y1376D01*
X1489Y1382D01*
X1456Y1415D01*
X1450Y1419D01*
X1444Y1422D01*
X1437Y1423D01*
X1431Y1422D01*
X1424Y1419D01*
X1419Y1415D01*
X1415Y1410D01*
X1412Y1403D01*
X1412Y1400D01*
X1408Y1400D01*
X1402Y1397D01*
X1397Y1393D01*
X1393Y1387D01*
X1390Y1381D01*
X1389Y1378D01*
X1386Y1377D01*
X1382Y1376D01*
X1378Y1377D01*
X1376Y1378D01*
X1374Y1384D01*
X1370Y1390D01*
X1364Y1394D01*
X1357Y1397D01*
X1350Y1398D01*
X1343Y1397D01*
X1336Y1394D01*
X1333Y1398D01*
X1549Y1614D01*
X1554Y1621D01*
X1556Y1629D01*
Y1636D01*
X1599D01*
X1606Y1637D01*
X1613Y1640D01*
X1620Y1644D01*
X1624Y1650D01*
X1627Y1657D01*
X1628Y1665D01*
X1627Y1673D01*
X1624Y1680D01*
X1620Y1686D01*
X1617Y1688D01*
Y1692D01*
X1620Y1694D01*
X1624Y1700D01*
X1627Y1707D01*
X1628Y1715D01*
X1627Y1723D01*
X1624Y1730D01*
X1620Y1736D01*
X1617Y1737D01*
Y1742D01*
X1620Y1744D01*
X1624Y1750D01*
X1627Y1757D01*
X1628Y1765D01*
X1627Y1773D01*
X1624Y1780D01*
X1620Y1786D01*
X1617Y1788D01*
Y1793D01*
X1620Y1794D01*
X1624Y1800D01*
X1627Y1807D01*
X1628Y1815D01*
X1627Y1823D01*
X1624Y1830D01*
X1620Y1836D01*
X1613Y1840D01*
X1606Y1843D01*
X1599Y1844D01*
X1528D01*
X1521Y1843D01*
X1514Y1840D01*
X1509Y1836D01*
X1501D01*
X1499Y1841D01*
X1556Y1898D01*
X1617D01*
X1619Y1898D01*
X1669D01*
Y1903D01*
X1680D01*
Y1940D01*
Y1977D01*
X1669D01*
Y1982D01*
D02*
G37*
G36*
X350Y1320D02*
X338Y1318D01*
X328Y1314D01*
X318Y1307D01*
X311Y1297D01*
X307Y1287D01*
X303D01*
X298Y1286D01*
X294Y1287D01*
X292Y1290D01*
X289Y1297D01*
X282Y1307D01*
X272Y1314D01*
X262Y1318D01*
X250Y1320D01*
X238Y1318D01*
X228Y1314D01*
X218Y1307D01*
X211Y1297D01*
X207Y1287D01*
X205Y1275D01*
X207Y1263D01*
X211Y1253D01*
X218Y1243D01*
X228Y1236D01*
X233Y1234D01*
X235Y1228D01*
X90Y1084D01*
X86Y1077D01*
X84Y1068D01*
Y495D01*
X86Y486D01*
X90Y479D01*
X106Y463D01*
X106Y462D01*
X104Y450D01*
X106Y438D01*
X110Y427D01*
X118Y418D01*
X127Y410D01*
X138Y406D01*
X150Y404D01*
X162Y406D01*
X173Y410D01*
X182Y418D01*
X190Y427D01*
X194Y438D01*
X196Y450D01*
X194Y462D01*
X190Y473D01*
X182Y482D01*
X173Y490D01*
X162Y494D01*
X150Y496D01*
X138Y494D01*
X137Y494D01*
X130Y501D01*
X130Y504D01*
X135Y507D01*
X138Y506D01*
X150Y504D01*
X162Y506D01*
X173Y510D01*
X182Y518D01*
X190Y527D01*
X194Y538D01*
X196Y550D01*
X194Y562D01*
X190Y573D01*
X182Y582D01*
X173Y590D01*
X162Y594D01*
X150Y596D01*
X138Y594D01*
X132Y592D01*
X127Y595D01*
Y605D01*
X132Y608D01*
X138Y606D01*
X150Y604D01*
X162Y606D01*
X173Y610D01*
X182Y618D01*
X190Y627D01*
X194Y638D01*
X196Y650D01*
X194Y662D01*
X190Y673D01*
X182Y682D01*
X173Y690D01*
X162Y694D01*
X150Y696D01*
X138Y694D01*
X132Y692D01*
X127Y695D01*
Y705D01*
X132Y708D01*
X138Y706D01*
X150Y704D01*
X162Y706D01*
X173Y710D01*
X182Y718D01*
X190Y727D01*
X194Y738D01*
X196Y750D01*
X194Y762D01*
X190Y773D01*
X182Y782D01*
X173Y790D01*
X162Y794D01*
X150Y796D01*
X138Y794D01*
X132Y792D01*
X127Y795D01*
Y805D01*
X132Y808D01*
X138Y806D01*
X150Y804D01*
X162Y806D01*
X173Y810D01*
X182Y818D01*
X190Y827D01*
X194Y838D01*
X196Y850D01*
X194Y862D01*
X190Y873D01*
X182Y882D01*
X173Y890D01*
X162Y894D01*
X150Y896D01*
X138Y894D01*
X132Y892D01*
X127Y895D01*
Y905D01*
X132Y908D01*
X138Y906D01*
X150Y904D01*
X162Y906D01*
X173Y910D01*
X182Y918D01*
X190Y927D01*
X194Y938D01*
X196Y950D01*
X194Y962D01*
X190Y973D01*
X182Y982D01*
X173Y990D01*
X162Y994D01*
X150Y996D01*
X138Y994D01*
X132Y992D01*
X127Y995D01*
Y1005D01*
X132Y1008D01*
X138Y1006D01*
X150Y1004D01*
X162Y1006D01*
X173Y1010D01*
X182Y1018D01*
X190Y1027D01*
X194Y1038D01*
X196Y1050D01*
X194Y1062D01*
X190Y1073D01*
X182Y1082D01*
X173Y1090D01*
X167Y1092D01*
X166Y1098D01*
X312Y1245D01*
X317D01*
X318Y1243D01*
X328Y1236D01*
X338Y1232D01*
X350Y1230D01*
X362Y1232D01*
X372Y1236D01*
X382Y1243D01*
X389Y1253D01*
X393Y1263D01*
X395Y1275D01*
X393Y1287D01*
X389Y1297D01*
X382Y1307D01*
X372Y1314D01*
X362Y1318D01*
X350Y1320D01*
D02*
G37*
G36*
X2851Y1272D02*
Y1243D01*
X2880D01*
X2880Y1243D01*
X2876Y1253D01*
X2870Y1262D01*
X2861Y1268D01*
X2852Y1272D01*
X2851Y1272D01*
D02*
G37*
G36*
X2831D02*
X2831Y1272D01*
X2821Y1268D01*
X2813Y1262D01*
X2806Y1253D01*
X2802Y1243D01*
X2802Y1243D01*
X2831D01*
Y1272D01*
D02*
G37*
G36*
X2605Y1305D02*
X2596Y1304D01*
X2587Y1301D01*
X2580Y1295D01*
X2574Y1288D01*
X2571Y1279D01*
X2570Y1270D01*
X2571Y1261D01*
X2574Y1252D01*
X2580Y1245D01*
X2587Y1239D01*
X2596Y1236D01*
X2605Y1235D01*
X2614Y1236D01*
X2623Y1239D01*
X2630Y1245D01*
X2636Y1252D01*
X2639Y1261D01*
X2640Y1270D01*
X2639Y1279D01*
X2636Y1288D01*
X2630Y1295D01*
X2623Y1301D01*
X2614Y1304D01*
X2605Y1305D01*
D02*
G37*
G36*
X195Y1320D02*
X105D01*
Y1230D01*
X195D01*
Y1320D01*
D02*
G37*
G36*
X2831Y1223D02*
X2802D01*
X2802Y1223D01*
X2806Y1213D01*
X2813Y1204D01*
X2821Y1198D01*
X2831Y1194D01*
X2831Y1194D01*
Y1223D01*
D02*
G37*
G36*
X2880D02*
X2851D01*
Y1194D01*
X2852Y1194D01*
X2861Y1198D01*
X2870Y1204D01*
X2876Y1213D01*
X2880Y1223D01*
X2880Y1223D01*
D02*
G37*
G36*
X2723Y1278D02*
X2711Y1277D01*
X2700Y1272D01*
X2691Y1265D01*
X2684Y1256D01*
X2679Y1245D01*
X2678Y1233D01*
X2679Y1221D01*
X2684Y1210D01*
X2691Y1201D01*
X2700Y1194D01*
X2711Y1189D01*
X2723Y1188D01*
X2735Y1189D01*
X2746Y1194D01*
X2755Y1201D01*
X2762Y1210D01*
X2767Y1221D01*
X2768Y1233D01*
X2767Y1245D01*
X2762Y1256D01*
X2755Y1265D01*
X2746Y1272D01*
X2735Y1277D01*
X2723Y1278D01*
D02*
G37*
G36*
X2841Y1160D02*
X2829Y1159D01*
X2819Y1154D01*
X2809Y1147D01*
X2802Y1138D01*
X2797Y1127D01*
X2796Y1115D01*
X2797Y1103D01*
X2802Y1092D01*
X2809Y1083D01*
X2819Y1076D01*
X2829Y1071D01*
X2841Y1069D01*
X2853Y1071D01*
X2864Y1076D01*
X2873Y1083D01*
X2881Y1092D01*
X2885Y1103D01*
X2887Y1115D01*
X2885Y1127D01*
X2881Y1138D01*
X2873Y1147D01*
X2864Y1154D01*
X2853Y1159D01*
X2841Y1160D01*
D02*
G37*
G36*
X2723D02*
X2711Y1159D01*
X2700Y1154D01*
X2691Y1147D01*
X2684Y1138D01*
X2679Y1127D01*
X2678Y1115D01*
X2679Y1103D01*
X2684Y1092D01*
X2691Y1083D01*
X2700Y1076D01*
X2711Y1071D01*
X2723Y1069D01*
X2735Y1071D01*
X2746Y1076D01*
X2755Y1083D01*
X2762Y1092D01*
X2767Y1103D01*
X2768Y1115D01*
X2767Y1127D01*
X2762Y1138D01*
X2755Y1147D01*
X2746Y1154D01*
X2735Y1159D01*
X2723Y1160D01*
D02*
G37*
G36*
X250Y1096D02*
X238Y1094D01*
X227Y1090D01*
X218Y1082D01*
X210Y1073D01*
X206Y1062D01*
X204Y1050D01*
X206Y1038D01*
X210Y1027D01*
X218Y1018D01*
X227Y1010D01*
X238Y1006D01*
X250Y1004D01*
X262Y1006D01*
X273Y1010D01*
X282Y1018D01*
X290Y1027D01*
X294Y1038D01*
X296Y1050D01*
X294Y1062D01*
X290Y1073D01*
X282Y1082D01*
X273Y1090D01*
X262Y1094D01*
X250Y1096D01*
D02*
G37*
G36*
X2255Y965D02*
Y955D01*
X2265D01*
X2261Y961D01*
X2255Y965D01*
D02*
G37*
G36*
X250Y996D02*
X238Y994D01*
X227Y990D01*
X218Y982D01*
X210Y973D01*
X206Y962D01*
X204Y950D01*
X206Y938D01*
X210Y927D01*
X218Y918D01*
X227Y910D01*
X238Y906D01*
X250Y904D01*
X262Y906D01*
X273Y910D01*
X282Y918D01*
X290Y927D01*
X294Y938D01*
X296Y950D01*
X294Y962D01*
X290Y973D01*
X282Y982D01*
X273Y990D01*
X262Y994D01*
X250Y996D01*
D02*
G37*
G36*
X2175Y917D02*
X2159Y901D01*
X2173Y887D01*
X2189Y903D01*
X2175Y917D01*
D02*
G37*
G36*
X2851Y907D02*
Y878D01*
X2880D01*
X2880Y878D01*
X2876Y888D01*
X2870Y897D01*
X2861Y903D01*
X2852Y907D01*
X2851Y907D01*
D02*
G37*
G36*
X2831D02*
X2831Y907D01*
X2821Y903D01*
X2813Y897D01*
X2806Y888D01*
X2802Y878D01*
X2802Y878D01*
X2831D01*
Y907D01*
D02*
G37*
G36*
X2605Y940D02*
X2596Y939D01*
X2587Y936D01*
X2580Y930D01*
X2574Y923D01*
X2571Y914D01*
X2570Y905D01*
X2571Y896D01*
X2574Y887D01*
X2580Y880D01*
X2587Y874D01*
X2596Y871D01*
X2605Y870D01*
X2614Y871D01*
X2623Y874D01*
X2630Y880D01*
X2636Y887D01*
X2639Y896D01*
X2640Y905D01*
X2639Y914D01*
X2636Y923D01*
X2630Y930D01*
X2623Y936D01*
X2614Y939D01*
X2605Y940D01*
D02*
G37*
G36*
X2831Y858D02*
X2802D01*
X2802Y858D01*
X2806Y848D01*
X2813Y839D01*
X2821Y833D01*
X2831Y829D01*
X2831Y829D01*
Y858D01*
D02*
G37*
G36*
X2880D02*
X2851D01*
Y829D01*
X2852Y829D01*
X2861Y833D01*
X2870Y839D01*
X2876Y848D01*
X2880Y858D01*
X2880Y858D01*
D02*
G37*
G36*
X2723Y913D02*
X2711Y912D01*
X2700Y907D01*
X2691Y900D01*
X2684Y891D01*
X2679Y880D01*
X2678Y868D01*
X2679Y856D01*
X2684Y845D01*
X2691Y836D01*
X2700Y829D01*
X2711Y824D01*
X2723Y823D01*
X2735Y824D01*
X2746Y829D01*
X2755Y836D01*
X2762Y845D01*
X2767Y856D01*
X2768Y868D01*
X2767Y880D01*
X2762Y891D01*
X2755Y900D01*
X2746Y907D01*
X2735Y912D01*
X2723Y913D01*
D02*
G37*
G36*
X250Y896D02*
X238Y894D01*
X227Y890D01*
X218Y882D01*
X210Y873D01*
X206Y862D01*
X204Y850D01*
X206Y838D01*
X210Y827D01*
X218Y818D01*
X227Y810D01*
X238Y806D01*
X250Y804D01*
X262Y806D01*
X273Y810D01*
X282Y818D01*
X290Y827D01*
X294Y838D01*
X296Y850D01*
X294Y862D01*
X290Y873D01*
X282Y882D01*
X273Y890D01*
X262Y894D01*
X250Y896D01*
D02*
G37*
G36*
X2841Y795D02*
X2829Y794D01*
X2819Y789D01*
X2809Y782D01*
X2802Y773D01*
X2797Y762D01*
X2796Y750D01*
X2797Y738D01*
X2802Y727D01*
X2809Y718D01*
X2819Y711D01*
X2829Y706D01*
X2841Y704D01*
X2853Y706D01*
X2864Y711D01*
X2873Y718D01*
X2881Y727D01*
X2885Y738D01*
X2887Y750D01*
X2885Y762D01*
X2881Y773D01*
X2873Y782D01*
X2864Y789D01*
X2853Y794D01*
X2841Y795D01*
D02*
G37*
G36*
X2723D02*
X2711Y794D01*
X2700Y789D01*
X2691Y782D01*
X2684Y773D01*
X2679Y762D01*
X2678Y750D01*
X2679Y738D01*
X2684Y727D01*
X2691Y718D01*
X2700Y711D01*
X2711Y706D01*
X2723Y704D01*
X2735Y706D01*
X2746Y711D01*
X2755Y718D01*
X2762Y727D01*
X2767Y738D01*
X2768Y750D01*
X2767Y762D01*
X2762Y773D01*
X2755Y782D01*
X2746Y789D01*
X2735Y794D01*
X2723Y795D01*
D02*
G37*
G36*
X250Y796D02*
X238Y794D01*
X227Y790D01*
X218Y782D01*
X210Y773D01*
X206Y762D01*
X204Y750D01*
X206Y738D01*
X210Y727D01*
X218Y718D01*
X227Y710D01*
X238Y706D01*
X250Y704D01*
X262Y706D01*
X273Y710D01*
X282Y718D01*
X290Y727D01*
X294Y738D01*
X296Y750D01*
X294Y762D01*
X290Y773D01*
X282Y782D01*
X273Y790D01*
X262Y794D01*
X250Y796D01*
D02*
G37*
G36*
Y696D02*
X238Y694D01*
X227Y690D01*
X218Y682D01*
X210Y673D01*
X206Y662D01*
X204Y650D01*
X206Y638D01*
X210Y627D01*
X218Y618D01*
X227Y610D01*
X238Y606D01*
X250Y604D01*
X262Y606D01*
X273Y610D01*
X282Y618D01*
X290Y627D01*
X294Y638D01*
X296Y650D01*
X294Y662D01*
X290Y673D01*
X282Y682D01*
X273Y690D01*
X262Y694D01*
X250Y696D01*
D02*
G37*
G36*
X2855Y542D02*
Y513D01*
X2884D01*
X2884Y514D01*
X2880Y523D01*
X2874Y532D01*
X2865Y538D01*
X2855Y542D01*
X2855Y542D01*
D02*
G37*
G36*
X2835D02*
X2835Y542D01*
X2825Y538D01*
X2816Y532D01*
X2810Y523D01*
X2806Y514D01*
X2806Y513D01*
X2835D01*
Y542D01*
D02*
G37*
G36*
X2609Y575D02*
X2600Y574D01*
X2591Y571D01*
X2584Y565D01*
X2578Y558D01*
X2575Y549D01*
X2573Y540D01*
X2575Y531D01*
X2578Y522D01*
X2584Y515D01*
X2591Y510D01*
X2600Y506D01*
X2609Y505D01*
X2618Y506D01*
X2626Y510D01*
X2634Y515D01*
X2639Y522D01*
X2643Y531D01*
X2644Y540D01*
X2643Y549D01*
X2639Y558D01*
X2634Y565D01*
X2626Y571D01*
X2618Y574D01*
X2609Y575D01*
D02*
G37*
G36*
X250Y596D02*
X238Y594D01*
X227Y590D01*
X218Y582D01*
X210Y573D01*
X206Y562D01*
X204Y550D01*
X206Y538D01*
X210Y527D01*
X218Y518D01*
X227Y510D01*
X238Y506D01*
X250Y504D01*
X262Y506D01*
X273Y510D01*
X282Y518D01*
X290Y527D01*
X294Y538D01*
X296Y550D01*
X294Y562D01*
X290Y573D01*
X282Y582D01*
X273Y590D01*
X262Y594D01*
X250Y596D01*
D02*
G37*
G36*
X2884Y493D02*
X2855D01*
Y464D01*
X2855Y464D01*
X2865Y468D01*
X2874Y475D01*
X2880Y483D01*
X2884Y493D01*
X2884Y493D01*
D02*
G37*
G36*
X2835D02*
X2806D01*
X2806Y493D01*
X2810Y483D01*
X2816Y475D01*
X2825Y468D01*
X2835Y464D01*
X2835Y464D01*
Y493D01*
D02*
G37*
G36*
X2727Y548D02*
X2715Y547D01*
X2704Y542D01*
X2695Y535D01*
X2688Y526D01*
X2683Y515D01*
X2682Y503D01*
X2683Y491D01*
X2688Y480D01*
X2695Y471D01*
X2704Y464D01*
X2715Y459D01*
X2727Y458D01*
X2739Y459D01*
X2750Y464D01*
X2759Y471D01*
X2766Y480D01*
X2771Y491D01*
X2772Y503D01*
X2771Y515D01*
X2766Y526D01*
X2759Y535D01*
X2750Y542D01*
X2739Y547D01*
X2727Y548D01*
D02*
G37*
G36*
X250Y496D02*
X238Y494D01*
X227Y490D01*
X218Y482D01*
X210Y473D01*
X206Y462D01*
X204Y450D01*
X206Y438D01*
X210Y427D01*
X218Y418D01*
X227Y410D01*
X238Y406D01*
X250Y404D01*
X262Y406D01*
X273Y410D01*
X282Y418D01*
X290Y427D01*
X294Y438D01*
X296Y450D01*
X294Y462D01*
X290Y473D01*
X282Y482D01*
X273Y490D01*
X262Y494D01*
X250Y496D01*
D02*
G37*
G36*
X1835Y406D02*
X1820Y391D01*
X1839Y372D01*
X1854Y387D01*
X1835Y406D01*
D02*
G37*
G36*
X191Y391D02*
X160D01*
Y360D01*
X191D01*
Y391D01*
D02*
G37*
G36*
X140D02*
X109D01*
Y360D01*
X140D01*
Y391D01*
D02*
G37*
G36*
X2845Y430D02*
X2833Y429D01*
X2822Y424D01*
X2813Y417D01*
X2806Y408D01*
X2801Y397D01*
X2800Y385D01*
X2801Y373D01*
X2806Y362D01*
X2813Y353D01*
X2822Y346D01*
X2833Y341D01*
X2845Y340D01*
X2857Y341D01*
X2868Y346D01*
X2877Y353D01*
X2884Y362D01*
X2889Y373D01*
X2890Y385D01*
X2889Y397D01*
X2884Y408D01*
X2877Y417D01*
X2868Y424D01*
X2857Y429D01*
X2845Y430D01*
D02*
G37*
G36*
X2727D02*
X2715Y429D01*
X2704Y424D01*
X2695Y417D01*
X2688Y408D01*
X2683Y397D01*
X2682Y385D01*
X2683Y373D01*
X2688Y362D01*
X2695Y353D01*
X2704Y346D01*
X2715Y341D01*
X2727Y340D01*
X2739Y341D01*
X2750Y346D01*
X2759Y353D01*
X2766Y362D01*
X2771Y373D01*
X2772Y385D01*
X2771Y397D01*
X2766Y408D01*
X2759Y417D01*
X2750Y424D01*
X2739Y429D01*
X2727Y430D01*
D02*
G37*
G36*
X191Y340D02*
X160D01*
Y309D01*
X191D01*
Y340D01*
D02*
G37*
G36*
X140D02*
X109D01*
Y309D01*
X140D01*
Y340D01*
D02*
G37*
G36*
X250Y396D02*
X238Y394D01*
X227Y390D01*
X218Y382D01*
X210Y373D01*
X206Y362D01*
X204Y350D01*
X206Y338D01*
X210Y327D01*
X218Y318D01*
X227Y310D01*
X238Y306D01*
X250Y304D01*
X262Y306D01*
X273Y310D01*
X282Y318D01*
X290Y327D01*
X294Y338D01*
X296Y350D01*
X294Y362D01*
X290Y373D01*
X282Y382D01*
X273Y390D01*
X262Y394D01*
X250Y396D01*
D02*
G37*
G36*
X1360Y120D02*
X1150D01*
Y101D01*
X1122D01*
X1119Y104D01*
X1112Y107D01*
X1105Y108D01*
X1098Y107D01*
X1091Y104D01*
X1085Y100D01*
X1081Y94D01*
X1078Y87D01*
X1077Y80D01*
X1078Y73D01*
X1081Y66D01*
X1085Y60D01*
X1091Y56D01*
X1098Y53D01*
X1105Y52D01*
X1112Y53D01*
X1119Y56D01*
X1122Y59D01*
X1150D01*
Y40D01*
X1360D01*
Y120D01*
D02*
G37*
G36*
X1137Y997D02*
X1130Y996D01*
X1124Y993D01*
X1118Y989D01*
X1085Y956D01*
X1081Y950D01*
X1078Y944D01*
X1077Y937D01*
X1078Y931D01*
X1081Y924D01*
X1085Y919D01*
X1090Y915D01*
X1097Y912D01*
X1100Y912D01*
X1100Y908D01*
X1103Y902D01*
X1107Y897D01*
X1113Y893D01*
X1119Y890D01*
X1122Y889D01*
X1123Y886D01*
X1125Y880D01*
X1129Y874D01*
X1133Y871D01*
X1135Y865D01*
X578Y309D01*
X573Y302D01*
X572Y293D01*
Y278D01*
X571Y277D01*
X561Y270D01*
X554Y261D01*
X554Y260D01*
X376D01*
X376Y261D01*
X369Y270D01*
X359Y277D01*
X349Y282D01*
X337Y283D01*
X325Y282D01*
X315Y277D01*
X305Y270D01*
X298Y261D01*
X294Y250D01*
X292Y239D01*
X294Y227D01*
X298Y216D01*
X305Y207D01*
X315Y200D01*
X325Y195D01*
X337Y194D01*
X349Y195D01*
X359Y200D01*
X369Y207D01*
X376Y216D01*
X376Y217D01*
X554D01*
X554Y216D01*
X561Y207D01*
X571Y200D01*
X581Y195D01*
X593Y194D01*
X605Y195D01*
X615Y200D01*
X625Y207D01*
X632Y216D01*
X632Y218D01*
X637D01*
X638Y216D01*
X645Y207D01*
X655Y200D01*
X665Y195D01*
X677Y194D01*
X689Y195D01*
X699Y200D01*
X709Y207D01*
X716Y216D01*
X716Y217D01*
X894D01*
X894Y216D01*
X901Y207D01*
X911Y200D01*
X921Y195D01*
X933Y194D01*
X945Y195D01*
X955Y200D01*
X965Y207D01*
X972Y216D01*
X976Y227D01*
X978Y239D01*
X976Y250D01*
X972Y261D01*
X965Y270D01*
X955Y277D01*
X954Y278D01*
Y580D01*
X1187Y813D01*
X1193Y812D01*
X1196Y808D01*
X1202Y803D01*
X1208Y801D01*
X1211Y800D01*
X1212Y797D01*
X1214Y791D01*
X1219Y785D01*
X1224Y781D01*
X1230Y779D01*
X1234Y778D01*
X1234Y775D01*
X1237Y768D01*
X1241Y763D01*
X1246Y759D01*
X1252Y756D01*
X1256Y756D01*
X1256Y752D01*
X1259Y746D01*
X1263Y741D01*
X1268Y737D01*
X1275Y734D01*
X1278Y734D01*
X1279Y730D01*
X1281Y724D01*
X1285Y719D01*
X1291Y714D01*
X1297Y712D01*
X1300Y711D01*
X1301Y708D01*
X1303Y702D01*
X1308Y696D01*
X1312Y693D01*
X1313Y687D01*
X1165Y539D01*
X1160Y532D01*
X1159Y524D01*
Y452D01*
X1156Y449D01*
X1153Y442D01*
X1152Y435D01*
X1153Y428D01*
X1154Y425D01*
X1151Y420D01*
X1150D01*
Y340D01*
X1360D01*
Y420D01*
X1359D01*
X1356Y425D01*
X1357Y428D01*
X1358Y435D01*
X1357Y442D01*
X1354Y449D01*
X1351Y452D01*
Y532D01*
X1410Y590D01*
X1416Y589D01*
X1416Y589D01*
Y173D01*
X1411D01*
Y100D01*
X1489D01*
Y173D01*
X1459D01*
Y588D01*
X1489Y618D01*
X1493Y624D01*
X1496Y630D01*
X1497Y637D01*
X1496Y643D01*
X1493Y650D01*
X1489Y655D01*
X1484Y659D01*
X1478Y662D01*
X1474Y662D01*
X1474Y666D01*
X1471Y672D01*
X1467Y677D01*
X1462Y682D01*
X1455Y684D01*
X1452Y685D01*
X1451Y688D01*
X1449Y694D01*
X1445Y700D01*
X1439Y704D01*
X1433Y706D01*
X1430Y707D01*
X1429Y710D01*
X1427Y717D01*
X1422Y722D01*
X1417Y726D01*
X1411Y729D01*
X1407Y729D01*
X1407Y733D01*
X1404Y739D01*
X1400Y744D01*
X1395Y748D01*
X1388Y751D01*
X1385Y751D01*
X1385Y755D01*
X1382Y761D01*
X1378Y766D01*
X1372Y771D01*
X1366Y773D01*
X1363Y774D01*
X1362Y777D01*
X1360Y783D01*
X1356Y789D01*
X1350Y793D01*
X1344Y795D01*
X1340Y796D01*
X1340Y799D01*
X1337Y806D01*
X1333Y811D01*
X1328Y815D01*
X1322Y818D01*
X1318Y818D01*
X1318Y822D01*
X1315Y828D01*
X1311Y833D01*
X1306Y837D01*
X1299Y840D01*
X1296Y840D01*
X1295Y844D01*
X1293Y850D01*
X1289Y856D01*
X1283Y860D01*
X1277Y862D01*
X1274Y863D01*
X1273Y866D01*
X1271Y872D01*
X1266Y878D01*
X1261Y882D01*
X1255Y885D01*
X1251Y885D01*
X1251Y888D01*
X1248Y895D01*
X1244Y900D01*
X1239Y904D01*
X1233Y907D01*
X1229Y907D01*
X1229Y911D01*
X1226Y917D01*
X1222Y922D01*
X1217Y927D01*
X1210Y929D01*
X1207Y930D01*
X1206Y933D01*
X1204Y939D01*
X1200Y945D01*
X1194Y949D01*
X1188Y951D01*
X1185Y952D01*
X1184Y955D01*
X1182Y962D01*
X1177Y967D01*
X1172Y971D01*
X1166Y974D01*
X1162Y974D01*
X1162Y978D01*
X1159Y984D01*
X1155Y989D01*
X1150Y993D01*
X1143Y996D01*
X1137Y997D01*
D02*
G37*
G36*
X933Y106D02*
X921Y105D01*
X911Y100D01*
X901Y93D01*
X894Y84D01*
X894Y83D01*
X716D01*
X716Y84D01*
X709Y93D01*
X699Y100D01*
X689Y105D01*
X677Y106D01*
X665Y105D01*
X655Y100D01*
X645Y93D01*
X638Y84D01*
X637Y82D01*
X632D01*
X632Y84D01*
X625Y93D01*
X615Y100D01*
X605Y105D01*
X593Y106D01*
X581Y105D01*
X571Y100D01*
X561Y93D01*
X554Y84D01*
X554Y83D01*
X376D01*
X376Y84D01*
X369Y93D01*
X359Y100D01*
X349Y105D01*
X337Y106D01*
X325Y105D01*
X315Y100D01*
X305Y93D01*
X298Y84D01*
X294Y73D01*
X292Y61D01*
X294Y50D01*
X298Y39D01*
X305Y30D01*
X315Y23D01*
X325Y18D01*
X337Y17D01*
X349Y18D01*
X359Y23D01*
X369Y30D01*
X376Y39D01*
X376Y40D01*
X554D01*
X554Y39D01*
X561Y30D01*
X571Y23D01*
X581Y18D01*
X593Y17D01*
X605Y18D01*
X615Y23D01*
X625Y30D01*
X632Y39D01*
X632Y41D01*
X637D01*
X638Y39D01*
X645Y30D01*
X655Y23D01*
X665Y18D01*
X677Y17D01*
X689Y18D01*
X699Y23D01*
X709Y30D01*
X716Y39D01*
X716Y40D01*
X894D01*
X894Y39D01*
X901Y30D01*
X911Y23D01*
X921Y18D01*
X933Y17D01*
X945Y18D01*
X955Y23D01*
X965Y30D01*
X972Y39D01*
X976Y50D01*
X978Y61D01*
X976Y73D01*
X972Y84D01*
X965Y93D01*
X955Y100D01*
X945Y105D01*
X933Y106D01*
D02*
G37*
G36*
X1619Y90D02*
X1541D01*
Y69D01*
X1536Y67D01*
X1535Y70D01*
X1529Y74D01*
X1522Y77D01*
X1515Y78D01*
X1508Y77D01*
X1501Y74D01*
X1498Y71D01*
X1489D01*
Y90D01*
X1411D01*
Y17D01*
X1489D01*
Y29D01*
X1498D01*
X1501Y26D01*
X1508Y23D01*
X1515Y22D01*
X1522Y23D01*
X1529Y26D01*
X1535Y30D01*
X1536Y33D01*
X1541Y31D01*
Y17D01*
X1619D01*
Y29D01*
X1628D01*
X1631Y26D01*
X1638Y23D01*
X1645Y22D01*
X1652Y23D01*
X1659Y26D01*
X1665Y30D01*
X1666Y33D01*
X1671Y31D01*
Y16D01*
X1749D01*
Y29D01*
X1758D01*
X1761Y26D01*
X1768Y23D01*
X1775Y22D01*
X1782Y23D01*
X1789Y26D01*
X1795Y30D01*
X1796Y33D01*
X1801Y31D01*
Y16D01*
X1879D01*
Y29D01*
X1888D01*
X1891Y26D01*
X1898Y23D01*
X1905Y22D01*
X1912Y23D01*
X1919Y26D01*
X1925Y30D01*
X1929Y36D01*
X1932Y43D01*
X1933Y50D01*
X1932Y57D01*
X1929Y64D01*
X1925Y70D01*
X1919Y74D01*
X1912Y77D01*
X1905Y78D01*
X1898Y77D01*
X1891Y74D01*
X1888Y71D01*
X1879D01*
Y89D01*
X1801D01*
Y69D01*
X1796Y67D01*
X1795Y70D01*
X1789Y74D01*
X1782Y77D01*
X1775Y78D01*
X1768Y77D01*
X1761Y74D01*
X1758Y71D01*
X1749D01*
Y89D01*
X1671D01*
Y69D01*
X1666Y67D01*
X1665Y70D01*
X1659Y74D01*
X1652Y77D01*
X1645Y78D01*
X1638Y77D01*
X1631Y74D01*
X1628Y71D01*
X1619D01*
Y90D01*
D02*
G37*
%LPD*%
G36*
X1886Y1640D02*
Y1528D01*
X1679Y1321D01*
X1673Y1322D01*
X1670Y1326D01*
X1666Y1329D01*
X1665Y1335D01*
X1835Y1505D01*
X1840Y1512D01*
X1841Y1520D01*
Y1679D01*
X1846Y1681D01*
X1886Y1640D01*
D02*
G37*
G36*
X2125Y1493D02*
X2101Y1469D01*
X2096Y1462D01*
X2094Y1454D01*
Y1380D01*
X1857Y1143D01*
X1851Y1144D01*
X1848Y1148D01*
X1843Y1152D01*
X1837Y1155D01*
X1833Y1155D01*
X1833Y1158D01*
X1830Y1165D01*
X1826Y1170D01*
X1821Y1174D01*
X1814Y1177D01*
X1811Y1177D01*
X1811Y1181D01*
X1808Y1187D01*
X1804Y1192D01*
X1798Y1197D01*
X1792Y1199D01*
X1789Y1200D01*
X1788Y1203D01*
X1786Y1209D01*
X1781Y1215D01*
X1776Y1219D01*
X1770Y1221D01*
X1766Y1222D01*
X1766Y1225D01*
X1763Y1232D01*
X1759Y1237D01*
X1754Y1241D01*
X1748Y1244D01*
X1744Y1244D01*
X1744Y1248D01*
X1741Y1254D01*
X1737Y1259D01*
X1732Y1263D01*
X1725Y1266D01*
X1722Y1266D01*
X1721Y1270D01*
X1719Y1276D01*
X1715Y1281D01*
X1711Y1285D01*
X1709Y1290D01*
X1916Y1497D01*
X2123D01*
X2125Y1493D01*
D02*
G37*
G36*
X2229Y210D02*
X2236Y206D01*
X2244Y204D01*
X2244Y202D01*
X2250Y195D01*
Y195D01*
X2244Y188D01*
X2243Y184D01*
X2238Y183D01*
X1743Y679D01*
X1743Y684D01*
X1745Y685D01*
X1746Y687D01*
X1751Y688D01*
X2229Y210D01*
D02*
G37*
G36*
X417Y1693D02*
X428Y1688D01*
X440Y1687D01*
X452Y1688D01*
X453Y1689D01*
X606Y1536D01*
X604Y1531D01*
X519D01*
X406Y1644D01*
Y1695D01*
X411Y1697D01*
X417Y1693D01*
D02*
G37*
G36*
X610Y1352D02*
Y1328D01*
X578Y1296D01*
X490D01*
Y1322D01*
X522Y1354D01*
X606D01*
X610Y1352D01*
D02*
G37*
G36*
X1233Y1352D02*
X1233Y1348D01*
X1236Y1341D01*
X1240Y1335D01*
X1246Y1331D01*
X1253Y1328D01*
X1254Y1328D01*
X1292Y1291D01*
X1291Y1288D01*
X1290Y1285D01*
X1285Y1281D01*
X1282Y1277D01*
X1276Y1276D01*
X966Y1586D01*
Y1612D01*
X971Y1614D01*
X1233Y1352D01*
D02*
G37*
G36*
X1094Y1131D02*
X1092Y1126D01*
X628D01*
X564Y1190D01*
X557Y1195D01*
X549Y1196D01*
X490D01*
Y1202D01*
X494Y1204D01*
X578D01*
X615Y1167D01*
Y1153D01*
X644D01*
Y1175D01*
X664D01*
Y1153D01*
X694D01*
Y1154D01*
X713D01*
X722Y1155D01*
X729Y1160D01*
X755Y1186D01*
Y1221D01*
X765D01*
Y1231D01*
X802D01*
Y1242D01*
X807D01*
Y1251D01*
X811Y1254D01*
X813Y1253D01*
X820Y1252D01*
X827Y1253D01*
X834Y1256D01*
X840Y1260D01*
X844Y1266D01*
X847Y1273D01*
X848Y1280D01*
X847Y1287D01*
X844Y1294D01*
X840Y1300D01*
X834Y1304D01*
X827Y1307D01*
X820Y1308D01*
X813Y1307D01*
X811Y1306D01*
X807Y1309D01*
Y1315D01*
X754D01*
X729Y1340D01*
X722Y1345D01*
X713Y1346D01*
X699D01*
Y1352D01*
X703Y1354D01*
X871D01*
X1094Y1131D01*
D02*
G37*
%LPC*%
G36*
X802Y1211D02*
X775D01*
Y1190D01*
X802D01*
Y1211D01*
D02*
G37*
%LPD*%
G36*
X912Y575D02*
Y278D01*
X911Y277D01*
X901Y270D01*
X894Y261D01*
X894Y260D01*
X716D01*
X716Y261D01*
X709Y270D01*
X699Y277D01*
X689Y282D01*
X677Y283D01*
X665Y282D01*
X655Y277D01*
X645Y270D01*
X638Y261D01*
X637Y259D01*
X632D01*
X632Y261D01*
X625Y270D01*
X615Y277D01*
X614Y278D01*
Y285D01*
X907Y577D01*
X912Y575D01*
D02*
G37*
D10*
X1835Y420D02*
D03*
X1875Y460D02*
D03*
D11*
X1676Y586D02*
D03*
X1714Y624D02*
D03*
D12*
X1690Y1940D02*
D03*
X1633D02*
D03*
D13*
X1760Y465D02*
D03*
X1810Y515D02*
D03*
D14*
X1765Y570D02*
D03*
X1725Y530D02*
D03*
X2085Y885D02*
D03*
X2045Y845D02*
D03*
X1955Y850D02*
D03*
X1995Y890D02*
D03*
D15*
X2255Y1829D02*
D03*
Y1771D02*
D03*
X765Y1221D02*
D03*
Y1279D02*
D03*
X650Y1744D02*
D03*
Y1686D02*
D03*
X2455Y320D02*
D03*
Y263D02*
D03*
D16*
X1756Y1665D02*
D03*
Y1715D02*
D03*
Y1765D02*
D03*
Y1815D02*
D03*
X1564Y1665D02*
D03*
Y1715D02*
D03*
Y1765D02*
D03*
Y1815D02*
D03*
D17*
X2203Y903D02*
D03*
X2137Y837D02*
D03*
D18*
X446Y1325D02*
D03*
Y1275D02*
D03*
Y1225D02*
D03*
Y1175D02*
D03*
X654D02*
D03*
Y1225D02*
D03*
Y1275D02*
D03*
Y1325D02*
D03*
D19*
X729Y1815D02*
D03*
Y1615D02*
D03*
X910D02*
D03*
Y1815D02*
D03*
D20*
X1180Y80D02*
D03*
X1230D02*
D03*
X1280D02*
D03*
X1330D02*
D03*
Y380D02*
D03*
X1280D02*
D03*
X1230D02*
D03*
X1180D02*
D03*
D21*
X1450Y54D02*
D03*
Y136D02*
D03*
X1580Y54D02*
D03*
Y136D02*
D03*
X1710Y52D02*
D03*
Y135D02*
D03*
X1840Y52D02*
D03*
Y135D02*
D03*
D22*
X1880Y954D02*
D03*
X1858Y932D02*
D03*
X1835Y910D02*
D03*
X1813Y887D02*
D03*
X1791Y865D02*
D03*
X1769Y843D02*
D03*
X1746Y820D02*
D03*
X1724Y798D02*
D03*
X1702Y776D02*
D03*
X1680Y754D02*
D03*
X1657Y731D02*
D03*
X1635Y709D02*
D03*
X1613Y687D02*
D03*
X1590Y665D02*
D03*
X1568Y642D02*
D03*
X1546Y620D02*
D03*
X1120Y1046D02*
D03*
X1142Y1068D02*
D03*
X1165Y1090D02*
D03*
X1187Y1113D02*
D03*
X1209Y1135D02*
D03*
X1231Y1157D02*
D03*
X1254Y1180D02*
D03*
X1276Y1202D02*
D03*
X1298Y1224D02*
D03*
X1320Y1246D02*
D03*
X1343Y1269D02*
D03*
X1365Y1291D02*
D03*
X1387Y1313D02*
D03*
X1410Y1335D02*
D03*
X1432Y1358D02*
D03*
X1454Y1380D02*
D03*
D23*
Y620D02*
D03*
X1432Y642D02*
D03*
X1410Y665D02*
D03*
X1387Y687D02*
D03*
X1365Y709D02*
D03*
X1343Y731D02*
D03*
X1320Y754D02*
D03*
X1298Y776D02*
D03*
X1276Y798D02*
D03*
X1254Y820D02*
D03*
X1231Y843D02*
D03*
X1209Y865D02*
D03*
X1187Y887D02*
D03*
X1165Y910D02*
D03*
X1142Y932D02*
D03*
X1120Y954D02*
D03*
X1546Y1380D02*
D03*
X1568Y1358D02*
D03*
X1590Y1335D02*
D03*
X1613Y1313D02*
D03*
X1635Y1291D02*
D03*
X1657Y1269D02*
D03*
X1680Y1246D02*
D03*
X1702Y1224D02*
D03*
X1724Y1202D02*
D03*
X1746Y1180D02*
D03*
X1769Y1157D02*
D03*
X1791Y1135D02*
D03*
X1813Y1113D02*
D03*
X1835Y1090D02*
D03*
X1858Y1068D02*
D03*
X1880Y1046D02*
D03*
D24*
X336Y1266D02*
X350Y1280D01*
X303Y1266D02*
X336D01*
X105Y1068D02*
X303Y1266D01*
X105Y495D02*
Y1068D01*
Y495D02*
X150Y450D01*
X1260Y1355D02*
X1534Y1629D01*
Y1658D01*
X1541Y1665D01*
X1564D01*
X960Y1655D02*
X1260Y1355D01*
X863Y1655D02*
X960D01*
X843Y1635D02*
X863Y1655D01*
X748Y1635D02*
X843D01*
X729Y1615D02*
X748Y1635D01*
X1343Y1269D02*
Y1270D01*
X1260Y1353D02*
Y1355D01*
Y1353D02*
X1343Y1270D01*
X1352Y1351D02*
Y1368D01*
Y1351D02*
X1387Y1316D01*
X1315Y1335D02*
X1337Y1313D01*
X1362Y1291D02*
X1365D01*
X1387Y1313D02*
Y1316D01*
X1337Y1313D02*
X1340D01*
X1350Y1370D02*
X1352Y1368D01*
X1340Y1313D02*
X1362Y1291D01*
X1454Y1754D02*
X1493Y1715D01*
X1564D01*
X1105Y80D02*
X1180D01*
X1454Y1754D02*
Y1826D01*
X1480Y1765D02*
X1564D01*
X1454Y1826D02*
X1547Y1919D01*
X1617D01*
X1480Y1815D02*
X1561D01*
X765Y1279D02*
X766Y1280D01*
X820D01*
X948Y1530D02*
X1276Y1202D01*
X642Y1530D02*
X948D01*
X1908Y1519D02*
Y1649D01*
X1792Y1765D02*
X1908Y1649D01*
X1756Y1765D02*
X1792D01*
X1617Y1919D02*
X1633Y1935D01*
Y1940D01*
X1561Y1815D02*
X1562Y1814D01*
X1590Y1335D02*
X1756Y1501D01*
Y1665D01*
X1613Y1313D02*
X1820Y1520D01*
Y1687D01*
X1792Y1715D02*
X1820Y1687D01*
X1756Y1715D02*
X1792D01*
X1756Y1815D02*
Y1868D01*
X1690Y1935D02*
X1756Y1868D01*
X1690Y1935D02*
Y1940D01*
X1564Y1665D02*
Y1715D01*
X1105Y1105D02*
X1142Y1068D01*
X1142D01*
X619Y1105D02*
X1105D01*
X549Y1175D02*
X619Y1105D01*
X446Y1175D02*
X549D01*
X463Y1325D02*
X513Y1375D01*
X446Y1325D02*
X463D01*
X513Y1375D02*
X880D01*
X1165Y1090D01*
X446Y1225D02*
X587D01*
X637Y1175D01*
X654D01*
X713D01*
X637Y1325D02*
X654D01*
X587Y1275D02*
X637Y1325D01*
X446Y1275D02*
X587D01*
X713Y1175D02*
X760Y1221D01*
X765D01*
X654Y1325D02*
X713D01*
X760Y1279D01*
X765D01*
X654Y1225D02*
X710D01*
X654Y1275D02*
X710D01*
X1563Y152D02*
Y603D01*
Y152D02*
X1576Y139D01*
X1546Y620D02*
X1563Y603D01*
X933Y589D02*
X1209Y865D01*
X933Y239D02*
Y589D01*
X593Y293D02*
X1187Y887D01*
X593Y239D02*
Y293D01*
X729Y1815D02*
X910D01*
X1848Y855D02*
X1880D01*
X1831Y872D02*
X1848Y855D01*
X1829Y872D02*
X1831D01*
X1714Y624D02*
Y631D01*
X1814Y515D02*
X1874Y454D01*
X1810Y515D02*
X1814D01*
X1765Y560D02*
X1810Y515D01*
X1765Y560D02*
Y570D01*
Y574D01*
X1714Y624D02*
X1765Y574D01*
X1635Y709D02*
X1680Y665D01*
Y665D02*
X1714Y631D01*
X1680Y661D02*
Y665D01*
X1635Y709D02*
X1635D01*
X1790Y465D02*
X1835Y420D01*
X1760Y465D02*
X1790D01*
X1726Y499D02*
Y502D01*
X1728Y504D01*
Y527D01*
X1725Y530D02*
X1728Y527D01*
X1726Y499D02*
X1760Y465D01*
X1725Y530D02*
Y536D01*
X1676Y586D02*
X1725Y536D01*
X1676Y586D02*
Y608D01*
X1652Y631D02*
X1676Y608D01*
X1652Y631D02*
Y648D01*
X1613Y687D02*
X1652Y648D01*
X1623Y350D02*
Y629D01*
Y350D02*
X1838Y135D01*
X1590Y662D02*
X1623Y629D01*
X1660Y731D02*
X2271Y120D01*
X1657Y731D02*
X1660D01*
X2271Y120D02*
X2275D01*
X1791Y865D02*
X1828Y827D01*
X1848D02*
X1850Y825D01*
X1828Y827D02*
X1848D01*
X1818Y802D02*
X1820Y800D01*
X1721Y631D02*
X1724D01*
X2250Y1770D02*
Y1771D01*
X2183Y1711D02*
X2191D01*
X2250Y1770D01*
Y1829D02*
Y1830D01*
X2183Y1889D02*
X2191D01*
X2250Y1830D01*
X2246Y1771D02*
X2250D01*
X2246Y1829D02*
X2250D01*
X2455Y263D02*
X2466D01*
X2496Y293D02*
Y493D01*
X2466Y263D02*
X2496Y293D01*
X2245Y744D02*
X2496Y493D01*
X2245Y744D02*
Y945D01*
X1933Y940D02*
X2030D01*
X1930Y937D02*
X1933Y940D01*
X1897Y937D02*
X1930D01*
X1880Y954D02*
X1897Y937D01*
X2030Y940D02*
X2085Y885D01*
X2203Y903D02*
X2245Y945D01*
X2133Y837D02*
X2137D01*
X2085Y885D02*
X2133Y837D01*
X2041Y845D02*
X2045D01*
X1995Y890D02*
X2041Y845D01*
X1944Y914D02*
X1946Y911D01*
X1952D01*
X1973Y890D01*
X1995D01*
X1922Y883D02*
X1955Y850D01*
X1912Y883D02*
X1922D01*
X1910Y885D02*
X1912Y883D01*
X1860Y885D02*
X1910D01*
X1835Y910D02*
X1860Y885D01*
X1886Y913D02*
X1943D01*
X1886Y913D02*
X1886Y913D01*
X1876Y913D02*
X1886D01*
X1858Y932D02*
X1876Y913D01*
X1809Y802D02*
X1818D01*
X1769Y843D02*
X1809Y802D01*
X1788Y772D02*
X1790Y770D01*
X1788Y772D02*
Y779D01*
X1746Y820D02*
X1788Y779D01*
X2202Y320D02*
X2275D01*
X1724Y798D02*
X2202Y320D01*
X2244Y225D02*
X2270D01*
X1702Y767D02*
X2244Y225D01*
X1702Y767D02*
Y776D01*
X1613Y684D02*
Y687D01*
X1604Y240D02*
X1708Y135D01*
X1604Y240D02*
Y604D01*
X1568Y640D02*
X1604Y604D01*
X1568Y640D02*
Y642D01*
X1838Y135D02*
X1840D01*
X1590Y662D02*
Y665D01*
X1576Y139D02*
X1578D01*
X1437Y149D02*
X1450Y136D01*
X1437Y603D02*
X1454Y620D01*
X1437Y149D02*
Y603D01*
X1842Y50D02*
X1905D01*
X1840Y52D02*
X1842Y50D01*
X1712D02*
X1775D01*
X1710Y52D02*
X1712Y50D01*
X1584D02*
X1645D01*
X1580Y54D02*
X1584Y50D01*
X1450Y54D02*
X1454Y50D01*
X1515D01*
X1725Y705D02*
Y707D01*
X1330Y435D02*
Y540D01*
Y380D02*
Y435D01*
Y540D02*
X1432Y642D01*
X1280Y435D02*
Y535D01*
Y380D02*
Y435D01*
X1230D02*
Y530D01*
Y380D02*
Y435D01*
X1180Y380D02*
Y435D01*
Y524D01*
X1365Y709D01*
X2480Y220D02*
X2516Y256D01*
X2385Y1013D02*
X2516Y883D01*
Y256D02*
Y883D01*
X2325Y220D02*
X2480D01*
X2385Y1013D02*
Y1660D01*
X1635Y707D02*
Y709D01*
X1874Y454D02*
Y459D01*
X2455Y263D02*
X2458Y260D01*
X1230Y530D02*
X1387Y687D01*
X1562Y1814D02*
X1564Y1815D01*
X1590Y1335D02*
Y1338D01*
X1763Y1665D02*
X1770Y1658D01*
X1756Y1665D02*
X1763D01*
X1613Y1313D02*
X1613D01*
X677Y61D02*
X933D01*
X677Y239D02*
X933D01*
X337Y61D02*
X593D01*
X337Y239D02*
X593D01*
X385Y1635D02*
X510Y1510D01*
X923D01*
X1254Y1180D01*
X440Y1732D02*
X642Y1530D01*
X258Y1490D02*
X899D01*
X160Y1470D02*
X874D01*
X899Y1490D02*
X1231Y1157D01*
X874Y1470D02*
X1209Y1135D01*
X160Y1588D02*
X258Y1490D01*
X385Y1635D02*
Y1739D01*
X440Y1794D01*
Y1850D01*
X1769Y841D02*
Y843D01*
X2430Y1705D02*
X2485Y1760D01*
X2367Y1705D02*
X2430D01*
X2116Y1454D02*
X2367Y1705D01*
X2116Y1371D02*
Y1454D01*
X1835Y1090D02*
X2116Y1371D01*
X2144Y1519D02*
X2385Y1760D01*
X1908Y1519D02*
X2144D01*
X1657Y1269D02*
X1908Y1519D01*
X1858Y1068D02*
X1858D01*
X1905Y1115D01*
X1931Y1884D02*
X1932D01*
X1835Y1090D02*
X1835D01*
X1657Y1269D02*
X1659D01*
X1165Y1090D02*
Y1093D01*
X713Y1615D02*
X729D01*
X694Y1635D02*
X713Y1615D01*
X694Y1635D02*
Y1648D01*
X655Y1686D02*
X694Y1648D01*
X650Y1686D02*
X655D01*
X713Y1815D02*
X729D01*
X694Y1795D02*
X713Y1815D01*
X694Y1782D02*
Y1795D01*
X655Y1744D02*
X694Y1782D01*
X650Y1744D02*
X655D01*
X910Y1612D02*
X1298Y1224D01*
X910Y1612D02*
Y1615D01*
X2270Y225D02*
X2275Y220D01*
X2441Y270D02*
X2445Y266D01*
X2325Y270D02*
X2441D01*
X1680Y752D02*
X1725Y707D01*
X1680Y752D02*
Y754D01*
X2441Y320D02*
X2445Y324D01*
X2325Y320D02*
X2441D01*
X1680Y754D02*
X1681D01*
X1180Y80D02*
X1230D01*
X1280D01*
X1330D01*
X1280Y535D02*
X1410Y665D01*
D25*
X150Y350D02*
D03*
X2385Y1860D02*
D03*
D26*
X150Y450D02*
D03*
Y550D02*
D03*
Y650D02*
D03*
Y750D02*
D03*
Y850D02*
D03*
Y950D02*
D03*
Y1050D02*
D03*
X250Y350D02*
D03*
Y450D02*
D03*
Y550D02*
D03*
Y650D02*
D03*
Y750D02*
D03*
Y850D02*
D03*
Y950D02*
D03*
Y1050D02*
D03*
X2385Y1760D02*
D03*
Y1660D02*
D03*
X2485Y1860D02*
D03*
Y1760D02*
D03*
Y1660D02*
D03*
D27*
X2325Y120D02*
D03*
X2275D02*
D03*
X2325Y170D02*
D03*
X2275D02*
D03*
X2325Y220D02*
D03*
X2275D02*
D03*
X2325Y270D02*
D03*
X2275D02*
D03*
X2325Y320D02*
D03*
D28*
X2275D02*
D03*
D29*
X1278Y1818D02*
D03*
Y1700D02*
D03*
X1160Y1818D02*
D03*
Y1700D02*
D03*
X440Y1732D02*
D03*
Y1850D02*
D03*
X160Y1470D02*
D03*
Y1588D02*
D03*
X2727Y385D02*
D03*
Y503D02*
D03*
X2845Y385D02*
D03*
Y503D02*
D03*
X2723Y750D02*
D03*
Y868D02*
D03*
X2841Y750D02*
D03*
Y868D02*
D03*
X2723Y1115D02*
D03*
Y1233D02*
D03*
X2841Y1115D02*
D03*
Y1233D02*
D03*
X2840Y1605D02*
D03*
Y1487D02*
D03*
X2722Y1605D02*
D03*
Y1487D02*
D03*
D30*
X933Y61D02*
D03*
X677D02*
D03*
X933Y239D02*
D03*
X677D02*
D03*
X593Y61D02*
D03*
X337D02*
D03*
X593Y239D02*
D03*
X337D02*
D03*
X2183Y1711D02*
D03*
X1927D02*
D03*
X2183Y1889D02*
D03*
X1927D02*
D03*
D31*
X350Y1275D02*
D03*
X250D02*
D03*
D32*
X150D02*
D03*
D33*
Y150D02*
D03*
X2850D02*
D03*
Y1850D02*
D03*
X150D02*
D03*
D34*
X1260Y1355D02*
D03*
X1315Y1335D02*
D03*
X1105Y80D02*
D03*
X1480Y1765D02*
D03*
Y1815D02*
D03*
X820Y1280D02*
D03*
X1350Y1370D02*
D03*
X710Y1225D02*
D03*
Y1275D02*
D03*
X1880Y855D02*
D03*
X1680Y665D02*
D03*
X1820Y800D02*
D03*
X1850Y825D02*
D03*
X1944Y914D02*
D03*
X1910Y885D02*
D03*
X1790Y770D02*
D03*
X1725Y705D02*
D03*
X1905Y50D02*
D03*
X1775D02*
D03*
X1645D02*
D03*
X1515D02*
D03*
X1330Y435D02*
D03*
X1280D02*
D03*
X1230D02*
D03*
X1180D02*
D03*
X2245Y945D02*
D03*
X1905Y1115D02*
D03*
%TF.MD5,31f0cf7dfb8f30e3f83b1e2568d36048*%
M02*
