%TF.GenerationSoftware,Altium Limited,Altium Designer,19.1.8 (144)*%
G04 Layer_Color=255*
%FSLAX23Y23*%
%MOIN*%
%TF.FileFunction,Pads,Bot*%
%TF.Part,Single*%
G01*
G75*
%TA.AperFunction,SMDPad,CuDef*%
%ADD13R,0.059X0.049*%
%TA.AperFunction,ComponentPad*%
%ADD27C,0.059*%
%ADD28R,0.061X0.061*%
%ADD29C,0.061*%
%ADD30C,0.060*%
%ADD31C,0.059*%
%ADD32R,0.059X0.059*%
%ADD33R,0.040X0.040*%
%ADD34C,0.040*%
%TA.AperFunction,ViaPad*%
%ADD35C,0.242*%
%ADD36C,0.240*%
%TA.AperFunction,SMDPad,CuDef*%
%ADD38R,0.043X0.053*%
%ADD39R,0.033X0.051*%
%ADD40R,0.047X0.031*%
%ADD41R,0.049X0.059*%
D13*
X2470Y1597D02*
D03*
Y1680D02*
D03*
X2890D02*
D03*
Y1597D02*
D03*
X2750Y1680D02*
D03*
Y1597D02*
D03*
X2610Y1680D02*
D03*
Y1597D02*
D03*
D27*
X1930Y1945D02*
D03*
X2186D02*
D03*
X1930Y1768D02*
D03*
X2186D02*
D03*
X2370Y1942D02*
D03*
X2626D02*
D03*
X2370Y1765D02*
D03*
X2626D02*
D03*
X1876Y57D02*
D03*
Y313D02*
D03*
X2054Y57D02*
D03*
Y313D02*
D03*
D28*
X85Y930D02*
D03*
D29*
Y830D02*
D03*
Y730D02*
D03*
X185Y930D02*
D03*
Y830D02*
D03*
Y730D02*
D03*
D30*
X2560Y105D02*
D03*
Y223D02*
D03*
X2840Y488D02*
D03*
Y370D02*
D03*
X534Y234D02*
D03*
Y116D02*
D03*
X416Y234D02*
D03*
Y116D02*
D03*
X1631Y1766D02*
D03*
Y1884D02*
D03*
X1749Y1766D02*
D03*
Y1884D02*
D03*
X1226Y1766D02*
D03*
Y1884D02*
D03*
X1344Y1766D02*
D03*
Y1884D02*
D03*
X2840Y1085D02*
D03*
Y967D02*
D03*
X2722Y1085D02*
D03*
Y967D02*
D03*
X2840Y780D02*
D03*
Y662D02*
D03*
X2722Y780D02*
D03*
Y662D02*
D03*
X821Y1766D02*
D03*
Y1884D02*
D03*
X939Y1766D02*
D03*
Y1884D02*
D03*
X533Y1883D02*
D03*
Y1765D02*
D03*
X415Y1883D02*
D03*
Y1765D02*
D03*
D31*
X2525Y905D02*
D03*
Y805D02*
D03*
D32*
Y705D02*
D03*
D33*
X150Y1225D02*
D03*
D34*
X100D02*
D03*
X150Y1275D02*
D03*
X100D02*
D03*
X150Y1325D02*
D03*
X100D02*
D03*
X150Y1375D02*
D03*
X100D02*
D03*
X150Y1425D02*
D03*
X100D02*
D03*
D35*
X150Y1850D02*
D03*
X2850D02*
D03*
D36*
Y150D02*
D03*
X150D02*
D03*
D38*
X960Y295D02*
D03*
X903D02*
D03*
X1626Y1695D02*
D03*
X1684D02*
D03*
X1221D02*
D03*
X1279D02*
D03*
X467D02*
D03*
X410D02*
D03*
X874D02*
D03*
X816D02*
D03*
D39*
X2247Y1820D02*
D03*
X2313D02*
D03*
X2247Y1890D02*
D03*
X2313D02*
D03*
X2027Y1820D02*
D03*
X2093D02*
D03*
X2027Y1890D02*
D03*
X2093D02*
D03*
X2873Y1205D02*
D03*
X2807D02*
D03*
D40*
X1750Y1646D02*
D03*
Y1705D02*
D03*
X1345Y1645D02*
D03*
Y1704D02*
D03*
X935Y1645D02*
D03*
Y1705D02*
D03*
X530Y1645D02*
D03*
Y1705D02*
D03*
D41*
X2619Y1265D02*
D03*
X2701D02*
D03*
X2619Y1330D02*
D03*
X2701D02*
D03*
X2619Y1395D02*
D03*
X2701D02*
D03*
X2619Y1460D02*
D03*
X2701D02*
D03*
%TF.MD5,a639c494267b39eacc355bdc7f0d7eaa*%
M02*
