%TF.GenerationSoftware,Altium Limited,Altium Designer,19.1.8 (144)*%
G04 Layer_Color=2752767*
%FSLAX23Y23*%
%MOIN*%
%TF.FileFunction,Drawing*%
%TF.Part,Single*%
G01*
G75*
%TA.AperFunction,NonConductor*%
%ADD65C,0.005*%
%ADD92C,0.007*%
D65*
X130Y330D02*
Y370D01*
X170D01*
Y330D01*
X130D01*
Y430D02*
Y470D01*
X170D01*
Y430D01*
X130D01*
Y530D02*
Y570D01*
X170D01*
Y530D01*
X130D01*
Y630D02*
Y670D01*
X170D01*
Y630D01*
X130D01*
Y730D02*
Y770D01*
X170D01*
Y730D01*
X130D01*
Y830D02*
Y870D01*
X170D01*
Y830D01*
X130D01*
Y930D02*
Y970D01*
X170D01*
Y930D01*
X130D01*
Y1030D02*
Y1070D01*
X170D01*
Y1030D01*
X130D01*
X230Y330D02*
Y370D01*
X270D01*
Y330D01*
X230D01*
Y430D02*
Y470D01*
X270D01*
Y430D01*
X230D01*
Y530D02*
Y570D01*
X270D01*
Y530D01*
X230D01*
Y630D02*
Y670D01*
X270D01*
Y630D01*
X230D01*
Y730D02*
Y770D01*
X270D01*
Y730D01*
X230D01*
Y830D02*
Y870D01*
X270D01*
Y830D01*
X230D01*
Y930D02*
Y970D01*
X270D01*
Y930D01*
X230D01*
Y1030D02*
Y1070D01*
X270D01*
Y1030D01*
X230D01*
X1278Y1798D02*
X1258Y1838D01*
X1298D01*
X1278Y1798D01*
Y1680D02*
X1258Y1720D01*
X1298D01*
X1278Y1680D01*
X1160Y1798D02*
X1140Y1838D01*
X1180D01*
X1160Y1798D01*
Y1680D02*
X1140Y1720D01*
X1180D01*
X1160Y1680D01*
X1396Y1835D02*
X1406Y1845D01*
X1416D01*
X1406Y1855D01*
X1416Y1865D01*
X1406D01*
X1396Y1875D01*
X1386Y1865D01*
X1376D01*
X1386Y1855D01*
X1376Y1845D01*
X1386D01*
X1396Y1835D01*
X1042D02*
X1052Y1845D01*
X1062D01*
X1052Y1855D01*
X1062Y1865D01*
X1052D01*
X1042Y1875D01*
X1032Y1865D01*
X1022D01*
X1032Y1855D01*
X1022Y1845D01*
X1032D01*
X1042Y1835D01*
X913Y41D02*
X923Y61D01*
X913Y81D01*
X933Y71D01*
X953Y81D01*
X943Y61D01*
X953Y41D01*
X933Y51D01*
X913Y41D01*
X657D02*
X667Y61D01*
X657Y81D01*
X677Y71D01*
X697Y81D01*
X687Y61D01*
X697Y41D01*
X677Y51D01*
X657Y41D01*
X913Y219D02*
X923Y239D01*
X913Y259D01*
X933Y249D01*
X953Y259D01*
X943Y239D01*
X953Y219D01*
X933Y229D01*
X913Y219D01*
X657D02*
X667Y239D01*
X657Y259D01*
X677Y249D01*
X697Y259D01*
X687Y239D01*
X697Y219D01*
X677Y229D01*
X657Y219D01*
X573Y41D02*
X583Y61D01*
X573Y81D01*
X593Y71D01*
X613Y81D01*
X603Y61D01*
X613Y41D01*
X593Y51D01*
X573Y41D01*
X317D02*
X327Y61D01*
X317Y81D01*
X337Y71D01*
X357Y81D01*
X347Y61D01*
X357Y41D01*
X337Y51D01*
X317Y41D01*
X573Y219D02*
X583Y239D01*
X573Y259D01*
X593Y249D01*
X613Y259D01*
X603Y239D01*
X613Y219D01*
X593Y229D01*
X573Y219D01*
X317D02*
X327Y239D01*
X317Y259D01*
X337Y249D01*
X357Y259D01*
X347Y239D01*
X357Y219D01*
X337Y229D01*
X317Y219D01*
X2365Y1840D02*
Y1880D01*
X2405D01*
Y1840D01*
X2365D01*
Y1740D02*
Y1780D01*
X2405D01*
Y1740D01*
X2365D01*
Y1640D02*
Y1680D01*
X2405D01*
Y1640D01*
X2365D01*
X2465Y1840D02*
Y1880D01*
X2505D01*
Y1840D01*
X2465D01*
Y1740D02*
Y1780D01*
X2505D01*
Y1740D01*
X2465D01*
Y1640D02*
Y1680D01*
X2505D01*
Y1640D01*
X2465D01*
X2163Y1691D02*
X2173Y1711D01*
X2163Y1731D01*
X2183Y1721D01*
X2203Y1731D01*
X2193Y1711D01*
X2203Y1691D01*
X2183Y1701D01*
X2163Y1691D01*
X1907D02*
X1917Y1711D01*
X1907Y1731D01*
X1927Y1721D01*
X1947Y1731D01*
X1937Y1711D01*
X1947Y1691D01*
X1927Y1701D01*
X1907Y1691D01*
X2163Y1869D02*
X2173Y1889D01*
X2163Y1909D01*
X2183Y1899D01*
X2203Y1909D01*
X2193Y1889D01*
X2203Y1869D01*
X2183Y1879D01*
X2163Y1869D01*
X1907D02*
X1917Y1889D01*
X1907Y1909D01*
X1927Y1899D01*
X1947Y1909D01*
X1937Y1889D01*
X1947Y1869D01*
X1927Y1879D01*
X1907Y1869D01*
X440Y1712D02*
X420Y1752D01*
X460D01*
X440Y1712D01*
Y1830D02*
X420Y1870D01*
X460D01*
X440Y1830D01*
X322Y1867D02*
X332Y1877D01*
X342D01*
X332Y1887D01*
X342Y1897D01*
X332D01*
X322Y1907D01*
X312Y1897D01*
X302D01*
X312Y1887D01*
X302Y1877D01*
X312D01*
X322Y1867D01*
X558D02*
X568Y1877D01*
X578D01*
X568Y1887D01*
X578Y1897D01*
X568D01*
X558Y1907D01*
X548Y1897D01*
X538D01*
X548Y1887D01*
X538Y1877D01*
X548D01*
X558Y1867D01*
X160Y1450D02*
X140Y1490D01*
X180D01*
X160Y1450D01*
Y1568D02*
X140Y1608D01*
X180D01*
X160Y1568D01*
X42Y1605D02*
X52Y1615D01*
X62D01*
X52Y1625D01*
X62Y1635D01*
X52D01*
X42Y1645D01*
X32Y1635D01*
X22D01*
X32Y1625D01*
X22Y1615D01*
X32D01*
X42Y1605D01*
X278D02*
X288Y1615D01*
X298D01*
X288Y1625D01*
X298Y1635D01*
X288D01*
X278Y1645D01*
X268Y1635D01*
X258D01*
X268Y1625D01*
X258Y1615D01*
X268D01*
X278Y1605D01*
X340Y1265D02*
Y1255D01*
X360D01*
Y1265D01*
X370D01*
Y1285D01*
X360D01*
Y1295D01*
X340D01*
Y1285D01*
X330D01*
Y1265D01*
X340D01*
X240D02*
Y1255D01*
X260D01*
Y1265D01*
X270D01*
Y1285D01*
X260D01*
Y1295D01*
X240D01*
Y1285D01*
X230D01*
Y1265D01*
X240D01*
X140D02*
Y1255D01*
X160D01*
Y1265D01*
X170D01*
Y1285D01*
X160D01*
Y1295D01*
X140D01*
Y1285D01*
X130D01*
Y1265D01*
X140D01*
X2609Y520D02*
X2619Y530D01*
X2629D01*
X2619Y540D01*
X2629Y550D01*
X2619D01*
X2609Y560D01*
X2599Y550D01*
X2589D01*
X2599Y540D01*
X2589Y530D01*
X2599D01*
X2609Y520D01*
X2963D02*
X2973Y530D01*
X2983D01*
X2973Y540D01*
X2983Y550D01*
X2973D01*
X2963Y560D01*
X2953Y550D01*
X2943D01*
X2953Y540D01*
X2943Y530D01*
X2953D01*
X2963Y520D01*
X2727Y365D02*
X2707Y405D01*
X2747D01*
X2727Y365D01*
Y483D02*
X2707Y523D01*
X2747D01*
X2727Y483D01*
X2845Y365D02*
X2825Y405D01*
X2865D01*
X2845Y365D01*
Y483D02*
X2825Y523D01*
X2865D01*
X2845Y483D01*
X2605Y885D02*
X2615Y895D01*
X2625D01*
X2615Y905D01*
X2625Y915D01*
X2615D01*
X2605Y925D01*
X2595Y915D01*
X2585D01*
X2595Y905D01*
X2585Y895D01*
X2595D01*
X2605Y885D01*
X2959D02*
X2969Y895D01*
X2979D01*
X2969Y905D01*
X2979Y915D01*
X2969D01*
X2959Y925D01*
X2949Y915D01*
X2939D01*
X2949Y905D01*
X2939Y895D01*
X2949D01*
X2959Y885D01*
X2723Y730D02*
X2703Y770D01*
X2743D01*
X2723Y730D01*
Y848D02*
X2703Y888D01*
X2743D01*
X2723Y848D01*
X2841Y730D02*
X2821Y770D01*
X2861D01*
X2841Y730D01*
Y848D02*
X2821Y888D01*
X2861D01*
X2841Y848D01*
X2605Y1250D02*
X2615Y1260D01*
X2625D01*
X2615Y1270D01*
X2625Y1280D01*
X2615D01*
X2605Y1290D01*
X2595Y1280D01*
X2585D01*
X2595Y1270D01*
X2585Y1260D01*
X2595D01*
X2605Y1250D01*
X2959D02*
X2969Y1260D01*
X2979D01*
X2969Y1270D01*
X2979Y1280D01*
X2969D01*
X2959Y1290D01*
X2949Y1280D01*
X2939D01*
X2949Y1270D01*
X2939Y1260D01*
X2949D01*
X2959Y1250D01*
X2723Y1095D02*
X2703Y1135D01*
X2743D01*
X2723Y1095D01*
Y1213D02*
X2703Y1253D01*
X2743D01*
X2723Y1213D01*
X2841Y1095D02*
X2821Y1135D01*
X2861D01*
X2841Y1095D01*
Y1213D02*
X2821Y1253D01*
X2861D01*
X2841Y1213D01*
X130Y130D02*
X140D01*
X150Y140D01*
X160Y130D01*
X170D01*
Y140D01*
X160Y150D01*
X170Y160D01*
Y170D01*
X160D01*
X150Y160D01*
X140Y170D01*
X130D01*
Y160D01*
X140Y150D01*
X130Y140D01*
Y130D01*
X2830D02*
X2840D01*
X2850Y140D01*
X2860Y130D01*
X2870D01*
Y140D01*
X2860Y150D01*
X2870Y160D01*
Y170D01*
X2860D01*
X2850Y160D01*
X2840Y170D01*
X2830D01*
Y160D01*
X2840Y150D01*
X2830Y140D01*
Y130D01*
Y1830D02*
X2840D01*
X2850Y1840D01*
X2860Y1830D01*
X2870D01*
Y1840D01*
X2860Y1850D01*
X2870Y1860D01*
Y1870D01*
X2860D01*
X2850Y1860D01*
X2840Y1870D01*
X2830D01*
Y1860D01*
X2840Y1850D01*
X2830Y1840D01*
Y1830D01*
X130D02*
X140D01*
X150Y1840D01*
X160Y1830D01*
X170D01*
Y1840D01*
X160Y1850D01*
X170Y1860D01*
Y1870D01*
X160D01*
X150Y1860D01*
X140Y1870D01*
X130D01*
Y1860D01*
X140Y1850D01*
X130Y1840D01*
Y1830D01*
X2840Y1585D02*
X2820Y1625D01*
X2860D01*
X2840Y1585D01*
Y1467D02*
X2820Y1507D01*
X2860D01*
X2840Y1467D01*
X2722Y1585D02*
X2702Y1625D01*
X2742D01*
X2722Y1585D01*
Y1467D02*
X2702Y1507D01*
X2742D01*
X2722Y1467D01*
X2958Y1622D02*
X2968Y1632D01*
X2978D01*
X2968Y1642D01*
X2978Y1652D01*
X2968D01*
X2958Y1662D01*
X2948Y1652D01*
X2938D01*
X2948Y1642D01*
X2938Y1632D01*
X2948D01*
X2958Y1622D01*
X2604D02*
X2614Y1632D01*
X2624D01*
X2614Y1642D01*
X2624Y1652D01*
X2614D01*
X2604Y1662D01*
X2594Y1652D01*
X2584D01*
X2594Y1642D01*
X2584Y1632D01*
X2594D01*
X2604Y1622D01*
X1240Y1355D02*
X1260Y1375D01*
X1280Y1355D01*
X1260Y1335D01*
X1240Y1355D01*
X1295Y1335D02*
X1315Y1355D01*
X1335Y1335D01*
X1315Y1315D01*
X1295Y1335D01*
X1085Y80D02*
X1105Y100D01*
X1125Y80D01*
X1105Y60D01*
X1085Y80D01*
X1460Y1765D02*
X1480Y1785D01*
X1500Y1765D01*
X1480Y1745D01*
X1460Y1765D01*
Y1815D02*
X1480Y1835D01*
X1500Y1815D01*
X1480Y1795D01*
X1460Y1815D01*
X800Y1280D02*
X820Y1300D01*
X840Y1280D01*
X820Y1260D01*
X800Y1280D01*
X1330Y1370D02*
X1350Y1390D01*
X1370Y1370D01*
X1350Y1350D01*
X1330Y1370D01*
X690Y1225D02*
X710Y1245D01*
X730Y1225D01*
X710Y1205D01*
X690Y1225D01*
Y1275D02*
X710Y1295D01*
X730Y1275D01*
X710Y1255D01*
X690Y1275D01*
X1860Y855D02*
X1880Y875D01*
X1900Y855D01*
X1880Y835D01*
X1860Y855D01*
X1660Y665D02*
X1680Y685D01*
X1700Y665D01*
X1680Y645D01*
X1660Y665D01*
X1800Y800D02*
X1820Y820D01*
X1840Y800D01*
X1820Y780D01*
X1800Y800D01*
X1830Y825D02*
X1850Y845D01*
X1870Y825D01*
X1850Y805D01*
X1830Y825D01*
X1924Y914D02*
X1944Y934D01*
X1964Y914D01*
X1944Y894D01*
X1924Y914D01*
X1890Y885D02*
X1910Y905D01*
X1930Y885D01*
X1910Y865D01*
X1890Y885D01*
X1770Y770D02*
X1790Y790D01*
X1810Y770D01*
X1790Y750D01*
X1770Y770D01*
X1705Y705D02*
X1725Y725D01*
X1745Y705D01*
X1725Y685D01*
X1705Y705D01*
X1885Y50D02*
X1905Y70D01*
X1925Y50D01*
X1905Y30D01*
X1885Y50D01*
X1755D02*
X1775Y70D01*
X1795Y50D01*
X1775Y30D01*
X1755Y50D01*
X1625D02*
X1645Y70D01*
X1665Y50D01*
X1645Y30D01*
X1625Y50D01*
X1495D02*
X1515Y70D01*
X1535Y50D01*
X1515Y30D01*
X1495Y50D01*
X1310Y435D02*
X1330Y455D01*
X1350Y435D01*
X1330Y415D01*
X1310Y435D01*
X1260D02*
X1280Y455D01*
X1300Y435D01*
X1280Y415D01*
X1260Y435D01*
X1210D02*
X1230Y455D01*
X1250Y435D01*
X1230Y415D01*
X1210Y435D01*
X1160D02*
X1180Y455D01*
X1200Y435D01*
X1180Y415D01*
X1160Y435D01*
X2200Y915D02*
X2220Y935D01*
X2240Y915D01*
X2220Y895D01*
X2200Y915D01*
X1885Y1115D02*
X1905Y1135D01*
X1925Y1115D01*
X1905Y1095D01*
X1885Y1115D01*
D92*
X2345Y120D02*
G03*
X2345Y120I-20J0D01*
G01*
X2295D02*
G03*
X2295Y120I-20J0D01*
G01*
X2345Y170D02*
G03*
X2345Y170I-20J0D01*
G01*
X2295D02*
G03*
X2295Y170I-20J0D01*
G01*
X2345Y220D02*
G03*
X2345Y220I-20J0D01*
G01*
X2295D02*
G03*
X2295Y220I-20J0D01*
G01*
X2345Y270D02*
G03*
X2345Y270I-20J0D01*
G01*
X2295D02*
G03*
X2295Y270I-20J0D01*
G01*
X2345Y320D02*
G03*
X2345Y320I-20J0D01*
G01*
X2295D02*
G03*
X2295Y320I-20J0D01*
G01*
%TF.MD5,1f250ca5b77b48f0f969de0292b005ff*%
M02*
