%TF.GenerationSoftware,Altium Limited,Altium Designer,19.1.8 (144)*%
G04 Layer_Color=32768*
%FSLAX23Y23*%
%MOIN*%
%TF.FileFunction,Other,Mechanical_15*%
%TF.Part,Single*%
G01*
G75*
%TA.AperFunction,NonConductor*%
%ADD42C,0.008*%
%ADD63C,0.002*%
%ADD66C,0.004*%
D42*
X2328Y28D02*
Y442D01*
X2132D02*
X2328D01*
X2132Y28D02*
Y442D01*
Y28D02*
X2328D01*
D63*
X987Y261D02*
Y328D01*
X876Y261D02*
Y328D01*
X987D01*
X876Y261D02*
X987D01*
X745Y27D02*
X1075D01*
X745Y263D02*
X1075D01*
Y27D02*
Y263D01*
X745Y27D02*
Y263D01*
X2225Y1790D02*
X2335D01*
X2225Y1850D02*
X2335D01*
X2225Y1790D02*
Y1850D01*
X2335Y1790D02*
Y1850D01*
X2225Y1860D02*
Y1920D01*
X2335Y1860D02*
Y1920D01*
X2225Y1860D02*
X2335D01*
X2225Y1920D02*
X2335D01*
X2005Y1790D02*
Y1850D01*
X2115Y1790D02*
Y1850D01*
X2005Y1790D02*
X2115D01*
X2005Y1850D02*
X2115D01*
X2005Y1860D02*
Y1920D01*
X2115Y1860D02*
Y1920D01*
X2005Y1860D02*
X2115D01*
X2005Y1920D02*
X2115D01*
X1600Y1662D02*
Y1728D01*
X1710Y1662D02*
Y1728D01*
X1600Y1662D02*
X1710D01*
X1600Y1728D02*
X1710D01*
X1195Y1662D02*
Y1728D01*
X1305Y1662D02*
Y1728D01*
X1195Y1662D02*
X1305D01*
X1195Y1728D02*
X1305D01*
X494Y1662D02*
Y1728D01*
X383Y1662D02*
Y1728D01*
X494D01*
X383Y1662D02*
X494D01*
X900D02*
Y1728D01*
X790Y1662D02*
Y1728D01*
X900D01*
X790Y1662D02*
X900D01*
X2895Y1175D02*
Y1235D01*
X2785Y1175D02*
Y1235D01*
X2895D01*
X2785Y1175D02*
X2895Y1175D01*
X2573Y1216D02*
X2747D01*
X2573Y1314D02*
X2747D01*
X2573Y1216D02*
Y1314D01*
X2747Y1216D02*
Y1314D01*
X2573Y1281D02*
X2747D01*
X2573Y1379D02*
X2747D01*
X2573Y1281D02*
Y1379D01*
X2747Y1281D02*
Y1379D01*
X2573Y1346D02*
X2747D01*
X2573Y1444D02*
X2747D01*
X2573Y1346D02*
Y1444D01*
X2747Y1346D02*
Y1444D01*
X2573Y1411D02*
X2747D01*
X2573Y1509D02*
X2747D01*
X2573Y1411D02*
Y1509D01*
X2747Y1411D02*
Y1509D01*
X743Y93D02*
Y204D01*
X676Y93D02*
Y204D01*
X743D01*
X676Y93D02*
X743D01*
X26Y664D02*
X244D01*
X26D02*
Y996D01*
X244D01*
Y664D02*
Y996D01*
X2286Y818D02*
X2384D01*
X2286Y992D02*
X2384D01*
X2286Y818D02*
Y992D01*
X2384Y818D02*
Y992D01*
X2098Y675D02*
Y785D01*
X2032Y675D02*
Y785D01*
X2098D01*
X2032Y675D02*
X2098D01*
X1722Y485D02*
X1800Y563D01*
X1680Y527D02*
X1758Y605D01*
X1800Y563D01*
X1680Y527D02*
X1722Y485D01*
X1657Y515D02*
X1735Y593D01*
X1615Y557D02*
X1693Y635D01*
X1735Y593D01*
X1615Y557D02*
X1657Y515D01*
X2347Y183D02*
X2413D01*
X2347Y294D02*
X2413D01*
X2347Y183D02*
Y294D01*
X2413Y183D02*
Y294D01*
X887Y1125D02*
X965Y1203D01*
X935Y1077D02*
X1013Y1155D01*
X887Y1125D02*
X935Y1077D01*
X965Y1203D02*
X1013Y1155D01*
X1025Y1067D02*
X1103Y1145D01*
X977Y1115D02*
X1055Y1193D01*
X1103Y1145D01*
X977Y1115D02*
X1025Y1067D01*
X80Y1062D02*
X190D01*
X80Y1128D02*
X190D01*
Y1062D02*
Y1128D01*
X80Y1062D02*
Y1128D01*
X2378Y859D02*
X2452D01*
X2378Y721D02*
X2452D01*
Y859D01*
X2378Y721D02*
Y859D01*
X2519Y1552D02*
Y1725D01*
X2421Y1552D02*
Y1725D01*
Y1552D02*
X2519D01*
X2421Y1725D02*
X2519D01*
X2841D02*
X2939D01*
X2841Y1552D02*
X2939D01*
X2841D02*
Y1725D01*
X2939Y1552D02*
Y1725D01*
X2701D02*
X2799D01*
X2701Y1552D02*
X2799D01*
X2701D02*
Y1725D01*
X2799Y1552D02*
Y1725D01*
X2561Y1725D02*
X2659D01*
X2561Y1552D02*
X2659D01*
X2561D02*
Y1725D01*
X2659Y1552D02*
Y1725D01*
X2591Y1234D02*
Y1486D01*
Y1234D02*
X2949D01*
X2591Y1486D02*
X2949D01*
Y1234D02*
Y1486D01*
X1500Y513D02*
X1987Y1000D01*
X1013D02*
X1500Y1487D01*
X1987Y1000D01*
X1013D02*
X1500Y513D01*
D66*
X912Y295D02*
X951D01*
X931Y275D02*
Y315D01*
X389Y330D02*
Y390D01*
X501Y330D02*
Y390D01*
X389D02*
X501D01*
X389Y330D02*
X501D01*
X425Y360D02*
X465D01*
X445Y340D02*
Y380D01*
X910Y125D02*
Y165D01*
X890Y145D02*
X930D01*
X2280Y1800D02*
Y1840D01*
X2260Y1820D02*
X2300D01*
X2260Y1890D02*
X2300D01*
X2280Y1870D02*
Y1910D01*
X2040Y1820D02*
X2080D01*
X2060Y1800D02*
Y1840D01*
X2040Y1890D02*
X2080D01*
X2060Y1870D02*
Y1910D01*
X1720Y1620D02*
X1780D01*
X1720Y1732D02*
X1780D01*
Y1620D02*
Y1732D01*
X1720Y1620D02*
Y1732D01*
X1750Y1656D02*
Y1696D01*
X1730Y1676D02*
X1770D01*
X1635Y1695D02*
X1675D01*
X1655Y1675D02*
Y1715D01*
X1230Y1695D02*
X1270D01*
X1250Y1675D02*
Y1715D01*
X1315Y1618D02*
X1375D01*
X1315Y1731D02*
X1375D01*
Y1618D02*
Y1731D01*
X1315Y1618D02*
Y1731D01*
X1345Y1655D02*
Y1694D01*
X1325Y1675D02*
X1365D01*
X419Y1695D02*
X458D01*
X439Y1675D02*
Y1715D01*
X825Y1695D02*
X865D01*
X845Y1675D02*
Y1715D01*
X905Y1619D02*
X965D01*
X905Y1731D02*
X965D01*
Y1619D02*
Y1731D01*
X905Y1619D02*
Y1731D01*
X935Y1655D02*
Y1695D01*
X915Y1675D02*
X955D01*
X500Y1619D02*
X560D01*
X500Y1731D02*
X560D01*
Y1619D02*
Y1731D01*
X500Y1619D02*
Y1731D01*
X530Y1655D02*
X530Y1695D01*
X510Y1675D02*
X550Y1675D01*
X2820Y1205D02*
X2860D01*
X2840Y1185D02*
Y1225D01*
X2660Y1245D02*
Y1285D01*
X2640Y1265D02*
X2680D01*
X2660Y1310D02*
Y1350D01*
X2640Y1330D02*
X2680D01*
X2660Y1375D02*
Y1415D01*
X2640Y1395D02*
X2680D01*
X2660Y1440D02*
Y1480D01*
X2640Y1460D02*
X2680D01*
X690Y148D02*
X730D01*
X710Y129D02*
Y168D01*
X2335Y885D02*
Y925D01*
X2315Y905D02*
X2355D01*
X2045Y730D02*
X2085D01*
X2065Y710D02*
Y750D01*
X1726Y559D02*
X1754Y531D01*
X1726Y531D02*
X1754Y559D01*
X1661Y589D02*
X1689Y561D01*
X1661Y561D02*
X1689Y589D01*
X2380Y219D02*
Y258D01*
X2360Y239D02*
X2400D01*
X1339Y1328D02*
X1392Y1381D01*
X1228Y1439D02*
X1281Y1492D01*
X1228Y1439D02*
X1339Y1328D01*
X1281Y1492D02*
X1392Y1381D01*
X1296Y1424D02*
X1324Y1396D01*
X1296D02*
X1324Y1424D01*
X936Y1154D02*
X964Y1126D01*
X936D02*
X964Y1154D01*
X1026Y1144D02*
X1054Y1116D01*
X1026D02*
X1054Y1144D01*
X135Y1075D02*
Y1115D01*
X115Y1095D02*
X155D01*
X2415Y770D02*
Y810D01*
X2395Y790D02*
X2435D01*
X2450Y1639D02*
X2490D01*
X2470Y1619D02*
Y1658D01*
X2890Y1619D02*
Y1658D01*
X2870Y1639D02*
X2910D01*
X2750Y1619D02*
Y1658D01*
X2730Y1639D02*
X2770D01*
X2610Y1619D02*
Y1658D01*
X2590Y1639D02*
X2630Y1639D01*
X2770Y1340D02*
Y1380D01*
X2750Y1360D02*
X2790D01*
X2857Y1708D02*
X2923D01*
X2857Y1572D02*
X2923D01*
Y1708D01*
X2857Y1572D02*
Y1708D01*
X2890Y1620D02*
Y1660D01*
X2870Y1640D02*
X2910D01*
X2717Y1708D02*
X2783D01*
X2717Y1572D02*
X2783D01*
Y1708D01*
X2717Y1572D02*
Y1708D01*
X2750Y1620D02*
Y1660D01*
X2730Y1640D02*
X2770D01*
X2577Y1707D02*
X2643D01*
X2577Y1571D02*
X2643D01*
Y1707D01*
X2577Y1571D02*
Y1707D01*
X2610Y1619D02*
Y1658D01*
X2590Y1639D02*
X2630D01*
X2437Y1707D02*
X2503D01*
X2437Y1571D02*
X2503D01*
Y1707D01*
X2437Y1571D02*
Y1707D01*
X2470Y1619D02*
Y1658D01*
X2450Y1639D02*
X2490D01*
X1486Y1014D02*
X1514Y986D01*
X1486D02*
X1514Y1014D01*
%TF.MD5,88616b4a926081e021764d7e1e77c9a9*%
M02*
