G04*
G04 #@! TF.GenerationSoftware,Altium Limited,Altium Designer,19.1.8 (144)*
G04*
G04 Layer_Color=128*
%FSLAX23Y23*%
%MOIN*%
G70*
G01*
G75*
%ADD20R,0.059X0.049*%
%ADD24R,0.043X0.053*%
%ADD73R,0.033X0.051*%
%ADD74R,0.047X0.031*%
%ADD75R,0.049X0.059*%
D20*
X2470Y1597D02*
D03*
Y1680D02*
D03*
X2890D02*
D03*
Y1597D02*
D03*
X2750Y1680D02*
D03*
Y1597D02*
D03*
X2610Y1680D02*
D03*
Y1597D02*
D03*
D24*
X960Y295D02*
D03*
X903D02*
D03*
X1626Y1695D02*
D03*
X1684D02*
D03*
X1221D02*
D03*
X1279D02*
D03*
X467D02*
D03*
X410D02*
D03*
X874D02*
D03*
X816D02*
D03*
D73*
X2247Y1820D02*
D03*
X2313D02*
D03*
X2247Y1890D02*
D03*
X2313D02*
D03*
X2027Y1820D02*
D03*
X2093D02*
D03*
X2027Y1890D02*
D03*
X2093D02*
D03*
X2873Y1205D02*
D03*
X2807D02*
D03*
D74*
X1750Y1646D02*
D03*
Y1705D02*
D03*
X1345Y1645D02*
D03*
Y1704D02*
D03*
X935Y1645D02*
D03*
Y1705D02*
D03*
X530Y1645D02*
D03*
Y1705D02*
D03*
D75*
X2619Y1265D02*
D03*
X2701D02*
D03*
X2619Y1330D02*
D03*
X2701D02*
D03*
X2619Y1395D02*
D03*
X2701D02*
D03*
X2619Y1460D02*
D03*
X2701D02*
D03*
M02*
