G04*
G04 #@! TF.GenerationSoftware,Altium Limited,Altium Designer,19.1.8 (144)*
G04*
G04 Layer_Color=16711935*
%FSLAX23Y23*%
%MOIN*%
G70*
G01*
G75*
%ADD33R,0.100X0.250*%
%ADD37R,0.067X0.057*%
%ADD41R,0.051X0.061*%
%ADD49C,0.067*%
%ADD50R,0.069X0.069*%
%ADD51C,0.069*%
%ADD52C,0.068*%
%ADD53C,0.008*%
%ADD54C,0.067*%
%ADD55R,0.067X0.067*%
%ADD56R,0.046X0.046*%
%ADD57C,0.046*%
%ADD58C,0.250*%
%ADD59C,0.248*%
%ADD60C,0.033*%
%ADD77R,0.041X0.059*%
%ADD78R,0.055X0.039*%
%ADD79R,0.057X0.067*%
D33*
X125Y1325D02*
D03*
D37*
X2470Y1597D02*
D03*
Y1680D02*
D03*
X2890D02*
D03*
Y1597D02*
D03*
X2750Y1680D02*
D03*
Y1597D02*
D03*
X2610Y1680D02*
D03*
Y1597D02*
D03*
D41*
X960Y295D02*
D03*
X903D02*
D03*
X1626Y1695D02*
D03*
X1684D02*
D03*
X1221D02*
D03*
X1279D02*
D03*
X467D02*
D03*
X410D02*
D03*
X874D02*
D03*
X816D02*
D03*
D49*
X1930Y1945D02*
D03*
X2186D02*
D03*
X1930Y1768D02*
D03*
X2186D02*
D03*
X2370Y1942D02*
D03*
X2626D02*
D03*
X2370Y1765D02*
D03*
X2626D02*
D03*
X1876Y57D02*
D03*
Y313D02*
D03*
X2054Y57D02*
D03*
Y313D02*
D03*
D50*
X85Y930D02*
D03*
D51*
Y830D02*
D03*
Y730D02*
D03*
X185Y930D02*
D03*
Y830D02*
D03*
Y730D02*
D03*
D52*
X2560Y105D02*
D03*
Y223D02*
D03*
X2840Y488D02*
D03*
Y370D02*
D03*
X534Y234D02*
D03*
Y116D02*
D03*
X416Y234D02*
D03*
Y116D02*
D03*
X1631Y1766D02*
D03*
Y1884D02*
D03*
X1749Y1766D02*
D03*
Y1884D02*
D03*
X1226Y1766D02*
D03*
Y1884D02*
D03*
X1344Y1766D02*
D03*
Y1884D02*
D03*
X2840Y1085D02*
D03*
Y967D02*
D03*
X2722Y1085D02*
D03*
Y967D02*
D03*
X2840Y780D02*
D03*
Y662D02*
D03*
X2722Y780D02*
D03*
Y662D02*
D03*
X821Y1766D02*
D03*
Y1884D02*
D03*
X939Y1766D02*
D03*
Y1884D02*
D03*
X533Y1883D02*
D03*
Y1765D02*
D03*
X415Y1883D02*
D03*
Y1765D02*
D03*
D53*
X2442Y260D02*
D03*
X2678D02*
D03*
X2958Y333D02*
D03*
X2722D02*
D03*
X652Y79D02*
D03*
X298D02*
D03*
X1513Y1921D02*
D03*
X1867D02*
D03*
X1108D02*
D03*
X1462D02*
D03*
X2958Y930D02*
D03*
X2604D02*
D03*
X2958Y625D02*
D03*
X2604D02*
D03*
X703Y1921D02*
D03*
X1057D02*
D03*
X651Y1920D02*
D03*
X297D02*
D03*
D54*
X2525Y905D02*
D03*
Y805D02*
D03*
D55*
Y705D02*
D03*
D56*
X150Y1225D02*
D03*
D57*
X100D02*
D03*
X150Y1275D02*
D03*
X100D02*
D03*
X150Y1325D02*
D03*
X100D02*
D03*
X150Y1375D02*
D03*
X100D02*
D03*
X150Y1425D02*
D03*
X100D02*
D03*
D58*
X150Y1850D02*
D03*
X2850D02*
D03*
D59*
Y150D02*
D03*
X150D02*
D03*
D60*
X1135Y1150D02*
D03*
X1098Y1112D02*
D03*
X1143Y1195D02*
D03*
X1865Y1155D02*
D03*
X1220Y1235D02*
D03*
X1180Y1225D02*
D03*
X890Y1160D02*
D03*
X1830Y1190D02*
D03*
X2075Y650D02*
D03*
X2920Y1205D02*
D03*
X2555Y1285D02*
D03*
Y1340D02*
D03*
Y1380D02*
D03*
X2556Y1439D02*
D03*
X1130Y850D02*
D03*
X1085Y895D02*
D03*
X2965Y1700D02*
D03*
X2540D02*
D03*
X2680D02*
D03*
X2820D02*
D03*
X2385Y85D02*
D03*
X1295Y685D02*
D03*
X1015Y295D02*
D03*
X1660Y640D02*
D03*
X1906Y880D02*
D03*
X2247Y1945D02*
D03*
X1320Y1335D02*
D03*
X2245Y1765D02*
D03*
X2265Y945D02*
D03*
X200Y1245D02*
D03*
X1995Y755D02*
D03*
X1260Y1500D02*
D03*
D77*
X2247Y1820D02*
D03*
X2313D02*
D03*
X2247Y1890D02*
D03*
X2313D02*
D03*
X2027Y1820D02*
D03*
X2093D02*
D03*
X2027Y1890D02*
D03*
X2093D02*
D03*
X2873Y1205D02*
D03*
X2807D02*
D03*
D78*
X1750Y1646D02*
D03*
Y1705D02*
D03*
X1345Y1645D02*
D03*
Y1704D02*
D03*
X935Y1645D02*
D03*
Y1705D02*
D03*
X530Y1645D02*
D03*
Y1705D02*
D03*
D79*
X2619Y1265D02*
D03*
X2701D02*
D03*
X2619Y1330D02*
D03*
X2701D02*
D03*
X2619Y1395D02*
D03*
X2701D02*
D03*
X2619Y1460D02*
D03*
X2701D02*
D03*
M02*
