%TF.GenerationSoftware,Altium Limited,Altium Designer,19.1.8 (144)*%
G04 Layer_Color=32768*
%FSLAX23Y23*%
%MOIN*%
%TF.FileFunction,Other,Mechanical_15*%
%TF.Part,Single*%
G01*
G75*
%TA.AperFunction,NonConductor*%
%ADD41C,0.008*%
%ADD63C,0.002*%
%ADD66C,0.004*%
D41*
X721Y1508D02*
Y1922D01*
Y1508D02*
X918D01*
Y1922D01*
X721D02*
X918D01*
D63*
X1020Y58D02*
X1080D01*
X1020Y169D02*
X1080D01*
Y58D02*
Y169D01*
X1020Y58D02*
X1020Y169D01*
X94Y276D02*
Y1124D01*
X306Y276D02*
Y1124D01*
X94Y276D02*
X306D01*
X94Y1124D02*
X306D01*
X1794Y426D02*
X1869Y501D01*
X1841Y379D02*
X1916Y454D01*
X1794Y426D02*
X1841Y379D01*
X1869Y501D02*
X1916Y454D01*
X1634Y591D02*
X1709Y666D01*
X1681Y544D02*
X1756Y619D01*
X1634Y591D02*
X1681Y544D01*
X1709Y666D02*
X1756Y619D01*
X1606Y1907D02*
X1717D01*
X1606Y1973D02*
X1717D01*
Y1907D02*
Y1973D01*
X1606Y1907D02*
Y1973D01*
X1305Y1592D02*
Y1658D01*
X1195Y1592D02*
Y1658D01*
X1305D01*
X1195Y1592D02*
X1305D01*
X2755Y282D02*
X2865D01*
X2755Y348D02*
X2865D01*
X2755Y282D02*
Y348D01*
X2865Y282D02*
Y348D01*
X2755Y642D02*
X2865D01*
X2755Y708D02*
X2865D01*
X2755Y642D02*
Y708D01*
X2865Y642D02*
Y708D01*
X2761Y1012D02*
X2872D01*
X2761Y1078D02*
X2872D01*
X2761Y1012D02*
Y1078D01*
X2872Y1012D02*
Y1078D01*
X2865Y1382D02*
Y1448D01*
X2755Y1382D02*
Y1448D01*
X2865D01*
X2755Y1382D02*
X2865D01*
X2075Y1735D02*
X2135D01*
X2075Y1625D02*
X2135D01*
X2075D02*
Y1735D01*
X2135Y1625D02*
X2135Y1735D01*
X1975D02*
X2035D01*
X1975Y1625D02*
X2035D01*
X1975D02*
Y1735D01*
X2035Y1625D02*
X2035Y1735D01*
X216Y1212D02*
X354D01*
X216Y1138D02*
X354D01*
Y1212D01*
X216Y1138D02*
Y1212D01*
X1401Y8D02*
X1499D01*
X1401Y182D02*
X1499D01*
Y8D02*
Y182D01*
X1401Y8D02*
Y182D01*
X1531Y8D02*
Y182D01*
X1629Y8D02*
Y182D01*
X1531D02*
X1629D01*
X1531Y8D02*
X1629D01*
X1661Y8D02*
Y182D01*
X1759Y8D02*
Y182D01*
X1661D02*
X1759D01*
X1661Y8D02*
X1759D01*
X1791Y7D02*
X1889D01*
X1791Y180D02*
X1889D01*
Y7D02*
Y180D01*
X1791Y7D02*
Y180D01*
X1689Y466D02*
X1809Y586D01*
X1761Y394D02*
X1881Y514D01*
X1689Y466D02*
X1761Y394D01*
X1809Y586D02*
X1881Y514D01*
X1760Y613D02*
X1808Y565D01*
X1682Y535D02*
X1730Y487D01*
X1808Y565D01*
X1682Y535D02*
X1760Y613D01*
X2222Y1855D02*
X2288D01*
X2222Y1745D02*
X2288D01*
Y1855D01*
X2222Y1745D02*
Y1855D01*
X1495Y1622D02*
X1825D01*
X1495Y1858D02*
X1825D01*
Y1622D02*
Y1858D01*
X1495Y1622D02*
Y1858D01*
X410Y330D02*
X520D01*
X410Y270D02*
X520D01*
Y330D01*
X410Y270D02*
Y330D01*
X519Y130D02*
Y190D01*
X408Y130D02*
Y190D01*
X519D01*
X408Y130D02*
X519D01*
X860Y270D02*
Y330D01*
X750Y270D02*
Y330D01*
X860D01*
X750Y270D02*
X860D01*
Y130D02*
Y190D01*
X750Y130D02*
Y190D01*
X860D01*
X750Y130D02*
X860D01*
X1091Y93D02*
Y267D01*
X1189Y93D02*
Y267D01*
X1091D02*
X1189D01*
X1091Y93D02*
X1189D01*
X1166D02*
Y267D01*
X1264Y93D02*
Y267D01*
X1166D02*
X1264D01*
X1166Y93D02*
X1264D01*
X1246D02*
Y267D01*
X1344Y93D02*
Y267D01*
X1246D02*
X1344D01*
X1246Y93D02*
X1344D01*
X1321D02*
Y267D01*
X1419Y93D02*
Y267D01*
X1321D02*
X1419D01*
X1321Y93D02*
X1419D01*
X2326Y1594D02*
X2544D01*
X2326D02*
Y1926D01*
X2544D01*
Y1594D02*
Y1926D01*
X732Y1195D02*
Y1305D01*
X798Y1195D02*
Y1305D01*
X732Y1195D02*
X798D01*
X732Y1305D02*
X798D01*
X617Y1770D02*
X683D01*
X617Y1660D02*
X683D01*
Y1770D01*
X617Y1660D02*
Y1770D01*
X2050Y802D02*
X2128Y880D01*
X2002Y850D02*
X2080Y928D01*
X2128Y880D01*
X2002Y850D02*
X2050Y802D01*
X1912Y855D02*
X1990Y933D01*
X1960Y807D02*
X2038Y885D01*
X1912Y855D02*
X1960Y807D01*
X1990Y933D02*
X2038Y885D01*
X2488Y236D02*
Y347D01*
X2422Y236D02*
Y347D01*
X2488D01*
X2422Y236D02*
X2488D01*
X1129Y409D02*
X1381D01*
X1129Y51D02*
Y409D01*
X1381Y51D02*
Y409D01*
X1129Y51D02*
X1381D01*
X1013Y1000D02*
X1500Y1487D01*
Y513D02*
X1987Y1000D01*
X1013D02*
X1500Y513D01*
Y1487D02*
X1987Y1000D01*
D66*
X1050Y94D02*
Y133D01*
X1030Y113D02*
X1070D01*
X1841Y454D02*
X1869Y426D01*
X1841D02*
X1869Y454D01*
X1681Y619D02*
X1709Y591D01*
X1681D02*
X1709Y619D01*
X1661Y1920D02*
Y1960D01*
X1642Y1940D02*
X1681D01*
X1230Y1625D02*
X1270D01*
X1250Y1605D02*
Y1645D01*
X1040Y1726D02*
X1100D01*
X1040Y1614D02*
X1100D01*
X1040D02*
Y1726D01*
X1100Y1614D02*
Y1726D01*
X1070Y1650D02*
Y1690D01*
X1050Y1670D02*
X1090D01*
X2810Y295D02*
Y335D01*
X2790Y315D02*
X2830D01*
X2615Y350D02*
X2655D01*
X2635Y330D02*
Y370D01*
X2605Y294D02*
Y406D01*
X2665Y294D02*
Y406D01*
X2605D02*
X2665D01*
X2605Y294D02*
X2665D01*
X2810Y655D02*
Y695D01*
X2790Y675D02*
X2830D01*
X2615Y715D02*
X2655D01*
X2635Y695D02*
Y735D01*
X2605Y659D02*
Y771D01*
X2665Y659D02*
Y771D01*
X2605D02*
X2665D01*
X2605Y659D02*
X2665D01*
X2615Y1080D02*
X2655D01*
X2635Y1060D02*
Y1100D01*
X2605Y1024D02*
Y1136D01*
X2665Y1024D02*
Y1136D01*
X2605D02*
X2665D01*
X2605Y1024D02*
X2665D01*
X2615Y1455D02*
X2655Y1455D01*
X2635Y1435D02*
X2635Y1475D01*
X2605Y1399D02*
Y1511D01*
X2665Y1399D02*
Y1511D01*
X2605D02*
X2665D01*
X2605Y1399D02*
X2665D01*
X2816Y1025D02*
Y1065D01*
X2797Y1045D02*
X2836D01*
X2790Y1415D02*
X2830D01*
X2810Y1395D02*
Y1435D01*
X2105Y1660D02*
Y1700D01*
X2085Y1680D02*
X2125D01*
X2005Y1660D02*
Y1700D01*
X1985Y1680D02*
X2025D01*
X285Y1155D02*
Y1195D01*
X265Y1175D02*
X305D01*
X1450Y75D02*
Y115D01*
X1430Y95D02*
X1470D01*
X1560D02*
X1600D01*
X1580Y75D02*
Y115D01*
X1690Y95D02*
X1730Y95D01*
X1710Y75D02*
Y115D01*
X1840Y74D02*
Y113D01*
X1820Y94D02*
X1860D01*
X1771Y504D02*
X1799Y476D01*
X1771D02*
X1799Y504D01*
X1731Y536D02*
X1759Y564D01*
X1731D02*
X1759Y536D01*
X2255Y1780D02*
Y1820D01*
X2235Y1800D02*
X2275D01*
X1660Y1720D02*
Y1760D01*
X1640Y1740D02*
X1680D01*
X465Y280D02*
Y320D01*
X445Y300D02*
X485D01*
X444Y160D02*
X483D01*
X463Y140D02*
Y180D01*
X785Y300D02*
X825D01*
X805Y280D02*
Y320D01*
X785Y160D02*
X825D01*
X805Y140D02*
Y180D01*
X1120Y180D02*
X1160D01*
X1140Y160D02*
Y200D01*
X1195Y180D02*
X1235D01*
X1215Y160D02*
Y200D01*
X1275Y180D02*
X1315D01*
X1295Y160D02*
Y200D01*
X1350Y180D02*
X1390D01*
X1370Y160D02*
Y200D01*
X745Y1250D02*
X785D01*
X765Y1230D02*
Y1270D01*
X650Y1695D02*
Y1735D01*
X630Y1715D02*
X670D01*
X2199Y952D02*
X2252Y899D01*
X2088Y841D02*
X2141Y788D01*
X2252Y899D01*
X2088Y841D02*
X2199Y952D01*
X2156Y856D02*
X2184Y884D01*
X2156Y884D02*
X2184Y856D01*
X2051Y879D02*
X2079Y851D01*
X2051D02*
X2079Y879D01*
X1961Y884D02*
X1989Y856D01*
X1961D02*
X1989Y884D01*
X2435Y291D02*
X2475D01*
X2455Y272D02*
Y311D01*
X1235Y230D02*
X1275D01*
X1255Y210D02*
Y250D01*
X1417Y27D02*
X1483D01*
X1417Y163D02*
X1483D01*
X1417Y27D02*
Y163D01*
X1483Y27D02*
Y163D01*
X1450Y75D02*
Y115D01*
X1430Y95D02*
X1470D01*
X1547Y27D02*
X1613D01*
X1547Y163D02*
X1613D01*
X1547Y27D02*
Y163D01*
X1613Y27D02*
Y163D01*
X1580Y75D02*
Y115D01*
X1560Y95D02*
X1600D01*
X1677Y26D02*
X1743D01*
X1677Y162D02*
X1743D01*
X1677Y26D02*
Y162D01*
X1743Y26D02*
Y162D01*
X1710Y74D02*
Y113D01*
X1690Y94D02*
X1730D01*
X1807Y26D02*
X1873D01*
X1807Y162D02*
X1873D01*
X1807Y26D02*
Y162D01*
X1873Y26D02*
Y162D01*
X1840Y74D02*
Y113D01*
X1820Y94D02*
X1860D01*
X1486Y1014D02*
X1514Y986D01*
X1486D02*
X1514Y1014D01*
%TF.MD5,a53d31ff54f385f081c9773bb63d3a6a*%
M02*
