%TF.GenerationSoftware,Altium Limited,Altium Designer,19.1.8 (144)*%
G04 Layer_Physical_Order=2*
G04 Layer_Color=16711680*
%FSLAX23Y23*%
%MOIN*%
%TF.FileFunction,Copper,L2,Bot,Signal*%
%TF.Part,Single*%
G01*
G75*
%TA.AperFunction,SMDPad,CuDef*%
%ADD12R,0.043X0.053*%
%TA.AperFunction,Conductor*%
%ADD24C,0.012*%
%TA.AperFunction,ComponentPad*%
%ADD25R,0.061X0.061*%
%ADD26C,0.061*%
%ADD27C,0.040*%
%ADD28R,0.040X0.040*%
%ADD29C,0.060*%
%ADD30C,0.059*%
%ADD31C,0.059*%
%ADD32R,0.059X0.059*%
%TA.AperFunction,ViaPad*%
%ADD33C,0.240*%
%ADD34C,0.025*%
%TA.AperFunction,SMDPad,CuDef*%
%ADD35R,0.051X0.033*%
%ADD36R,0.047X0.031*%
%ADD37R,0.041X0.055*%
%TA.AperFunction,ConnectorPad*%
%ADD38R,0.059X0.049*%
%TA.AperFunction,SMDPad,CuDef*%
%ADD39R,0.033X0.051*%
%ADD40R,0.059X0.049*%
G36*
X2842Y1990D02*
X2842Y1985D01*
X2829Y1984D01*
X2808Y1979D01*
X2789Y1971D01*
X2770Y1960D01*
X2754Y1946D01*
X2740Y1930D01*
X2729Y1911D01*
X2721Y1892D01*
X2716Y1871D01*
X2715Y1850D01*
X2716Y1829D01*
X2721Y1808D01*
X2729Y1789D01*
X2740Y1770D01*
X2754Y1754D01*
X2770Y1740D01*
X2789Y1729D01*
X2808Y1721D01*
X2829Y1716D01*
X2850Y1715D01*
X2871Y1716D01*
X2892Y1721D01*
X2911Y1729D01*
X2930Y1740D01*
X2946Y1754D01*
X2960Y1770D01*
X2971Y1789D01*
X2979Y1808D01*
X2984Y1829D01*
X2985Y1842D01*
X2990Y1842D01*
Y1666D01*
X2985Y1665D01*
X2983Y1667D01*
X2976Y1673D01*
X2967Y1676D01*
X2958Y1677D01*
X2949Y1676D01*
X2940Y1673D01*
X2933Y1667D01*
X2928Y1660D01*
X2924Y1651D01*
X2923Y1642D01*
X2924Y1633D01*
X2928Y1624D01*
X2933Y1617D01*
X2940Y1611D01*
X2949Y1608D01*
X2958Y1607D01*
X2967Y1608D01*
X2976Y1611D01*
X2983Y1617D01*
X2985Y1619D01*
X2990Y1618D01*
X2990Y1296D01*
X2985Y1294D01*
X2984Y1295D01*
X2977Y1301D01*
X2968Y1304D01*
X2959Y1305D01*
X2950Y1304D01*
X2942Y1301D01*
X2934Y1295D01*
X2929Y1288D01*
X2925Y1279D01*
X2924Y1270D01*
X2925Y1261D01*
X2929Y1252D01*
X2934Y1245D01*
X2942Y1239D01*
X2950Y1236D01*
X2959Y1235D01*
X2968Y1236D01*
X2977Y1239D01*
X2984Y1245D01*
X2985Y1246D01*
X2990Y1244D01*
Y931D01*
X2985Y929D01*
X2984Y930D01*
X2977Y936D01*
X2968Y939D01*
X2959Y940D01*
X2950Y939D01*
X2942Y936D01*
X2934Y930D01*
X2929Y923D01*
X2925Y914D01*
X2924Y905D01*
X2925Y896D01*
X2929Y887D01*
X2934Y880D01*
X2942Y874D01*
X2950Y871D01*
X2959Y870D01*
X2968Y871D01*
X2977Y874D01*
X2984Y880D01*
X2985Y881D01*
X2990Y879D01*
Y570D01*
X2985Y568D01*
X2981Y571D01*
X2972Y574D01*
X2963Y575D01*
X2954Y574D01*
X2945Y571D01*
X2938Y565D01*
X2933Y558D01*
X2929Y549D01*
X2928Y540D01*
X2929Y531D01*
X2933Y522D01*
X2938Y515D01*
X2945Y510D01*
X2954Y506D01*
X2963Y505D01*
X2972Y506D01*
X2981Y510D01*
X2985Y513D01*
X2990Y510D01*
Y158D01*
X2985Y158D01*
X2984Y171D01*
X2979Y192D01*
X2971Y211D01*
X2960Y230D01*
X2946Y246D01*
X2930Y260D01*
X2911Y271D01*
X2892Y279D01*
X2871Y284D01*
X2870Y284D01*
Y305D01*
X2839D01*
Y325D01*
X2870D01*
Y352D01*
X2870Y352D01*
X2870D01*
X2872Y356D01*
X2874Y356D01*
X2880Y365D01*
X2884Y375D01*
X2884Y375D01*
X2845D01*
X2806D01*
X2806Y375D01*
X2810Y365D01*
X2813Y361D01*
X2811Y357D01*
X2767D01*
X2765Y361D01*
X2766Y362D01*
X2771Y373D01*
X2772Y385D01*
X2771Y397D01*
X2766Y408D01*
X2759Y417D01*
X2750Y424D01*
X2739Y429D01*
X2727Y430D01*
X2715Y429D01*
X2704Y424D01*
X2695Y417D01*
X2688Y408D01*
X2686Y404D01*
X2674D01*
Y410D01*
X2596D01*
Y388D01*
X2592Y386D01*
X2205Y772D01*
X2207Y777D01*
X2505D01*
X2596Y686D01*
Y655D01*
X2674D01*
Y664D01*
X2745D01*
Y633D01*
X2818D01*
Y638D01*
X2829D01*
Y675D01*
X2839D01*
Y685D01*
X2870D01*
Y712D01*
X2864D01*
X2864Y717D01*
X2870Y721D01*
X2876Y730D01*
X2880Y739D01*
X2880Y740D01*
X2841D01*
X2802D01*
X2802Y739D01*
X2806Y730D01*
X2813Y722D01*
X2812Y721D01*
X2811Y717D01*
X2761D01*
X2758Y722D01*
X2762Y727D01*
X2767Y738D01*
X2768Y750D01*
X2767Y762D01*
X2762Y773D01*
X2755Y782D01*
X2746Y789D01*
X2735Y794D01*
X2723Y795D01*
X2711Y794D01*
X2700Y789D01*
X2691Y782D01*
X2684Y773D01*
X2682Y769D01*
X2674D01*
Y775D01*
X2596D01*
Y753D01*
X2592Y751D01*
X2529Y814D01*
X2522Y818D01*
X2514Y820D01*
X2433D01*
X2431Y825D01*
X2627Y1020D01*
X2674D01*
Y1029D01*
X2751D01*
Y1003D01*
X2824D01*
Y1008D01*
X2835D01*
Y1045D01*
X2845D01*
Y1055D01*
X2876D01*
Y1082D01*
X2871D01*
X2870Y1085D01*
X2870Y1087D01*
X2876Y1095D01*
X2880Y1104D01*
X2880Y1105D01*
X2841D01*
X2802D01*
X2802Y1104D01*
X2806Y1095D01*
X2809Y1091D01*
X2807Y1087D01*
X2764D01*
X2762Y1091D01*
X2762Y1092D01*
X2767Y1103D01*
X2768Y1115D01*
X2767Y1127D01*
X2762Y1138D01*
X2755Y1147D01*
X2746Y1154D01*
X2735Y1159D01*
X2723Y1160D01*
X2711Y1159D01*
X2700Y1154D01*
X2691Y1147D01*
X2684Y1138D01*
X2682Y1134D01*
X2674D01*
Y1140D01*
X2596D01*
Y1079D01*
Y1050D01*
X2393Y846D01*
X2085D01*
X2083Y851D01*
X2627Y1395D01*
X2674D01*
Y1404D01*
X2745D01*
Y1373D01*
X2818D01*
Y1378D01*
X2829D01*
Y1415D01*
X2839D01*
Y1425D01*
X2870D01*
Y1452D01*
X2868D01*
X2866Y1457D01*
X2869Y1458D01*
X2875Y1467D01*
X2879Y1476D01*
X2879Y1477D01*
X2840D01*
X2801D01*
X2801Y1476D01*
X2805Y1467D01*
X2809Y1462D01*
X2807Y1457D01*
X2761D01*
X2759Y1461D01*
X2761Y1464D01*
X2766Y1475D01*
X2767Y1487D01*
X2766Y1499D01*
X2761Y1510D01*
X2754Y1519D01*
X2745Y1526D01*
X2734Y1531D01*
X2722Y1532D01*
X2710Y1531D01*
X2699Y1526D01*
X2690Y1519D01*
X2683Y1510D01*
X2682Y1507D01*
X2674D01*
Y1515D01*
X2596D01*
Y1454D01*
Y1425D01*
X2048Y876D01*
X1941D01*
X1937Y881D01*
X1938Y885D01*
X1937Y887D01*
X1942Y891D01*
X1944Y891D01*
X1953Y893D01*
X1960Y898D01*
X1964Y904D01*
X1944D01*
Y914D01*
X1934D01*
Y934D01*
X1928Y930D01*
X1923Y923D01*
X1921Y916D01*
X1918Y913D01*
X1916Y912D01*
X1910Y913D01*
X1903Y912D01*
X1896Y909D01*
X1893Y906D01*
X1736D01*
X1333Y1310D01*
X1334Y1315D01*
X1335Y1315D01*
X1339Y1321D01*
X1342Y1328D01*
X1343Y1335D01*
X1342Y1338D01*
X1347Y1343D01*
X1350Y1342D01*
X1357Y1343D01*
X1364Y1346D01*
X1370Y1350D01*
X1374Y1356D01*
X1377Y1363D01*
X1377Y1367D01*
X1605Y1594D01*
X2036D01*
X2045Y1596D01*
X2052Y1601D01*
X2066Y1615D01*
X2146D01*
Y1632D01*
X2349D01*
X2353Y1628D01*
X2362Y1620D01*
X2370Y1617D01*
X2371Y1611D01*
X1902Y1142D01*
X1898Y1142D01*
X1891Y1139D01*
X1885Y1135D01*
X1881Y1129D01*
X1878Y1122D01*
X1877Y1115D01*
X1878Y1108D01*
X1881Y1101D01*
X1885Y1095D01*
X1891Y1091D01*
X1898Y1088D01*
X1905Y1087D01*
X1912Y1088D01*
X1919Y1091D01*
X1925Y1095D01*
X1929Y1101D01*
X1932Y1108D01*
X1932Y1112D01*
X2445Y1624D01*
X2449Y1631D01*
X2449Y1632D01*
X2454Y1633D01*
X2456Y1631D01*
X2465Y1625D01*
X2474Y1621D01*
X2475Y1620D01*
Y1660D01*
Y1700D01*
X2474Y1699D01*
X2465Y1695D01*
X2456Y1689D01*
X2456Y1688D01*
X2451Y1690D01*
Y1722D01*
X2456Y1725D01*
X2462Y1720D01*
X2473Y1716D01*
X2485Y1714D01*
X2497Y1716D01*
X2508Y1720D01*
X2517Y1728D01*
X2525Y1737D01*
X2529Y1748D01*
X2531Y1760D01*
X2529Y1772D01*
X2525Y1783D01*
X2517Y1792D01*
X2508Y1800D01*
X2497Y1804D01*
X2485Y1806D01*
X2473Y1804D01*
X2462Y1800D01*
X2453Y1792D01*
X2451Y1791D01*
X2446Y1791D01*
X2445Y1794D01*
X2431Y1807D01*
Y1835D01*
X2431Y1838D01*
Y1906D01*
X2339D01*
Y1814D01*
X2388D01*
Y1809D01*
X2385Y1806D01*
X2373Y1804D01*
X2362Y1800D01*
X2353Y1792D01*
X2345Y1783D01*
X2341Y1772D01*
X2339Y1760D01*
X2341Y1748D01*
X2345Y1737D01*
X2353Y1728D01*
X2362Y1720D01*
X2373Y1716D01*
X2385Y1714D01*
X2397Y1716D01*
X2403Y1718D01*
X2408Y1715D01*
Y1705D01*
X2403Y1702D01*
X2397Y1704D01*
X2385Y1706D01*
X2373Y1704D01*
X2362Y1700D01*
X2353Y1692D01*
X2345Y1683D01*
X2342Y1675D01*
X2216D01*
X2214Y1679D01*
X2215Y1680D01*
X2222Y1689D01*
X2226Y1700D01*
X2228Y1711D01*
X2226Y1723D01*
X2222Y1734D01*
X2215Y1743D01*
X2205Y1750D01*
X2195Y1755D01*
X2183Y1756D01*
X2171Y1755D01*
X2161Y1750D01*
X2151Y1743D01*
X2150Y1742D01*
X2146Y1744D01*
Y1745D01*
X2064D01*
Y1733D01*
X2046D01*
Y1745D01*
X1964D01*
Y1744D01*
X1960Y1742D01*
X1959Y1743D01*
X1949Y1750D01*
X1939Y1755D01*
X1927Y1756D01*
X1915Y1755D01*
X1905Y1750D01*
X1895Y1743D01*
X1888Y1734D01*
X1884Y1723D01*
X1882Y1711D01*
X1884Y1700D01*
X1888Y1689D01*
X1895Y1680D01*
X1904Y1673D01*
X1904Y1671D01*
X1903Y1668D01*
X1589D01*
X1581Y1666D01*
X1574Y1662D01*
X1315Y1402D01*
X1310Y1404D01*
Y1435D01*
X1532Y1656D01*
X1536Y1663D01*
X1538Y1671D01*
Y1778D01*
X1536Y1787D01*
X1532Y1794D01*
X1507Y1818D01*
X1507Y1822D01*
X1504Y1829D01*
X1500Y1835D01*
X1494Y1839D01*
X1487Y1842D01*
X1480Y1843D01*
X1473Y1842D01*
X1466Y1839D01*
X1460Y1835D01*
X1456Y1829D01*
X1453Y1822D01*
X1452Y1815D01*
X1453Y1808D01*
X1456Y1801D01*
X1460Y1795D01*
X1463Y1793D01*
Y1787D01*
X1460Y1785D01*
X1456Y1779D01*
X1453Y1772D01*
X1452Y1765D01*
X1453Y1762D01*
X1315Y1624D01*
X1310Y1625D01*
Y1662D01*
X1301D01*
X1300Y1667D01*
X1307Y1671D01*
X1313Y1680D01*
X1317Y1690D01*
X1317Y1690D01*
X1278D01*
X1239D01*
X1239Y1690D01*
X1243Y1680D01*
X1250Y1672D01*
X1249Y1670D01*
X1248Y1667D01*
X1197D01*
X1195Y1672D01*
X1199Y1677D01*
X1204Y1688D01*
X1205Y1700D01*
X1204Y1712D01*
X1199Y1723D01*
X1192Y1732D01*
X1183Y1739D01*
X1172Y1744D01*
X1160Y1745D01*
X1148Y1744D01*
X1137Y1739D01*
X1128Y1732D01*
X1121Y1723D01*
X1120Y1721D01*
X1109D01*
Y1730D01*
X1031D01*
Y1669D01*
Y1610D01*
X1109D01*
Y1619D01*
X1185D01*
Y1583D01*
X1224D01*
X1228Y1577D01*
X1236Y1569D01*
X1243Y1565D01*
X1251Y1563D01*
X1306D01*
X1314Y1565D01*
X1321Y1569D01*
X1490Y1738D01*
X1495Y1736D01*
X1495Y1736D01*
Y1680D01*
X1273Y1459D01*
X1269Y1452D01*
X1267Y1444D01*
Y1380D01*
X1263Y1377D01*
X1260Y1378D01*
X1251Y1376D01*
X1244Y1371D01*
X1240Y1365D01*
X1260D01*
Y1345D01*
X1240D01*
X1244Y1339D01*
X1251Y1334D01*
X1260Y1332D01*
X1263Y1333D01*
X1267Y1330D01*
Y1324D01*
X1269Y1316D01*
X1273Y1309D01*
X1712Y870D01*
X1719Y865D01*
X1728Y864D01*
X1849D01*
X1853Y859D01*
X1852Y855D01*
X1850Y853D01*
X1843Y852D01*
X1836Y849D01*
X1830Y845D01*
X1826Y839D01*
X1823Y832D01*
X1823Y827D01*
X1820Y828D01*
X1813Y827D01*
X1806Y824D01*
X1800Y820D01*
X1796Y814D01*
X1793Y807D01*
X1793Y802D01*
X1790Y798D01*
X1783Y797D01*
X1776Y794D01*
X1770Y790D01*
X1766Y784D01*
X1763Y777D01*
X1762Y770D01*
X1763Y763D01*
X1766Y756D01*
X1770Y750D01*
X1776Y746D01*
X1783Y743D01*
X1790Y742D01*
X1797Y743D01*
X1804Y746D01*
X1807Y749D01*
X2169D01*
X2596Y321D01*
Y290D01*
X2674D01*
Y299D01*
X2745D01*
Y273D01*
X2783D01*
X2785Y268D01*
X2770Y260D01*
X2754Y246D01*
X2740Y230D01*
X2729Y211D01*
X2721Y192D01*
X2716Y171D01*
X2715Y150D01*
X2716Y129D01*
X2721Y108D01*
X2729Y89D01*
X2740Y70D01*
X2754Y54D01*
X2770Y40D01*
X2789Y29D01*
X2808Y21D01*
X2829Y16D01*
X2842Y15D01*
X2842Y10D01*
X1888D01*
X1885Y13D01*
X1885Y15D01*
Y25D01*
X1890Y27D01*
X1891Y26D01*
X1898Y23D01*
X1905Y22D01*
X1912Y23D01*
X1919Y26D01*
X1925Y30D01*
X1929Y36D01*
X1932Y43D01*
X1933Y50D01*
X1932Y57D01*
X1929Y64D01*
X1925Y70D01*
X1919Y74D01*
X1912Y77D01*
X1905Y78D01*
X1898Y77D01*
X1891Y74D01*
X1890Y73D01*
X1885Y75D01*
Y92D01*
X1795D01*
Y75D01*
X1790Y73D01*
X1789Y74D01*
X1782Y77D01*
X1775Y78D01*
X1768Y77D01*
X1761Y74D01*
X1760Y73D01*
X1755Y75D01*
Y93D01*
X1665D01*
Y75D01*
X1660Y73D01*
X1659Y74D01*
X1652Y77D01*
X1645Y78D01*
X1638Y77D01*
X1631Y74D01*
X1630Y73D01*
X1625Y75D01*
Y93D01*
X1535D01*
Y75D01*
X1530Y73D01*
X1529Y74D01*
X1522Y77D01*
X1515Y78D01*
X1508Y77D01*
X1501Y74D01*
X1500Y73D01*
X1495Y75D01*
Y93D01*
X1405D01*
Y15D01*
X1405Y14D01*
X1403Y10D01*
X158D01*
X158Y15D01*
X171Y16D01*
X192Y21D01*
X211Y29D01*
X230Y40D01*
X246Y54D01*
X260Y70D01*
X271Y89D01*
X279Y108D01*
X284Y129D01*
X285Y150D01*
X284Y171D01*
X281Y182D01*
X286Y184D01*
X290Y180D01*
X297Y175D01*
X305Y174D01*
X376D01*
X385Y175D01*
X389Y178D01*
X398D01*
Y150D01*
X352Y103D01*
X349Y105D01*
X337Y106D01*
X325Y105D01*
X315Y100D01*
X305Y93D01*
X298Y84D01*
X294Y73D01*
X292Y61D01*
X294Y50D01*
X298Y39D01*
X305Y30D01*
X315Y23D01*
X325Y18D01*
X337Y17D01*
X349Y18D01*
X359Y23D01*
X369Y30D01*
X376Y39D01*
X380Y50D01*
X382Y61D01*
X381Y71D01*
X429Y119D01*
X462D01*
X462Y119D01*
X465D01*
Y119D01*
X467Y119D01*
X529D01*
Y139D01*
X660D01*
X668Y140D01*
X675Y145D01*
X709Y179D01*
X740D01*
Y150D01*
X693Y103D01*
X689Y105D01*
X677Y106D01*
X665Y105D01*
X655Y100D01*
X645Y93D01*
X638Y84D01*
X637Y82D01*
X632D01*
X632Y84D01*
X625Y93D01*
X615Y100D01*
X605Y105D01*
X593Y106D01*
X581Y105D01*
X571Y100D01*
X561Y93D01*
X554Y84D01*
X550Y73D01*
X548Y61D01*
X550Y50D01*
X554Y39D01*
X561Y30D01*
X571Y23D01*
X581Y18D01*
X593Y17D01*
X605Y18D01*
X615Y23D01*
X625Y30D01*
X632Y39D01*
X632Y41D01*
X637D01*
X638Y39D01*
X645Y30D01*
X655Y23D01*
X665Y18D01*
X677Y17D01*
X689Y18D01*
X699Y23D01*
X709Y30D01*
X716Y39D01*
X720Y50D01*
X722Y61D01*
X721Y70D01*
X770Y119D01*
X803D01*
X803Y119D01*
X807D01*
Y119D01*
X808Y119D01*
X870D01*
Y126D01*
X1009D01*
Y115D01*
X1009D01*
Y112D01*
X1009D01*
Y48D01*
X1091D01*
Y51D01*
X1096Y54D01*
X1098Y53D01*
X1105Y52D01*
X1112Y53D01*
X1119Y56D01*
X1125Y60D01*
X1129Y66D01*
X1132Y73D01*
X1133Y80D01*
X1132Y87D01*
X1129Y94D01*
X1125Y99D01*
X1126Y101D01*
X1127Y104D01*
X1130D01*
Y139D01*
Y174D01*
X1127Y177D01*
X1129Y182D01*
X1415D01*
Y261D01*
X1361D01*
X1351Y270D01*
Y418D01*
X1354Y421D01*
X1357Y428D01*
X1358Y435D01*
X1357Y442D01*
X1354Y449D01*
X1350Y455D01*
X1344Y459D01*
X1337Y462D01*
X1330Y463D01*
X1323Y462D01*
X1316Y459D01*
X1310Y455D01*
X1308Y452D01*
X1302D01*
X1300Y455D01*
X1294Y459D01*
X1287Y462D01*
X1280Y463D01*
X1273Y462D01*
X1266Y459D01*
X1260Y455D01*
X1258Y452D01*
X1252D01*
X1250Y455D01*
X1244Y459D01*
X1237Y462D01*
X1230Y463D01*
X1223Y462D01*
X1216Y459D01*
X1210Y455D01*
X1208Y452D01*
X1202D01*
X1200Y455D01*
X1194Y459D01*
X1187Y462D01*
X1180Y463D01*
X1173Y462D01*
X1166Y459D01*
X1160Y455D01*
X1156Y449D01*
X1153Y442D01*
X1152Y435D01*
X1153Y428D01*
X1156Y421D01*
X1159Y418D01*
Y270D01*
X1149Y261D01*
X1095D01*
Y215D01*
X1091Y213D01*
X989Y315D01*
X982Y320D01*
X974Y321D01*
X865D01*
Y336D01*
X842D01*
X823Y355D01*
X816Y359D01*
X808Y361D01*
X749D01*
X741Y359D01*
X734Y355D01*
X701Y321D01*
X525D01*
Y336D01*
X508D01*
Y300D01*
Y264D01*
X525D01*
Y279D01*
X564D01*
X565Y274D01*
X561Y270D01*
X554Y261D01*
X550Y250D01*
X548Y239D01*
X550Y227D01*
X554Y216D01*
X561Y207D01*
X571Y200D01*
X581Y195D01*
X593Y194D01*
X605Y195D01*
X615Y200D01*
X625Y207D01*
X632Y216D01*
X632Y218D01*
X637D01*
X638Y216D01*
X645Y207D01*
X655Y200D01*
X661Y197D01*
X662Y192D01*
X651Y181D01*
X529D01*
Y201D01*
X495D01*
X481Y215D01*
X474Y219D01*
X466Y221D01*
X397D01*
X395Y226D01*
X400Y229D01*
X430Y259D01*
X463D01*
Y341D01*
X400D01*
Y290D01*
X377Y267D01*
X371Y267D01*
X369Y270D01*
X359Y277D01*
X349Y282D01*
X337Y283D01*
X325Y282D01*
X315Y277D01*
X305Y270D01*
X298Y261D01*
X294Y250D01*
X293Y244D01*
X288Y243D01*
X224Y306D01*
X227Y310D01*
X238Y306D01*
X250Y304D01*
X262Y306D01*
X273Y310D01*
X282Y318D01*
X290Y327D01*
X294Y338D01*
X296Y350D01*
X294Y362D01*
X290Y373D01*
X282Y382D01*
X273Y390D01*
X262Y394D01*
X250Y396D01*
X238Y394D01*
X227Y390D01*
X218Y382D01*
X210Y373D01*
X206Y362D01*
X204Y350D01*
X206Y338D01*
X210Y327D01*
X206Y324D01*
X196Y335D01*
Y396D01*
X104D01*
Y304D01*
X165D01*
X184Y286D01*
X182Y281D01*
X171Y284D01*
X150Y285D01*
X129Y284D01*
X108Y279D01*
X89Y271D01*
X70Y260D01*
X54Y246D01*
X40Y230D01*
X29Y211D01*
X21Y192D01*
X16Y171D01*
X15Y158D01*
X10Y158D01*
Y1601D01*
X15Y1602D01*
X17Y1600D01*
X24Y1595D01*
X33Y1591D01*
X42Y1590D01*
X51Y1591D01*
X60Y1595D01*
X67Y1600D01*
X72Y1607D01*
X76Y1616D01*
X77Y1625D01*
X76Y1634D01*
X72Y1643D01*
X67Y1650D01*
X60Y1656D01*
X51Y1659D01*
X42Y1660D01*
X33Y1659D01*
X24Y1656D01*
X17Y1650D01*
X15Y1648D01*
X10Y1650D01*
Y1842D01*
X15Y1842D01*
X16Y1829D01*
X21Y1808D01*
X29Y1789D01*
X40Y1770D01*
X54Y1754D01*
X70Y1740D01*
X89Y1729D01*
X108Y1721D01*
X129Y1716D01*
X150Y1715D01*
X171Y1716D01*
X192Y1721D01*
X211Y1729D01*
X230Y1740D01*
X246Y1754D01*
X260Y1770D01*
X271Y1789D01*
X279Y1808D01*
X284Y1829D01*
X285Y1850D01*
X284Y1871D01*
X279Y1892D01*
X271Y1911D01*
X260Y1930D01*
X246Y1946D01*
X230Y1960D01*
X211Y1971D01*
X192Y1979D01*
X171Y1984D01*
X158Y1985D01*
X158Y1990D01*
X2842Y1990D01*
D02*
G37*
G36*
X812Y305D02*
Y264D01*
X828D01*
Y300D01*
X848D01*
Y264D01*
X865D01*
Y279D01*
X904D01*
X905Y274D01*
X901Y270D01*
X894Y261D01*
X890Y250D01*
X888Y239D01*
X890Y227D01*
X894Y216D01*
X901Y207D01*
X911Y200D01*
X921Y195D01*
X933Y194D01*
X945Y195D01*
X955Y200D01*
X965Y207D01*
X972Y216D01*
X976Y227D01*
X978Y239D01*
X976Y250D01*
X972Y261D01*
X965Y270D01*
X964Y271D01*
X965Y276D01*
X967Y277D01*
X1060Y183D01*
X1058Y179D01*
X1009D01*
Y168D01*
X870D01*
Y201D01*
X837D01*
X822Y215D01*
X816Y220D01*
X807Y221D01*
X737D01*
X736Y226D01*
X740Y229D01*
X770Y259D01*
X803D01*
Y307D01*
X808Y309D01*
X812Y305D01*
D02*
G37*
%LPC*%
G36*
X2193Y1927D02*
Y1899D01*
X2221D01*
X2221Y1899D01*
X2217Y1908D01*
X2211Y1917D01*
X2203Y1923D01*
X2193Y1927D01*
X2193Y1927D01*
D02*
G37*
G36*
X2173D02*
X2173Y1927D01*
X2163Y1923D01*
X2155Y1917D01*
X2148Y1908D01*
X2144Y1899D01*
X2144Y1899D01*
X2173D01*
Y1927D01*
D02*
G37*
G36*
X1937D02*
Y1899D01*
X1966D01*
X1966Y1899D01*
X1962Y1908D01*
X1955Y1917D01*
X1947Y1923D01*
X1937Y1927D01*
X1937Y1927D01*
D02*
G37*
G36*
X1917D02*
X1917Y1927D01*
X1907Y1923D01*
X1899Y1917D01*
X1893Y1908D01*
X1889Y1899D01*
X1889Y1899D01*
X1917D01*
Y1927D01*
D02*
G37*
G36*
X558Y1922D02*
X549Y1921D01*
X540Y1918D01*
X533Y1912D01*
X528Y1905D01*
X524Y1896D01*
X523Y1887D01*
X524Y1878D01*
X528Y1869D01*
X533Y1862D01*
X540Y1856D01*
X549Y1853D01*
X558Y1852D01*
X567Y1853D01*
X576Y1856D01*
X583Y1862D01*
X589Y1869D01*
X592Y1878D01*
X593Y1887D01*
X592Y1896D01*
X589Y1905D01*
X583Y1912D01*
X576Y1918D01*
X567Y1921D01*
X558Y1922D01*
D02*
G37*
G36*
X322D02*
X313Y1921D01*
X304Y1918D01*
X297Y1912D01*
X291Y1905D01*
X288Y1896D01*
X287Y1887D01*
X288Y1878D01*
X291Y1869D01*
X297Y1862D01*
X304Y1856D01*
X313Y1853D01*
X322Y1852D01*
X331Y1853D01*
X340Y1856D01*
X347Y1862D01*
X352Y1869D01*
X356Y1878D01*
X357Y1887D01*
X356Y1896D01*
X352Y1905D01*
X347Y1912D01*
X340Y1918D01*
X331Y1921D01*
X322Y1922D01*
D02*
G37*
G36*
X2221Y1879D02*
X2193D01*
Y1850D01*
X2193Y1850D01*
X2203Y1854D01*
X2211Y1860D01*
X2217Y1869D01*
X2221Y1878D01*
X2221Y1879D01*
D02*
G37*
G36*
X2173D02*
X2144D01*
X2144Y1878D01*
X2148Y1869D01*
X2155Y1860D01*
X2163Y1854D01*
X2173Y1850D01*
X2173Y1850D01*
Y1879D01*
D02*
G37*
G36*
X1966D02*
X1937D01*
Y1850D01*
X1937Y1850D01*
X1947Y1854D01*
X1955Y1860D01*
X1962Y1869D01*
X1966Y1878D01*
X1966Y1879D01*
D02*
G37*
G36*
X1917D02*
X1889D01*
X1889Y1878D01*
X1893Y1869D01*
X1899Y1860D01*
X1907Y1854D01*
X1917Y1850D01*
X1917Y1850D01*
Y1879D01*
D02*
G37*
G36*
X1396Y1890D02*
X1387Y1889D01*
X1379Y1886D01*
X1371Y1880D01*
X1366Y1873D01*
X1362Y1864D01*
X1361Y1855D01*
X1362Y1846D01*
X1366Y1837D01*
X1371Y1830D01*
X1379Y1825D01*
X1387Y1821D01*
X1396Y1820D01*
X1405Y1821D01*
X1414Y1825D01*
X1421Y1830D01*
X1427Y1837D01*
X1430Y1846D01*
X1432Y1855D01*
X1430Y1864D01*
X1427Y1873D01*
X1421Y1880D01*
X1414Y1886D01*
X1405Y1889D01*
X1396Y1890D01*
D02*
G37*
G36*
X1042D02*
X1033Y1889D01*
X1024Y1886D01*
X1017Y1880D01*
X1011Y1873D01*
X1008Y1864D01*
X1007Y1855D01*
X1008Y1846D01*
X1011Y1837D01*
X1017Y1830D01*
X1024Y1825D01*
X1033Y1821D01*
X1042Y1820D01*
X1051Y1821D01*
X1060Y1825D01*
X1067Y1830D01*
X1072Y1837D01*
X1076Y1846D01*
X1077Y1855D01*
X1076Y1864D01*
X1072Y1873D01*
X1067Y1880D01*
X1060Y1886D01*
X1051Y1889D01*
X1042Y1890D01*
D02*
G37*
G36*
X2485Y1906D02*
X2473Y1904D01*
X2462Y1900D01*
X2453Y1892D01*
X2445Y1883D01*
X2441Y1872D01*
X2439Y1860D01*
X2441Y1848D01*
X2445Y1837D01*
X2453Y1828D01*
X2462Y1820D01*
X2473Y1816D01*
X2485Y1814D01*
X2497Y1816D01*
X2508Y1820D01*
X2517Y1828D01*
X2525Y1837D01*
X2529Y1848D01*
X2531Y1860D01*
X2529Y1872D01*
X2525Y1883D01*
X2517Y1892D01*
X2508Y1900D01*
X2497Y1904D01*
X2485Y1906D01*
D02*
G37*
G36*
X440Y1895D02*
X428Y1894D01*
X417Y1889D01*
X408Y1882D01*
X401Y1873D01*
X396Y1862D01*
X395Y1850D01*
X396Y1838D01*
X401Y1827D01*
X408Y1818D01*
X417Y1811D01*
X428Y1806D01*
X440Y1805D01*
X452Y1806D01*
X463Y1811D01*
X472Y1818D01*
X479Y1827D01*
X484Y1838D01*
X485Y1850D01*
X484Y1862D01*
X479Y1873D01*
X472Y1882D01*
X463Y1889D01*
X452Y1894D01*
X440Y1895D01*
D02*
G37*
G36*
X1278Y1863D02*
X1266Y1862D01*
X1255Y1857D01*
X1246Y1850D01*
X1239Y1841D01*
X1234Y1830D01*
X1233Y1818D01*
X1234Y1806D01*
X1239Y1795D01*
X1246Y1786D01*
X1255Y1779D01*
X1266Y1774D01*
X1278Y1773D01*
X1290Y1774D01*
X1301Y1779D01*
X1310Y1786D01*
X1317Y1795D01*
X1322Y1806D01*
X1323Y1818D01*
X1322Y1830D01*
X1317Y1841D01*
X1310Y1850D01*
X1301Y1857D01*
X1290Y1862D01*
X1278Y1863D01*
D02*
G37*
G36*
X1160D02*
X1148Y1862D01*
X1137Y1857D01*
X1128Y1850D01*
X1121Y1841D01*
X1116Y1830D01*
X1115Y1818D01*
X1116Y1806D01*
X1121Y1795D01*
X1128Y1786D01*
X1137Y1779D01*
X1148Y1774D01*
X1160Y1773D01*
X1172Y1774D01*
X1183Y1779D01*
X1192Y1786D01*
X1199Y1795D01*
X1204Y1806D01*
X1205Y1818D01*
X1204Y1830D01*
X1199Y1841D01*
X1192Y1850D01*
X1183Y1857D01*
X1172Y1862D01*
X1160Y1863D01*
D02*
G37*
G36*
X1288Y1739D02*
Y1710D01*
X1317D01*
X1317Y1710D01*
X1313Y1720D01*
X1307Y1729D01*
X1298Y1735D01*
X1289Y1739D01*
X1288Y1739D01*
D02*
G37*
G36*
X1268D02*
X1268Y1739D01*
X1258Y1735D01*
X1250Y1729D01*
X1243Y1720D01*
X1239Y1710D01*
X1239Y1710D01*
X1268D01*
Y1739D01*
D02*
G37*
G36*
X440Y1777D02*
X428Y1776D01*
X417Y1771D01*
X408Y1764D01*
X401Y1755D01*
X396Y1744D01*
X395Y1732D01*
X396Y1720D01*
X401Y1709D01*
X408Y1700D01*
X417Y1693D01*
X428Y1688D01*
X440Y1687D01*
X452Y1688D01*
X463Y1693D01*
X472Y1700D01*
X479Y1709D01*
X484Y1720D01*
X485Y1732D01*
X484Y1744D01*
X479Y1755D01*
X472Y1764D01*
X463Y1771D01*
X452Y1776D01*
X440Y1777D01*
D02*
G37*
G36*
X2495Y1700D02*
Y1670D01*
X2525D01*
X2524Y1671D01*
X2520Y1680D01*
X2514Y1689D01*
X2505Y1695D01*
X2496Y1699D01*
X2495Y1700D01*
D02*
G37*
G36*
X2525Y1650D02*
X2495D01*
Y1620D01*
X2496Y1621D01*
X2505Y1625D01*
X2514Y1631D01*
X2520Y1640D01*
X2524Y1649D01*
X2525Y1650D01*
D02*
G37*
G36*
X2604Y1677D02*
X2595Y1676D01*
X2586Y1673D01*
X2579Y1667D01*
X2573Y1660D01*
X2570Y1651D01*
X2568Y1642D01*
X2570Y1633D01*
X2573Y1624D01*
X2579Y1617D01*
X2586Y1611D01*
X2595Y1608D01*
X2604Y1607D01*
X2613Y1608D01*
X2621Y1611D01*
X2629Y1617D01*
X2634Y1624D01*
X2638Y1633D01*
X2639Y1642D01*
X2638Y1651D01*
X2634Y1660D01*
X2629Y1667D01*
X2621Y1673D01*
X2613Y1676D01*
X2604Y1677D01*
D02*
G37*
G36*
X278Y1660D02*
X269Y1659D01*
X260Y1656D01*
X253Y1650D01*
X248Y1643D01*
X244Y1634D01*
X243Y1625D01*
X244Y1616D01*
X248Y1607D01*
X253Y1600D01*
X260Y1595D01*
X269Y1591D01*
X278Y1590D01*
X287Y1591D01*
X296Y1595D01*
X303Y1600D01*
X309Y1607D01*
X312Y1616D01*
X313Y1625D01*
X312Y1634D01*
X309Y1643D01*
X303Y1650D01*
X296Y1656D01*
X287Y1659D01*
X278Y1660D01*
D02*
G37*
G36*
X2840Y1650D02*
X2828Y1649D01*
X2817Y1644D01*
X2808Y1637D01*
X2801Y1628D01*
X2796Y1617D01*
X2795Y1605D01*
X2796Y1593D01*
X2801Y1582D01*
X2808Y1573D01*
X2817Y1566D01*
X2828Y1561D01*
X2840Y1560D01*
X2852Y1561D01*
X2863Y1566D01*
X2872Y1573D01*
X2879Y1582D01*
X2884Y1593D01*
X2885Y1605D01*
X2884Y1617D01*
X2879Y1628D01*
X2872Y1637D01*
X2863Y1644D01*
X2852Y1649D01*
X2840Y1650D01*
D02*
G37*
G36*
X2722D02*
X2710Y1649D01*
X2699Y1644D01*
X2690Y1637D01*
X2683Y1628D01*
X2678Y1617D01*
X2677Y1605D01*
X2678Y1593D01*
X2683Y1582D01*
X2690Y1573D01*
X2699Y1566D01*
X2710Y1561D01*
X2722Y1560D01*
X2734Y1561D01*
X2745Y1566D01*
X2754Y1573D01*
X2761Y1582D01*
X2766Y1593D01*
X2767Y1605D01*
X2766Y1617D01*
X2761Y1628D01*
X2754Y1637D01*
X2745Y1644D01*
X2734Y1649D01*
X2722Y1650D01*
D02*
G37*
G36*
X160Y1633D02*
X148Y1632D01*
X137Y1627D01*
X128Y1620D01*
X121Y1611D01*
X116Y1600D01*
X115Y1588D01*
X116Y1576D01*
X121Y1565D01*
X128Y1556D01*
X137Y1549D01*
X148Y1544D01*
X160Y1543D01*
X172Y1544D01*
X183Y1549D01*
X192Y1556D01*
X199Y1565D01*
X204Y1576D01*
X205Y1588D01*
X204Y1600D01*
X199Y1611D01*
X192Y1620D01*
X183Y1627D01*
X172Y1632D01*
X160Y1633D01*
D02*
G37*
G36*
X2850Y1526D02*
Y1497D01*
X2879D01*
X2879Y1497D01*
X2875Y1507D01*
X2869Y1515D01*
X2860Y1522D01*
X2850Y1526D01*
X2850Y1526D01*
D02*
G37*
G36*
X2830D02*
X2830Y1526D01*
X2820Y1522D01*
X2811Y1515D01*
X2805Y1507D01*
X2801Y1497D01*
X2801Y1497D01*
X2830D01*
Y1526D01*
D02*
G37*
G36*
X160Y1515D02*
X148Y1514D01*
X137Y1509D01*
X128Y1502D01*
X121Y1493D01*
X116Y1482D01*
X115Y1470D01*
X116Y1458D01*
X121Y1447D01*
X128Y1438D01*
X137Y1431D01*
X148Y1426D01*
X160Y1425D01*
X172Y1426D01*
X183Y1431D01*
X192Y1438D01*
X199Y1447D01*
X204Y1458D01*
X205Y1470D01*
X204Y1482D01*
X199Y1493D01*
X192Y1502D01*
X183Y1509D01*
X172Y1514D01*
X160Y1515D01*
D02*
G37*
G36*
X2870Y1405D02*
X2849D01*
Y1378D01*
X2870D01*
Y1405D01*
D02*
G37*
G36*
X830Y1300D02*
Y1290D01*
X840D01*
X836Y1296D01*
X830Y1300D01*
D02*
G37*
G36*
X810D02*
X804Y1296D01*
X800Y1290D01*
X810D01*
Y1300D01*
D02*
G37*
G36*
X840Y1270D02*
X830D01*
Y1260D01*
X836Y1264D01*
X840Y1270D01*
D02*
G37*
G36*
X810D02*
X800D01*
X804Y1264D01*
X810Y1260D01*
Y1270D01*
D02*
G37*
G36*
X2605Y1305D02*
X2596Y1304D01*
X2587Y1301D01*
X2580Y1295D01*
X2574Y1288D01*
X2571Y1279D01*
X2570Y1270D01*
X2571Y1261D01*
X2574Y1252D01*
X2580Y1245D01*
X2587Y1239D01*
X2596Y1236D01*
X2605Y1235D01*
X2614Y1236D01*
X2623Y1239D01*
X2630Y1245D01*
X2636Y1252D01*
X2639Y1261D01*
X2640Y1270D01*
X2639Y1279D01*
X2636Y1288D01*
X2630Y1295D01*
X2623Y1301D01*
X2614Y1304D01*
X2605Y1305D01*
D02*
G37*
G36*
X195Y1320D02*
X105D01*
Y1230D01*
X195D01*
Y1320D01*
D02*
G37*
G36*
X350Y1320D02*
X338Y1318D01*
X328Y1314D01*
X318Y1307D01*
X311Y1297D01*
X307Y1287D01*
X305Y1275D01*
X307Y1263D01*
X311Y1253D01*
X318Y1243D01*
X328Y1236D01*
X338Y1232D01*
X350Y1230D01*
X362Y1232D01*
X372Y1236D01*
X382Y1243D01*
X389Y1253D01*
X389Y1254D01*
X693D01*
X693Y1253D01*
Y1247D01*
X690Y1245D01*
X686Y1239D01*
X683Y1232D01*
X683Y1228D01*
X651Y1196D01*
X358D01*
Y1218D01*
X288D01*
X287Y1218D01*
Y1218D01*
X283D01*
Y1218D01*
X271D01*
Y1236D01*
X272Y1236D01*
X282Y1243D01*
X289Y1253D01*
X293Y1263D01*
X295Y1275D01*
X293Y1287D01*
X289Y1297D01*
X282Y1307D01*
X272Y1314D01*
X262Y1318D01*
X250Y1320D01*
X238Y1318D01*
X228Y1314D01*
X218Y1307D01*
X211Y1297D01*
X207Y1287D01*
X205Y1275D01*
X207Y1263D01*
X211Y1253D01*
X218Y1243D01*
X228Y1236D01*
X229Y1236D01*
Y1218D01*
X212D01*
Y1132D01*
X233D01*
X235Y1127D01*
X233Y1126D01*
X190Y1084D01*
X189Y1081D01*
X184Y1081D01*
X182Y1082D01*
X173Y1090D01*
X162Y1094D01*
X150Y1096D01*
X138Y1094D01*
X127Y1090D01*
X118Y1082D01*
X110Y1073D01*
X106Y1062D01*
X104Y1050D01*
X106Y1038D01*
X110Y1027D01*
X118Y1018D01*
X127Y1010D01*
X138Y1006D01*
X150Y1004D01*
X162Y1006D01*
X173Y1010D01*
X179Y1015D01*
X184Y1012D01*
Y988D01*
X179Y985D01*
X173Y990D01*
X162Y994D01*
X150Y996D01*
X138Y994D01*
X127Y990D01*
X118Y982D01*
X110Y973D01*
X106Y962D01*
X104Y950D01*
X106Y938D01*
X110Y927D01*
X118Y918D01*
X127Y910D01*
X138Y906D01*
X150Y904D01*
X162Y906D01*
X173Y910D01*
X179Y915D01*
X184Y912D01*
Y888D01*
X179Y885D01*
X173Y890D01*
X162Y894D01*
X150Y896D01*
X138Y894D01*
X127Y890D01*
X118Y882D01*
X110Y873D01*
X106Y862D01*
X104Y850D01*
X106Y838D01*
X110Y827D01*
X118Y818D01*
X127Y810D01*
X138Y806D01*
X150Y804D01*
X162Y806D01*
X173Y810D01*
X179Y815D01*
X184Y812D01*
Y788D01*
X179Y785D01*
X173Y790D01*
X162Y794D01*
X150Y796D01*
X138Y794D01*
X127Y790D01*
X118Y782D01*
X110Y773D01*
X106Y762D01*
X104Y750D01*
X106Y738D01*
X110Y727D01*
X118Y718D01*
X127Y710D01*
X138Y706D01*
X150Y704D01*
X162Y706D01*
X173Y710D01*
X179Y715D01*
X184Y712D01*
Y688D01*
X179Y685D01*
X173Y690D01*
X162Y694D01*
X150Y696D01*
X138Y694D01*
X127Y690D01*
X118Y682D01*
X110Y673D01*
X106Y662D01*
X104Y650D01*
X106Y638D01*
X110Y627D01*
X118Y618D01*
X127Y610D01*
X138Y606D01*
X150Y604D01*
X162Y606D01*
X173Y610D01*
X179Y615D01*
X184Y612D01*
Y588D01*
X179Y585D01*
X173Y590D01*
X162Y594D01*
X150Y596D01*
X138Y594D01*
X127Y590D01*
X118Y582D01*
X110Y573D01*
X106Y562D01*
X104Y550D01*
X106Y538D01*
X110Y527D01*
X118Y518D01*
X127Y510D01*
X138Y506D01*
X150Y504D01*
X162Y506D01*
X173Y510D01*
X179Y515D01*
X184Y512D01*
Y495D01*
X186Y486D01*
X186Y486D01*
X182Y482D01*
X173Y490D01*
X162Y494D01*
X150Y496D01*
X138Y494D01*
X127Y490D01*
X118Y482D01*
X110Y473D01*
X106Y462D01*
X104Y450D01*
X106Y438D01*
X110Y427D01*
X118Y418D01*
X127Y410D01*
X138Y406D01*
X150Y404D01*
X162Y406D01*
X173Y410D01*
X182Y418D01*
X190Y427D01*
X194Y438D01*
X196Y450D01*
X194Y462D01*
X190Y473D01*
X194Y476D01*
X206Y463D01*
X206Y462D01*
X204Y450D01*
X206Y438D01*
X210Y427D01*
X218Y418D01*
X227Y410D01*
X238Y406D01*
X250Y404D01*
X262Y406D01*
X273Y410D01*
X282Y418D01*
X290Y427D01*
X294Y438D01*
X296Y450D01*
X294Y462D01*
X290Y473D01*
X282Y482D01*
X273Y490D01*
X262Y494D01*
X250Y496D01*
X238Y494D01*
X237Y494D01*
X230Y501D01*
X230Y504D01*
X235Y507D01*
X238Y506D01*
X250Y504D01*
X262Y506D01*
X273Y510D01*
X282Y518D01*
X290Y527D01*
X294Y538D01*
X296Y550D01*
X294Y562D01*
X290Y573D01*
X282Y582D01*
X273Y590D01*
X262Y594D01*
X250Y596D01*
X238Y594D01*
X232Y592D01*
X227Y595D01*
Y605D01*
X232Y608D01*
X238Y606D01*
X250Y604D01*
X262Y606D01*
X273Y610D01*
X282Y618D01*
X290Y627D01*
X294Y638D01*
X296Y650D01*
X294Y662D01*
X290Y673D01*
X282Y682D01*
X273Y690D01*
X262Y694D01*
X250Y696D01*
X238Y694D01*
X232Y692D01*
X227Y695D01*
Y705D01*
X232Y708D01*
X238Y706D01*
X250Y704D01*
X262Y706D01*
X273Y710D01*
X282Y718D01*
X290Y727D01*
X294Y738D01*
X296Y750D01*
X294Y762D01*
X290Y773D01*
X282Y782D01*
X273Y790D01*
X262Y794D01*
X250Y796D01*
X238Y794D01*
X232Y792D01*
X227Y795D01*
Y805D01*
X232Y808D01*
X238Y806D01*
X250Y804D01*
X262Y806D01*
X273Y810D01*
X282Y818D01*
X290Y827D01*
X294Y838D01*
X296Y850D01*
X294Y862D01*
X290Y873D01*
X282Y882D01*
X273Y890D01*
X262Y894D01*
X250Y896D01*
X238Y894D01*
X232Y892D01*
X227Y895D01*
Y905D01*
X232Y908D01*
X238Y906D01*
X250Y904D01*
X262Y906D01*
X273Y910D01*
X282Y918D01*
X290Y927D01*
X294Y938D01*
X296Y950D01*
X294Y962D01*
X290Y973D01*
X282Y982D01*
X273Y990D01*
X262Y994D01*
X250Y996D01*
X238Y994D01*
X232Y992D01*
X227Y995D01*
Y1005D01*
X232Y1008D01*
X238Y1006D01*
X250Y1004D01*
X262Y1006D01*
X273Y1010D01*
X282Y1018D01*
X290Y1027D01*
X294Y1038D01*
X296Y1050D01*
X294Y1062D01*
X290Y1073D01*
X282Y1082D01*
X276Y1087D01*
X277Y1093D01*
X280Y1096D01*
X317Y1132D01*
X358D01*
Y1154D01*
X660D01*
X668Y1155D01*
X675Y1160D01*
X713Y1198D01*
X717Y1198D01*
X724Y1201D01*
X730Y1205D01*
X734Y1211D01*
X737Y1218D01*
X738Y1225D01*
X737Y1232D01*
X734Y1239D01*
X730Y1245D01*
X727Y1247D01*
Y1253D01*
X730Y1255D01*
X734Y1261D01*
X737Y1268D01*
X738Y1275D01*
X737Y1282D01*
X734Y1289D01*
X730Y1295D01*
X724Y1299D01*
X717Y1302D01*
X710Y1303D01*
X703Y1302D01*
X696Y1299D01*
X693Y1296D01*
X389D01*
X389Y1297D01*
X382Y1307D01*
X372Y1314D01*
X362Y1318D01*
X350Y1320D01*
D02*
G37*
G36*
X2841Y1278D02*
X2829Y1277D01*
X2819Y1272D01*
X2809Y1265D01*
X2802Y1256D01*
X2797Y1245D01*
X2796Y1233D01*
X2797Y1221D01*
X2802Y1210D01*
X2809Y1201D01*
X2819Y1194D01*
X2829Y1189D01*
X2841Y1188D01*
X2853Y1189D01*
X2864Y1194D01*
X2873Y1201D01*
X2881Y1210D01*
X2885Y1221D01*
X2887Y1233D01*
X2885Y1245D01*
X2881Y1256D01*
X2873Y1265D01*
X2864Y1272D01*
X2853Y1277D01*
X2841Y1278D01*
D02*
G37*
G36*
X2723D02*
X2711Y1277D01*
X2700Y1272D01*
X2691Y1265D01*
X2684Y1256D01*
X2679Y1245D01*
X2678Y1233D01*
X2679Y1221D01*
X2684Y1210D01*
X2691Y1201D01*
X2700Y1194D01*
X2711Y1189D01*
X2723Y1188D01*
X2735Y1189D01*
X2746Y1194D01*
X2755Y1201D01*
X2762Y1210D01*
X2767Y1221D01*
X2768Y1233D01*
X2767Y1245D01*
X2762Y1256D01*
X2755Y1265D01*
X2746Y1272D01*
X2735Y1277D01*
X2723Y1278D01*
D02*
G37*
G36*
X2851Y1154D02*
Y1125D01*
X2880D01*
X2880Y1125D01*
X2876Y1135D01*
X2870Y1143D01*
X2861Y1150D01*
X2852Y1154D01*
X2851Y1154D01*
D02*
G37*
G36*
X2831D02*
X2831Y1154D01*
X2821Y1150D01*
X2813Y1143D01*
X2806Y1135D01*
X2802Y1125D01*
X2802Y1125D01*
X2831D01*
Y1154D01*
D02*
G37*
G36*
X2876Y1035D02*
X2855D01*
Y1008D01*
X2876D01*
Y1035D01*
D02*
G37*
G36*
X1954Y934D02*
Y924D01*
X1964D01*
X1960Y930D01*
X1954Y934D01*
D02*
G37*
G36*
X2245Y973D02*
X2238Y972D01*
X2231Y969D01*
X2225Y965D01*
X2221Y959D01*
X2218Y952D01*
X2217Y945D01*
X2218Y938D01*
X2221Y931D01*
X2225Y925D01*
X2231Y921D01*
X2238Y918D01*
X2245Y917D01*
X2252Y918D01*
X2259Y921D01*
X2265Y925D01*
X2269Y931D01*
X2272Y938D01*
X2273Y945D01*
X2272Y952D01*
X2269Y959D01*
X2265Y965D01*
X2259Y969D01*
X2252Y972D01*
X2245Y973D01*
D02*
G37*
G36*
X2605Y940D02*
X2596Y939D01*
X2587Y936D01*
X2580Y930D01*
X2574Y923D01*
X2571Y914D01*
X2570Y905D01*
X2571Y896D01*
X2574Y887D01*
X2580Y880D01*
X2587Y874D01*
X2596Y871D01*
X2605Y870D01*
X2614Y871D01*
X2623Y874D01*
X2630Y880D01*
X2636Y887D01*
X2639Y896D01*
X2640Y905D01*
X2639Y914D01*
X2636Y923D01*
X2630Y930D01*
X2623Y936D01*
X2614Y939D01*
X2605Y940D01*
D02*
G37*
G36*
X2841Y913D02*
X2829Y912D01*
X2819Y907D01*
X2809Y900D01*
X2802Y891D01*
X2797Y880D01*
X2796Y868D01*
X2797Y856D01*
X2802Y845D01*
X2809Y836D01*
X2819Y829D01*
X2829Y824D01*
X2841Y823D01*
X2853Y824D01*
X2864Y829D01*
X2873Y836D01*
X2881Y845D01*
X2885Y856D01*
X2887Y868D01*
X2885Y880D01*
X2881Y891D01*
X2873Y900D01*
X2864Y907D01*
X2853Y912D01*
X2841Y913D01*
D02*
G37*
G36*
X2723D02*
X2711Y912D01*
X2700Y907D01*
X2691Y900D01*
X2684Y891D01*
X2679Y880D01*
X2678Y868D01*
X2679Y856D01*
X2684Y845D01*
X2691Y836D01*
X2700Y829D01*
X2711Y824D01*
X2723Y823D01*
X2735Y824D01*
X2746Y829D01*
X2755Y836D01*
X2762Y845D01*
X2767Y856D01*
X2768Y868D01*
X2767Y880D01*
X2762Y891D01*
X2755Y900D01*
X2746Y907D01*
X2735Y912D01*
X2723Y913D01*
D02*
G37*
G36*
X2851Y789D02*
Y760D01*
X2880D01*
X2880Y760D01*
X2876Y770D01*
X2870Y778D01*
X2861Y785D01*
X2852Y789D01*
X2851Y789D01*
D02*
G37*
G36*
X2831D02*
X2831Y789D01*
X2821Y785D01*
X2813Y778D01*
X2806Y770D01*
X2802Y760D01*
X2802Y760D01*
X2831D01*
Y789D01*
D02*
G37*
G36*
X1670Y685D02*
X1664Y681D01*
X1660Y675D01*
X1670D01*
Y685D01*
D02*
G37*
G36*
X2870Y665D02*
X2849D01*
Y638D01*
X2870D01*
Y665D01*
D02*
G37*
G36*
X2609Y575D02*
X2600Y574D01*
X2591Y571D01*
X2584Y565D01*
X2578Y558D01*
X2575Y549D01*
X2573Y540D01*
X2575Y531D01*
X2578Y522D01*
X2584Y515D01*
X2591Y510D01*
X2600Y506D01*
X2609Y505D01*
X2618Y506D01*
X2626Y510D01*
X2634Y515D01*
X2639Y522D01*
X2643Y531D01*
X2644Y540D01*
X2643Y549D01*
X2639Y558D01*
X2634Y565D01*
X2626Y571D01*
X2618Y574D01*
X2609Y575D01*
D02*
G37*
G36*
X2845Y548D02*
X2833Y547D01*
X2822Y542D01*
X2813Y535D01*
X2806Y526D01*
X2801Y515D01*
X2800Y503D01*
X2801Y491D01*
X2806Y480D01*
X2813Y471D01*
X2822Y464D01*
X2833Y459D01*
X2845Y458D01*
X2857Y459D01*
X2868Y464D01*
X2877Y471D01*
X2884Y480D01*
X2889Y491D01*
X2890Y503D01*
X2889Y515D01*
X2884Y526D01*
X2877Y535D01*
X2868Y542D01*
X2857Y547D01*
X2845Y548D01*
D02*
G37*
G36*
X2727D02*
X2715Y547D01*
X2704Y542D01*
X2695Y535D01*
X2688Y526D01*
X2683Y515D01*
X2682Y503D01*
X2683Y491D01*
X2688Y480D01*
X2695Y471D01*
X2704Y464D01*
X2715Y459D01*
X2727Y458D01*
X2739Y459D01*
X2750Y464D01*
X2759Y471D01*
X2766Y480D01*
X2771Y491D01*
X2772Y503D01*
X2771Y515D01*
X2766Y526D01*
X2759Y535D01*
X2750Y542D01*
X2739Y547D01*
X2727Y548D01*
D02*
G37*
G36*
X2855Y424D02*
Y395D01*
X2884D01*
X2884Y395D01*
X2880Y405D01*
X2874Y414D01*
X2865Y420D01*
X2855Y424D01*
X2855Y424D01*
D02*
G37*
G36*
X2835D02*
X2835Y424D01*
X2825Y420D01*
X2816Y414D01*
X2810Y405D01*
X2806Y395D01*
X2806Y395D01*
X2835D01*
Y424D01*
D02*
G37*
G36*
X488Y336D02*
X472D01*
Y310D01*
X488D01*
Y336D01*
D02*
G37*
G36*
Y290D02*
X472D01*
Y264D01*
X488D01*
Y290D01*
D02*
G37*
G36*
X1700Y171D02*
X1670D01*
Y158D01*
X1620D01*
Y171D01*
X1590D01*
Y136D01*
Y102D01*
X1620D01*
Y115D01*
X1670D01*
Y102D01*
X1700D01*
Y136D01*
Y171D01*
D02*
G37*
G36*
X1880Y170D02*
X1850D01*
Y145D01*
X1880D01*
Y170D01*
D02*
G37*
G36*
X1725Y733D02*
X1718Y732D01*
X1711Y729D01*
X1705Y725D01*
X1701Y719D01*
X1698Y712D01*
X1697Y705D01*
X1698Y698D01*
X1701Y691D01*
X1705Y685D01*
X1711Y681D01*
X1718Y678D01*
X1722Y678D01*
X2145Y255D01*
X2152Y250D01*
X2160Y249D01*
X2247D01*
X2248Y247D01*
X2250Y245D01*
X2244Y238D01*
X2241Y229D01*
X2240Y220D01*
X2241Y211D01*
X2244Y202D01*
X2250Y195D01*
Y195D01*
X2244Y188D01*
X2241Y179D01*
X2240Y170D01*
X2241Y161D01*
X2244Y152D01*
X2250Y145D01*
Y145D01*
X2245Y138D01*
X2244Y137D01*
X2239Y136D01*
X1701Y675D01*
X1696Y681D01*
X1690Y685D01*
Y665D01*
X1680D01*
Y655D01*
X1660D01*
X1664Y649D01*
X1670Y644D01*
X2244Y71D01*
X2251Y66D01*
X2259Y65D01*
X2291D01*
X2299Y66D01*
X2306Y71D01*
X2325Y90D01*
X2333Y91D01*
X2340Y94D01*
X2346Y99D01*
X2351Y105D01*
X2354Y112D01*
X2355Y120D01*
X2374Y139D01*
X2379Y146D01*
X2380Y154D01*
Y286D01*
X2379Y294D01*
X2374Y301D01*
X2355Y320D01*
X2354Y328D01*
X2351Y335D01*
X2346Y341D01*
X2340Y346D01*
X2335Y348D01*
Y320D01*
X2315D01*
Y348D01*
X2314Y348D01*
X2310Y351D01*
Y355D01*
X2240D01*
Y291D01*
X2169D01*
X1752Y708D01*
X1752Y712D01*
X1749Y719D01*
X1745Y725D01*
X1739Y729D01*
X1732Y732D01*
X1725Y733D01*
D02*
G37*
G36*
X1205Y173D02*
X1150D01*
Y139D01*
Y104D01*
X1205D01*
Y139D01*
Y173D01*
D02*
G37*
G36*
X1255Y173D02*
Y173D01*
X1225D01*
Y139D01*
Y104D01*
X1255D01*
Y104D01*
X1255D01*
Y104D01*
X1285D01*
Y139D01*
Y173D01*
X1255D01*
Y173D01*
X1255D01*
D02*
G37*
G36*
X1360Y173D02*
X1305D01*
Y139D01*
Y104D01*
X1360D01*
Y139D01*
Y173D01*
D02*
G37*
G36*
X1460Y171D02*
Y136D01*
Y102D01*
X1490D01*
Y115D01*
X1540D01*
Y102D01*
X1570D01*
Y136D01*
Y171D01*
X1540D01*
Y158D01*
X1490D01*
Y171D01*
X1460D01*
D02*
G37*
G36*
X1410Y173D02*
X1406Y173D01*
X1380D01*
Y139D01*
Y104D01*
X1406D01*
X1410Y102D01*
X1414Y102D01*
X1440D01*
Y136D01*
Y171D01*
X1414D01*
X1410Y173D01*
D02*
G37*
G36*
X1880Y125D02*
X1850D01*
Y100D01*
X1880D01*
Y125D01*
D02*
G37*
G36*
X1750Y171D02*
X1720D01*
Y136D01*
Y102D01*
X1750D01*
Y115D01*
X1800D01*
Y100D01*
X1830D01*
Y135D01*
Y170D01*
X1800D01*
Y158D01*
X1750D01*
Y171D01*
D02*
G37*
G36*
X933Y106D02*
X921Y105D01*
X911Y100D01*
X901Y93D01*
X894Y84D01*
X890Y73D01*
X888Y61D01*
X890Y50D01*
X894Y39D01*
X901Y30D01*
X911Y23D01*
X921Y18D01*
X933Y17D01*
X945Y18D01*
X955Y23D01*
X965Y30D01*
X972Y39D01*
X976Y50D01*
X978Y61D01*
X976Y73D01*
X972Y84D01*
X965Y93D01*
X955Y100D01*
X945Y105D01*
X933Y106D01*
D02*
G37*
%LPD*%
D12*
X1279Y1625D02*
D03*
X1221D02*
D03*
X2781Y315D02*
D03*
X2839D02*
D03*
X2781Y675D02*
D03*
X2839D02*
D03*
X2788Y1045D02*
D03*
X2845D02*
D03*
X2839Y1415D02*
D03*
X2781D02*
D03*
D24*
X248Y1175D02*
X250Y1177D01*
Y1275D01*
X350Y1280D02*
X353Y1277D01*
X265Y1111D02*
X322Y1168D01*
Y1175D01*
X205Y1068D02*
X248Y1111D01*
X205Y495D02*
Y1068D01*
X248Y1111D02*
X265D01*
X350Y1275D02*
X710D01*
X1315Y1335D02*
X1316Y1334D01*
X1314Y1337D02*
X1315Y1335D01*
X1288Y1324D02*
X1728Y885D01*
X1288Y1324D02*
Y1444D01*
X1516Y1671D01*
X1728Y885D02*
X1910D01*
X501Y164D02*
X506Y160D01*
X497D02*
Y169D01*
X466Y200D02*
X497Y169D01*
X381Y200D02*
X466D01*
X376Y195D02*
X381Y200D01*
X305Y195D02*
X376D01*
X150Y350D02*
X305Y195D01*
X660Y160D02*
X700Y200D01*
X506Y160D02*
X660D01*
X1050Y80D02*
X1105D01*
X838Y161D02*
X839Y160D01*
X849Y147D02*
X1050D01*
X838Y158D02*
X849Y147D01*
X838Y158D02*
Y160D01*
X1480Y1759D02*
Y1765D01*
X1306Y1584D02*
X1480Y1759D01*
X1251Y1584D02*
X1306D01*
X1516Y1671D02*
Y1778D01*
X1480Y1815D02*
X1516Y1778D01*
X1350Y1370D02*
X1596Y1616D01*
X1314Y1371D02*
X1589Y1647D01*
X1314Y1337D02*
Y1371D01*
X1589Y1647D02*
X2005D01*
X1243Y1593D02*
X1251Y1584D01*
X1243Y1593D02*
Y1598D01*
X1221Y1620D02*
X1243Y1598D01*
X1221Y1620D02*
Y1625D01*
X1278Y1625D02*
Y1700D01*
Y1625D02*
X1279Y1625D01*
X1206Y1640D02*
X1221Y1625D01*
X1070Y1640D02*
X1206D01*
X1070Y1700D02*
X1070Y1700D01*
X1160D01*
X1065Y1695D02*
X1066Y1696D01*
X660Y1175D02*
X710Y1225D01*
X322Y1175D02*
X660D01*
X708Y1277D02*
X710Y1275D01*
X205Y495D02*
X250Y450D01*
X835Y300D02*
Y312D01*
X838Y300D02*
X974D01*
X1135Y139D01*
X1140D01*
X838Y161D02*
Y169D01*
X2782Y1050D02*
X2788Y1045D01*
X2635Y1050D02*
X2782D01*
X2771Y1425D02*
X2781Y1415D01*
X2635Y1425D02*
X2771D01*
X1820Y800D02*
X1821Y799D01*
X2514D01*
X2627Y685D01*
X2635D01*
X1850Y825D02*
X2402D01*
X2627Y1050D01*
X2635D01*
X1880Y855D02*
X2057D01*
X2627Y1425D01*
X2635D01*
X1680Y665D02*
X2259Y86D01*
X2291D01*
X2325Y120D01*
X1790Y770D02*
X2178D01*
X2627Y320D01*
X2635D01*
X1596Y1616D02*
X2036D01*
X1842Y50D02*
X1905D01*
X1840Y52D02*
X1842Y50D01*
X1714D02*
X1775D01*
X1710Y54D02*
X1714Y50D01*
X1575Y54D02*
X1579Y50D01*
X1584D02*
X1645D01*
X1580Y54D02*
X1584Y50D01*
X1454D02*
X1515D01*
X1450Y54D02*
X1454Y50D01*
X1839Y136D02*
X1840Y135D01*
X1710Y136D02*
X1839D01*
X1580D02*
X1710D01*
X1450D02*
X1580D01*
X1725Y705D02*
X2160Y270D01*
X1575Y54D02*
X1576Y55D01*
X1330Y261D02*
Y435D01*
Y261D02*
X1346Y245D01*
Y240D02*
Y245D01*
Y240D02*
X1365Y221D01*
X1370D01*
X1294Y226D02*
X1295D01*
X1280Y240D02*
Y435D01*
Y240D02*
X1294Y226D01*
X1215D02*
X1216D01*
X1230Y240D02*
Y435D01*
X1216Y226D02*
X1230Y240D01*
X1145Y221D02*
X1164Y240D01*
Y245D02*
X1180Y261D01*
X1164Y240D02*
Y245D01*
X1140Y221D02*
X1145D01*
X1180Y261D02*
Y435D01*
X1295Y139D02*
X1370D01*
X1215D02*
X1295D01*
X1140D02*
X1215D01*
X709Y300D02*
X749Y340D01*
X808D01*
X835Y312D01*
X498Y300D02*
X709D01*
X772Y291D02*
Y300D01*
X725Y244D02*
X772Y291D01*
X683Y244D02*
X725D01*
X677Y239D02*
X683Y244D01*
X432Y291D02*
Y300D01*
X385Y244D02*
X432Y291D01*
X343Y244D02*
X385D01*
X700Y200D02*
X807D01*
X838Y169D01*
X682Y61D02*
X772Y151D01*
Y160D01*
X677Y61D02*
X682D01*
X430Y151D02*
Y160D01*
X340Y61D02*
X430Y151D01*
X2839Y310D02*
X2841Y313D01*
X2359Y154D02*
Y286D01*
X2325Y120D02*
X2359Y154D01*
X2325Y320D02*
X2359Y286D01*
X1215Y226D02*
X1225Y236D01*
X1159Y1699D02*
X1160Y1700D01*
X2771Y320D02*
X2781Y310D01*
X2635Y320D02*
X2771D01*
X2720Y382D02*
X2723Y385D01*
X2638Y382D02*
X2720D01*
X2635Y380D02*
X2638Y382D01*
X2771Y685D02*
X2781Y675D01*
X2635Y685D02*
X2771D01*
X2720Y747D02*
X2723Y750D01*
X2635Y745D02*
X2638Y747D01*
X2720D01*
Y1112D02*
X2723Y1115D01*
X2638Y1112D02*
X2720D01*
X2635Y1110D02*
X2638Y1112D01*
X2721Y1486D02*
X2722Y1487D01*
X2636Y1486D02*
X2721D01*
X2635Y1485D02*
X2636Y1486D01*
X2841Y313D02*
Y385D01*
Y678D02*
Y750D01*
X2839Y675D02*
X2841Y678D01*
X2160Y270D02*
X2275D01*
X2061Y1641D02*
X2096D01*
X1905Y1115D02*
X2430Y1640D01*
Y1778D01*
X2410Y1798D02*
X2430Y1778D01*
X2410Y1798D02*
Y1835D01*
X2385Y1860D02*
X2410Y1835D01*
X2378Y1653D02*
X2385Y1660D01*
X2112Y1653D02*
X2378D01*
X2105Y1647D02*
X2112Y1653D01*
X2096Y1647D02*
X2099D01*
X2105D01*
X2036Y1616D02*
X2061Y1641D01*
X1927Y1711D02*
X2183D01*
X1448Y139D02*
X1450Y136D01*
X1285Y236D02*
X1295Y226D01*
X1450Y54D02*
X1451Y55D01*
X1710Y54D02*
X1711Y55D01*
X1840Y52D02*
X1841Y54D01*
D25*
X150Y350D02*
D03*
X2385Y1860D02*
D03*
D26*
X150Y450D02*
D03*
Y550D02*
D03*
Y650D02*
D03*
Y750D02*
D03*
Y850D02*
D03*
Y950D02*
D03*
Y1050D02*
D03*
X250Y350D02*
D03*
Y450D02*
D03*
Y550D02*
D03*
Y650D02*
D03*
Y750D02*
D03*
Y850D02*
D03*
Y950D02*
D03*
Y1050D02*
D03*
X2385Y1760D02*
D03*
Y1660D02*
D03*
X2485Y1860D02*
D03*
Y1760D02*
D03*
Y1660D02*
D03*
D27*
X2325Y120D02*
D03*
X2275D02*
D03*
X2325Y170D02*
D03*
X2275D02*
D03*
X2325Y220D02*
D03*
X2275D02*
D03*
X2325Y270D02*
D03*
X2275D02*
D03*
X2325Y320D02*
D03*
D28*
X2275D02*
D03*
D29*
X1278Y1818D02*
D03*
Y1700D02*
D03*
X1160Y1818D02*
D03*
Y1700D02*
D03*
X440Y1732D02*
D03*
Y1850D02*
D03*
X160Y1470D02*
D03*
Y1588D02*
D03*
X2727Y385D02*
D03*
Y503D02*
D03*
X2845Y385D02*
D03*
Y503D02*
D03*
X2723Y750D02*
D03*
Y868D02*
D03*
X2841Y750D02*
D03*
Y868D02*
D03*
X2723Y1115D02*
D03*
Y1233D02*
D03*
X2841Y1115D02*
D03*
Y1233D02*
D03*
X2840Y1605D02*
D03*
Y1487D02*
D03*
X2722Y1605D02*
D03*
Y1487D02*
D03*
D30*
X933Y61D02*
D03*
X677D02*
D03*
X933Y239D02*
D03*
X677D02*
D03*
X593Y61D02*
D03*
X337D02*
D03*
X593Y239D02*
D03*
X337D02*
D03*
X2183Y1711D02*
D03*
X1927D02*
D03*
X2183Y1889D02*
D03*
X1927D02*
D03*
D31*
X350Y1275D02*
D03*
X250D02*
D03*
D32*
X150D02*
D03*
D33*
Y150D02*
D03*
X2850D02*
D03*
Y1850D02*
D03*
X150D02*
D03*
D34*
X1260Y1355D02*
D03*
X1315Y1335D02*
D03*
X1105Y80D02*
D03*
X1480Y1765D02*
D03*
Y1815D02*
D03*
X820Y1280D02*
D03*
X1350Y1370D02*
D03*
X710Y1225D02*
D03*
Y1275D02*
D03*
X1880Y855D02*
D03*
X1680Y665D02*
D03*
X1820Y800D02*
D03*
X1850Y825D02*
D03*
X1944Y914D02*
D03*
X1910Y885D02*
D03*
X1790Y770D02*
D03*
X1725Y705D02*
D03*
X1905Y50D02*
D03*
X1775D02*
D03*
X1645D02*
D03*
X1515D02*
D03*
X1330Y435D02*
D03*
X1280D02*
D03*
X1230D02*
D03*
X1180D02*
D03*
X2245Y945D02*
D03*
X1905Y1115D02*
D03*
D35*
X1050Y80D02*
D03*
Y147D02*
D03*
X2105Y1713D02*
D03*
Y1647D02*
D03*
X2005Y1713D02*
D03*
Y1647D02*
D03*
D36*
X1070Y1700D02*
D03*
Y1640D02*
D03*
X2635Y380D02*
D03*
Y320D02*
D03*
Y745D02*
D03*
Y685D02*
D03*
Y1110D02*
D03*
Y1050D02*
D03*
Y1485D02*
D03*
Y1425D02*
D03*
D37*
X322Y1175D02*
D03*
X248D02*
D03*
D38*
X1450Y54D02*
D03*
Y136D02*
D03*
X1580D02*
D03*
Y54D02*
D03*
X1710Y136D02*
D03*
Y54D02*
D03*
X1840Y52D02*
D03*
Y135D02*
D03*
D39*
X498Y300D02*
D03*
X432D02*
D03*
X497Y160D02*
D03*
X430D02*
D03*
X838Y300D02*
D03*
X772D02*
D03*
X838Y160D02*
D03*
X772D02*
D03*
D40*
X1140Y221D02*
D03*
Y139D02*
D03*
X1215Y221D02*
D03*
Y139D02*
D03*
X1295Y221D02*
D03*
Y139D02*
D03*
X1370Y221D02*
D03*
Y139D02*
D03*
%TF.MD5,8a6747e43277387652294be7a355ec6d*%
M02*
