G04*
G04 #@! TF.GenerationSoftware,Altium Limited,Altium Designer,19.1.8 (144)*
G04*
G04 Layer_Physical_Order=2*
G04 Layer_Color=16711680*
%FSLAX23Y23*%
%MOIN*%
G70*
G01*
G75*
%ADD20R,0.059X0.049*%
%ADD24R,0.043X0.053*%
%ADD60C,0.012*%
%ADD62C,0.059*%
%ADD63R,0.061X0.061*%
%ADD64C,0.061*%
%ADD65C,0.060*%
%ADD66C,0.059*%
%ADD67R,0.059X0.059*%
%ADD68R,0.040X0.040*%
%ADD69C,0.040*%
%ADD70C,0.242*%
%ADD71C,0.240*%
%ADD72C,0.025*%
%ADD73R,0.033X0.051*%
%ADD74R,0.047X0.031*%
%ADD75R,0.049X0.059*%
G36*
X2357Y1985D02*
X2348Y1981D01*
X2338Y1974D01*
X2331Y1965D01*
X2327Y1954D01*
X2325Y1942D01*
X2325Y1941D01*
X2315Y1931D01*
X2283D01*
X2282Y1931D01*
Y1931D01*
X2278D01*
X2274Y1933D01*
X2272Y1936D01*
X2273Y1938D01*
X2274Y1945D01*
X2273Y1952D01*
X2271Y1959D01*
X2266Y1965D01*
X2260Y1969D01*
X2254Y1972D01*
X2247Y1973D01*
X2239Y1972D01*
X2233Y1969D01*
X2230Y1967D01*
X2228Y1967D01*
X2224Y1969D01*
X2218Y1977D01*
X2208Y1984D01*
X2206Y1985D01*
X2207Y1990D01*
X2356D01*
X2357Y1985D01*
D02*
G37*
G36*
X2166D02*
X2163Y1984D01*
X2154Y1977D01*
X2147Y1967D01*
X2143Y1957D01*
X2141Y1945D01*
X2143Y1933D01*
X2143Y1932D01*
X2130Y1919D01*
X2125Y1921D01*
Y1931D01*
X2062D01*
Y1931D01*
X2058D01*
Y1931D01*
X1995D01*
Y1904D01*
X1958D01*
X1957Y1909D01*
X1962Y1913D01*
X1969Y1923D01*
X1973Y1933D01*
X1975Y1945D01*
X1973Y1957D01*
X1969Y1967D01*
X1962Y1977D01*
X1952Y1984D01*
X1950Y1985D01*
X1951Y1990D01*
X2165D01*
X2166Y1985D01*
D02*
G37*
G36*
X2215Y1905D02*
Y1849D01*
X2220D01*
Y1830D01*
X2247D01*
X2273D01*
Y1846D01*
X2274Y1847D01*
X2281Y1847D01*
X2282Y1846D01*
Y1779D01*
X2322D01*
X2322Y1779D01*
X2325Y1778D01*
X2326Y1774D01*
X2325Y1765D01*
X2327Y1753D01*
X2331Y1743D01*
X2338Y1733D01*
X2348Y1726D01*
X2349Y1726D01*
Y1669D01*
X1865Y1186D01*
X1862Y1186D01*
X1858Y1190D01*
X1857Y1197D01*
X1854Y1204D01*
X1851Y1207D01*
Y1659D01*
X1917Y1725D01*
X1918Y1724D01*
X1930Y1723D01*
X1942Y1724D01*
X1952Y1729D01*
X1962Y1736D01*
X1969Y1745D01*
X1973Y1756D01*
X1975Y1768D01*
X1973Y1779D01*
X1969Y1790D01*
X1966Y1794D01*
X1968Y1799D01*
X2000D01*
Y1784D01*
X2017D01*
Y1820D01*
X2027D01*
Y1830D01*
X2053D01*
Y1849D01*
X2058D01*
X2062Y1846D01*
Y1779D01*
X2125D01*
Y1792D01*
X2130Y1794D01*
X2143Y1780D01*
X2143Y1779D01*
X2141Y1768D01*
X2143Y1756D01*
X2147Y1745D01*
X2154Y1736D01*
X2163Y1729D01*
X2174Y1724D01*
X2186Y1723D01*
X2198Y1724D01*
X2208Y1729D01*
X2218Y1736D01*
X2225Y1745D01*
X2225Y1746D01*
X2231Y1747D01*
X2235Y1745D01*
Y1765D01*
X2245D01*
Y1775D01*
X2267D01*
Y1784D01*
X2273D01*
Y1810D01*
X2247D01*
X2220D01*
Y1804D01*
X2215Y1802D01*
X2208Y1807D01*
X2198Y1811D01*
X2186Y1813D01*
X2174Y1811D01*
X2173Y1811D01*
X2149Y1835D01*
X2142Y1840D01*
X2134Y1841D01*
X2125D01*
Y1869D01*
X2131D01*
X2139Y1870D01*
X2146Y1875D01*
X2173Y1902D01*
X2174Y1902D01*
X2186Y1900D01*
X2198Y1902D01*
X2208Y1906D01*
X2210Y1908D01*
X2215Y1905D01*
D02*
G37*
G36*
X2829Y1985D02*
X2829Y1985D01*
X2808Y1980D01*
X2788Y1972D01*
X2770Y1960D01*
X2754Y1946D01*
X2740Y1930D01*
X2728Y1912D01*
X2720Y1892D01*
X2715Y1871D01*
X2714Y1850D01*
X2715Y1829D01*
X2720Y1808D01*
X2728Y1788D01*
X2740Y1770D01*
X2754Y1754D01*
X2770Y1740D01*
X2788Y1728D01*
X2793Y1726D01*
X2792Y1721D01*
X2770D01*
X2762Y1720D01*
X2762Y1720D01*
X2705D01*
Y1720D01*
X2700Y1718D01*
X2700Y1720D01*
X2694Y1724D01*
X2687Y1727D01*
X2680Y1728D01*
X2673Y1727D01*
X2666Y1724D01*
X2663Y1721D01*
X2652D01*
X2649Y1726D01*
X2649Y1726D01*
X2658Y1733D01*
X2665Y1743D01*
X2669Y1753D01*
X2671Y1765D01*
X2669Y1777D01*
X2665Y1787D01*
X2658Y1797D01*
X2648Y1804D01*
X2638Y1808D01*
X2626Y1810D01*
X2614Y1808D01*
X2603Y1804D01*
X2594Y1797D01*
X2587Y1787D01*
X2583Y1777D01*
X2581Y1765D01*
X2583Y1753D01*
X2587Y1743D01*
X2594Y1733D01*
X2603Y1726D01*
X2607Y1725D01*
X2606Y1720D01*
X2565D01*
Y1720D01*
X2560Y1718D01*
X2560Y1720D01*
X2554Y1724D01*
X2547Y1727D01*
X2540Y1728D01*
X2533Y1727D01*
X2526Y1724D01*
X2523Y1721D01*
X2490D01*
X2482Y1720D01*
X2482Y1720D01*
X2425D01*
Y1640D01*
X2515D01*
Y1679D01*
X2523D01*
X2526Y1676D01*
X2533Y1673D01*
X2540Y1672D01*
X2547Y1673D01*
X2554Y1676D01*
X2560Y1680D01*
X2560Y1682D01*
X2565Y1680D01*
Y1640D01*
X2655D01*
Y1679D01*
X2663D01*
X2666Y1676D01*
X2673Y1673D01*
X2680Y1672D01*
X2687Y1673D01*
X2694Y1676D01*
X2700Y1680D01*
X2700Y1682D01*
X2705Y1680D01*
Y1640D01*
X2795D01*
Y1679D01*
X2803D01*
X2806Y1676D01*
X2813Y1673D01*
X2820Y1672D01*
X2827Y1673D01*
X2834Y1676D01*
X2840Y1680D01*
X2840Y1682D01*
X2845Y1680D01*
Y1640D01*
X2935D01*
Y1679D01*
X2948D01*
X2951Y1676D01*
X2958Y1673D01*
X2965Y1672D01*
X2972Y1673D01*
X2979Y1676D01*
X2985Y1680D01*
X2985Y1681D01*
X2990Y1679D01*
X2990Y954D01*
X2985Y953D01*
X2983Y955D01*
X2976Y960D01*
X2967Y964D01*
X2958Y965D01*
X2949Y964D01*
X2940Y960D01*
X2933Y955D01*
X2928Y948D01*
X2924Y939D01*
X2923Y930D01*
X2924Y921D01*
X2928Y912D01*
X2933Y905D01*
X2940Y899D01*
X2949Y896D01*
X2958Y895D01*
X2967Y896D01*
X2976Y899D01*
X2983Y905D01*
X2985Y907D01*
X2990Y905D01*
Y649D01*
X2985Y648D01*
X2983Y650D01*
X2976Y655D01*
X2967Y659D01*
X2958Y660D01*
X2949Y659D01*
X2940Y655D01*
X2933Y650D01*
X2928Y643D01*
X2924Y634D01*
X2923Y625D01*
X2924Y616D01*
X2928Y607D01*
X2933Y600D01*
X2940Y594D01*
X2949Y591D01*
X2958Y590D01*
X2967Y591D01*
X2976Y594D01*
X2983Y600D01*
X2985Y602D01*
X2990Y600D01*
X2990Y357D01*
X2985Y356D01*
X2983Y358D01*
X2976Y364D01*
X2967Y367D01*
X2958Y368D01*
X2949Y367D01*
X2940Y364D01*
X2933Y358D01*
X2928Y351D01*
X2924Y342D01*
X2923Y333D01*
X2924Y324D01*
X2928Y315D01*
X2933Y308D01*
X2940Y302D01*
X2949Y299D01*
X2958Y298D01*
X2967Y299D01*
X2976Y302D01*
X2983Y308D01*
X2985Y310D01*
X2990Y309D01*
Y158D01*
X2985Y158D01*
X2984Y171D01*
X2979Y192D01*
X2971Y211D01*
X2960Y230D01*
X2946Y246D01*
X2930Y260D01*
X2911Y271D01*
X2892Y279D01*
X2871Y284D01*
X2850Y285D01*
X2829Y284D01*
X2808Y279D01*
X2789Y271D01*
X2770Y260D01*
X2754Y246D01*
X2740Y230D01*
X2729Y211D01*
X2721Y192D01*
X2716Y171D01*
X2715Y150D01*
X2716Y129D01*
X2721Y108D01*
X2729Y89D01*
X2740Y70D01*
X2754Y54D01*
X2770Y40D01*
X2789Y29D01*
X2808Y21D01*
X2829Y16D01*
X2842Y15D01*
X2842Y10D01*
X1893D01*
X1892Y15D01*
X1899Y18D01*
X1908Y25D01*
X1915Y35D01*
X1920Y45D01*
X1921Y57D01*
X1920Y69D01*
X1915Y79D01*
X1908Y89D01*
X1899Y96D01*
X1888Y100D01*
X1876Y102D01*
X1865Y100D01*
X1854Y96D01*
X1845Y89D01*
X1838Y79D01*
X1833Y69D01*
X1832Y57D01*
X1833Y45D01*
X1838Y35D01*
X1845Y25D01*
X1854Y18D01*
X1861Y15D01*
X1860Y10D01*
X158D01*
X158Y15D01*
X171Y16D01*
X192Y21D01*
X211Y29D01*
X230Y40D01*
X246Y54D01*
X259Y69D01*
X261Y70D01*
X262Y69D01*
X264Y68D01*
X267Y61D01*
X273Y54D01*
X280Y48D01*
X289Y45D01*
X298Y44D01*
X307Y45D01*
X315Y48D01*
X323Y54D01*
X328Y61D01*
X332Y70D01*
X333Y79D01*
X332Y88D01*
X328Y97D01*
X323Y104D01*
X315Y109D01*
X307Y113D01*
X298Y114D01*
X289Y113D01*
X285Y111D01*
X280Y115D01*
X284Y129D01*
X285Y150D01*
X284Y171D01*
X279Y192D01*
X271Y211D01*
X260Y230D01*
X246Y246D01*
X230Y260D01*
X211Y271D01*
X192Y279D01*
X171Y284D01*
X150Y285D01*
X129Y284D01*
X108Y279D01*
X89Y271D01*
X70Y260D01*
X54Y246D01*
X40Y230D01*
X29Y211D01*
X21Y192D01*
X16Y171D01*
X15Y158D01*
X10Y158D01*
Y1829D01*
X15Y1829D01*
X15Y1829D01*
X20Y1808D01*
X28Y1788D01*
X40Y1770D01*
X54Y1754D01*
X70Y1740D01*
X88Y1728D01*
X108Y1720D01*
X129Y1715D01*
X150Y1714D01*
X171Y1715D01*
X192Y1720D01*
X212Y1728D01*
X230Y1740D01*
X246Y1754D01*
X260Y1770D01*
X272Y1788D01*
X280Y1808D01*
X285Y1829D01*
X286Y1850D01*
X285Y1871D01*
X282Y1884D01*
X286Y1887D01*
X288Y1886D01*
X297Y1885D01*
X306Y1886D01*
X315Y1890D01*
X322Y1895D01*
X327Y1902D01*
X331Y1911D01*
X332Y1920D01*
X331Y1929D01*
X327Y1938D01*
X322Y1945D01*
X315Y1951D01*
X306Y1954D01*
X297Y1955D01*
X288Y1954D01*
X279Y1951D01*
X272Y1945D01*
X266Y1938D01*
X264Y1933D01*
X264Y1933D01*
X259Y1932D01*
X246Y1946D01*
X230Y1960D01*
X212Y1972D01*
X192Y1980D01*
X171Y1985D01*
X171Y1985D01*
X171Y1990D01*
X1909Y1990D01*
X1910Y1985D01*
X1908Y1984D01*
X1898Y1977D01*
X1891Y1967D01*
X1887Y1957D01*
X1887Y1956D01*
X1881Y1953D01*
X1876Y1955D01*
X1867Y1956D01*
X1858Y1955D01*
X1850Y1952D01*
X1842Y1946D01*
X1837Y1939D01*
X1833Y1930D01*
X1832Y1921D01*
X1833Y1912D01*
X1834Y1909D01*
X1832Y1904D01*
X1789D01*
X1788Y1907D01*
X1781Y1916D01*
X1772Y1923D01*
X1761Y1928D01*
X1749Y1929D01*
X1737Y1928D01*
X1726Y1923D01*
X1717Y1916D01*
X1710Y1907D01*
X1705Y1896D01*
X1704Y1884D01*
X1705Y1872D01*
X1710Y1861D01*
X1717Y1852D01*
X1724Y1846D01*
X1722Y1841D01*
X1683D01*
X1675Y1840D01*
X1668Y1835D01*
X1641Y1808D01*
Y1766D01*
X1631D01*
Y1756D01*
X1592D01*
X1592Y1756D01*
X1596Y1746D01*
X1602Y1737D01*
X1604Y1737D01*
X1602Y1732D01*
X1595D01*
Y1705D01*
X1626D01*
Y1695D01*
X1636D01*
Y1658D01*
X1647D01*
Y1653D01*
X1696D01*
X1699Y1653D01*
X1699Y1653D01*
X1700Y1653D01*
X1705D01*
X1710Y1648D01*
X1683Y1621D01*
X1384D01*
Y1673D01*
Y1735D01*
X1383D01*
X1380Y1739D01*
X1383Y1743D01*
X1388Y1754D01*
X1389Y1766D01*
X1388Y1778D01*
X1383Y1789D01*
X1376Y1798D01*
X1367Y1805D01*
X1356Y1810D01*
X1344Y1811D01*
X1332Y1810D01*
X1321Y1805D01*
X1312Y1798D01*
X1305Y1789D01*
X1300Y1778D01*
X1299Y1766D01*
X1300Y1754D01*
X1305Y1743D01*
X1306Y1741D01*
X1304Y1737D01*
X1260D01*
X1258Y1742D01*
X1261Y1746D01*
X1265Y1756D01*
X1265Y1756D01*
X1226D01*
X1187D01*
X1187Y1756D01*
X1191Y1746D01*
X1197Y1737D01*
X1199Y1737D01*
X1197Y1732D01*
X1190D01*
Y1705D01*
X1221D01*
Y1695D01*
X1231D01*
Y1658D01*
X1242D01*
Y1653D01*
X1242Y1653D01*
X1242D01*
X1239Y1650D01*
X1055Y1465D01*
X1050Y1458D01*
X1049Y1450D01*
Y1331D01*
X1044Y1329D01*
X964Y1408D01*
Y1615D01*
X974D01*
Y1674D01*
Y1735D01*
X974Y1735D01*
X974D01*
X976Y1740D01*
X978Y1743D01*
X983Y1754D01*
X984Y1766D01*
X983Y1778D01*
X978Y1789D01*
X971Y1798D01*
X962Y1805D01*
X951Y1810D01*
X939Y1811D01*
X927Y1810D01*
X916Y1805D01*
X907Y1798D01*
X900Y1789D01*
X895Y1778D01*
X894Y1766D01*
X895Y1754D01*
X900Y1743D01*
X901Y1741D01*
X899Y1737D01*
X855D01*
X853Y1742D01*
X856Y1746D01*
X860Y1756D01*
X860Y1756D01*
X821D01*
X782D01*
X782Y1756D01*
X786Y1746D01*
X792Y1737D01*
X794Y1737D01*
X792Y1732D01*
X785D01*
Y1705D01*
X816D01*
Y1695D01*
X826D01*
Y1658D01*
X837D01*
Y1653D01*
X881D01*
X894Y1640D01*
X896Y1639D01*
Y1615D01*
X921D01*
Y1401D01*
X916Y1399D01*
X655Y1660D01*
X648Y1665D01*
X640Y1666D01*
X569D01*
Y1735D01*
X569Y1735D01*
X569D01*
X570Y1740D01*
X572Y1742D01*
X577Y1753D01*
X578Y1765D01*
X577Y1777D01*
X572Y1788D01*
X565Y1797D01*
X556Y1804D01*
X545Y1809D01*
X533Y1810D01*
X521Y1809D01*
X510Y1804D01*
X501Y1797D01*
X494Y1788D01*
X489Y1777D01*
X488Y1765D01*
X489Y1753D01*
X494Y1742D01*
X495Y1741D01*
X493Y1737D01*
X449D01*
X447Y1741D01*
X450Y1745D01*
X454Y1755D01*
X454Y1755D01*
X415D01*
X376D01*
X376Y1755D01*
X380Y1745D01*
X386Y1737D01*
X386Y1736D01*
X385Y1732D01*
X379D01*
Y1705D01*
X410D01*
Y1695D01*
X420D01*
Y1658D01*
X431D01*
Y1653D01*
X474D01*
X488Y1640D01*
X491Y1638D01*
Y1615D01*
X569D01*
Y1624D01*
X631D01*
X1108Y1147D01*
X1108Y1143D01*
X1110Y1139D01*
X1108Y1135D01*
Y1112D01*
Y1091D01*
X1114D01*
X1116Y1086D01*
X1106Y1076D01*
X1004D01*
X917Y1163D01*
X917Y1167D01*
X914Y1174D01*
X910Y1180D01*
X904Y1184D01*
X897Y1187D01*
X890Y1188D01*
X883Y1187D01*
X876Y1184D01*
X870Y1180D01*
X866Y1174D01*
X863Y1167D01*
X862Y1160D01*
X863Y1153D01*
X866Y1146D01*
X870Y1140D01*
X876Y1136D01*
X883Y1133D01*
X887Y1133D01*
X980Y1040D01*
X987Y1035D01*
X995Y1034D01*
X1115D01*
X1123Y1035D01*
X1130Y1040D01*
X1362Y1271D01*
X1366Y1278D01*
X1368Y1286D01*
Y1370D01*
X1366Y1378D01*
X1362Y1385D01*
X1281Y1465D01*
Y1483D01*
X1284Y1486D01*
X1287Y1493D01*
X1288Y1500D01*
X1287Y1507D01*
X1284Y1514D01*
X1280Y1520D01*
X1274Y1524D01*
X1267Y1527D01*
X1260Y1528D01*
X1253Y1527D01*
X1246Y1524D01*
X1240Y1520D01*
X1236Y1514D01*
X1233Y1507D01*
X1232Y1500D01*
X1233Y1493D01*
X1236Y1486D01*
X1239Y1483D01*
Y1456D01*
X1240Y1448D01*
X1245Y1441D01*
X1324Y1362D01*
X1322Y1358D01*
X1321Y1358D01*
X1320Y1358D01*
X1311Y1356D01*
X1304Y1351D01*
X1300Y1345D01*
X1320D01*
Y1325D01*
X1299D01*
Y1306D01*
X1245Y1253D01*
X1240Y1254D01*
X1240Y1255D01*
X1234Y1259D01*
X1227Y1262D01*
X1223Y1262D01*
X1121Y1364D01*
Y1436D01*
X1264Y1579D01*
X1692D01*
X1700Y1580D01*
X1707Y1585D01*
X1738Y1616D01*
X1789D01*
Y1675D01*
Y1736D01*
X1789D01*
X1786Y1741D01*
X1788Y1743D01*
X1793Y1754D01*
X1794Y1766D01*
X1793Y1778D01*
X1788Y1789D01*
X1785Y1794D01*
X1787Y1799D01*
X1892D01*
X1894Y1794D01*
X1891Y1790D01*
X1887Y1779D01*
X1885Y1768D01*
X1887Y1756D01*
X1887Y1755D01*
X1815Y1683D01*
X1810Y1676D01*
X1809Y1668D01*
Y1207D01*
X1806Y1204D01*
X1803Y1197D01*
X1802Y1190D01*
X1803Y1183D01*
X1806Y1176D01*
X1810Y1170D01*
X1816Y1166D01*
X1823Y1163D01*
X1830Y1162D01*
X1833Y1163D01*
X1838Y1158D01*
X1837Y1155D01*
X1838Y1148D01*
X1841Y1141D01*
X1845Y1135D01*
X1851Y1131D01*
X1858Y1128D01*
X1865Y1127D01*
X1872Y1128D01*
X1879Y1131D01*
X1885Y1135D01*
X1889Y1141D01*
X1892Y1148D01*
X1892Y1152D01*
X2385Y1645D01*
X2390Y1652D01*
X2391Y1660D01*
Y1726D01*
X2392Y1726D01*
X2402Y1733D01*
X2409Y1743D01*
X2413Y1753D01*
X2415Y1765D01*
X2413Y1777D01*
X2409Y1787D01*
X2402Y1797D01*
X2392Y1804D01*
X2382Y1808D01*
X2370Y1810D01*
X2358Y1808D01*
X2357Y1808D01*
X2350Y1816D01*
X2345Y1819D01*
Y1849D01*
X2345D01*
Y1899D01*
X2349Y1903D01*
X2358Y1899D01*
X2370Y1897D01*
X2382Y1899D01*
X2392Y1903D01*
X2402Y1910D01*
X2409Y1920D01*
X2413Y1931D01*
X2415Y1942D01*
X2413Y1954D01*
X2409Y1965D01*
X2402Y1974D01*
X2392Y1981D01*
X2383Y1985D01*
X2384Y1990D01*
X2612Y1990D01*
X2613Y1985D01*
X2603Y1981D01*
X2594Y1974D01*
X2587Y1965D01*
X2583Y1954D01*
X2581Y1942D01*
X2583Y1931D01*
X2587Y1920D01*
X2594Y1910D01*
X2603Y1903D01*
X2614Y1899D01*
X2626Y1897D01*
X2638Y1899D01*
X2648Y1903D01*
X2658Y1910D01*
X2665Y1920D01*
X2669Y1931D01*
X2671Y1942D01*
X2669Y1954D01*
X2665Y1965D01*
X2658Y1974D01*
X2648Y1981D01*
X2639Y1985D01*
X2640Y1990D01*
X2829D01*
X2829Y1985D01*
D02*
G37*
G36*
X1995Y1849D02*
X2000D01*
Y1841D01*
X1776D01*
X1774Y1846D01*
X1781Y1852D01*
X1788Y1861D01*
X1788Y1862D01*
X1995D01*
Y1849D01*
D02*
G37*
G36*
X2990Y1829D02*
Y1721D01*
X2985Y1719D01*
X2985Y1720D01*
X2979Y1724D01*
X2972Y1727D01*
X2965Y1728D01*
X2958Y1727D01*
X2951Y1724D01*
X2948Y1721D01*
X2910D01*
X2906Y1721D01*
X2905Y1725D01*
X2912Y1728D01*
X2930Y1740D01*
X2946Y1754D01*
X2960Y1770D01*
X2972Y1788D01*
X2980Y1808D01*
X2985Y1829D01*
X2985Y1829D01*
X2990Y1829D01*
D02*
G37*
%LPC*%
G36*
X2053Y1810D02*
X2037D01*
Y1784D01*
X2053D01*
Y1810D01*
D02*
G37*
G36*
X2265Y1755D02*
X2255D01*
Y1745D01*
X2261Y1749D01*
X2265Y1755D01*
D02*
G37*
G36*
X1513Y1956D02*
X1504Y1955D01*
X1495Y1952D01*
X1488Y1946D01*
X1487D01*
X1480Y1952D01*
X1471Y1955D01*
X1462Y1956D01*
X1453Y1955D01*
X1445Y1952D01*
X1437Y1946D01*
X1432Y1939D01*
X1428Y1930D01*
X1427Y1921D01*
X1428Y1912D01*
X1432Y1903D01*
X1437Y1896D01*
X1445Y1890D01*
X1453Y1887D01*
X1462Y1886D01*
X1471Y1887D01*
X1480Y1890D01*
X1487Y1896D01*
X1488D01*
X1495Y1890D01*
X1504Y1887D01*
X1513Y1886D01*
X1522Y1887D01*
X1530Y1890D01*
X1538Y1896D01*
X1543Y1903D01*
X1547Y1912D01*
X1548Y1921D01*
X1547Y1930D01*
X1543Y1939D01*
X1538Y1946D01*
X1530Y1952D01*
X1522Y1955D01*
X1513Y1956D01*
D02*
G37*
G36*
X1108D02*
X1099Y1955D01*
X1090Y1952D01*
X1083Y1946D01*
X1082D01*
X1075Y1952D01*
X1066Y1955D01*
X1057Y1956D01*
X1048Y1955D01*
X1040Y1952D01*
X1032Y1946D01*
X1027Y1939D01*
X1023Y1930D01*
X1022Y1921D01*
X1023Y1912D01*
X1027Y1903D01*
X1032Y1896D01*
X1040Y1890D01*
X1048Y1887D01*
X1057Y1886D01*
X1066Y1887D01*
X1075Y1890D01*
X1082Y1896D01*
X1083D01*
X1090Y1890D01*
X1099Y1887D01*
X1108Y1886D01*
X1117Y1887D01*
X1125Y1890D01*
X1133Y1896D01*
X1138Y1903D01*
X1142Y1912D01*
X1143Y1921D01*
X1142Y1930D01*
X1138Y1939D01*
X1133Y1946D01*
X1125Y1952D01*
X1117Y1955D01*
X1108Y1956D01*
D02*
G37*
G36*
X703D02*
X694Y1955D01*
X685Y1952D01*
X678Y1946D01*
X677Y1945D01*
X676D01*
X669Y1951D01*
X660Y1954D01*
X651Y1955D01*
X642Y1954D01*
X634Y1951D01*
X626Y1945D01*
X621Y1938D01*
X617Y1929D01*
X616Y1920D01*
X617Y1911D01*
X621Y1902D01*
X626Y1895D01*
X634Y1890D01*
X642Y1886D01*
X651Y1885D01*
X660Y1886D01*
X669Y1890D01*
X676Y1895D01*
X677Y1896D01*
X678D01*
X685Y1890D01*
X694Y1887D01*
X703Y1886D01*
X712Y1887D01*
X720Y1890D01*
X728Y1896D01*
X733Y1903D01*
X737Y1912D01*
X738Y1921D01*
X737Y1930D01*
X733Y1939D01*
X728Y1946D01*
X720Y1952D01*
X712Y1955D01*
X703Y1956D01*
D02*
G37*
G36*
X1631Y1929D02*
X1619Y1928D01*
X1608Y1923D01*
X1599Y1916D01*
X1592Y1907D01*
X1587Y1896D01*
X1586Y1884D01*
X1587Y1872D01*
X1592Y1861D01*
X1599Y1852D01*
X1608Y1845D01*
X1619Y1840D01*
X1631Y1839D01*
X1643Y1840D01*
X1654Y1845D01*
X1663Y1852D01*
X1670Y1861D01*
X1675Y1872D01*
X1676Y1884D01*
X1675Y1896D01*
X1670Y1907D01*
X1663Y1916D01*
X1654Y1923D01*
X1643Y1928D01*
X1631Y1929D01*
D02*
G37*
G36*
X1344D02*
X1332Y1928D01*
X1321Y1923D01*
X1312Y1916D01*
X1305Y1907D01*
X1300Y1896D01*
X1299Y1884D01*
X1300Y1872D01*
X1305Y1861D01*
X1312Y1852D01*
X1321Y1845D01*
X1332Y1840D01*
X1344Y1839D01*
X1356Y1840D01*
X1367Y1845D01*
X1376Y1852D01*
X1383Y1861D01*
X1388Y1872D01*
X1389Y1884D01*
X1388Y1896D01*
X1383Y1907D01*
X1376Y1916D01*
X1367Y1923D01*
X1356Y1928D01*
X1344Y1929D01*
D02*
G37*
G36*
X1226D02*
X1214Y1928D01*
X1203Y1923D01*
X1194Y1916D01*
X1187Y1907D01*
X1182Y1896D01*
X1181Y1884D01*
X1182Y1872D01*
X1187Y1861D01*
X1194Y1852D01*
X1203Y1845D01*
X1214Y1840D01*
X1226Y1839D01*
X1238Y1840D01*
X1249Y1845D01*
X1258Y1852D01*
X1265Y1861D01*
X1270Y1872D01*
X1271Y1884D01*
X1270Y1896D01*
X1265Y1907D01*
X1258Y1916D01*
X1249Y1923D01*
X1238Y1928D01*
X1226Y1929D01*
D02*
G37*
G36*
X939D02*
X927Y1928D01*
X916Y1923D01*
X907Y1916D01*
X900Y1907D01*
X895Y1896D01*
X894Y1884D01*
X895Y1872D01*
X900Y1861D01*
X907Y1852D01*
X916Y1845D01*
X927Y1840D01*
X939Y1839D01*
X951Y1840D01*
X962Y1845D01*
X971Y1852D01*
X978Y1861D01*
X983Y1872D01*
X984Y1884D01*
X983Y1896D01*
X978Y1907D01*
X971Y1916D01*
X962Y1923D01*
X951Y1928D01*
X939Y1929D01*
D02*
G37*
G36*
X821D02*
X809Y1928D01*
X798Y1923D01*
X789Y1916D01*
X782Y1907D01*
X777Y1896D01*
X776Y1884D01*
X777Y1872D01*
X782Y1861D01*
X789Y1852D01*
X798Y1845D01*
X809Y1840D01*
X821Y1839D01*
X833Y1840D01*
X844Y1845D01*
X853Y1852D01*
X860Y1861D01*
X865Y1872D01*
X866Y1884D01*
X865Y1896D01*
X860Y1907D01*
X853Y1916D01*
X844Y1923D01*
X833Y1928D01*
X821Y1929D01*
D02*
G37*
G36*
X533Y1928D02*
X521Y1927D01*
X510Y1922D01*
X501Y1915D01*
X494Y1906D01*
X489Y1895D01*
X488Y1883D01*
X489Y1871D01*
X494Y1860D01*
X501Y1851D01*
X510Y1844D01*
X521Y1839D01*
X533Y1838D01*
X545Y1839D01*
X556Y1844D01*
X565Y1851D01*
X572Y1860D01*
X577Y1871D01*
X578Y1883D01*
X577Y1895D01*
X572Y1906D01*
X565Y1915D01*
X556Y1922D01*
X545Y1927D01*
X533Y1928D01*
D02*
G37*
G36*
X415D02*
X403Y1927D01*
X392Y1922D01*
X383Y1915D01*
X376Y1906D01*
X371Y1895D01*
X370Y1883D01*
X371Y1871D01*
X376Y1860D01*
X383Y1851D01*
X392Y1844D01*
X403Y1839D01*
X415Y1838D01*
X427Y1839D01*
X438Y1844D01*
X447Y1851D01*
X454Y1860D01*
X459Y1871D01*
X460Y1883D01*
X459Y1895D01*
X454Y1906D01*
X447Y1915D01*
X438Y1922D01*
X427Y1927D01*
X415Y1928D01*
D02*
G37*
G36*
X1236Y1805D02*
Y1776D01*
X1265D01*
X1265Y1776D01*
X1261Y1786D01*
X1254Y1794D01*
X1246Y1801D01*
X1236Y1805D01*
X1236Y1805D01*
D02*
G37*
G36*
X831D02*
Y1776D01*
X860D01*
X860Y1776D01*
X856Y1786D01*
X849Y1794D01*
X841Y1801D01*
X831Y1805D01*
X831Y1805D01*
D02*
G37*
G36*
X811D02*
X811Y1805D01*
X801Y1801D01*
X792Y1794D01*
X786Y1786D01*
X782Y1776D01*
X782Y1776D01*
X811D01*
Y1805D01*
D02*
G37*
G36*
X1621D02*
X1621Y1805D01*
X1611Y1801D01*
X1602Y1794D01*
X1596Y1786D01*
X1592Y1776D01*
X1592Y1776D01*
X1621D01*
Y1805D01*
D02*
G37*
G36*
X1216D02*
X1216Y1805D01*
X1206Y1801D01*
X1197Y1794D01*
X1191Y1786D01*
X1187Y1776D01*
X1187Y1776D01*
X1216D01*
Y1805D01*
D02*
G37*
G36*
X425Y1804D02*
Y1775D01*
X454D01*
X454Y1775D01*
X450Y1785D01*
X444Y1794D01*
X435Y1800D01*
X425Y1804D01*
X425Y1804D01*
D02*
G37*
G36*
X405D02*
X405Y1804D01*
X395Y1800D01*
X386Y1794D01*
X380Y1785D01*
X376Y1775D01*
X376Y1775D01*
X405D01*
Y1804D01*
D02*
G37*
G36*
X1616Y1685D02*
X1595D01*
Y1658D01*
X1616D01*
Y1685D01*
D02*
G37*
G36*
X1211D02*
X1190D01*
Y1658D01*
X1211D01*
Y1685D01*
D02*
G37*
G36*
X806D02*
X785D01*
Y1658D01*
X806D01*
Y1685D01*
D02*
G37*
G36*
X400D02*
X379D01*
Y1658D01*
X400D01*
Y1685D01*
D02*
G37*
G36*
X2880Y1632D02*
X2850D01*
Y1619D01*
X2790D01*
Y1632D01*
X2760D01*
Y1597D01*
Y1563D01*
X2790D01*
Y1576D01*
X2850D01*
Y1563D01*
X2880D01*
Y1597D01*
X2890D01*
D01*
X2880D01*
Y1632D01*
D02*
G37*
G36*
X2740D02*
X2710D01*
Y1619D01*
X2650D01*
Y1632D01*
X2620D01*
Y1597D01*
Y1563D01*
X2650D01*
Y1576D01*
X2692D01*
X2694Y1571D01*
X2686Y1564D01*
X2682Y1557D01*
X2680Y1549D01*
Y1500D01*
X2667D01*
Y1470D01*
X2701D01*
X2736D01*
Y1500D01*
X2723D01*
Y1540D01*
X2740Y1557D01*
Y1597D01*
Y1632D01*
D02*
G37*
G36*
X2600D02*
X2570D01*
Y1619D01*
X2510D01*
Y1632D01*
X2480D01*
Y1597D01*
Y1563D01*
X2510D01*
Y1576D01*
X2570D01*
Y1563D01*
X2600D01*
Y1597D01*
Y1632D01*
D02*
G37*
G36*
X2930D02*
X2900D01*
Y1607D01*
X2930D01*
Y1632D01*
D02*
G37*
G36*
X2460D02*
X2430D01*
Y1607D01*
X2460D01*
Y1632D01*
D02*
G37*
G36*
X2930Y1587D02*
X2900D01*
Y1563D01*
X2930D01*
Y1587D01*
D02*
G37*
G36*
X2460D02*
X2430D01*
Y1563D01*
X2460D01*
Y1587D01*
D02*
G37*
G36*
X2658Y1505D02*
X2579D01*
Y1460D01*
X2574D01*
X2570Y1463D01*
X2564Y1465D01*
X2556Y1466D01*
X2549Y1465D01*
X2543Y1463D01*
X2537Y1458D01*
X2532Y1452D01*
X2530Y1446D01*
X2529Y1439D01*
X2530Y1431D01*
X2532Y1425D01*
X2537Y1419D01*
X2543Y1415D01*
X2549Y1412D01*
X2549Y1412D01*
X2548Y1407D01*
X2541Y1404D01*
X2535Y1400D01*
X2531Y1394D01*
X2528Y1387D01*
X2527Y1380D01*
X2528Y1373D01*
X2531Y1366D01*
X2535Y1360D01*
Y1360D01*
X2531Y1354D01*
X2528Y1347D01*
X2527Y1340D01*
X2528Y1333D01*
X2531Y1326D01*
X2535Y1320D01*
X2541Y1316D01*
X2543Y1315D01*
Y1310D01*
X2541Y1309D01*
X2535Y1305D01*
X2531Y1299D01*
X2528Y1292D01*
X2527Y1285D01*
X2528Y1278D01*
X2531Y1271D01*
X2535Y1265D01*
X2541Y1261D01*
X2548Y1258D01*
X2555Y1257D01*
X2562Y1258D01*
X2569Y1261D01*
X2572Y1264D01*
X2579D01*
Y1220D01*
X2658D01*
Y1285D01*
Y1350D01*
Y1415D01*
Y1505D01*
D02*
G37*
G36*
X150Y1460D02*
X141Y1459D01*
X132Y1456D01*
X125Y1450D01*
X122Y1446D01*
X121D01*
X115Y1451D01*
X110Y1453D01*
Y1425D01*
X100D01*
Y1415D01*
X72D01*
X74Y1410D01*
X79Y1404D01*
Y1403D01*
X75Y1400D01*
X69Y1393D01*
X66Y1384D01*
X65Y1375D01*
X66Y1366D01*
X69Y1357D01*
X72Y1354D01*
X75Y1350D01*
X72Y1346D01*
X69Y1343D01*
X66Y1334D01*
X65Y1325D01*
X65Y1321D01*
X25Y1281D01*
X21Y1274D01*
X19Y1265D01*
Y775D01*
X21Y766D01*
X25Y759D01*
X41Y743D01*
X41Y742D01*
X39Y730D01*
X41Y718D01*
X45Y707D01*
X53Y698D01*
X62Y690D01*
X73Y686D01*
X85Y684D01*
X97Y686D01*
X98Y686D01*
X160Y625D01*
X167Y620D01*
X175Y619D01*
X1643D01*
X1646Y616D01*
X1653Y613D01*
X1660Y612D01*
X1667Y613D01*
X1674Y616D01*
X1680Y620D01*
X1684Y626D01*
X1687Y633D01*
X1688Y640D01*
X1687Y647D01*
X1684Y654D01*
X1680Y660D01*
X1674Y664D01*
X1667Y667D01*
X1660Y668D01*
X1653Y667D01*
X1646Y664D01*
X1643Y661D01*
X1317D01*
X1315Y666D01*
X1319Y671D01*
X1322Y678D01*
X1323Y685D01*
X1322Y692D01*
X1319Y699D01*
X1315Y705D01*
X1309Y709D01*
X1302Y712D01*
X1298Y712D01*
X1215Y795D01*
X1208Y800D01*
X1200Y801D01*
X229D01*
X226Y806D01*
X228Y809D01*
X1090D01*
X1098Y810D01*
X1105Y815D01*
X1116Y826D01*
X1123Y823D01*
X1130Y822D01*
X1137Y823D01*
X1144Y826D01*
X1150Y830D01*
X1154Y836D01*
X1157Y843D01*
X1158Y850D01*
X1157Y857D01*
X1154Y864D01*
X1150Y870D01*
X1144Y874D01*
X1137Y877D01*
X1130Y878D01*
X1123Y877D01*
X1116Y874D01*
X1113Y871D01*
X1110D01*
X1107Y871D01*
X1105Y875D01*
X1105Y875D01*
X1109Y881D01*
X1112Y888D01*
X1113Y895D01*
X1112Y902D01*
X1109Y909D01*
X1105Y915D01*
X1099Y919D01*
X1092Y922D01*
X1088Y922D01*
X1021Y990D01*
X1014Y994D01*
X1005Y996D01*
X166D01*
X158Y994D01*
X151Y990D01*
X138Y976D01*
X110D01*
X107Y976D01*
X62D01*
Y1255D01*
X65Y1257D01*
X70Y1257D01*
X75Y1250D01*
X79Y1247D01*
Y1246D01*
X74Y1240D01*
X72Y1235D01*
X100D01*
Y1225D01*
X110D01*
Y1197D01*
X111Y1197D01*
X115Y1194D01*
Y1190D01*
X185D01*
Y1216D01*
X190Y1219D01*
X193Y1218D01*
X200Y1217D01*
X207Y1218D01*
X214Y1221D01*
X220Y1225D01*
X224Y1231D01*
X227Y1238D01*
X228Y1245D01*
X227Y1252D01*
X224Y1259D01*
X220Y1265D01*
X216Y1267D01*
Y1281D01*
X214Y1289D01*
X210Y1296D01*
X185Y1321D01*
X185Y1325D01*
X184Y1334D01*
X181Y1343D01*
X178Y1346D01*
X175Y1350D01*
X178Y1354D01*
X181Y1357D01*
X184Y1366D01*
X185Y1375D01*
X184Y1384D01*
X181Y1393D01*
X178Y1396D01*
X175Y1400D01*
X178Y1404D01*
X181Y1407D01*
X184Y1416D01*
X185Y1425D01*
X184Y1434D01*
X181Y1443D01*
X175Y1450D01*
X168Y1456D01*
X159Y1459D01*
X150Y1460D01*
D02*
G37*
G36*
X90Y1453D02*
X85Y1451D01*
X79Y1446D01*
X74Y1440D01*
X72Y1435D01*
X90D01*
Y1453D01*
D02*
G37*
G36*
X2736Y1450D02*
X2701D01*
X2667D01*
Y1420D01*
Y1405D01*
X2701D01*
X2736D01*
Y1420D01*
Y1450D01*
D02*
G37*
G36*
Y1385D02*
X2701D01*
X2667D01*
Y1355D01*
Y1340D01*
X2701D01*
X2736D01*
Y1355D01*
Y1385D01*
D02*
G37*
G36*
Y1320D02*
X2701D01*
X2667D01*
Y1290D01*
Y1275D01*
X2701D01*
X2736D01*
Y1290D01*
Y1320D01*
D02*
G37*
G36*
X90Y1215D02*
X72D01*
X74Y1210D01*
X79Y1204D01*
X85Y1199D01*
X90Y1197D01*
Y1215D01*
D02*
G37*
G36*
X2838Y1246D02*
X2837Y1246D01*
X2775D01*
Y1206D01*
X2775Y1204D01*
Y1050D01*
X2735Y1010D01*
X2734Y1011D01*
X2722Y1012D01*
X2710Y1011D01*
X2699Y1006D01*
X2690Y999D01*
X2683Y990D01*
X2678Y979D01*
X2677Y967D01*
X2678Y955D01*
X2683Y944D01*
X2690Y935D01*
X2699Y928D01*
X2700Y927D01*
Y886D01*
X2701Y878D01*
X2706Y871D01*
X2744Y833D01*
Y819D01*
X2739Y816D01*
X2732Y819D01*
X2732Y819D01*
Y780D01*
Y741D01*
X2732Y741D01*
X2739Y744D01*
X2744Y741D01*
Y725D01*
X2726Y707D01*
X2722Y707D01*
X2710Y706D01*
X2699Y701D01*
X2690Y694D01*
X2683Y685D01*
X2678Y674D01*
X2677Y662D01*
X2678Y650D01*
X2683Y639D01*
X2690Y630D01*
X2699Y623D01*
X2700Y622D01*
Y459D01*
X2501Y260D01*
X2496Y253D01*
X2495Y245D01*
Y225D01*
X2382Y112D01*
X2378Y112D01*
X2371Y109D01*
X2365Y105D01*
X2361Y99D01*
X2358Y92D01*
X2357Y85D01*
X2358Y78D01*
X2361Y71D01*
X2365Y65D01*
X2371Y61D01*
X2378Y58D01*
X2385Y57D01*
X2392Y58D01*
X2399Y61D01*
X2405Y65D01*
X2409Y71D01*
X2412Y78D01*
X2412Y82D01*
X2522Y192D01*
X2527Y192D01*
X2528Y191D01*
X2537Y184D01*
X2548Y179D01*
X2560Y178D01*
X2572Y179D01*
X2583Y184D01*
X2592Y191D01*
X2599Y200D01*
X2604Y211D01*
X2605Y223D01*
X2604Y235D01*
X2599Y246D01*
X2592Y255D01*
X2583Y262D01*
X2574Y266D01*
X2573Y272D01*
X2736Y435D01*
X2741Y442D01*
X2742Y450D01*
Y622D01*
X2745Y623D01*
X2754Y630D01*
X2761Y639D01*
X2766Y650D01*
X2767Y662D01*
X2766Y674D01*
X2762Y682D01*
X2781Y701D01*
X2786Y708D01*
X2787Y716D01*
Y841D01*
X2786Y850D01*
X2781Y857D01*
X2742Y895D01*
Y927D01*
X2745Y928D01*
X2754Y935D01*
X2761Y944D01*
X2766Y955D01*
X2767Y967D01*
X2766Y979D01*
X2765Y980D01*
X2811Y1026D01*
X2816Y1033D01*
X2817Y1040D01*
X2819Y1042D01*
X2822Y1044D01*
X2828Y1041D01*
X2840Y1040D01*
X2852Y1041D01*
X2863Y1046D01*
X2872Y1053D01*
X2879Y1062D01*
X2884Y1073D01*
X2885Y1085D01*
X2884Y1097D01*
X2879Y1108D01*
X2872Y1117D01*
X2863Y1124D01*
X2852Y1129D01*
X2840Y1130D01*
X2828Y1129D01*
X2822Y1126D01*
X2817Y1129D01*
Y1164D01*
X2837D01*
X2842Y1164D01*
X2843Y1164D01*
X2905D01*
Y1176D01*
X2910Y1179D01*
X2913Y1178D01*
X2920Y1177D01*
X2927Y1178D01*
X2934Y1181D01*
X2940Y1185D01*
X2944Y1191D01*
X2947Y1198D01*
X2948Y1205D01*
X2947Y1212D01*
X2944Y1219D01*
X2940Y1225D01*
X2934Y1229D01*
X2927Y1232D01*
X2920Y1233D01*
X2913Y1232D01*
X2910Y1231D01*
X2905Y1234D01*
Y1246D01*
X2843D01*
X2838Y1246D01*
D02*
G37*
G36*
X1088Y1133D02*
X1081Y1129D01*
X1077Y1122D01*
X1088D01*
Y1133D01*
D02*
G37*
G36*
X2739Y1255D02*
X2701D01*
X2667D01*
Y1225D01*
X2699D01*
Y1117D01*
X2693Y1114D01*
X2687Y1105D01*
X2683Y1095D01*
X2683Y1095D01*
X2761D01*
X2761Y1095D01*
X2757Y1105D01*
X2750Y1114D01*
X2742Y1120D01*
X2741Y1120D01*
Y1246D01*
X2740Y1255D01*
X2739Y1255D01*
D02*
G37*
G36*
X1088Y1102D02*
X1077D01*
X1081Y1096D01*
X1088Y1092D01*
Y1102D01*
D02*
G37*
G36*
X2761Y1075D02*
X2732D01*
Y1046D01*
X2732Y1046D01*
X2742Y1050D01*
X2750Y1056D01*
X2757Y1065D01*
X2761Y1075D01*
X2761Y1075D01*
D02*
G37*
G36*
X2712D02*
X2683D01*
X2683Y1075D01*
X2687Y1065D01*
X2693Y1056D01*
X2702Y1050D01*
X2711Y1046D01*
X2712Y1046D01*
Y1075D01*
D02*
G37*
G36*
X2275Y965D02*
Y955D01*
X2285D01*
X2281Y961D01*
X2275Y965D01*
D02*
G37*
G36*
X2255D02*
X2249Y961D01*
X2245Y955D01*
X2255D01*
Y965D01*
D02*
G37*
G36*
X2604Y965D02*
X2595Y964D01*
X2586Y960D01*
X2579Y955D01*
X2573Y948D01*
X2570Y939D01*
X2568Y930D01*
X2569Y929D01*
X2564Y927D01*
X2557Y937D01*
X2547Y944D01*
X2537Y948D01*
X2525Y950D01*
X2513Y948D01*
X2503Y944D01*
X2493Y937D01*
X2486Y927D01*
X2482Y917D01*
X2480Y905D01*
X2482Y893D01*
X2486Y883D01*
X2493Y873D01*
X2503Y866D01*
X2513Y862D01*
X2525Y860D01*
X2537Y862D01*
X2547Y866D01*
X2557Y873D01*
X2564Y883D01*
X2568Y893D01*
X2570Y905D01*
X2569Y909D01*
X2574Y911D01*
X2579Y905D01*
X2586Y899D01*
X2595Y896D01*
X2604Y895D01*
X2613Y896D01*
X2621Y899D01*
X2629Y905D01*
X2634Y912D01*
X2638Y921D01*
X2639Y930D01*
X2638Y939D01*
X2634Y948D01*
X2629Y955D01*
X2621Y960D01*
X2613Y964D01*
X2604Y965D01*
D02*
G37*
G36*
X2840Y1012D02*
X2828Y1011D01*
X2817Y1006D01*
X2808Y999D01*
X2801Y990D01*
X2796Y979D01*
X2795Y967D01*
X2796Y955D01*
X2801Y944D01*
X2808Y935D01*
X2817Y928D01*
X2828Y923D01*
X2840Y922D01*
X2852Y923D01*
X2863Y928D01*
X2872Y935D01*
X2879Y944D01*
X2884Y955D01*
X2885Y967D01*
X2884Y979D01*
X2879Y990D01*
X2872Y999D01*
X2863Y1006D01*
X2852Y1011D01*
X2840Y1012D01*
D02*
G37*
G36*
X2712Y819D02*
X2711Y819D01*
X2702Y815D01*
X2693Y809D01*
X2687Y800D01*
X2683Y790D01*
X2683Y790D01*
X2712D01*
Y819D01*
D02*
G37*
G36*
X2525Y850D02*
X2513Y848D01*
X2503Y844D01*
X2493Y837D01*
X2486Y827D01*
X2482Y817D01*
X2480Y805D01*
X2482Y793D01*
X2486Y783D01*
X2493Y773D01*
X2503Y766D01*
X2513Y762D01*
X2525Y760D01*
X2537Y762D01*
X2547Y766D01*
X2557Y773D01*
X2564Y783D01*
X2568Y793D01*
X2570Y805D01*
X2568Y817D01*
X2564Y827D01*
X2557Y837D01*
X2547Y844D01*
X2537Y848D01*
X2525Y850D01*
D02*
G37*
G36*
X2712Y770D02*
X2683D01*
X2683Y770D01*
X2687Y760D01*
X2693Y751D01*
X2702Y745D01*
X2711Y741D01*
X2712Y741D01*
Y770D01*
D02*
G37*
G36*
X2840Y825D02*
X2828Y824D01*
X2817Y819D01*
X2808Y812D01*
X2801Y803D01*
X2796Y792D01*
X2795Y780D01*
X2796Y768D01*
X2801Y757D01*
X2808Y748D01*
X2817Y741D01*
X2828Y736D01*
X2840Y735D01*
X2852Y736D01*
X2863Y741D01*
X2872Y748D01*
X2879Y757D01*
X2884Y768D01*
X2885Y780D01*
X2884Y792D01*
X2879Y803D01*
X2872Y812D01*
X2863Y819D01*
X2852Y824D01*
X2840Y825D01*
D02*
G37*
G36*
X2570Y750D02*
X2480D01*
Y660D01*
X2570D01*
Y750D01*
D02*
G37*
G36*
X2286Y935D02*
X2244D01*
Y789D01*
X2108Y654D01*
X2104Y656D01*
X2104Y657D01*
X2102Y666D01*
X2098Y673D01*
X2096Y673D01*
Y712D01*
X2095Y721D01*
X2090Y728D01*
X1933Y885D01*
X1933Y887D01*
X1930Y894D01*
X1926Y900D01*
X1920Y904D01*
X1913Y907D01*
X1906Y908D01*
X1899Y907D01*
X1892Y904D01*
X1886Y900D01*
X1882Y894D01*
X1879Y887D01*
X1878Y880D01*
X1879Y873D01*
X1882Y866D01*
X1886Y860D01*
X1892Y856D01*
X1899Y853D01*
X1905Y852D01*
X1980Y777D01*
X1980Y772D01*
X1979Y771D01*
X1974Y764D01*
X1973Y759D01*
X1992Y765D01*
X1995Y762D01*
Y745D01*
X1975D01*
X1974Y746D01*
X1974Y747D01*
Y372D01*
X1975Y363D01*
X1980Y356D01*
X2013Y323D01*
X2054D01*
X2092D01*
X2092Y323D01*
X2088Y333D01*
X2082Y341D01*
X2075Y346D01*
Y560D01*
X2280Y765D01*
X2285Y772D01*
X2286Y780D01*
Y935D01*
D02*
G37*
G36*
X2840Y707D02*
X2828Y706D01*
X2817Y701D01*
X2808Y694D01*
X2801Y685D01*
X2796Y674D01*
X2795Y662D01*
X2796Y650D01*
X2801Y639D01*
X2808Y630D01*
X2817Y623D01*
X2828Y618D01*
X2840Y617D01*
X2852Y618D01*
X2863Y623D01*
X2872Y630D01*
X2879Y639D01*
X2884Y650D01*
X2885Y662D01*
X2884Y674D01*
X2879Y685D01*
X2872Y694D01*
X2863Y701D01*
X2852Y706D01*
X2840Y707D01*
D02*
G37*
G36*
X2604Y660D02*
X2595Y659D01*
X2586Y655D01*
X2579Y650D01*
X2573Y643D01*
X2570Y634D01*
X2568Y625D01*
X2570Y616D01*
X2573Y607D01*
X2579Y600D01*
X2586Y594D01*
X2595Y591D01*
X2604Y590D01*
X2613Y591D01*
X2621Y594D01*
X2629Y600D01*
X2634Y607D01*
X2638Y616D01*
X2639Y625D01*
X2638Y634D01*
X2634Y643D01*
X2629Y650D01*
X2621Y655D01*
X2613Y659D01*
X2604Y660D01*
D02*
G37*
G36*
X2840Y533D02*
X2828Y532D01*
X2817Y527D01*
X2808Y520D01*
X2801Y511D01*
X2796Y500D01*
X2795Y488D01*
X2796Y476D01*
X2801Y465D01*
X2808Y456D01*
X2817Y449D01*
X2828Y444D01*
X2840Y443D01*
X2852Y444D01*
X2863Y449D01*
X2872Y456D01*
X2879Y465D01*
X2884Y476D01*
X2885Y488D01*
X2884Y500D01*
X2879Y511D01*
X2872Y520D01*
X2863Y527D01*
X2852Y532D01*
X2840Y533D01*
D02*
G37*
G36*
Y415D02*
X2828Y414D01*
X2817Y409D01*
X2808Y402D01*
X2801Y393D01*
X2796Y382D01*
X2795Y370D01*
X2796Y358D01*
X2801Y347D01*
X2808Y338D01*
X2817Y331D01*
X2828Y326D01*
X2840Y325D01*
X2852Y326D01*
X2863Y331D01*
X2872Y338D01*
X2879Y347D01*
X2884Y358D01*
X2885Y370D01*
X2884Y382D01*
X2879Y393D01*
X2872Y402D01*
X2863Y409D01*
X2852Y414D01*
X2840Y415D01*
D02*
G37*
G36*
X2722Y368D02*
X2713Y367D01*
X2704Y364D01*
X2697Y358D01*
X2691Y351D01*
X2688Y342D01*
X2687Y333D01*
X2688Y324D01*
X2691Y315D01*
X2697Y308D01*
X2704Y302D01*
X2713Y299D01*
X2722Y298D01*
X2731Y299D01*
X2740Y302D01*
X2747Y308D01*
X2752Y315D01*
X2756Y324D01*
X2757Y333D01*
X2756Y342D01*
X2752Y351D01*
X2747Y358D01*
X2740Y364D01*
X2731Y367D01*
X2722Y368D01*
D02*
G37*
G36*
X996Y337D02*
X923D01*
Y332D01*
X913D01*
Y295D01*
X893D01*
Y332D01*
X871D01*
Y316D01*
X595D01*
X587Y315D01*
X580Y310D01*
X544Y274D01*
Y244D01*
X574D01*
X604Y274D01*
X871D01*
Y258D01*
X898D01*
X900Y254D01*
X858Y211D01*
X573D01*
X570Y216D01*
X573Y224D01*
X573Y224D01*
X495D01*
X495Y224D01*
X498Y216D01*
X495Y211D01*
X490D01*
X482Y210D01*
X475Y205D01*
X429Y159D01*
X428Y160D01*
X416Y161D01*
X404Y160D01*
X393Y155D01*
X384Y148D01*
X377Y139D01*
X372Y128D01*
X371Y116D01*
X372Y104D01*
X377Y93D01*
X384Y84D01*
X393Y77D01*
X404Y72D01*
X416Y71D01*
X428Y72D01*
X439Y77D01*
X448Y84D01*
X455Y93D01*
X460Y104D01*
X461Y116D01*
X460Y128D01*
X459Y129D01*
X499Y169D01*
X867D01*
X875Y170D01*
X882Y175D01*
X958Y251D01*
X960Y253D01*
X996D01*
Y268D01*
X1001Y271D01*
X1008Y268D01*
X1015Y267D01*
X1022Y268D01*
X1029Y271D01*
X1035Y275D01*
X1039Y281D01*
X1042Y288D01*
X1043Y295D01*
X1042Y302D01*
X1039Y309D01*
X1035Y315D01*
X1029Y319D01*
X1022Y322D01*
X1015Y323D01*
X1008Y322D01*
X1001Y319D01*
X996Y322D01*
Y337D01*
D02*
G37*
G36*
X2092Y303D02*
X2064D01*
Y274D01*
X2064Y274D01*
X2073Y278D01*
X2082Y285D01*
X2088Y293D01*
X2092Y303D01*
X2092Y303D01*
D02*
G37*
G36*
X2044D02*
X2015D01*
X2015Y303D01*
X2019Y293D01*
X2025Y285D01*
X2034Y278D01*
X2043Y274D01*
X2044Y274D01*
Y303D01*
D02*
G37*
G36*
X1876Y358D02*
X1865Y356D01*
X1854Y352D01*
X1845Y345D01*
X1838Y335D01*
X1833Y325D01*
X1832Y313D01*
X1833Y301D01*
X1838Y291D01*
X1845Y281D01*
X1854Y274D01*
X1865Y270D01*
X1876Y268D01*
X1888Y270D01*
X1899Y274D01*
X1908Y281D01*
X1915Y291D01*
X1920Y301D01*
X1921Y313D01*
X1920Y325D01*
X1915Y335D01*
X1908Y345D01*
X1899Y352D01*
X1888Y356D01*
X1876Y358D01*
D02*
G37*
G36*
X524Y273D02*
X524Y273D01*
X514Y269D01*
X505Y263D01*
X499Y254D01*
X495Y244D01*
X495Y244D01*
X524D01*
Y273D01*
D02*
G37*
G36*
X2678Y295D02*
X2669Y294D01*
X2660Y291D01*
X2653Y285D01*
X2648Y278D01*
X2644Y269D01*
X2643Y260D01*
X2644Y251D01*
X2648Y242D01*
X2653Y235D01*
X2660Y230D01*
X2669Y226D01*
X2678Y225D01*
X2687Y226D01*
X2696Y230D01*
X2703Y235D01*
X2709Y242D01*
X2712Y251D01*
X2713Y260D01*
X2712Y269D01*
X2709Y278D01*
X2703Y285D01*
X2696Y291D01*
X2687Y294D01*
X2678Y295D01*
D02*
G37*
G36*
X2442D02*
X2433Y294D01*
X2424Y291D01*
X2417Y285D01*
X2411Y278D01*
X2408Y269D01*
X2407Y260D01*
X2408Y251D01*
X2411Y242D01*
X2417Y235D01*
X2424Y230D01*
X2433Y226D01*
X2442Y225D01*
X2451Y226D01*
X2460Y230D01*
X2467Y235D01*
X2472Y242D01*
X2476Y251D01*
X2477Y260D01*
X2476Y269D01*
X2472Y278D01*
X2467Y285D01*
X2460Y291D01*
X2451Y294D01*
X2442Y295D01*
D02*
G37*
G36*
X416Y279D02*
X404Y278D01*
X393Y273D01*
X384Y266D01*
X377Y257D01*
X372Y246D01*
X371Y234D01*
X372Y222D01*
X377Y211D01*
X384Y202D01*
X393Y195D01*
X404Y190D01*
X416Y189D01*
X428Y190D01*
X439Y195D01*
X448Y202D01*
X455Y211D01*
X460Y222D01*
X461Y234D01*
X460Y246D01*
X455Y257D01*
X448Y266D01*
X439Y273D01*
X428Y278D01*
X416Y279D01*
D02*
G37*
G36*
X534Y161D02*
X522Y160D01*
X511Y155D01*
X502Y148D01*
X495Y139D01*
X490Y128D01*
X489Y116D01*
X490Y104D01*
X495Y93D01*
X502Y84D01*
X511Y77D01*
X522Y72D01*
X534Y71D01*
X546Y72D01*
X557Y77D01*
X566Y84D01*
X573Y93D01*
X578Y104D01*
X579Y116D01*
X578Y128D01*
X573Y139D01*
X566Y148D01*
X557Y155D01*
X546Y160D01*
X534Y161D01*
D02*
G37*
G36*
X2064Y96D02*
Y67D01*
X2092D01*
X2092Y67D01*
X2088Y77D01*
X2082Y85D01*
X2073Y92D01*
X2064Y96D01*
X2064Y96D01*
D02*
G37*
G36*
X2044D02*
X2043Y96D01*
X2034Y92D01*
X2025Y85D01*
X2019Y77D01*
X2015Y67D01*
X2015Y67D01*
X2044D01*
Y96D01*
D02*
G37*
G36*
X2560Y150D02*
X2548Y149D01*
X2537Y144D01*
X2528Y137D01*
X2521Y128D01*
X2516Y117D01*
X2515Y105D01*
X2516Y93D01*
X2521Y82D01*
X2528Y73D01*
X2537Y66D01*
X2548Y61D01*
X2560Y60D01*
X2572Y61D01*
X2583Y66D01*
X2592Y73D01*
X2599Y82D01*
X2604Y93D01*
X2605Y105D01*
X2604Y117D01*
X2599Y128D01*
X2592Y137D01*
X2583Y144D01*
X2572Y149D01*
X2560Y150D01*
D02*
G37*
G36*
X652Y114D02*
X643Y113D01*
X634Y109D01*
X627Y104D01*
X622Y97D01*
X618Y88D01*
X617Y79D01*
X618Y70D01*
X622Y61D01*
X627Y54D01*
X634Y48D01*
X643Y45D01*
X652Y44D01*
X661Y45D01*
X670Y48D01*
X677Y54D01*
X683Y61D01*
X686Y70D01*
X687Y79D01*
X686Y88D01*
X683Y97D01*
X677Y104D01*
X670Y109D01*
X661Y113D01*
X652Y114D01*
D02*
G37*
G36*
X2092Y47D02*
X2064D01*
Y19D01*
X2064Y19D01*
X2073Y23D01*
X2082Y29D01*
X2088Y37D01*
X2092Y47D01*
X2092Y47D01*
D02*
G37*
G36*
X2044D02*
X2015D01*
X2015Y47D01*
X2019Y37D01*
X2025Y29D01*
X2034Y23D01*
X2043Y19D01*
X2044Y19D01*
Y47D01*
D02*
G37*
%LPD*%
G36*
X1058Y892D02*
X1058Y888D01*
X1061Y881D01*
X1065Y875D01*
X1071Y871D01*
X1078Y868D01*
X1085Y867D01*
X1091Y868D01*
X1093Y863D01*
X1081Y851D01*
X225D01*
X225Y853D01*
X217Y862D01*
X208Y870D01*
X197Y874D01*
X185Y876D01*
X173Y874D01*
X162Y870D01*
X153Y862D01*
X145Y853D01*
X141Y842D01*
X139Y830D01*
X141Y818D01*
X145Y807D01*
X141Y804D01*
X129Y817D01*
X129Y818D01*
X131Y830D01*
X129Y842D01*
X125Y853D01*
X117Y862D01*
X108Y870D01*
X97Y874D01*
X85Y876D01*
X73Y874D01*
X67Y872D01*
X62Y875D01*
Y884D01*
X131D01*
Y933D01*
X136D01*
X139Y930D01*
X141Y918D01*
X145Y907D01*
X153Y898D01*
X162Y890D01*
X173Y886D01*
X185Y884D01*
X197Y886D01*
X208Y890D01*
X217Y898D01*
X225Y907D01*
X229Y918D01*
X231Y930D01*
X229Y942D01*
X227Y948D01*
X230Y953D01*
X997D01*
X1058Y892D01*
D02*
G37*
G36*
X127Y760D02*
X135Y759D01*
X150D01*
X152Y754D01*
X150Y750D01*
X146Y741D01*
X145Y740D01*
X185D01*
X225D01*
X224Y741D01*
X220Y750D01*
X218Y754D01*
X220Y759D01*
X1191D01*
X1268Y682D01*
X1268Y678D01*
X1271Y671D01*
X1275Y666D01*
X1273Y661D01*
X184D01*
X129Y717D01*
X129Y718D01*
X131Y730D01*
X129Y742D01*
X125Y753D01*
X121Y758D01*
X124Y762D01*
X127Y760D01*
D02*
G37*
%LPC*%
G36*
X225Y720D02*
X195D01*
Y690D01*
X196Y691D01*
X205Y695D01*
X214Y701D01*
X220Y710D01*
X224Y719D01*
X225Y720D01*
D02*
G37*
G36*
X175D02*
X145D01*
X146Y719D01*
X150Y710D01*
X156Y701D01*
X165Y695D01*
X174Y691D01*
X175Y690D01*
Y720D01*
D02*
G37*
%LPD*%
G36*
X2054Y704D02*
Y667D01*
X2051Y664D01*
X2048Y657D01*
X2047Y650D01*
X2048Y643D01*
X2051Y636D01*
X2055Y630D01*
X2061Y626D01*
X2068Y623D01*
X2071Y623D01*
X2072Y618D01*
X2038Y584D01*
X2034Y577D01*
X2032Y569D01*
Y371D01*
X2028Y369D01*
X2016Y380D01*
Y734D01*
X2021Y736D01*
X2054Y704D01*
D02*
G37*
D20*
X2470Y1597D02*
D03*
Y1680D02*
D03*
X2890D02*
D03*
Y1597D02*
D03*
X2750Y1680D02*
D03*
Y1597D02*
D03*
X2610Y1680D02*
D03*
Y1597D02*
D03*
D24*
X960Y295D02*
D03*
X903D02*
D03*
X1626Y1695D02*
D03*
X1684D02*
D03*
X1221D02*
D03*
X1279D02*
D03*
X467D02*
D03*
X410D02*
D03*
X874D02*
D03*
X816D02*
D03*
D60*
X2721Y967D02*
Y976D01*
Y886D02*
Y967D01*
X2722D02*
X2796Y1041D01*
Y1204D01*
X2807Y1215D01*
X2720Y1087D02*
X2722Y1085D01*
X2720Y1087D02*
Y1246D01*
X2701Y1265D02*
X2720Y1246D01*
X2610Y1597D02*
X2745D01*
X2701Y1549D02*
X2726Y1574D01*
Y1579D01*
X2745Y1597D01*
X2750D01*
X1320Y1298D02*
Y1335D01*
X1135Y1112D02*
X1320Y1298D01*
X2701Y1460D02*
Y1549D01*
X1143Y1195D02*
Y1199D01*
X1865Y1155D02*
X2370Y1660D01*
X1100Y1355D02*
X1220Y1235D01*
X1115Y1055D02*
X1347Y1286D01*
X995Y1055D02*
X1115D01*
X1347Y1286D02*
Y1370D01*
X1098Y1112D02*
X1135D01*
X1170Y1225D02*
X1180D01*
X1070Y1325D02*
X1170Y1225D01*
X1070Y1325D02*
Y1450D01*
X640Y1645D02*
X1135Y1150D01*
X530Y1645D02*
X640D01*
X943Y1399D02*
X1143Y1199D01*
X943Y1399D02*
Y1636D01*
X1100Y1355D02*
Y1445D01*
X1830Y1668D02*
X1930Y1768D01*
X1830Y1190D02*
Y1668D01*
X1746Y1709D02*
X1750Y1705D01*
X530Y1645D02*
X530Y1645D01*
X520Y1655D02*
X530Y1645D01*
X2721Y450D02*
Y671D01*
X2516Y245D02*
X2721Y450D01*
X2516Y216D02*
Y245D01*
X2385Y85D02*
X2516Y216D01*
X2075Y650D02*
Y712D01*
X1907Y880D02*
X2075Y712D01*
Y650D02*
X2075D01*
X2080Y655D01*
X2083Y657D01*
X2721Y671D02*
X2766Y716D01*
Y841D01*
X1110Y850D02*
X1130D01*
X1090Y830D02*
X1110Y850D01*
X1005Y975D02*
X1085Y895D01*
X166Y975D02*
X1005D01*
X2910Y1700D02*
X2965D01*
X2890Y1680D02*
X2910Y1700D01*
X2490D02*
X2540D01*
X2470Y1680D02*
X2490Y1700D01*
X2630D02*
X2680D01*
X2610Y1680D02*
X2630Y1700D01*
X2770D02*
X2820D01*
X2750Y1680D02*
X2770Y1700D01*
X2555Y1285D02*
X2600D01*
X2619Y1266D01*
Y1265D02*
Y1266D01*
X2609Y1340D02*
X2619Y1330D01*
X2555Y1340D02*
X2609D01*
X2604Y1380D02*
X2619Y1395D01*
X2555Y1380D02*
X2604D01*
X2556Y1439D02*
X2600D01*
X895Y1155D02*
X995Y1055D01*
X1200Y780D02*
X1295Y685D01*
X135Y780D02*
X1200D01*
X960Y295D02*
X1015D01*
X85Y730D02*
X175Y640D01*
X1660D01*
X1906Y880D02*
X1907D01*
X2370Y1660D02*
Y1765D01*
X2335Y1800D02*
X2370Y1765D01*
X2324Y1800D02*
X2335D01*
X2313Y1811D02*
X2324Y1800D01*
X2313Y1811D02*
Y1820D01*
X2313Y1899D02*
X2348Y1933D01*
X2313Y1885D02*
X2316Y1888D01*
X2361Y1933D02*
X2370Y1942D01*
X2348Y1933D02*
X2361D01*
X2313Y1890D02*
Y1899D01*
X2134Y1820D02*
X2186Y1768D01*
X2093Y1820D02*
X2134D01*
X2093Y1890D02*
X2131D01*
X2186Y1945D01*
X1746Y1883D02*
X2020D01*
X2027Y1890D01*
X1628Y1765D02*
X1683Y1820D01*
X2027D01*
X1746Y1709D02*
Y1765D01*
X1628Y1697D02*
Y1765D01*
X1626Y1695D02*
X1628Y1697D01*
X1684Y1691D02*
Y1695D01*
Y1691D02*
X1700Y1674D01*
X1714D01*
X1742Y1646D01*
X1750D01*
X1683Y1690D02*
X1699Y1674D01*
X1692Y1600D02*
X1737Y1645D01*
X1223Y1697D02*
Y1765D01*
X1221Y1695D02*
X1223Y1697D01*
X1265Y1645D02*
X1337D01*
X1279Y1691D02*
Y1695D01*
Y1691D02*
X1295Y1674D01*
X1308D01*
X1337Y1645D01*
X1341Y1708D02*
Y1765D01*
Y1708D02*
X1345Y1704D01*
X1070Y1450D02*
X1265Y1645D01*
X935Y1705D02*
Y1765D01*
X923Y1655D02*
X943Y1636D01*
X869Y1695D02*
X878Y1685D01*
X909Y1655D02*
X923D01*
X874Y1691D02*
X909Y1655D01*
X874Y1691D02*
Y1695D01*
X817Y1700D02*
Y1765D01*
X503Y1655D02*
X520D01*
X467Y1691D02*
X503Y1655D01*
X410Y1695D02*
X412Y1697D01*
Y1765D01*
X2245D02*
X2246Y1766D01*
Y1819D01*
X2247Y1820D01*
X2247Y1945D02*
X2247Y1945D01*
Y1890D02*
Y1945D01*
Y1890D02*
X2247Y1890D01*
X1260Y1456D02*
X1347Y1370D01*
X1260Y1456D02*
Y1500D01*
X85Y830D02*
X135Y780D01*
X185Y830D02*
X1090D01*
X146Y955D02*
X166Y975D01*
X110Y955D02*
X146D01*
X85Y930D02*
X110Y955D01*
X534Y234D02*
X595Y295D01*
X903D01*
X416Y116D02*
X490Y190D01*
X867D01*
X943Y266D01*
Y278D01*
X960Y295D01*
X2265Y780D02*
Y940D01*
X2054Y569D02*
X2265Y780D01*
X2054Y313D02*
Y569D01*
X2721Y886D02*
X2766Y841D01*
X1995Y372D02*
X2054Y313D01*
X1995Y372D02*
Y755D01*
X194Y1250D02*
X200Y1245D01*
X2701Y1330D02*
Y1395D01*
X2750Y1597D02*
X2890D01*
X2470D02*
X2610D01*
X2701Y1265D02*
Y1330D01*
Y1395D02*
Y1460D01*
X2600Y1439D02*
X2619Y1457D01*
X1255Y1600D02*
X1692D01*
X1100Y1445D02*
X1255Y1600D01*
X1626Y1696D02*
X1626Y1695D01*
X530Y1710D02*
Y1765D01*
X40Y775D02*
X85Y730D01*
X40Y775D02*
Y1265D01*
X100Y1325D01*
X194Y1250D02*
Y1281D01*
X150Y1325D02*
X194Y1281D01*
X2873Y1205D02*
X2920D01*
D62*
X1930Y1945D02*
D03*
X2186D02*
D03*
X1930Y1768D02*
D03*
X2186D02*
D03*
X2370Y1942D02*
D03*
X2626D02*
D03*
X2370Y1765D02*
D03*
X2626D02*
D03*
X1876Y57D02*
D03*
Y313D02*
D03*
X2054Y57D02*
D03*
Y313D02*
D03*
D63*
X85Y930D02*
D03*
D64*
Y830D02*
D03*
Y730D02*
D03*
X185Y930D02*
D03*
Y830D02*
D03*
Y730D02*
D03*
D65*
X2560Y105D02*
D03*
Y223D02*
D03*
X2840Y488D02*
D03*
Y370D02*
D03*
X534Y234D02*
D03*
Y116D02*
D03*
X416Y234D02*
D03*
Y116D02*
D03*
X1631Y1766D02*
D03*
Y1884D02*
D03*
X1749Y1766D02*
D03*
Y1884D02*
D03*
X1226Y1766D02*
D03*
Y1884D02*
D03*
X1344Y1766D02*
D03*
Y1884D02*
D03*
X2840Y1085D02*
D03*
Y967D02*
D03*
X2722Y1085D02*
D03*
Y967D02*
D03*
X2840Y780D02*
D03*
Y662D02*
D03*
X2722Y780D02*
D03*
Y662D02*
D03*
X821Y1766D02*
D03*
Y1884D02*
D03*
X939Y1766D02*
D03*
Y1884D02*
D03*
X533Y1883D02*
D03*
Y1765D02*
D03*
X415Y1883D02*
D03*
Y1765D02*
D03*
D66*
X2525Y905D02*
D03*
Y805D02*
D03*
D67*
Y705D02*
D03*
D68*
X150Y1225D02*
D03*
D69*
X100D02*
D03*
X150Y1275D02*
D03*
X100D02*
D03*
X150Y1325D02*
D03*
X100D02*
D03*
X150Y1375D02*
D03*
X100D02*
D03*
X150Y1425D02*
D03*
X100D02*
D03*
D70*
X150Y1850D02*
D03*
X2850D02*
D03*
D71*
Y150D02*
D03*
X150D02*
D03*
D72*
X1143Y1195D02*
D03*
X1865Y1155D02*
D03*
X1220Y1235D02*
D03*
X1180Y1225D02*
D03*
X1135Y1150D02*
D03*
X1098Y1112D02*
D03*
X890Y1160D02*
D03*
X1830Y1190D02*
D03*
X2075Y650D02*
D03*
X2920Y1205D02*
D03*
X2555Y1285D02*
D03*
Y1340D02*
D03*
Y1380D02*
D03*
X2556Y1439D02*
D03*
X1130Y850D02*
D03*
X1085Y895D02*
D03*
X2965Y1700D02*
D03*
X2540D02*
D03*
X2680D02*
D03*
X2820D02*
D03*
X2385Y85D02*
D03*
X1295Y685D02*
D03*
X1015Y295D02*
D03*
X1660Y640D02*
D03*
X1906Y880D02*
D03*
X2247Y1945D02*
D03*
X1320Y1335D02*
D03*
X2245Y1765D02*
D03*
X2265Y945D02*
D03*
X200Y1245D02*
D03*
X1995Y755D02*
D03*
X1260Y1500D02*
D03*
D73*
X2247Y1820D02*
D03*
X2313D02*
D03*
X2247Y1890D02*
D03*
X2313D02*
D03*
X2027Y1820D02*
D03*
X2093D02*
D03*
X2027Y1890D02*
D03*
X2093D02*
D03*
X2873Y1205D02*
D03*
X2807D02*
D03*
D74*
X1750Y1646D02*
D03*
Y1705D02*
D03*
X1345Y1645D02*
D03*
Y1704D02*
D03*
X935Y1645D02*
D03*
Y1705D02*
D03*
X530Y1645D02*
D03*
Y1705D02*
D03*
D75*
X2619Y1265D02*
D03*
X2701D02*
D03*
X2619Y1330D02*
D03*
X2701D02*
D03*
X2619Y1395D02*
D03*
X2701D02*
D03*
X2619Y1460D02*
D03*
X2701D02*
D03*
M02*
