%TF.GenerationSoftware,Altium Limited,Altium Designer,19.1.8 (144)*%
G04 Layer_Color=128*
%FSLAX23Y23*%
%MOIN*%
%TF.FileFunction,Drillmap*%
%TF.Part,Single*%
G01*
G75*
%TA.AperFunction,NonConductor*%
%ADD65C,0.005*%
D65*
X130Y350D02*
X170D01*
X150Y330D02*
Y370D01*
X130Y450D02*
X170D01*
X150Y430D02*
Y470D01*
X130Y550D02*
X170D01*
X150Y530D02*
Y570D01*
X130Y650D02*
X170D01*
X150Y630D02*
Y670D01*
X130Y750D02*
X170D01*
X150Y730D02*
Y770D01*
X130Y850D02*
X170D01*
X150Y830D02*
Y870D01*
X130Y950D02*
X170D01*
X150Y930D02*
Y970D01*
X130Y1050D02*
X170D01*
X150Y1030D02*
Y1070D01*
X230Y350D02*
X270D01*
X250Y330D02*
Y370D01*
X230Y450D02*
X270D01*
X250Y430D02*
Y470D01*
X230Y550D02*
X270D01*
X250Y530D02*
Y570D01*
X230Y650D02*
X270D01*
X250Y630D02*
Y670D01*
X230Y750D02*
X270D01*
X250Y730D02*
Y770D01*
X230Y850D02*
X270D01*
X250Y830D02*
Y870D01*
X230Y950D02*
X270D01*
X250Y930D02*
Y970D01*
X230Y1050D02*
X270D01*
X250Y1030D02*
Y1070D01*
X2311Y120D02*
X2339D01*
X2325Y106D02*
Y134D01*
X2261Y120D02*
X2289D01*
X2275Y106D02*
Y134D01*
X2311Y170D02*
X2339D01*
X2325Y156D02*
Y184D01*
X2261Y170D02*
X2289D01*
X2275Y156D02*
Y184D01*
X2311Y220D02*
X2339D01*
X2325Y206D02*
Y234D01*
X2261Y220D02*
X2289D01*
X2275Y206D02*
Y234D01*
X2311Y270D02*
X2339D01*
X2325Y256D02*
Y284D01*
X2261Y270D02*
X2289D01*
X2275Y256D02*
Y284D01*
X2311Y320D02*
X2339D01*
X2325Y306D02*
Y334D01*
X2261Y320D02*
X2289D01*
X2275Y306D02*
Y334D01*
X1258Y1818D02*
X1298D01*
X1278Y1798D02*
Y1838D01*
X1258Y1700D02*
X1298D01*
X1278Y1680D02*
Y1720D01*
X1140Y1818D02*
X1180D01*
X1160Y1798D02*
Y1838D01*
X1140Y1700D02*
X1180D01*
X1160Y1680D02*
Y1720D01*
X1376Y1855D02*
X1416D01*
X1396Y1835D02*
Y1875D01*
X1022Y1855D02*
X1062D01*
X1042Y1835D02*
Y1875D01*
X913Y61D02*
X952D01*
X933Y42D02*
Y81D01*
X658Y61D02*
X697D01*
X677Y42D02*
Y81D01*
X913Y239D02*
X952D01*
X933Y219D02*
Y258D01*
X658Y239D02*
X697D01*
X677Y219D02*
Y258D01*
X573Y61D02*
X612D01*
X593Y42D02*
Y81D01*
X318Y61D02*
X357D01*
X337Y42D02*
Y81D01*
X573Y239D02*
X612D01*
X593Y219D02*
Y258D01*
X318Y239D02*
X357D01*
X337Y219D02*
Y258D01*
X2365Y1860D02*
X2405D01*
X2385Y1840D02*
Y1880D01*
X2365Y1760D02*
X2405D01*
X2385Y1740D02*
Y1780D01*
X2365Y1660D02*
X2405D01*
X2385Y1640D02*
Y1680D01*
X2465Y1860D02*
X2505D01*
X2485Y1840D02*
Y1880D01*
X2465Y1760D02*
X2505D01*
X2485Y1740D02*
Y1780D01*
X2465Y1660D02*
X2505D01*
X2485Y1640D02*
Y1680D01*
X2163Y1711D02*
X2202D01*
X2183Y1692D02*
Y1731D01*
X1908Y1711D02*
X1947D01*
X1927Y1692D02*
Y1731D01*
X2163Y1889D02*
X2202D01*
X2183Y1869D02*
Y1908D01*
X1908Y1889D02*
X1947D01*
X1927Y1869D02*
Y1908D01*
X420Y1732D02*
X460D01*
X440Y1712D02*
Y1752D01*
X420Y1850D02*
X460D01*
X440Y1830D02*
Y1870D01*
X302Y1887D02*
X342D01*
X322Y1867D02*
Y1907D01*
X538Y1887D02*
X578D01*
X558Y1867D02*
Y1907D01*
X140Y1470D02*
X180D01*
X160Y1450D02*
Y1490D01*
X140Y1588D02*
X180D01*
X160Y1568D02*
Y1608D01*
X22Y1625D02*
X62D01*
X42Y1605D02*
Y1645D01*
X258Y1625D02*
X298D01*
X278Y1605D02*
Y1645D01*
X332Y1275D02*
X368D01*
X350Y1257D02*
Y1293D01*
X232Y1275D02*
X268D01*
X250Y1257D02*
Y1293D01*
X132Y1275D02*
X168D01*
X150Y1257D02*
Y1293D01*
X2589Y540D02*
X2629D01*
X2609Y520D02*
Y560D01*
X2943Y540D02*
X2983D01*
X2963Y520D02*
Y560D01*
X2707Y385D02*
X2747D01*
X2727Y365D02*
Y405D01*
X2707Y503D02*
X2747D01*
X2727Y483D02*
Y523D01*
X2825Y385D02*
X2865D01*
X2845Y365D02*
Y405D01*
X2825Y503D02*
X2865D01*
X2845Y483D02*
Y523D01*
X2585Y905D02*
X2625D01*
X2605Y885D02*
Y925D01*
X2939Y905D02*
X2979D01*
X2959Y885D02*
Y925D01*
X2703Y750D02*
X2743D01*
X2723Y730D02*
Y770D01*
X2703Y868D02*
X2743D01*
X2723Y848D02*
Y888D01*
X2821Y750D02*
X2861D01*
X2841Y730D02*
Y770D01*
X2821Y868D02*
X2861D01*
X2841Y848D02*
Y888D01*
X2585Y1270D02*
X2625D01*
X2605Y1250D02*
Y1290D01*
X2939Y1270D02*
X2979D01*
X2959Y1250D02*
Y1290D01*
X2703Y1115D02*
X2743D01*
X2723Y1095D02*
Y1135D01*
X2703Y1233D02*
X2743D01*
X2723Y1213D02*
Y1253D01*
X2821Y1115D02*
X2861D01*
X2841Y1095D02*
Y1135D01*
X2821Y1233D02*
X2861D01*
X2841Y1213D02*
Y1253D01*
X87Y150D02*
X213D01*
X150Y87D02*
Y213D01*
X2787Y150D02*
X2913D01*
X2850Y87D02*
Y213D01*
X2787Y1850D02*
X2913D01*
X2850Y1787D02*
Y1913D01*
X87Y1850D02*
X213D01*
X150Y1787D02*
Y1913D01*
X2820Y1605D02*
X2860D01*
X2840Y1585D02*
Y1625D01*
X2820Y1487D02*
X2860D01*
X2840Y1467D02*
Y1507D01*
X2702Y1605D02*
X2742D01*
X2722Y1585D02*
Y1625D01*
X2702Y1487D02*
X2742D01*
X2722Y1467D02*
Y1507D01*
X2938Y1642D02*
X2978D01*
X2958Y1622D02*
Y1662D01*
X2584Y1642D02*
X2624D01*
X2604Y1622D02*
Y1662D01*
X1255Y1355D02*
X1265D01*
X1260Y1350D02*
Y1360D01*
X1310Y1335D02*
X1320D01*
X1315Y1330D02*
Y1340D01*
X1100Y80D02*
X1110D01*
X1105Y75D02*
Y85D01*
X1475Y1765D02*
X1485D01*
X1480Y1760D02*
Y1770D01*
X1475Y1815D02*
X1485D01*
X1480Y1810D02*
Y1820D01*
X815Y1280D02*
X825D01*
X820Y1275D02*
Y1285D01*
X1345Y1370D02*
X1355D01*
X1350Y1365D02*
Y1375D01*
X705Y1225D02*
X715D01*
X710Y1220D02*
Y1230D01*
X705Y1275D02*
X715D01*
X710Y1270D02*
Y1280D01*
X1875Y855D02*
X1885D01*
X1880Y850D02*
Y860D01*
X1675Y665D02*
X1685D01*
X1680Y660D02*
Y670D01*
X1815Y800D02*
X1825D01*
X1820Y795D02*
Y805D01*
X1845Y825D02*
X1855D01*
X1850Y820D02*
Y830D01*
X1939Y914D02*
X1949D01*
X1944Y909D02*
Y919D01*
X1905Y885D02*
X1915D01*
X1910Y880D02*
Y890D01*
X1785Y770D02*
X1795D01*
X1790Y765D02*
Y775D01*
X1720Y705D02*
X1730D01*
X1725Y700D02*
Y710D01*
X1900Y50D02*
X1910D01*
X1905Y45D02*
Y55D01*
X1770Y50D02*
X1780D01*
X1775Y45D02*
Y55D01*
X1640Y50D02*
X1650D01*
X1645Y45D02*
Y55D01*
X1510Y50D02*
X1520D01*
X1515Y45D02*
Y55D01*
X1325Y435D02*
X1335D01*
X1330Y430D02*
Y440D01*
X1275Y435D02*
X1285D01*
X1280Y430D02*
Y440D01*
X1225Y435D02*
X1235D01*
X1230Y430D02*
Y440D01*
X1175Y435D02*
X1185D01*
X1180Y430D02*
Y440D01*
X2215Y915D02*
X2225D01*
X2220Y910D02*
Y920D01*
X1900Y1115D02*
X1910D01*
X1905Y1110D02*
Y1120D01*
%TF.MD5,38d8674985116397142e70436c4d3f80*%
M02*
