G04*
G04 #@! TF.GenerationSoftware,Altium Limited,Altium Designer,19.1.8 (144)*
G04*
G04 Layer_Color=65535*
%FSLAX23Y23*%
%MOIN*%
G70*
G01*
G75*
%ADD10C,0.010*%
%ADD11C,0.008*%
%ADD12C,0.002*%
%ADD13C,0.010*%
%ADD14C,0.024*%
%ADD15C,0.005*%
%ADD16C,0.004*%
D10*
X818Y255D02*
G03*
X818Y255I-5J0D01*
G01*
X2972Y1285D02*
G03*
X2972Y1285I-5J0D01*
G01*
X1102Y977D02*
G03*
X1102Y977I-5J0D01*
G01*
D11*
X2197Y1816D02*
G03*
X2197Y1816I-4J0D01*
G01*
X2637Y1814D02*
G03*
X2637Y1814I-4J0D01*
G01*
X2009Y320D02*
G03*
X2009Y320I-4J0D01*
G01*
X2352Y58D02*
G03*
X2352Y58I-4J0D01*
G01*
X878Y47D02*
X941D01*
X878Y243D02*
X941D01*
Y47D02*
Y243D01*
X878Y47D02*
Y243D01*
X35Y673D02*
X235D01*
X35D02*
Y987D01*
X235D01*
Y673D02*
Y987D01*
X2309Y903D02*
Y907D01*
X2361Y903D02*
Y907D01*
X1754Y528D02*
X1757Y531D01*
X1723Y559D02*
X1726Y562D01*
X1689Y558D02*
X1692Y561D01*
X1658Y589D02*
X1661Y592D01*
X2439Y788D02*
Y792D01*
X2391Y788D02*
Y792D01*
X2475Y655D02*
X2575D01*
X2475D02*
Y955D01*
X2575D01*
Y655D02*
Y955D01*
X2178Y826D02*
X2302D01*
Y634D02*
Y826D01*
X2178Y634D02*
X2302D01*
X2178D02*
Y826D01*
X2661Y1482D02*
X2879D01*
X2661Y1238D02*
Y1482D01*
Y1238D02*
X2879D01*
Y1482D01*
X2910Y1634D02*
Y1646D01*
X2870Y1634D02*
Y1646D01*
X2910D01*
X2770Y1634D02*
Y1646D01*
X2730Y1634D02*
Y1646D01*
X2770D01*
X2630Y1633D02*
Y1645D01*
X2590Y1633D02*
Y1645D01*
X2630D01*
X2490Y1633D02*
Y1645D01*
X2450Y1633D02*
Y1645D01*
X2490D01*
X1500Y646D02*
X1854Y1000D01*
X1146D02*
X1500Y1354D01*
X1854Y1000D01*
X1146D02*
X1500Y646D01*
D12*
X2116Y835D02*
G03*
X2116Y835I-6J0D01*
G01*
D13*
X195Y1185D02*
G03*
X195Y1185I-5J0D01*
G01*
X2691Y32D02*
Y223D01*
X2429Y295D02*
X2691D01*
X2429Y32D02*
Y223D01*
Y32D02*
X2691D01*
X2709Y370D02*
Y561D01*
Y298D02*
X2971D01*
Y370D02*
Y561D01*
X2709D02*
X2971D01*
X285Y30D02*
X665D01*
X285Y109D02*
Y320D01*
X665D01*
Y109D02*
Y320D01*
X1500Y1970D02*
X1880D01*
Y1680D02*
Y1891D01*
X1500Y1680D02*
X1880D01*
X1500D02*
Y1891D01*
X1095Y1970D02*
X1475D01*
Y1680D02*
Y1891D01*
X1095Y1680D02*
X1475D01*
X1095D02*
Y1891D01*
X2591Y881D02*
X2971D01*
X2591Y960D02*
Y1171D01*
X2971D01*
Y960D02*
Y1171D01*
X2591Y576D02*
X2971D01*
X2591Y655D02*
Y866D01*
X2971D01*
Y655D02*
Y866D01*
X220Y1135D02*
Y1515D01*
X31Y1135D02*
Y1515D01*
X220D01*
X31Y1135D02*
X220D01*
X690Y1970D02*
X1070D01*
Y1680D02*
Y1891D01*
X690Y1680D02*
X1070D01*
X690D02*
Y1891D01*
X284Y1679D02*
Y1890D01*
Y1679D02*
X664D01*
Y1890D01*
X284Y1969D02*
X664D01*
X2150Y420D02*
Y415D01*
X2160Y405D01*
X2170Y415D01*
Y420D01*
X2160Y405D02*
Y390D01*
X2180D02*
X2190D01*
X2185D01*
Y420D01*
X2180Y415D01*
X750Y305D02*
Y280D01*
X755Y275D01*
X765D01*
X770Y280D01*
Y305D01*
X780Y300D02*
X785Y305D01*
X795D01*
X800Y300D01*
Y295D01*
X795Y290D01*
X790D01*
X795D01*
X800Y285D01*
Y280D01*
X795Y275D01*
X785D01*
X780Y280D01*
X2200Y805D02*
Y780D01*
X2205Y775D01*
X2215D01*
X2220Y780D01*
Y805D01*
X2250Y775D02*
X2230D01*
X2250Y795D01*
Y800D01*
X2245Y805D01*
X2235D01*
X2230Y800D01*
X1475Y1425D02*
Y1400D01*
X1480Y1395D01*
X1490D01*
X1495Y1400D01*
Y1425D01*
X1505Y1395D02*
X1515D01*
X1510D01*
Y1425D01*
X1505Y1420D01*
X2038Y1951D02*
X2033Y1956D01*
X2023D01*
X2018Y1951D01*
Y1946D01*
X2023Y1941D01*
X2033D01*
X2038Y1936D01*
Y1931D01*
X2033Y1926D01*
X2023D01*
X2018Y1931D01*
X2048Y1956D02*
Y1926D01*
X2058Y1936D01*
X2068Y1926D01*
Y1956D01*
X2078D02*
X2098D01*
Y1951D01*
X2078Y1931D01*
Y1926D01*
X2478Y1949D02*
X2473Y1954D01*
X2463D01*
X2458Y1949D01*
Y1944D01*
X2463Y1939D01*
X2473D01*
X2478Y1934D01*
Y1929D01*
X2473Y1924D01*
X2463D01*
X2458Y1929D01*
X2488Y1954D02*
Y1924D01*
X2498Y1934D01*
X2508Y1924D01*
Y1954D01*
X2538D02*
X2528Y1949D01*
X2518Y1939D01*
Y1929D01*
X2523Y1924D01*
X2533D01*
X2538Y1929D01*
Y1934D01*
X2533Y1939D01*
X2518D01*
X1945Y280D02*
X1940Y285D01*
X1930D01*
X1925Y280D01*
Y275D01*
X1930Y270D01*
X1940D01*
X1945Y265D01*
Y260D01*
X1940Y255D01*
X1930D01*
X1925Y260D01*
X1955Y285D02*
Y255D01*
X1965Y265D01*
X1975Y255D01*
Y285D01*
X2005D02*
X1985D01*
Y270D01*
X1995Y275D01*
X2000D01*
X2005Y270D01*
Y260D01*
X2000Y255D01*
X1990D01*
X1985Y260D01*
X2450Y1485D02*
X2445Y1490D01*
X2435D01*
X2430Y1485D01*
Y1480D01*
X2435Y1475D01*
X2445D01*
X2450Y1470D01*
Y1465D01*
X2445Y1460D01*
X2435D01*
X2430Y1465D01*
X2460Y1490D02*
Y1460D01*
X2470Y1470D01*
X2480Y1460D01*
Y1490D01*
X2490Y1460D02*
X2500D01*
X2495D01*
Y1490D01*
X2490Y1485D01*
X2515Y1475D02*
X2535D01*
X2560Y1460D02*
Y1490D01*
X2545Y1475D01*
X2565D01*
X2290Y1000D02*
Y1030D01*
X2305D01*
X2310Y1025D01*
Y1015D01*
X2305Y1010D01*
X2290D01*
X2300D02*
X2310Y1000D01*
X2320D02*
X2330D01*
X2325D01*
Y1030D01*
X2320Y1025D01*
X2345D02*
X2350Y1030D01*
X2360D01*
X2365Y1025D01*
Y1020D01*
X2360Y1015D01*
X2355D01*
X2360D01*
X2365Y1010D01*
Y1005D01*
X2360Y1000D01*
X2350D01*
X2345Y1005D01*
X2380Y870D02*
Y900D01*
X2395D01*
X2400Y895D01*
Y885D01*
X2395Y880D01*
X2380D01*
X2390D02*
X2400Y870D01*
X2410D02*
X2420D01*
X2415D01*
Y900D01*
X2410Y895D01*
X2455Y870D02*
X2435D01*
X2455Y890D01*
Y895D01*
X2450Y900D01*
X2440D01*
X2435Y895D01*
X1595Y470D02*
X1574Y491D01*
X1584Y502D01*
X1591Y502D01*
X1599Y495D01*
X1599Y488D01*
X1588Y477D01*
X1595Y484D02*
X1609Y484D01*
X1616Y491D02*
X1623Y498D01*
X1620Y495D01*
X1599Y516D01*
Y509D01*
X1634D02*
X1641Y516D01*
X1637Y512D01*
X1616Y534D01*
Y527D01*
X1655Y435D02*
X1634Y456D01*
X1644Y467D01*
X1651Y467D01*
X1659Y460D01*
X1659Y453D01*
X1648Y442D01*
X1655Y449D02*
X1669Y449D01*
X1676Y456D02*
X1683Y463D01*
X1680Y460D01*
X1659Y481D01*
Y474D01*
X1676Y492D02*
Y499D01*
X1683Y506D01*
X1690D01*
X1704Y492D01*
X1704Y484D01*
X1697Y477D01*
X1690D01*
X1676Y492D01*
X30Y1010D02*
Y1040D01*
X45D01*
X50Y1035D01*
Y1025D01*
X45Y1020D01*
X30D01*
X60Y1035D02*
X65Y1040D01*
X75D01*
X80Y1035D01*
Y1030D01*
X75Y1025D01*
X70D01*
X75D01*
X80Y1020D01*
Y1015D01*
X75Y1010D01*
X65D01*
X60Y1015D01*
X2475Y975D02*
Y1005D01*
X2490D01*
X2495Y1000D01*
Y990D01*
X2490Y985D01*
X2475D01*
X2525Y975D02*
X2505D01*
X2525Y995D01*
Y1000D01*
X2520Y1005D01*
X2510D01*
X2505Y1000D01*
X55Y1465D02*
Y1495D01*
X70D01*
X75Y1490D01*
Y1480D01*
X70Y1475D01*
X55D01*
X85Y1465D02*
X95D01*
X90D01*
Y1495D01*
X85Y1490D01*
X2860Y1530D02*
Y1560D01*
X2875D01*
X2880Y1555D01*
Y1545D01*
X2875Y1540D01*
X2860D01*
X2890Y1560D02*
Y1530D01*
X2900Y1540D01*
X2910Y1530D01*
Y1560D01*
X2920Y1530D02*
Y1560D01*
X2935D01*
X2940Y1555D01*
Y1545D01*
X2935Y1540D01*
X2920D01*
X2930D02*
X2940Y1530D01*
X2740Y1555D02*
X2735Y1560D01*
X2725D01*
X2720Y1555D01*
Y1535D01*
X2725Y1530D01*
X2735D01*
X2740Y1535D01*
X2750Y1530D02*
Y1550D01*
X2760Y1560D01*
X2770Y1550D01*
Y1530D01*
Y1545D01*
X2750D01*
X2780Y1530D02*
Y1560D01*
X2800Y1530D01*
Y1560D01*
X2580Y1559D02*
Y1529D01*
X2595D01*
X2600Y1534D01*
Y1554D01*
X2595Y1559D01*
X2580D01*
X2610D02*
Y1529D01*
X2625D01*
X2630Y1534D01*
Y1539D01*
X2625Y1544D01*
X2610D01*
X2625D01*
X2630Y1549D01*
Y1554D01*
X2625Y1559D01*
X2610D01*
X2460D02*
X2440D01*
Y1529D01*
X2460D01*
X2440Y1544D02*
X2450D01*
X2470Y1529D02*
Y1559D01*
X2485D01*
X2490Y1554D01*
Y1544D01*
X2485Y1539D01*
X2470D01*
X2480D02*
X2490Y1529D01*
X2500D02*
Y1559D01*
X2515D01*
X2520Y1554D01*
Y1544D01*
X2515Y1539D01*
X2500D01*
X2510D02*
X2520Y1529D01*
X330Y375D02*
Y345D01*
X350D01*
X380Y375D02*
X370Y370D01*
X360Y360D01*
Y350D01*
X365Y345D01*
X375D01*
X380Y350D01*
Y355D01*
X375Y360D01*
X360D01*
X1199Y1471D02*
X1220Y1450D01*
X1234Y1464D01*
X1241Y1471D02*
X1248Y1478D01*
X1245Y1475D01*
X1224Y1496D01*
Y1489D01*
X330Y295D02*
X320D01*
X325D01*
Y270D01*
X320Y265D01*
X315D01*
X310Y270D01*
X340D02*
X345Y265D01*
X355D01*
X360Y270D01*
Y290D01*
X355Y295D01*
X345D01*
X340Y290D01*
Y285D01*
X345Y280D01*
X360D01*
X2495Y273D02*
X2485D01*
X2490D01*
Y248D01*
X2485Y243D01*
X2480D01*
X2475Y248D01*
X2505Y268D02*
X2510Y273D01*
X2520D01*
X2525Y268D01*
Y263D01*
X2520Y258D01*
X2525Y253D01*
Y248D01*
X2520Y243D01*
X2510D01*
X2505Y248D01*
Y253D01*
X2510Y258D01*
X2505Y263D01*
Y268D01*
X2510Y258D02*
X2520D01*
X2750Y538D02*
X2740D01*
X2745D01*
Y513D01*
X2740Y508D01*
X2735D01*
X2730Y513D01*
X2760Y538D02*
X2780D01*
Y533D01*
X2760Y513D01*
Y508D01*
X1558Y1946D02*
X1548D01*
X1553D01*
Y1921D01*
X1548Y1916D01*
X1543D01*
X1538Y1921D01*
X1588Y1946D02*
X1578Y1941D01*
X1568Y1931D01*
Y1921D01*
X1573Y1916D01*
X1583D01*
X1588Y1921D01*
Y1926D01*
X1583Y1931D01*
X1568D01*
X1153Y1946D02*
X1143D01*
X1148D01*
Y1921D01*
X1143Y1916D01*
X1138D01*
X1133Y1921D01*
X1183Y1946D02*
X1163D01*
Y1931D01*
X1173Y1936D01*
X1178D01*
X1183Y1931D01*
Y1921D01*
X1178Y1916D01*
X1168D01*
X1163Y1921D01*
X748Y1946D02*
X738D01*
X743D01*
Y1921D01*
X738Y1916D01*
X733D01*
X728Y1921D01*
X773Y1916D02*
Y1946D01*
X758Y1931D01*
X778D01*
X342Y1945D02*
X332D01*
X337D01*
Y1920D01*
X332Y1915D01*
X327D01*
X322Y1920D01*
X352Y1940D02*
X357Y1945D01*
X367D01*
X372Y1940D01*
Y1935D01*
X367Y1930D01*
X362D01*
X367D01*
X372Y1925D01*
Y1920D01*
X367Y1915D01*
X357D01*
X352Y1920D01*
X2632Y845D02*
X2622D01*
X2627D01*
Y820D01*
X2622Y815D01*
X2617D01*
X2612Y820D01*
X2662Y815D02*
X2642D01*
X2662Y835D01*
Y840D01*
X2657Y845D01*
X2647D01*
X2642Y840D01*
X2632Y1150D02*
X2622D01*
X2627D01*
Y1125D01*
X2622Y1120D01*
X2617D01*
X2612Y1125D01*
X2642Y1120D02*
X2652D01*
X2647D01*
Y1150D01*
X2642Y1145D01*
X700Y78D02*
X695Y83D01*
X685D01*
X680Y78D01*
Y58D01*
X685Y53D01*
X695D01*
X700Y58D01*
X710Y53D02*
X720D01*
X715D01*
Y83D01*
X710Y78D01*
X735Y53D02*
X745D01*
X740D01*
Y83D01*
X735Y78D01*
X2055Y660D02*
X2050Y665D01*
X2040D01*
X2035Y660D01*
Y640D01*
X2040Y635D01*
X2050D01*
X2055Y640D01*
X2085Y665D02*
X2065D01*
Y650D01*
X2075Y655D01*
X2080D01*
X2085Y650D01*
Y640D01*
X2080Y635D01*
X2070D01*
X2065Y640D01*
X2305Y250D02*
X2300Y255D01*
X2290D01*
X2285Y250D01*
Y230D01*
X2290Y225D01*
X2300D01*
X2305Y230D01*
X2330Y225D02*
Y255D01*
X2315Y240D01*
X2335D01*
X876Y1082D02*
X869Y1082D01*
X862Y1075D01*
Y1068D01*
X876Y1054D01*
X884D01*
X891Y1061D01*
X891Y1068D01*
X884Y1089D02*
Y1096D01*
X891Y1103D01*
X898Y1103D01*
X901Y1099D01*
Y1092D01*
X898Y1089D01*
X901Y1092D01*
X908Y1092D01*
X912Y1089D01*
Y1082D01*
X905Y1075D01*
X898D01*
X966Y1072D02*
X959Y1072D01*
X952Y1065D01*
Y1058D01*
X966Y1044D01*
X974D01*
X981Y1051D01*
X981Y1058D01*
X1005Y1075D02*
X991Y1061D01*
Y1089D01*
X988Y1093D01*
X981Y1093D01*
X974Y1086D01*
Y1079D01*
X50Y1105D02*
X45Y1110D01*
X35D01*
X30Y1105D01*
Y1085D01*
X35Y1080D01*
X45D01*
X50Y1085D01*
X60Y1080D02*
X70D01*
X65D01*
Y1110D01*
X60Y1105D01*
D14*
X1214Y1000D02*
G03*
X1214Y1000I-12J0D01*
G01*
D15*
X2176Y1817D02*
Y1896D01*
X1979Y1975D02*
X2137D01*
X1940Y1817D02*
Y1896D01*
X1979Y1738D02*
X2137D01*
X2616Y1814D02*
Y1893D01*
X2419Y1972D02*
X2577D01*
X2380Y1814D02*
Y1893D01*
X2419Y1735D02*
X2577D01*
X1926Y303D02*
X2004D01*
X1847Y106D02*
Y264D01*
X1926Y67D02*
X2004D01*
X2083Y106D02*
Y264D01*
D16*
X2132Y28D02*
X2328D01*
X2132Y442D02*
X2328D01*
M02*
