M48
;Layer_Color=9474304
;FILE_FORMAT=2:3
INCH,LZ
;TYPE=PLATED
T1F00S00C0.010
T2F00S00C0.028
T3F00S00C0.035
T4F00S00C0.039
T5F00S00C0.040
T6F00S00C0.126
;TYPE=NON_PLATED
T7F00S00C0.040
%
T01
X01015Y00295
X0113Y0085
X01085Y00895
X01098Y01112
X01135Y0115
X01143Y01195
X0118Y01225
X0122Y01235
X0132Y01335
X0126Y015
X0089Y0116
X002Y01245
X01295Y00685
X0166Y0064
X02075Y0065
X01995Y00755
X01906Y0088
X01865Y01155
X0183Y0119
X02265Y00945
X02555Y01285
Y0134
Y0138
X02556Y01439
X0292Y01205
X02385Y00085
X0254Y017
X0268
X0282
X02965
X02245Y01765
X02247Y01945
T02
X001Y01225
X0015
Y01275
X001
Y01325
X0015
Y01375
X001
Y01425
X0015
T03
X02525Y00705
Y00805
Y00905
T04
X01876Y00057
X02054
Y00313
X01876
X0193Y01768
Y01945
X02186
Y01768
X0237Y01765
Y01942
X02626
Y01765
T05
X00416Y00116
X00534
Y00234
X00416
X00185Y0073
X00085
Y0083
Y0093
X00185
Y0083
X02722Y0078
X0284
Y00662
X02722
X0284Y00488
Y0037
X0256Y00223
Y00105
X02722Y00967
X0284
Y01085
X02722
X01749Y01766
X01631
Y01884
X01749
X01344
X01226
Y01766
X01344
X00939
X00821
Y01884
X00939
X00533Y01883
Y01765
X00415
Y01883
T06
X0015Y0015
X0285
Y0185
X0015
T07
X00298Y00079
X00652
X02442Y0026
X02678
X02722Y00333
X02958
X02958Y00625
Y0093
X02604
Y00625
X01867Y01921
X01513
X01462
X01108
X01057
X00703
X00651Y0192
X00297
M30
